;TYPE=PLATED
;Layer: PTH_Through_Via
;EasyEDA Pro v3.2.69, 2026-01-08 09:06:00
;Gerber Generator version 0.3
M48
METRIC,LZ,0000.00000
;Hole size 1 = 0.30500 METRIC
T01C0.30500
%
G05
G90
T01
X10.795Y5.69161
X9.56488Y3.556
X25.908Y4.953
X25.908Y3.556
X20.193Y4.191
X34.48356Y3.1329
X12.71588Y21.72595
X11.21601Y21.72595
X15.87501Y21.574
X14.53497Y24.77395
X27.178Y10.414
X27.178Y6.096
X13.716Y21.717
X18.542Y21.717
X17.78Y8.509
X14.712Y33.284
X28.067Y19.939
X35.16562Y4.81253
X7.747Y19.177
X7.112Y18.542
X10.35628Y18.12894
X15.65253Y2.83502
X14.5882Y3.63002
X6.14566Y50.495
X7.41566Y50.495
X8.68566Y50.495
X9.95566Y50.495
X11.22566Y50.495
X6.14566Y49.225
X7.41566Y49.225
X7.41566Y47.955
X11.557Y46.863
X10.36939Y46.863
X7.20001Y32.131
X8.636Y32.258
X17.69986Y25.781
X16.383Y10.922
M30