G04 Layer: DrillDrawingLayer*
G04 EasyEDA Pro v3.2.69, 2026-01-08 09:06:00*
G04 Gerber Generator version 0.3*
G04 Scale: 100 percent, Rotated: No, Reflected: No*
G04 Dimensions in millimeters*
G04 Leading zeros omitted, absolute positions, 4 integers and 5 decimals*
G04 Generated by one-click*
%FSLAX45Y45*%
%MOMM*%
%AMIconRect*4,1,4,0.28,-0.28,-0.28,-0.28,-0.28,0.28,0.28,0.28,0.28,-0.28,0*4,0,4,0.233333,-0.233333,0.233333,0.233333,-0.233333,0.233333,-0.233333,-0.233333,0.233333,-0.233333,0*%
%AMIconTriangle*4,1,3,-0.339593,0.240473,0.339593,0.240473,0,-0.37884,-0.339593,0.240473,0*4,0,3,-0.265673,0.19404,0,-0.27342,0.266233,0.19404,-0.265673,0.19404,0*%
%AMIconStar6*4,1,12,0.12068,0.20888,0.298527,0.172713,0.241313,0,0.298527,-0.17206,0.12068,-0.208227,0,-0.344073,-0.120073,-0.208227,-0.298573,-0.17206,-0.240707,0,-0.298573,0.17206,-0.120073,0.20888,0,0.344073,0.12068,0.20888,0*4,0,12,-0.000467,0.273467,-0.090067,0.171733,-0.237533,0.136733,-0.193667,-0.007467,-0.237533,-0.1372,-0.090067,-0.171733,-0.000467,-0.273933,0.090067,-0.171733,0.237533,-0.1372,0.194133,0.007,0.237533,0.1372,0.090067,0.171267,-0.000467,0.273467,0*%
%AMIconStar4*4,1,8,-0.311733,0.311733,0,0.202533,0.311733,0.311733,0.202533,0,0.311733,-0.311733,0,-0.202533,-0.304407,-0.311733,-0.202533,0,-0.311733,0.311733,0*4,0,8,0.233333,-0.233333,0.1512,0,0.233333,0.233333,0,0.1512,-0.233333,0.233333,-0.1512,0,-0.233333,-0.233333,0,-0.1512,0.233333,-0.233333,0*%
%ADD10IconRect*%
%ADD11C,0.616X0.522667*%
%ADD12IconTriangle*%
%ADD13IconStar6*%
%ADD14IconStar4*%
%ADD15C,0.2032*%
%ADD16C,0.254*%
G75*


G04 Drill Drawing Start*
G54D10*
G01X1542494Y1449988D03*
G01X1542494Y1749987D03*
G54D11*
G01X525000Y4675000D03*
G01X2300000Y1050000D03*
G01X4075000Y4675000D03*
G54D12*
G01X1867999Y4672490D03*
G01X1867999Y5052509D03*
G01X2731996Y4672490D03*
G01X2731996Y5052509D03*
G54D13*
G01X292101Y1998602D03*
G01X292101Y1198601D03*
G01X292101Y1398600D03*
G01X292101Y1598600D03*
G01X292101Y1798602D03*
G01X292101Y998601D03*
G54D14*
G01X614566Y4922500D03*
G01X614566Y5049500D03*
G01X711200Y1854200D03*
G01X720001Y3213100D03*
G01X741566Y4795500D03*
G01X741566Y4922500D03*
G01X741566Y5049500D03*
G01X774700Y1917700D03*
G01X863600Y3225800D03*
G01X868566Y5049500D03*
G01X956488Y355600D03*
G01X995566Y5049500D03*
G01X1035628Y1812894D03*
G01X1036939Y4686300D03*
G01X1079500Y569161D03*
G01X1121601Y2172595D03*
G01X1122566Y5049500D03*
G01X1155700Y4686300D03*
G01X1271588Y2172595D03*
G01X1371600Y2171700D03*
G01X1453497Y2477395D03*
G01X1458820Y363002D03*
G01X1471200Y3328400D03*
G01X1565253Y283502D03*
G01X1587501Y2157400D03*
G01X1638300Y1092200D03*
G01X1769986Y2578100D03*
G01X1778000Y850900D03*
G01X1854200Y2171700D03*
G01X2019300Y419100D03*
G01X2590800Y355600D03*
G01X2590800Y495300D03*
G01X2717800Y609600D03*
G01X2717800Y1041400D03*
G01X2806700Y1993900D03*
G01X3448356Y313290D03*
G01X3516562Y481253D03*
G04 Drill Drawing End*

G04 Text Start*
G54D15*
G01X6900446Y4978294D02*
G01X6900446Y4858152D01*
G01X6900446Y4978294D02*
G01X6946166Y4858152D01*
G01X6991886Y4978294D02*
G01X6946166Y4858152D01*
G01X6991886Y4978294D02*
G01X6991886Y4858152D01*
G01X7108218Y4938162D02*
G01X7108218Y4858152D01*
G01X7108218Y4921144D02*
G01X7096788Y4932574D01*
G01X7085358Y4938162D01*
G01X7068340Y4938162D01*
G01X7056910Y4932574D01*
G01X7045480Y4921144D01*
G01X7039638Y4903872D01*
G01X7039638Y4892442D01*
G01X7045480Y4875424D01*
G01X7056910Y4863994D01*
G01X7068340Y4858152D01*
G01X7085358Y4858152D01*
G01X7096788Y4863994D01*
G01X7108218Y4875424D01*
G01X7155970Y4938162D02*
G01X7155970Y4858152D01*
G01X7155970Y4903872D02*
G01X7161812Y4921144D01*
G01X7173242Y4932574D01*
G01X7184672Y4938162D01*
G01X7201690Y4938162D01*
G01X7249442Y4978294D02*
G01X7249442Y4858152D01*
G01X7306592Y4938162D02*
G01X7249442Y4881012D01*
G01X7272302Y4903872D02*
G01X7312434Y4858152D01*
G01X8437726Y4949592D02*
G01X8431884Y4961022D01*
G01X8420454Y4972452D01*
G01X8409024Y4978294D01*
G01X8386164Y4978294D01*
G01X8374734Y4972452D01*
G01X8363304Y4961022D01*
G01X8357716Y4949592D01*
G01X8351874Y4932574D01*
G01X8351874Y4903872D01*
G01X8357716Y4886854D01*
G01X8363304Y4875424D01*
G01X8374734Y4863994D01*
G01X8386164Y4858152D01*
G01X8409024Y4858152D01*
G01X8420454Y4863994D01*
G01X8431884Y4875424D01*
G01X8437726Y4886854D01*
G01X8514180Y4938162D02*
G01X8502750Y4932574D01*
G01X8491320Y4921144D01*
G01X8485478Y4903872D01*
G01X8485478Y4892442D01*
G01X8491320Y4875424D01*
G01X8502750Y4863994D01*
G01X8514180Y4858152D01*
G01X8531198Y4858152D01*
G01X8542628Y4863994D01*
G01X8554058Y4875424D01*
G01X8559900Y4892442D01*
G01X8559900Y4903872D01*
G01X8554058Y4921144D01*
G01X8542628Y4932574D01*
G01X8531198Y4938162D01*
G01X8514180Y4938162D01*
G01X8607652Y4938162D02*
G01X8607652Y4881012D01*
G01X8613494Y4863994D01*
G01X8624924Y4858152D01*
G01X8641942Y4858152D01*
G01X8653372Y4863994D01*
G01X8670644Y4881012D01*
G01X8670644Y4938162D02*
G01X8670644Y4858152D01*
G01X8718396Y4938162D02*
G01X8718396Y4858152D01*
G01X8718396Y4915302D02*
G01X8735668Y4932574D01*
G01X8747098Y4938162D01*
G01X8764116Y4938162D01*
G01X8775546Y4932574D01*
G01X8781388Y4915302D01*
G01X8781388Y4858152D01*
G01X8846412Y4978294D02*
G01X8846412Y4881012D01*
G01X8852000Y4863994D01*
G01X8863430Y4858152D01*
G01X8874860Y4858152D01*
G01X8829140Y4938162D02*
G01X8869272Y4938162D01*
G01X9846047Y4961022D02*
G01X9834617Y4972452D01*
G01X9817599Y4978294D01*
G01X9794739Y4978294D01*
G01X9777467Y4972452D01*
G01X9766037Y4961022D01*
G01X9766037Y4949592D01*
G01X9771879Y4938162D01*
G01X9777467Y4932574D01*
G01X9788897Y4926732D01*
G01X9823187Y4915302D01*
G01X9834617Y4909714D01*
G01X9840459Y4903872D01*
G01X9846047Y4892442D01*
G01X9846047Y4875424D01*
G01X9834617Y4863994D01*
G01X9817599Y4858152D01*
G01X9794739Y4858152D01*
G01X9777467Y4863994D01*
G01X9766037Y4875424D01*
G01X9893799Y4978294D02*
G01X9899641Y4972452D01*
G01X9905229Y4978294D01*
G01X9899641Y4983882D01*
G01X9893799Y4978294D01*
G01X9899641Y4938162D02*
G01X9899641Y4858152D01*
G01X10015973Y4938162D02*
G01X9952981Y4858152D01*
G01X9952981Y4938162D02*
G01X10015973Y4938162D01*
G01X9952981Y4858152D02*
G01X10015973Y4858152D01*
G01X10063725Y4903872D02*
G01X10132305Y4903872D01*
G01X10132305Y4915302D01*
G01X10126717Y4926732D01*
G01X10120875Y4932574D01*
G01X10109445Y4938162D01*
G01X10092427Y4938162D01*
G01X10080997Y4932574D01*
G01X10069567Y4921144D01*
G01X10063725Y4903872D01*
G01X10063725Y4892442D01*
G01X10069567Y4875424D01*
G01X10080997Y4863994D01*
G01X10092427Y4858152D01*
G01X10109445Y4858152D01*
G01X10120875Y4863994D01*
G01X10132305Y4875424D01*
G01X13660003Y4978294D02*
G01X13660003Y4858152D01*
G01X13660003Y4978294D02*
G01X13711565Y4978294D01*
G01X13728583Y4972452D01*
G01X13734425Y4966864D01*
G01X13740013Y4955434D01*
G01X13740013Y4938162D01*
G01X13734425Y4926732D01*
G01X13728583Y4921144D01*
G01X13711565Y4915302D01*
G01X13660003Y4915302D01*
G01X13787765Y4978294D02*
G01X13787765Y4858152D01*
G01X13904097Y4938162D02*
G01X13904097Y4858152D01*
G01X13904097Y4921144D02*
G01X13892667Y4932574D01*
G01X13881237Y4938162D01*
G01X13864219Y4938162D01*
G01X13852789Y4932574D01*
G01X13841359Y4921144D01*
G01X13835517Y4903872D01*
G01X13835517Y4892442D01*
G01X13841359Y4875424D01*
G01X13852789Y4863994D01*
G01X13864219Y4858152D01*
G01X13881237Y4858152D01*
G01X13892667Y4863994D01*
G01X13904097Y4875424D01*
G01X13969121Y4978294D02*
G01X13969121Y4881012D01*
G01X13974709Y4863994D01*
G01X13986139Y4858152D01*
G01X13997569Y4858152D01*
G01X13951849Y4938162D02*
G01X13991981Y4938162D01*
G01X14045321Y4903872D02*
G01X14113901Y4903872D01*
G01X14113901Y4915302D01*
G01X14108313Y4926732D01*
G01X14102471Y4932574D01*
G01X14091041Y4938162D01*
G01X14074023Y4938162D01*
G01X14062593Y4932574D01*
G01X14051163Y4921144D01*
G01X14045321Y4903872D01*
G01X14045321Y4892442D01*
G01X14051163Y4875424D01*
G01X14062593Y4863994D01*
G01X14074023Y4858152D01*
G01X14091041Y4858152D01*
G01X14102471Y4863994D01*
G01X14113901Y4875424D01*
G01X14230233Y4978294D02*
G01X14230233Y4858152D01*
G01X14230233Y4921144D02*
G01X14218803Y4932574D01*
G01X14207373Y4938162D01*
G01X14190355Y4938162D01*
G01X14178925Y4932574D01*
G01X14167495Y4921144D01*
G01X14161653Y4903872D01*
G01X14161653Y4892442D01*
G01X14167495Y4875424D01*
G01X14178925Y4863994D01*
G01X14190355Y4858152D01*
G01X14207373Y4858152D01*
G01X14218803Y4863994D01*
G01X14230233Y4875424D01*
G01X15201420Y4961022D02*
G01X15189990Y4972452D01*
G01X15172972Y4978294D01*
G01X15150112Y4978294D01*
G01X15132840Y4972452D01*
G01X15121410Y4961022D01*
G01X15121410Y4949592D01*
G01X15127252Y4938162D01*
G01X15132840Y4932574D01*
G01X15144270Y4926732D01*
G01X15178560Y4915302D01*
G01X15189990Y4909714D01*
G01X15195832Y4903872D01*
G01X15201420Y4892442D01*
G01X15201420Y4875424D01*
G01X15189990Y4863994D01*
G01X15172972Y4858152D01*
G01X15150112Y4858152D01*
G01X15132840Y4863994D01*
G01X15121410Y4875424D01*
G01X15249172Y4978294D02*
G01X15249172Y4858152D01*
G01X15249172Y4915302D02*
G01X15266444Y4932574D01*
G01X15277874Y4938162D01*
G01X15294892Y4938162D01*
G01X15306322Y4932574D01*
G01X15312164Y4915302D01*
G01X15312164Y4858152D01*
G01X15428496Y4938162D02*
G01X15428496Y4858152D01*
G01X15428496Y4921144D02*
G01X15417066Y4932574D01*
G01X15405636Y4938162D01*
G01X15388618Y4938162D01*
G01X15377188Y4932574D01*
G01X15365758Y4921144D01*
G01X15359916Y4903872D01*
G01X15359916Y4892442D01*
G01X15365758Y4875424D01*
G01X15377188Y4863994D01*
G01X15388618Y4858152D01*
G01X15405636Y4858152D01*
G01X15417066Y4863994D01*
G01X15428496Y4875424D01*
G01X15476248Y4938162D02*
G01X15476248Y4818274D01*
G01X15476248Y4921144D02*
G01X15487678Y4932574D01*
G01X15499108Y4938162D01*
G01X15516380Y4938162D01*
G01X15527810Y4932574D01*
G01X15539240Y4921144D01*
G01X15544828Y4903872D01*
G01X15544828Y4892442D01*
G01X15539240Y4875424D01*
G01X15527810Y4863994D01*
G01X15516380Y4858152D01*
G01X15499108Y4858152D01*
G01X15487678Y4863994D01*
G01X15476248Y4875424D01*
G01X15592580Y4903872D02*
G01X15661160Y4903872D01*
G01X15661160Y4915302D01*
G01X15655572Y4926732D01*
G01X15649730Y4932574D01*
G01X15638300Y4938162D01*
G01X15621282Y4938162D01*
G01X15609852Y4932574D01*
G01X15598422Y4921144D01*
G01X15592580Y4903872D01*
G01X15592580Y4892442D01*
G01X15598422Y4875424D01*
G01X15609852Y4863994D01*
G01X15621282Y4858152D01*
G01X15638300Y4858152D01*
G01X15649730Y4863994D01*
G01X15661160Y4875424D01*
G01X16552591Y4978294D02*
G01X16598311Y4858152D01*
G01X16644031Y4978294D02*
G01X16598311Y4858152D01*
G01X16691783Y4978294D02*
G01X16697625Y4972452D01*
G01X16703213Y4978294D01*
G01X16697625Y4983882D01*
G01X16691783Y4978294D01*
G01X16697625Y4938162D02*
G01X16697625Y4858152D01*
G01X16819545Y4938162D02*
G01X16819545Y4858152D01*
G01X16819545Y4921144D02*
G01X16808115Y4932574D01*
G01X16796685Y4938162D01*
G01X16779667Y4938162D01*
G01X16768237Y4932574D01*
G01X16756807Y4921144D01*
G01X16750965Y4903872D01*
G01X16750965Y4892442D01*
G01X16756807Y4875424D01*
G01X16768237Y4863994D01*
G01X16779667Y4858152D01*
G01X16796685Y4858152D01*
G01X16808115Y4863994D01*
G01X16819545Y4875424D01*
G01X16970167Y5001154D02*
G01X16867297Y4818274D01*
G01X17017919Y4978294D02*
G01X17017919Y4858152D01*
G01X17017919Y4978294D02*
G01X17069481Y4978294D01*
G01X17086499Y4972452D01*
G01X17092341Y4966864D01*
G01X17097929Y4955434D01*
G01X17097929Y4938162D01*
G01X17092341Y4926732D01*
G01X17086499Y4921144D01*
G01X17069481Y4915302D01*
G01X17017919Y4915302D01*
G01X17214261Y4938162D02*
G01X17214261Y4858152D01*
G01X17214261Y4921144D02*
G01X17202831Y4932574D01*
G01X17191401Y4938162D01*
G01X17174383Y4938162D01*
G01X17162953Y4932574D01*
G01X17151523Y4921144D01*
G01X17145681Y4903872D01*
G01X17145681Y4892442D01*
G01X17151523Y4875424D01*
G01X17162953Y4863994D01*
G01X17174383Y4858152D01*
G01X17191401Y4858152D01*
G01X17202831Y4863994D01*
G01X17214261Y4875424D01*
G01X17330593Y4978294D02*
G01X17330593Y4858152D01*
G01X17330593Y4921144D02*
G01X17319163Y4932574D01*
G01X17307733Y4938162D01*
G01X17290715Y4938162D01*
G01X17279285Y4932574D01*
G01X17267855Y4921144D01*
G01X17262013Y4903872D01*
G01X17262013Y4892442D01*
G01X17267855Y4875424D01*
G01X17279285Y4863994D01*
G01X17290715Y4858152D01*
G01X17307733Y4858152D01*
G01X17319163Y4863994D01*
G01X17330593Y4875424D01*
G01X18221770Y4978294D02*
G01X18221770Y4858152D01*
G01X18221770Y4978294D02*
G01X18273332Y4978294D01*
G01X18290350Y4972452D01*
G01X18296192Y4966864D01*
G01X18301780Y4955434D01*
G01X18301780Y4938162D01*
G01X18296192Y4926732D01*
G01X18290350Y4921144D01*
G01X18273332Y4915302D01*
G01X18221770Y4915302D01*
G01X18418112Y4938162D02*
G01X18418112Y4858152D01*
G01X18418112Y4921144D02*
G01X18406682Y4932574D01*
G01X18395252Y4938162D01*
G01X18378234Y4938162D01*
G01X18366804Y4932574D01*
G01X18355374Y4921144D01*
G01X18349532Y4903872D01*
G01X18349532Y4892442D01*
G01X18355374Y4875424D01*
G01X18366804Y4863994D01*
G01X18378234Y4858152D01*
G01X18395252Y4858152D01*
G01X18406682Y4863994D01*
G01X18418112Y4875424D01*
G01X18534444Y4978294D02*
G01X18534444Y4858152D01*
G01X18534444Y4921144D02*
G01X18523014Y4932574D01*
G01X18511584Y4938162D01*
G01X18494566Y4938162D01*
G01X18483136Y4932574D01*
G01X18471706Y4921144D01*
G01X18465864Y4903872D01*
G01X18465864Y4892442D01*
G01X18471706Y4875424D01*
G01X18483136Y4863994D01*
G01X18494566Y4858152D01*
G01X18511584Y4858152D01*
G01X18523014Y4863994D01*
G01X18534444Y4875424D01*
G01X18790222Y4961022D02*
G01X18778792Y4972452D01*
G01X18761774Y4978294D01*
G01X18738914Y4978294D01*
G01X18721642Y4972452D01*
G01X18710212Y4961022D01*
G01X18710212Y4949592D01*
G01X18716054Y4938162D01*
G01X18721642Y4932574D01*
G01X18733072Y4926732D01*
G01X18767362Y4915302D01*
G01X18778792Y4909714D01*
G01X18784634Y4903872D01*
G01X18790222Y4892442D01*
G01X18790222Y4875424D01*
G01X18778792Y4863994D01*
G01X18761774Y4858152D01*
G01X18738914Y4858152D01*
G01X18721642Y4863994D01*
G01X18710212Y4875424D01*
G01X18837974Y4978294D02*
G01X18837974Y4858152D01*
G01X18837974Y4915302D02*
G01X18855246Y4932574D01*
G01X18866676Y4938162D01*
G01X18883694Y4938162D01*
G01X18895124Y4932574D01*
G01X18900966Y4915302D01*
G01X18900966Y4858152D01*
G01X19017298Y4938162D02*
G01X19017298Y4858152D01*
G01X19017298Y4921144D02*
G01X19005868Y4932574D01*
G01X18994438Y4938162D01*
G01X18977420Y4938162D01*
G01X18965990Y4932574D01*
G01X18954560Y4921144D01*
G01X18948718Y4903872D01*
G01X18948718Y4892442D01*
G01X18954560Y4875424D01*
G01X18965990Y4863994D01*
G01X18977420Y4858152D01*
G01X18994438Y4858152D01*
G01X19005868Y4863994D01*
G01X19017298Y4875424D01*
G01X19065050Y4938162D02*
G01X19065050Y4818274D01*
G01X19065050Y4921144D02*
G01X19076480Y4932574D01*
G01X19087910Y4938162D01*
G01X19105182Y4938162D01*
G01X19116612Y4932574D01*
G01X19128042Y4921144D01*
G01X19133630Y4903872D01*
G01X19133630Y4892442D01*
G01X19128042Y4875424D01*
G01X19116612Y4863994D01*
G01X19105182Y4858152D01*
G01X19087910Y4858152D01*
G01X19076480Y4863994D01*
G01X19065050Y4875424D01*
G01X19181382Y4903872D02*
G01X19249962Y4903872D01*
G01X19249962Y4915302D01*
G01X19244374Y4926732D01*
G01X19238532Y4932574D01*
G01X19227102Y4938162D01*
G01X19210084Y4938162D01*
G01X19198654Y4932574D01*
G01X19187224Y4921144D01*
G01X19181382Y4903872D01*
G01X19181382Y4892442D01*
G01X19187224Y4875424D01*
G01X19198654Y4863994D01*
G01X19210084Y4858152D01*
G01X19227102Y4858152D01*
G01X19238532Y4863994D01*
G01X19249962Y4875424D01*
G01X20141139Y4978294D02*
G01X20141139Y4858152D01*
G01X20141139Y4858152D02*
G01X20209719Y4858152D01*
G01X20326051Y4938162D02*
G01X20326051Y4858152D01*
G01X20326051Y4921144D02*
G01X20314621Y4932574D01*
G01X20303191Y4938162D01*
G01X20286173Y4938162D01*
G01X20274743Y4932574D01*
G01X20263313Y4921144D01*
G01X20257471Y4903872D01*
G01X20257471Y4892442D01*
G01X20263313Y4875424D01*
G01X20274743Y4863994D01*
G01X20286173Y4858152D01*
G01X20303191Y4858152D01*
G01X20314621Y4863994D01*
G01X20326051Y4875424D01*
G01X20379645Y4938162D02*
G01X20413935Y4858152D01*
G01X20448225Y4938162D02*
G01X20413935Y4858152D01*
G01X20402505Y4835292D01*
G01X20391075Y4823862D01*
G01X20379645Y4818274D01*
G01X20373803Y4818274D01*
G01X20495977Y4903872D02*
G01X20564557Y4903872D01*
G01X20564557Y4915302D01*
G01X20558969Y4926732D01*
G01X20553127Y4932574D01*
G01X20541697Y4938162D01*
G01X20524679Y4938162D01*
G01X20513249Y4932574D01*
G01X20501819Y4921144D01*
G01X20495977Y4903872D01*
G01X20495977Y4892442D01*
G01X20501819Y4875424D01*
G01X20513249Y4863994D01*
G01X20524679Y4858152D01*
G01X20541697Y4858152D01*
G01X20553127Y4863994D01*
G01X20564557Y4875424D01*
G01X20612309Y4938162D02*
G01X20612309Y4858152D01*
G01X20612309Y4903872D02*
G01X20618151Y4921144D01*
G01X20629581Y4932574D01*
G01X20641011Y4938162D01*
G01X20658029Y4938162D01*
G01X20833797Y4978294D02*
G01X20833797Y4858152D01*
G01X20833797Y4978294D02*
G01X20885359Y4978294D01*
G01X20902377Y4972452D01*
G01X20908219Y4966864D01*
G01X20913807Y4955434D01*
G01X20913807Y4938162D01*
G01X20908219Y4926732D01*
G01X20902377Y4921144D01*
G01X20885359Y4915302D01*
G01X20833797Y4915302D01*
G01X21030139Y4938162D02*
G01X21030139Y4858152D01*
G01X21030139Y4921144D02*
G01X21018709Y4932574D01*
G01X21007279Y4938162D01*
G01X20990261Y4938162D01*
G01X20978831Y4932574D01*
G01X20967401Y4921144D01*
G01X20961559Y4903872D01*
G01X20961559Y4892442D01*
G01X20967401Y4875424D01*
G01X20978831Y4863994D01*
G01X20990261Y4858152D01*
G01X21007279Y4858152D01*
G01X21018709Y4863994D01*
G01X21030139Y4875424D01*
G01X21077891Y4978294D02*
G01X21083733Y4972452D01*
G01X21089321Y4978294D01*
G01X21083733Y4983882D01*
G01X21077891Y4978294D01*
G01X21083733Y4938162D02*
G01X21083733Y4858152D01*
G01X21137073Y4938162D02*
G01X21137073Y4858152D01*
G01X21137073Y4903872D02*
G01X21142915Y4921144D01*
G01X21154345Y4932574D01*
G01X21165775Y4938162D01*
G01X21182793Y4938162D01*
G01X8357716Y4369021D02*
G01X8357716Y4374863D01*
G01X8363304Y4386293D01*
G01X8369146Y4391881D01*
G01X8380576Y4397723D01*
G01X8403436Y4397723D01*
G01X8414866Y4391881D01*
G01X8420454Y4386293D01*
G01X8426296Y4374863D01*
G01X8426296Y4363433D01*
G01X8420454Y4352003D01*
G01X8409024Y4334731D01*
G01X8351874Y4277581D01*
G01X8431884Y4277581D01*
G01X9777467Y4397723D02*
G01X9840459Y4397723D01*
G01X9806169Y4352003D01*
G01X9823187Y4352003D01*
G01X9834617Y4346161D01*
G01X9840459Y4340573D01*
G01X9846047Y4323301D01*
G01X9846047Y4311871D01*
G01X9840459Y4294853D01*
G01X9829029Y4283423D01*
G01X9811757Y4277581D01*
G01X9794739Y4277581D01*
G01X9777467Y4283423D01*
G01X9771879Y4289011D01*
G01X9766037Y4300441D01*
G01X9893799Y4374863D02*
G01X9905229Y4380451D01*
G01X9922501Y4397723D01*
G01X9922501Y4277581D01*
G01X9976095Y4306283D02*
G01X9970253Y4300441D01*
G01X9976095Y4294853D01*
G01X9981683Y4300441D01*
G01X9976095Y4306283D01*
G01X10098015Y4397723D02*
G01X10040865Y4397723D01*
G01X10035277Y4346161D01*
G01X10040865Y4352003D01*
G01X10058137Y4357591D01*
G01X10075155Y4357591D01*
G01X10092427Y4352003D01*
G01X10103857Y4340573D01*
G01X10109445Y4323301D01*
G01X10109445Y4311871D01*
G01X10103857Y4294853D01*
G01X10092427Y4283423D01*
G01X10075155Y4277581D01*
G01X10058137Y4277581D01*
G01X10040865Y4283423D01*
G01X10035277Y4289011D01*
G01X10029435Y4300441D01*
G01X10157197Y4357591D02*
G01X10157197Y4277581D01*
G01X10157197Y4334731D02*
G01X10174469Y4352003D01*
G01X10185899Y4357591D01*
G01X10202917Y4357591D01*
G01X10214347Y4352003D01*
G01X10220189Y4334731D01*
G01X10220189Y4277581D01*
G01X10220189Y4334731D02*
G01X10237207Y4352003D01*
G01X10248637Y4357591D01*
G01X10265909Y4357591D01*
G01X10277339Y4352003D01*
G01X10282927Y4334731D01*
G01X10282927Y4277581D01*
G01X10330679Y4397723D02*
G01X10336521Y4391881D01*
G01X10342109Y4397723D01*
G01X10336521Y4403311D01*
G01X10330679Y4397723D01*
G01X10336521Y4357591D02*
G01X10336521Y4277581D01*
G01X10389861Y4397723D02*
G01X10389861Y4277581D01*
G01X10477745Y4420583D02*
G01X10466315Y4409153D01*
G01X10454885Y4391881D01*
G01X10443455Y4369021D01*
G01X10437613Y4340573D01*
G01X10437613Y4317713D01*
G01X10443455Y4289011D01*
G01X10454885Y4266151D01*
G01X10466315Y4249133D01*
G01X10477745Y4237703D01*
G01X10559787Y4397723D02*
G01X10542769Y4391881D01*
G01X10531339Y4374863D01*
G01X10525497Y4346161D01*
G01X10525497Y4329143D01*
G01X10531339Y4300441D01*
G01X10542769Y4283423D01*
G01X10559787Y4277581D01*
G01X10571217Y4277581D01*
G01X10588489Y4283423D01*
G01X10599919Y4300441D01*
G01X10605507Y4329143D01*
G01X10605507Y4346161D01*
G01X10599919Y4374863D01*
G01X10588489Y4391881D01*
G01X10571217Y4397723D01*
G01X10559787Y4397723D01*
G01X10659101Y4306283D02*
G01X10653259Y4300441D01*
G01X10659101Y4294853D01*
G01X10664689Y4300441D01*
G01X10659101Y4306283D01*
G01X10741143Y4397723D02*
G01X10723871Y4391881D01*
G01X10718283Y4380451D01*
G01X10718283Y4369021D01*
G01X10723871Y4357591D01*
G01X10735301Y4352003D01*
G01X10758161Y4346161D01*
G01X10775433Y4340573D01*
G01X10786863Y4329143D01*
G01X10792451Y4317713D01*
G01X10792451Y4300441D01*
G01X10786863Y4289011D01*
G01X10781021Y4283423D01*
G01X10764003Y4277581D01*
G01X10741143Y4277581D01*
G01X10723871Y4283423D01*
G01X10718283Y4289011D01*
G01X10712441Y4300441D01*
G01X10712441Y4317713D01*
G01X10718283Y4329143D01*
G01X10729713Y4340573D01*
G01X10746731Y4346161D01*
G01X10769591Y4352003D01*
G01X10781021Y4357591D01*
G01X10786863Y4369021D01*
G01X10786863Y4380451D01*
G01X10781021Y4391881D01*
G01X10764003Y4397723D01*
G01X10741143Y4397723D01*
G01X10874493Y4397723D02*
G01X10857475Y4391881D01*
G01X10846045Y4374863D01*
G01X10840203Y4346161D01*
G01X10840203Y4329143D01*
G01X10846045Y4300441D01*
G01X10857475Y4283423D01*
G01X10874493Y4277581D01*
G01X10885923Y4277581D01*
G01X10903195Y4283423D01*
G01X10914625Y4300441D01*
G01X10920213Y4329143D01*
G01X10920213Y4346161D01*
G01X10914625Y4374863D01*
G01X10903195Y4391881D01*
G01X10885923Y4397723D01*
G01X10874493Y4397723D01*
G01X11002255Y4397723D02*
G01X10985237Y4391881D01*
G01X10973807Y4374863D01*
G01X10967965Y4346161D01*
G01X10967965Y4329143D01*
G01X10973807Y4300441D01*
G01X10985237Y4283423D01*
G01X11002255Y4277581D01*
G01X11013685Y4277581D01*
G01X11030957Y4283423D01*
G01X11042387Y4300441D01*
G01X11047975Y4329143D01*
G01X11047975Y4346161D01*
G01X11042387Y4374863D01*
G01X11030957Y4391881D01*
G01X11013685Y4397723D01*
G01X11002255Y4397723D01*
G01X11095727Y4357591D02*
G01X11095727Y4277581D01*
G01X11095727Y4334731D02*
G01X11112999Y4352003D01*
G01X11124429Y4357591D01*
G01X11141447Y4357591D01*
G01X11152877Y4352003D01*
G01X11158719Y4334731D01*
G01X11158719Y4277581D01*
G01X11158719Y4334731D02*
G01X11175737Y4352003D01*
G01X11187167Y4357591D01*
G01X11204439Y4357591D01*
G01X11215869Y4352003D01*
G01X11221457Y4334731D01*
G01X11221457Y4277581D01*
G01X11269209Y4357591D02*
G01X11269209Y4277581D01*
G01X11269209Y4334731D02*
G01X11286481Y4352003D01*
G01X11297911Y4357591D01*
G01X11314929Y4357591D01*
G01X11326359Y4352003D01*
G01X11332201Y4334731D01*
G01X11332201Y4277581D01*
G01X11332201Y4334731D02*
G01X11349219Y4352003D01*
G01X11360649Y4357591D01*
G01X11377921Y4357591D01*
G01X11389351Y4352003D01*
G01X11394939Y4334731D01*
G01X11394939Y4277581D01*
G01X11442691Y4420583D02*
G01X11454121Y4409153D01*
G01X11465551Y4391881D01*
G01X11476981Y4369021D01*
G01X11482823Y4340573D01*
G01X11482823Y4317713D01*
G01X11476981Y4289011D01*
G01X11465551Y4266151D01*
G01X11454121Y4249133D01*
G01X11442691Y4237703D01*
G01X13660003Y4397723D02*
G01X13660003Y4277581D01*
G01X13660003Y4397723D02*
G01X13740013Y4277581D01*
G01X13740013Y4397723D02*
G01X13740013Y4277581D01*
G01X13787765Y4397723D02*
G01X13787765Y4277581D01*
G01X13787765Y4397723D02*
G01X13839327Y4397723D01*
G01X13856345Y4391881D01*
G01X13862187Y4386293D01*
G01X13867775Y4374863D01*
G01X13867775Y4357591D01*
G01X13862187Y4346161D01*
G01X13856345Y4340573D01*
G01X13839327Y4334731D01*
G01X13787765Y4334731D01*
G01X13955659Y4397723D02*
G01X13955659Y4277581D01*
G01X13915527Y4397723D02*
G01X13995537Y4397723D01*
G01X14043289Y4397723D02*
G01X14043289Y4277581D01*
G01X14123299Y4397723D02*
G01X14123299Y4277581D01*
G01X14043289Y4340573D02*
G01X14123299Y4340573D01*
G01X15121410Y4397723D02*
G01X15121410Y4277581D01*
G01X15121410Y4397723D02*
G01X15172972Y4397723D01*
G01X15189990Y4391881D01*
G01X15195832Y4386293D01*
G01X15201420Y4374863D01*
G01X15201420Y4363433D01*
G01X15195832Y4352003D01*
G01X15189990Y4346161D01*
G01X15172972Y4340573D01*
G01X15121410Y4340573D01*
G01X15161542Y4340573D02*
G01X15201420Y4277581D01*
G01X15277874Y4357591D02*
G01X15266444Y4352003D01*
G01X15255014Y4340573D01*
G01X15249172Y4323301D01*
G01X15249172Y4311871D01*
G01X15255014Y4294853D01*
G01X15266444Y4283423D01*
G01X15277874Y4277581D01*
G01X15294892Y4277581D01*
G01X15306322Y4283423D01*
G01X15317752Y4294853D01*
G01X15323594Y4311871D01*
G01X15323594Y4323301D01*
G01X15317752Y4340573D01*
G01X15306322Y4352003D01*
G01X15294892Y4357591D01*
G01X15277874Y4357591D01*
G01X15371346Y4357591D02*
G01X15371346Y4300441D01*
G01X15377188Y4283423D01*
G01X15388618Y4277581D01*
G01X15405636Y4277581D01*
G01X15417066Y4283423D01*
G01X15434338Y4300441D01*
G01X15434338Y4357591D02*
G01X15434338Y4277581D01*
G01X15482090Y4357591D02*
G01X15482090Y4277581D01*
G01X15482090Y4334731D02*
G01X15499362Y4352003D01*
G01X15510792Y4357591D01*
G01X15527810Y4357591D01*
G01X15539240Y4352003D01*
G01X15545082Y4334731D01*
G01X15545082Y4277581D01*
G01X15661414Y4397723D02*
G01X15661414Y4277581D01*
G01X15661414Y4340573D02*
G01X15649984Y4352003D01*
G01X15638554Y4357591D01*
G01X15621536Y4357591D01*
G01X15610106Y4352003D01*
G01X15598676Y4340573D01*
G01X15592834Y4323301D01*
G01X15592834Y4311871D01*
G01X15598676Y4294853D01*
G01X15610106Y4283423D01*
G01X15621536Y4277581D01*
G01X15638554Y4277581D01*
G01X15649984Y4283423D01*
G01X15661414Y4294853D01*
G01X16552591Y4397723D02*
G01X16598311Y4277581D01*
G01X16644031Y4397723D02*
G01X16598311Y4277581D01*
G01X16691783Y4397723D02*
G01X16697625Y4391881D01*
G01X16703213Y4397723D01*
G01X16697625Y4403311D01*
G01X16691783Y4397723D01*
G01X16697625Y4357591D02*
G01X16697625Y4277581D01*
G01X16819545Y4357591D02*
G01X16819545Y4277581D01*
G01X16819545Y4340573D02*
G01X16808115Y4352003D01*
G01X16796685Y4357591D01*
G01X16779667Y4357591D01*
G01X16768237Y4352003D01*
G01X16756807Y4340573D01*
G01X16750965Y4323301D01*
G01X16750965Y4311871D01*
G01X16756807Y4294853D01*
G01X16768237Y4283423D01*
G01X16779667Y4277581D01*
G01X16796685Y4277581D01*
G01X16808115Y4283423D01*
G01X16819545Y4294853D01*
G01X20181271Y4397723D02*
G01X20181271Y4277581D01*
G01X20141139Y4397723D02*
G01X20221149Y4397723D01*
G01X20297603Y4357591D02*
G01X20286173Y4352003D01*
G01X20274743Y4340573D01*
G01X20268901Y4323301D01*
G01X20268901Y4311871D01*
G01X20274743Y4294853D01*
G01X20286173Y4283423D01*
G01X20297603Y4277581D01*
G01X20314621Y4277581D01*
G01X20326051Y4283423D01*
G01X20337481Y4294853D01*
G01X20343323Y4311871D01*
G01X20343323Y4323301D01*
G01X20337481Y4340573D01*
G01X20326051Y4352003D01*
G01X20314621Y4357591D01*
G01X20297603Y4357591D01*
G01X20391075Y4357591D02*
G01X20391075Y4237703D01*
G01X20391075Y4340573D02*
G01X20402505Y4352003D01*
G01X20413935Y4357591D01*
G01X20431207Y4357591D01*
G01X20442637Y4352003D01*
G01X20454067Y4340573D01*
G01X20459655Y4323301D01*
G01X20459655Y4311871D01*
G01X20454067Y4294853D01*
G01X20442637Y4283423D01*
G01X20431207Y4277581D01*
G01X20413935Y4277581D01*
G01X20402505Y4283423D01*
G01X20391075Y4294853D01*
G01X20635423Y4397723D02*
G01X20635423Y4277581D01*
G01X20635423Y4277581D02*
G01X20704003Y4277581D01*
G01X20820335Y4357591D02*
G01X20820335Y4277581D01*
G01X20820335Y4340573D02*
G01X20808905Y4352003D01*
G01X20797475Y4357591D01*
G01X20780457Y4357591D01*
G01X20769027Y4352003D01*
G01X20757597Y4340573D01*
G01X20751755Y4323301D01*
G01X20751755Y4311871D01*
G01X20757597Y4294853D01*
G01X20769027Y4283423D01*
G01X20780457Y4277581D01*
G01X20797475Y4277581D01*
G01X20808905Y4283423D01*
G01X20820335Y4294853D01*
G01X20873929Y4357591D02*
G01X20908219Y4277581D01*
G01X20942509Y4357591D02*
G01X20908219Y4277581D01*
G01X20896789Y4254721D01*
G01X20885359Y4243291D01*
G01X20873929Y4237703D01*
G01X20868087Y4237703D01*
G01X20990261Y4323301D02*
G01X21058841Y4323301D01*
G01X21058841Y4334731D01*
G01X21053253Y4346161D01*
G01X21047411Y4352003D01*
G01X21035981Y4357591D01*
G01X21018963Y4357591D01*
G01X21007533Y4352003D01*
G01X20996103Y4340573D01*
G01X20990261Y4323301D01*
G01X20990261Y4311871D01*
G01X20996103Y4294853D01*
G01X21007533Y4283423D01*
G01X21018963Y4277581D01*
G01X21035981Y4277581D01*
G01X21047411Y4283423D01*
G01X21058841Y4294853D01*
G01X21106593Y4357591D02*
G01X21106593Y4277581D01*
G01X21106593Y4323301D02*
G01X21112435Y4340573D01*
G01X21123865Y4352003D01*
G01X21135295Y4357591D01*
G01X21152313Y4357591D01*
G01X21200065Y4329143D02*
G01X21302935Y4329143D01*
G01X21350687Y4397723D02*
G01X21350687Y4277581D01*
G01X21350687Y4397723D02*
G01X21402249Y4397723D01*
G01X21419267Y4391881D01*
G01X21425109Y4386293D01*
G01X21430697Y4374863D01*
G01X21430697Y4363433D01*
G01X21425109Y4352003D01*
G01X21419267Y4346161D01*
G01X21402249Y4340573D01*
G01X21350687Y4340573D02*
G01X21402249Y4340573D01*
G01X21419267Y4334731D01*
G01X21425109Y4329143D01*
G01X21430697Y4317713D01*
G01X21430697Y4300441D01*
G01X21425109Y4289011D01*
G01X21419267Y4283423D01*
G01X21402249Y4277581D01*
G01X21350687Y4277581D01*
G01X21507151Y4357591D02*
G01X21495721Y4352003D01*
G01X21484291Y4340573D01*
G01X21478449Y4323301D01*
G01X21478449Y4311871D01*
G01X21484291Y4294853D01*
G01X21495721Y4283423D01*
G01X21507151Y4277581D01*
G01X21524169Y4277581D01*
G01X21535599Y4283423D01*
G01X21547029Y4294853D01*
G01X21552871Y4311871D01*
G01X21552871Y4323301D01*
G01X21547029Y4340573D01*
G01X21535599Y4352003D01*
G01X21524169Y4357591D01*
G01X21507151Y4357591D01*
G01X21617895Y4397723D02*
G01X21617895Y4300441D01*
G01X21623483Y4283423D01*
G01X21634913Y4277581D01*
G01X21646343Y4277581D01*
G01X21600623Y4357591D02*
G01X21640755Y4357591D01*
G01X21711367Y4397723D02*
G01X21711367Y4300441D01*
G01X21716955Y4283423D01*
G01X21728385Y4277581D01*
G01X21739815Y4277581D01*
G01X21694095Y4357591D02*
G01X21734227Y4357591D01*
G01X21816269Y4357591D02*
G01X21804839Y4352003D01*
G01X21793409Y4340573D01*
G01X21787567Y4323301D01*
G01X21787567Y4311871D01*
G01X21793409Y4294853D01*
G01X21804839Y4283423D01*
G01X21816269Y4277581D01*
G01X21833287Y4277581D01*
G01X21844717Y4283423D01*
G01X21856147Y4294853D01*
G01X21861989Y4311871D01*
G01X21861989Y4323301D01*
G01X21856147Y4340573D01*
G01X21844717Y4352003D01*
G01X21833287Y4357591D01*
G01X21816269Y4357591D01*
G01X21909741Y4357591D02*
G01X21909741Y4277581D01*
G01X21909741Y4334731D02*
G01X21927013Y4352003D01*
G01X21938443Y4357591D01*
G01X21955461Y4357591D01*
G01X21966891Y4352003D01*
G01X21972733Y4334731D01*
G01X21972733Y4277581D01*
G01X21972733Y4334731D02*
G01X21989751Y4352003D01*
G01X22001181Y4357591D01*
G01X22018453Y4357591D01*
G01X22029883Y4352003D01*
G01X22035471Y4334731D01*
G01X22035471Y4277581D01*
G01X22211239Y4397723D02*
G01X22211239Y4277581D01*
G01X22211239Y4277581D02*
G01X22279819Y4277581D01*
G01X22396151Y4357591D02*
G01X22396151Y4277581D01*
G01X22396151Y4340573D02*
G01X22384721Y4352003D01*
G01X22373291Y4357591D01*
G01X22356273Y4357591D01*
G01X22344843Y4352003D01*
G01X22333413Y4340573D01*
G01X22327571Y4323301D01*
G01X22327571Y4311871D01*
G01X22333413Y4294853D01*
G01X22344843Y4283423D01*
G01X22356273Y4277581D01*
G01X22373291Y4277581D01*
G01X22384721Y4283423D01*
G01X22396151Y4294853D01*
G01X22449745Y4357591D02*
G01X22484035Y4277581D01*
G01X22518325Y4357591D02*
G01X22484035Y4277581D01*
G01X22472605Y4254721D01*
G01X22461175Y4243291D01*
G01X22449745Y4237703D01*
G01X22443903Y4237703D01*
G01X22566077Y4323301D02*
G01X22634657Y4323301D01*
G01X22634657Y4334731D01*
G01X22629069Y4346161D01*
G01X22623227Y4352003D01*
G01X22611797Y4357591D01*
G01X22594779Y4357591D01*
G01X22583349Y4352003D01*
G01X22571919Y4340573D01*
G01X22566077Y4323301D01*
G01X22566077Y4311871D01*
G01X22571919Y4294853D01*
G01X22583349Y4283423D01*
G01X22594779Y4277581D01*
G01X22611797Y4277581D01*
G01X22623227Y4283423D01*
G01X22634657Y4294853D01*
G01X22682409Y4357591D02*
G01X22682409Y4277581D01*
G01X22682409Y4323301D02*
G01X22688251Y4340573D01*
G01X22699681Y4352003D01*
G01X22711111Y4357591D01*
G01X22728129Y4357591D01*
G01X8363304Y3817151D02*
G01X8426296Y3817151D01*
G01X8392006Y3771431D01*
G01X8409024Y3771431D01*
G01X8420454Y3765589D01*
G01X8426296Y3760001D01*
G01X8431884Y3742729D01*
G01X8431884Y3731299D01*
G01X8426296Y3714281D01*
G01X8414866Y3702851D01*
G01X8397594Y3697009D01*
G01X8380576Y3697009D01*
G01X8363304Y3702851D01*
G01X8357716Y3708439D01*
G01X8351874Y3719869D01*
G01X9846047Y3817151D02*
G01X9788897Y3697009D01*
G01X9766037Y3817151D02*
G01X9846047Y3817151D01*
G01X9922501Y3817151D02*
G01X9905229Y3811309D01*
G01X9899641Y3799879D01*
G01X9899641Y3788449D01*
G01X9905229Y3777019D01*
G01X9916659Y3771431D01*
G01X9939519Y3765589D01*
G01X9956791Y3760001D01*
G01X9968221Y3748571D01*
G01X9973809Y3737141D01*
G01X9973809Y3719869D01*
G01X9968221Y3708439D01*
G01X9962379Y3702851D01*
G01X9945361Y3697009D01*
G01X9922501Y3697009D01*
G01X9905229Y3702851D01*
G01X9899641Y3708439D01*
G01X9893799Y3719869D01*
G01X9893799Y3737141D01*
G01X9899641Y3748571D01*
G01X9911071Y3760001D01*
G01X9928089Y3765589D01*
G01X9950949Y3771431D01*
G01X9962379Y3777019D01*
G01X9968221Y3788449D01*
G01X9968221Y3799879D01*
G01X9962379Y3811309D01*
G01X9945361Y3817151D01*
G01X9922501Y3817151D01*
G01X10027403Y3725711D02*
G01X10021561Y3719869D01*
G01X10027403Y3714281D01*
G01X10032991Y3719869D01*
G01X10027403Y3725711D01*
G01X10160753Y3817151D02*
G01X10103603Y3697009D01*
G01X10080743Y3817151D02*
G01X10160753Y3817151D01*
G01X10208505Y3777019D02*
G01X10271497Y3697009D01*
G01X10271497Y3777019D02*
G01X10208505Y3697009D01*
G01X10399259Y3817151D02*
G01X10342109Y3697009D01*
G01X10319249Y3817151D02*
G01X10399259Y3817151D01*
G01X10475713Y3817151D02*
G01X10458441Y3811309D01*
G01X10452853Y3799879D01*
G01X10452853Y3788449D01*
G01X10458441Y3777019D01*
G01X10469871Y3771431D01*
G01X10492731Y3765589D01*
G01X10510003Y3760001D01*
G01X10521433Y3748571D01*
G01X10527021Y3737141D01*
G01X10527021Y3719869D01*
G01X10521433Y3708439D01*
G01X10515591Y3702851D01*
G01X10498573Y3697009D01*
G01X10475713Y3697009D01*
G01X10458441Y3702851D01*
G01X10452853Y3708439D01*
G01X10447011Y3719869D01*
G01X10447011Y3737141D01*
G01X10452853Y3748571D01*
G01X10464283Y3760001D01*
G01X10481301Y3765589D01*
G01X10504161Y3771431D01*
G01X10515591Y3777019D01*
G01X10521433Y3788449D01*
G01X10521433Y3799879D01*
G01X10515591Y3811309D01*
G01X10498573Y3817151D01*
G01X10475713Y3817151D01*
G01X10580615Y3725711D02*
G01X10574773Y3719869D01*
G01X10580615Y3714281D01*
G01X10586203Y3719869D01*
G01X10580615Y3725711D01*
G01X10713965Y3817151D02*
G01X10656815Y3697009D01*
G01X10633955Y3817151D02*
G01X10713965Y3817151D01*
G01X10761717Y3777019D02*
G01X10761717Y3697009D01*
G01X10761717Y3754159D02*
G01X10778989Y3771431D01*
G01X10790419Y3777019D01*
G01X10807437Y3777019D01*
G01X10818867Y3771431D01*
G01X10824709Y3754159D01*
G01X10824709Y3697009D01*
G01X10824709Y3754159D02*
G01X10841727Y3771431D01*
G01X10853157Y3777019D01*
G01X10870429Y3777019D01*
G01X10881859Y3771431D01*
G01X10887447Y3754159D01*
G01X10887447Y3697009D01*
G01X10935199Y3817151D02*
G01X10941041Y3811309D01*
G01X10946629Y3817151D01*
G01X10941041Y3822739D01*
G01X10935199Y3817151D01*
G01X10941041Y3777019D02*
G01X10941041Y3697009D01*
G01X10994381Y3817151D02*
G01X10994381Y3697009D01*
G01X11082265Y3840011D02*
G01X11070835Y3828581D01*
G01X11059405Y3811309D01*
G01X11047975Y3788449D01*
G01X11042133Y3760001D01*
G01X11042133Y3737141D01*
G01X11047975Y3708439D01*
G01X11059405Y3685579D01*
G01X11070835Y3668561D01*
G01X11082265Y3657131D01*
G01X11135859Y3788449D02*
G01X11135859Y3794291D01*
G01X11141447Y3805721D01*
G01X11147289Y3811309D01*
G01X11158719Y3817151D01*
G01X11181579Y3817151D01*
G01X11193009Y3811309D01*
G01X11198597Y3805721D01*
G01X11204439Y3794291D01*
G01X11204439Y3782861D01*
G01X11198597Y3771431D01*
G01X11187167Y3754159D01*
G01X11130017Y3697009D01*
G01X11210027Y3697009D01*
G01X11263621Y3725711D02*
G01X11257779Y3719869D01*
G01X11263621Y3714281D01*
G01X11269209Y3719869D01*
G01X11263621Y3725711D01*
G01X11351251Y3817151D02*
G01X11334233Y3811309D01*
G01X11322803Y3794291D01*
G01X11316961Y3765589D01*
G01X11316961Y3748571D01*
G01X11322803Y3719869D01*
G01X11334233Y3702851D01*
G01X11351251Y3697009D01*
G01X11362681Y3697009D01*
G01X11379953Y3702851D01*
G01X11391383Y3719869D01*
G01X11396971Y3748571D01*
G01X11396971Y3765589D01*
G01X11391383Y3794291D01*
G01X11379953Y3811309D01*
G01X11362681Y3817151D01*
G01X11351251Y3817151D01*
G01X11479013Y3817151D02*
G01X11461995Y3811309D01*
G01X11450565Y3794291D01*
G01X11444723Y3765589D01*
G01X11444723Y3748571D01*
G01X11450565Y3719869D01*
G01X11461995Y3702851D01*
G01X11479013Y3697009D01*
G01X11490443Y3697009D01*
G01X11507715Y3702851D01*
G01X11519145Y3719869D01*
G01X11524733Y3748571D01*
G01X11524733Y3765589D01*
G01X11519145Y3794291D01*
G01X11507715Y3811309D01*
G01X11490443Y3817151D01*
G01X11479013Y3817151D01*
G01X11606775Y3817151D02*
G01X11589757Y3811309D01*
G01X11578327Y3794291D01*
G01X11572485Y3765589D01*
G01X11572485Y3748571D01*
G01X11578327Y3719869D01*
G01X11589757Y3702851D01*
G01X11606775Y3697009D01*
G01X11618205Y3697009D01*
G01X11635477Y3702851D01*
G01X11646907Y3719869D01*
G01X11652495Y3748571D01*
G01X11652495Y3765589D01*
G01X11646907Y3794291D01*
G01X11635477Y3811309D01*
G01X11618205Y3817151D01*
G01X11606775Y3817151D01*
G01X11700247Y3777019D02*
G01X11763239Y3697009D01*
G01X11763239Y3777019D02*
G01X11700247Y3697009D01*
G01X11816833Y3788449D02*
G01X11816833Y3794291D01*
G01X11822421Y3805721D01*
G01X11828263Y3811309D01*
G01X11839693Y3817151D01*
G01X11862553Y3817151D01*
G01X11873983Y3811309D01*
G01X11879571Y3805721D01*
G01X11885413Y3794291D01*
G01X11885413Y3782861D01*
G01X11879571Y3771431D01*
G01X11868141Y3754159D01*
G01X11810991Y3697009D01*
G01X11891001Y3697009D01*
G01X11944595Y3725711D02*
G01X11938753Y3719869D01*
G01X11944595Y3714281D01*
G01X11950183Y3719869D01*
G01X11944595Y3725711D01*
G01X12032225Y3817151D02*
G01X12015207Y3811309D01*
G01X12003777Y3794291D01*
G01X11997935Y3765589D01*
G01X11997935Y3748571D01*
G01X12003777Y3719869D01*
G01X12015207Y3702851D01*
G01X12032225Y3697009D01*
G01X12043655Y3697009D01*
G01X12060927Y3702851D01*
G01X12072357Y3719869D01*
G01X12077945Y3748571D01*
G01X12077945Y3765589D01*
G01X12072357Y3794291D01*
G01X12060927Y3811309D01*
G01X12043655Y3817151D01*
G01X12032225Y3817151D01*
G01X12159987Y3817151D02*
G01X12142969Y3811309D01*
G01X12131539Y3794291D01*
G01X12125697Y3765589D01*
G01X12125697Y3748571D01*
G01X12131539Y3719869D01*
G01X12142969Y3702851D01*
G01X12159987Y3697009D01*
G01X12171417Y3697009D01*
G01X12188689Y3702851D01*
G01X12200119Y3719869D01*
G01X12205707Y3748571D01*
G01X12205707Y3765589D01*
G01X12200119Y3794291D01*
G01X12188689Y3811309D01*
G01X12171417Y3817151D01*
G01X12159987Y3817151D01*
G01X12287749Y3817151D02*
G01X12270731Y3811309D01*
G01X12259301Y3794291D01*
G01X12253459Y3765589D01*
G01X12253459Y3748571D01*
G01X12259301Y3719869D01*
G01X12270731Y3702851D01*
G01X12287749Y3697009D01*
G01X12299179Y3697009D01*
G01X12316451Y3702851D01*
G01X12327881Y3719869D01*
G01X12333469Y3748571D01*
G01X12333469Y3765589D01*
G01X12327881Y3794291D01*
G01X12316451Y3811309D01*
G01X12299179Y3817151D01*
G01X12287749Y3817151D01*
G01X12381221Y3777019D02*
G01X12381221Y3697009D01*
G01X12381221Y3754159D02*
G01X12398493Y3771431D01*
G01X12409923Y3777019D01*
G01X12426941Y3777019D01*
G01X12438371Y3771431D01*
G01X12444213Y3754159D01*
G01X12444213Y3697009D01*
G01X12444213Y3754159D02*
G01X12461231Y3771431D01*
G01X12472661Y3777019D01*
G01X12489933Y3777019D01*
G01X12501363Y3771431D01*
G01X12506951Y3754159D01*
G01X12506951Y3697009D01*
G01X12554703Y3777019D02*
G01X12554703Y3697009D01*
G01X12554703Y3754159D02*
G01X12571975Y3771431D01*
G01X12583405Y3777019D01*
G01X12600423Y3777019D01*
G01X12611853Y3771431D01*
G01X12617695Y3754159D01*
G01X12617695Y3697009D01*
G01X12617695Y3754159D02*
G01X12634713Y3771431D01*
G01X12646143Y3777019D01*
G01X12663415Y3777019D01*
G01X12674845Y3771431D01*
G01X12680433Y3754159D01*
G01X12680433Y3697009D01*
G01X12728185Y3840011D02*
G01X12739615Y3828581D01*
G01X12751045Y3811309D01*
G01X12762475Y3788449D01*
G01X12768317Y3760001D01*
G01X12768317Y3737141D01*
G01X12762475Y3708439D01*
G01X12751045Y3685579D01*
G01X12739615Y3668561D01*
G01X12728185Y3657131D01*
G01X13660003Y3817151D02*
G01X13660003Y3697009D01*
G01X13660003Y3817151D02*
G01X13711565Y3817151D01*
G01X13728583Y3811309D01*
G01X13734425Y3805721D01*
G01X13740013Y3794291D01*
G01X13740013Y3777019D01*
G01X13734425Y3765589D01*
G01X13728583Y3760001D01*
G01X13711565Y3754159D01*
G01X13660003Y3754159D01*
G01X13827897Y3817151D02*
G01X13827897Y3697009D01*
G01X13787765Y3817151D02*
G01X13867775Y3817151D01*
G01X13915527Y3817151D02*
G01X13915527Y3697009D01*
G01X13995537Y3817151D02*
G01X13995537Y3697009D01*
G01X13915527Y3760001D02*
G01X13995537Y3760001D01*
G01X15121410Y3817151D02*
G01X15121410Y3697009D01*
G01X15121410Y3817151D02*
G01X15172972Y3817151D01*
G01X15189990Y3811309D01*
G01X15195832Y3805721D01*
G01X15201420Y3794291D01*
G01X15201420Y3782861D01*
G01X15195832Y3771431D01*
G01X15189990Y3765589D01*
G01X15172972Y3760001D01*
G01X15121410Y3760001D01*
G01X15161542Y3760001D02*
G01X15201420Y3697009D01*
G01X15277874Y3777019D02*
G01X15266444Y3771431D01*
G01X15255014Y3760001D01*
G01X15249172Y3742729D01*
G01X15249172Y3731299D01*
G01X15255014Y3714281D01*
G01X15266444Y3702851D01*
G01X15277874Y3697009D01*
G01X15294892Y3697009D01*
G01X15306322Y3702851D01*
G01X15317752Y3714281D01*
G01X15323594Y3731299D01*
G01X15323594Y3742729D01*
G01X15317752Y3760001D01*
G01X15306322Y3771431D01*
G01X15294892Y3777019D01*
G01X15277874Y3777019D01*
G01X15371346Y3777019D02*
G01X15371346Y3719869D01*
G01X15377188Y3702851D01*
G01X15388618Y3697009D01*
G01X15405636Y3697009D01*
G01X15417066Y3702851D01*
G01X15434338Y3719869D01*
G01X15434338Y3777019D02*
G01X15434338Y3697009D01*
G01X15482090Y3777019D02*
G01X15482090Y3697009D01*
G01X15482090Y3754159D02*
G01X15499362Y3771431D01*
G01X15510792Y3777019D01*
G01X15527810Y3777019D01*
G01X15539240Y3771431D01*
G01X15545082Y3754159D01*
G01X15545082Y3697009D01*
G01X15661414Y3817151D02*
G01X15661414Y3697009D01*
G01X15661414Y3760001D02*
G01X15649984Y3771431D01*
G01X15638554Y3777019D01*
G01X15621536Y3777019D01*
G01X15610106Y3771431D01*
G01X15598676Y3760001D01*
G01X15592834Y3742729D01*
G01X15592834Y3731299D01*
G01X15598676Y3714281D01*
G01X15610106Y3702851D01*
G01X15621536Y3697009D01*
G01X15638554Y3697009D01*
G01X15649984Y3702851D01*
G01X15661414Y3714281D01*
G01X16552591Y3817151D02*
G01X16552591Y3697009D01*
G01X16552591Y3817151D02*
G01X16604153Y3817151D01*
G01X16621171Y3811309D01*
G01X16627013Y3805721D01*
G01X16632601Y3794291D01*
G01X16632601Y3777019D01*
G01X16627013Y3765589D01*
G01X16621171Y3760001D01*
G01X16604153Y3754159D01*
G01X16552591Y3754159D01*
G01X16748933Y3777019D02*
G01X16748933Y3697009D01*
G01X16748933Y3760001D02*
G01X16737503Y3771431D01*
G01X16726073Y3777019D01*
G01X16709055Y3777019D01*
G01X16697625Y3771431D01*
G01X16686195Y3760001D01*
G01X16680353Y3742729D01*
G01X16680353Y3731299D01*
G01X16686195Y3714281D01*
G01X16697625Y3702851D01*
G01X16709055Y3697009D01*
G01X16726073Y3697009D01*
G01X16737503Y3702851D01*
G01X16748933Y3714281D01*
G01X16865265Y3817151D02*
G01X16865265Y3697009D01*
G01X16865265Y3760001D02*
G01X16853835Y3771431D01*
G01X16842405Y3777019D01*
G01X16825387Y3777019D01*
G01X16813957Y3771431D01*
G01X16802527Y3760001D01*
G01X16796685Y3742729D01*
G01X16796685Y3731299D01*
G01X16802527Y3714281D01*
G01X16813957Y3702851D01*
G01X16825387Y3697009D01*
G01X16842405Y3697009D01*
G01X16853835Y3702851D01*
G01X16865265Y3714281D01*
G01X18221770Y3817151D02*
G01X18221770Y3697009D01*
G01X18221770Y3817151D02*
G01X18273332Y3817151D01*
G01X18290350Y3811309D01*
G01X18296192Y3805721D01*
G01X18301780Y3794291D01*
G01X18301780Y3782861D01*
G01X18296192Y3771431D01*
G01X18290350Y3765589D01*
G01X18273332Y3760001D01*
G01X18221770Y3760001D01*
G01X18261902Y3760001D02*
G01X18301780Y3697009D01*
G01X18378234Y3777019D02*
G01X18366804Y3771431D01*
G01X18355374Y3760001D01*
G01X18349532Y3742729D01*
G01X18349532Y3731299D01*
G01X18355374Y3714281D01*
G01X18366804Y3702851D01*
G01X18378234Y3697009D01*
G01X18395252Y3697009D01*
G01X18406682Y3702851D01*
G01X18418112Y3714281D01*
G01X18423954Y3731299D01*
G01X18423954Y3742729D01*
G01X18418112Y3760001D01*
G01X18406682Y3771431D01*
G01X18395252Y3777019D01*
G01X18378234Y3777019D01*
G01X18471706Y3777019D02*
G01X18471706Y3719869D01*
G01X18477548Y3702851D01*
G01X18488978Y3697009D01*
G01X18505996Y3697009D01*
G01X18517426Y3702851D01*
G01X18534698Y3719869D01*
G01X18534698Y3777019D02*
G01X18534698Y3697009D01*
G01X18582450Y3777019D02*
G01X18582450Y3697009D01*
G01X18582450Y3754159D02*
G01X18599722Y3771431D01*
G01X18611152Y3777019D01*
G01X18628170Y3777019D01*
G01X18639600Y3771431D01*
G01X18645442Y3754159D01*
G01X18645442Y3697009D01*
G01X18761774Y3817151D02*
G01X18761774Y3697009D01*
G01X18761774Y3760001D02*
G01X18750344Y3771431D01*
G01X18738914Y3777019D01*
G01X18721896Y3777019D01*
G01X18710466Y3771431D01*
G01X18699036Y3760001D01*
G01X18693194Y3742729D01*
G01X18693194Y3731299D01*
G01X18699036Y3714281D01*
G01X18710466Y3702851D01*
G01X18721896Y3697009D01*
G01X18738914Y3697009D01*
G01X18750344Y3702851D01*
G01X18761774Y3714281D01*
G01X20181271Y3817151D02*
G01X20181271Y3697009D01*
G01X20141139Y3817151D02*
G01X20221149Y3817151D01*
G01X20297603Y3777019D02*
G01X20286173Y3771431D01*
G01X20274743Y3760001D01*
G01X20268901Y3742729D01*
G01X20268901Y3731299D01*
G01X20274743Y3714281D01*
G01X20286173Y3702851D01*
G01X20297603Y3697009D01*
G01X20314621Y3697009D01*
G01X20326051Y3702851D01*
G01X20337481Y3714281D01*
G01X20343323Y3731299D01*
G01X20343323Y3742729D01*
G01X20337481Y3760001D01*
G01X20326051Y3771431D01*
G01X20314621Y3777019D01*
G01X20297603Y3777019D01*
G01X20391075Y3777019D02*
G01X20391075Y3657131D01*
G01X20391075Y3760001D02*
G01X20402505Y3771431D01*
G01X20413935Y3777019D01*
G01X20431207Y3777019D01*
G01X20442637Y3771431D01*
G01X20454067Y3760001D01*
G01X20459655Y3742729D01*
G01X20459655Y3731299D01*
G01X20454067Y3714281D01*
G01X20442637Y3702851D01*
G01X20431207Y3697009D01*
G01X20413935Y3697009D01*
G01X20402505Y3702851D01*
G01X20391075Y3714281D01*
G01X20635423Y3817151D02*
G01X20635423Y3697009D01*
G01X20635423Y3697009D02*
G01X20704003Y3697009D01*
G01X20820335Y3777019D02*
G01X20820335Y3697009D01*
G01X20820335Y3760001D02*
G01X20808905Y3771431D01*
G01X20797475Y3777019D01*
G01X20780457Y3777019D01*
G01X20769027Y3771431D01*
G01X20757597Y3760001D01*
G01X20751755Y3742729D01*
G01X20751755Y3731299D01*
G01X20757597Y3714281D01*
G01X20769027Y3702851D01*
G01X20780457Y3697009D01*
G01X20797475Y3697009D01*
G01X20808905Y3702851D01*
G01X20820335Y3714281D01*
G01X20873929Y3777019D02*
G01X20908219Y3697009D01*
G01X20942509Y3777019D02*
G01X20908219Y3697009D01*
G01X20896789Y3674149D01*
G01X20885359Y3662719D01*
G01X20873929Y3657131D01*
G01X20868087Y3657131D01*
G01X20990261Y3742729D02*
G01X21058841Y3742729D01*
G01X21058841Y3754159D01*
G01X21053253Y3765589D01*
G01X21047411Y3771431D01*
G01X21035981Y3777019D01*
G01X21018963Y3777019D01*
G01X21007533Y3771431D01*
G01X20996103Y3760001D01*
G01X20990261Y3742729D01*
G01X20990261Y3731299D01*
G01X20996103Y3714281D01*
G01X21007533Y3702851D01*
G01X21018963Y3697009D01*
G01X21035981Y3697009D01*
G01X21047411Y3702851D01*
G01X21058841Y3714281D01*
G01X21106593Y3777019D02*
G01X21106593Y3697009D01*
G01X21106593Y3742729D02*
G01X21112435Y3760001D01*
G01X21123865Y3771431D01*
G01X21135295Y3777019D01*
G01X21152313Y3777019D01*
G01X21200065Y3748571D02*
G01X21302935Y3748571D01*
G01X21350687Y3817151D02*
G01X21350687Y3697009D01*
G01X21350687Y3817151D02*
G01X21402249Y3817151D01*
G01X21419267Y3811309D01*
G01X21425109Y3805721D01*
G01X21430697Y3794291D01*
G01X21430697Y3782861D01*
G01X21425109Y3771431D01*
G01X21419267Y3765589D01*
G01X21402249Y3760001D01*
G01X21350687Y3760001D02*
G01X21402249Y3760001D01*
G01X21419267Y3754159D01*
G01X21425109Y3748571D01*
G01X21430697Y3737141D01*
G01X21430697Y3719869D01*
G01X21425109Y3708439D01*
G01X21419267Y3702851D01*
G01X21402249Y3697009D01*
G01X21350687Y3697009D01*
G01X21507151Y3777019D02*
G01X21495721Y3771431D01*
G01X21484291Y3760001D01*
G01X21478449Y3742729D01*
G01X21478449Y3731299D01*
G01X21484291Y3714281D01*
G01X21495721Y3702851D01*
G01X21507151Y3697009D01*
G01X21524169Y3697009D01*
G01X21535599Y3702851D01*
G01X21547029Y3714281D01*
G01X21552871Y3731299D01*
G01X21552871Y3742729D01*
G01X21547029Y3760001D01*
G01X21535599Y3771431D01*
G01X21524169Y3777019D01*
G01X21507151Y3777019D01*
G01X21617895Y3817151D02*
G01X21617895Y3719869D01*
G01X21623483Y3702851D01*
G01X21634913Y3697009D01*
G01X21646343Y3697009D01*
G01X21600623Y3777019D02*
G01X21640755Y3777019D01*
G01X21711367Y3817151D02*
G01X21711367Y3719869D01*
G01X21716955Y3702851D01*
G01X21728385Y3697009D01*
G01X21739815Y3697009D01*
G01X21694095Y3777019D02*
G01X21734227Y3777019D01*
G01X21816269Y3777019D02*
G01X21804839Y3771431D01*
G01X21793409Y3760001D01*
G01X21787567Y3742729D01*
G01X21787567Y3731299D01*
G01X21793409Y3714281D01*
G01X21804839Y3702851D01*
G01X21816269Y3697009D01*
G01X21833287Y3697009D01*
G01X21844717Y3702851D01*
G01X21856147Y3714281D01*
G01X21861989Y3731299D01*
G01X21861989Y3742729D01*
G01X21856147Y3760001D01*
G01X21844717Y3771431D01*
G01X21833287Y3777019D01*
G01X21816269Y3777019D01*
G01X21909741Y3777019D02*
G01X21909741Y3697009D01*
G01X21909741Y3754159D02*
G01X21927013Y3771431D01*
G01X21938443Y3777019D01*
G01X21955461Y3777019D01*
G01X21966891Y3771431D01*
G01X21972733Y3754159D01*
G01X21972733Y3697009D01*
G01X21972733Y3754159D02*
G01X21989751Y3771431D01*
G01X22001181Y3777019D01*
G01X22018453Y3777019D01*
G01X22029883Y3771431D01*
G01X22035471Y3754159D01*
G01X22035471Y3697009D01*
G01X22211239Y3817151D02*
G01X22211239Y3697009D01*
G01X22211239Y3697009D02*
G01X22279819Y3697009D01*
G01X22396151Y3777019D02*
G01X22396151Y3697009D01*
G01X22396151Y3760001D02*
G01X22384721Y3771431D01*
G01X22373291Y3777019D01*
G01X22356273Y3777019D01*
G01X22344843Y3771431D01*
G01X22333413Y3760001D01*
G01X22327571Y3742729D01*
G01X22327571Y3731299D01*
G01X22333413Y3714281D01*
G01X22344843Y3702851D01*
G01X22356273Y3697009D01*
G01X22373291Y3697009D01*
G01X22384721Y3702851D01*
G01X22396151Y3714281D01*
G01X22449745Y3777019D02*
G01X22484035Y3697009D01*
G01X22518325Y3777019D02*
G01X22484035Y3697009D01*
G01X22472605Y3674149D01*
G01X22461175Y3662719D01*
G01X22449745Y3657131D01*
G01X22443903Y3657131D01*
G01X22566077Y3742729D02*
G01X22634657Y3742729D01*
G01X22634657Y3754159D01*
G01X22629069Y3765589D01*
G01X22623227Y3771431D01*
G01X22611797Y3777019D01*
G01X22594779Y3777019D01*
G01X22583349Y3771431D01*
G01X22571919Y3760001D01*
G01X22566077Y3742729D01*
G01X22566077Y3731299D01*
G01X22571919Y3714281D01*
G01X22583349Y3702851D01*
G01X22594779Y3697009D01*
G01X22611797Y3697009D01*
G01X22623227Y3702851D01*
G01X22634657Y3714281D01*
G01X22682409Y3777019D02*
G01X22682409Y3697009D01*
G01X22682409Y3742729D02*
G01X22688251Y3760001D01*
G01X22699681Y3771431D01*
G01X22711111Y3777019D01*
G01X22728129Y3777019D01*
G01X8409024Y3236580D02*
G01X8351874Y3156570D01*
G01X8437726Y3156570D01*
G01X8409024Y3236580D02*
G01X8409024Y3116438D01*
G01X9771879Y3207878D02*
G01X9771879Y3213720D01*
G01X9777467Y3225150D01*
G01X9783309Y3230738D01*
G01X9794739Y3236580D01*
G01X9817599Y3236580D01*
G01X9829029Y3230738D01*
G01X9834617Y3225150D01*
G01X9840459Y3213720D01*
G01X9840459Y3202290D01*
G01X9834617Y3190860D01*
G01X9823187Y3173588D01*
G01X9766037Y3116438D01*
G01X9846047Y3116438D01*
G01X9973809Y3236580D02*
G01X9916659Y3116438D01*
G01X9893799Y3236580D02*
G01X9973809Y3236580D01*
G01X10027403Y3145140D02*
G01X10021561Y3139298D01*
G01X10027403Y3133710D01*
G01X10032991Y3139298D01*
G01X10027403Y3145140D01*
G01X10149323Y3219308D02*
G01X10143735Y3230738D01*
G01X10126463Y3236580D01*
G01X10115033Y3236580D01*
G01X10098015Y3230738D01*
G01X10086585Y3213720D01*
G01X10080743Y3185018D01*
G01X10080743Y3156570D01*
G01X10086585Y3133710D01*
G01X10098015Y3122280D01*
G01X10115033Y3116438D01*
G01X10120875Y3116438D01*
G01X10137893Y3122280D01*
G01X10149323Y3133710D01*
G01X10155165Y3150728D01*
G01X10155165Y3156570D01*
G01X10149323Y3173588D01*
G01X10137893Y3185018D01*
G01X10120875Y3190860D01*
G01X10115033Y3190860D01*
G01X10098015Y3185018D01*
G01X10086585Y3173588D01*
G01X10080743Y3156570D01*
G01X10202917Y3196448D02*
G01X10265909Y3116438D01*
G01X10265909Y3196448D02*
G01X10202917Y3116438D01*
G01X10370811Y3236580D02*
G01X10313661Y3156570D01*
G01X10399513Y3156570D01*
G01X10370811Y3236580D02*
G01X10370811Y3116438D01*
G01X10527275Y3236580D02*
G01X10470125Y3116438D01*
G01X10447265Y3236580D02*
G01X10527275Y3236580D01*
G01X10580869Y3145140D02*
G01X10575027Y3139298D01*
G01X10580869Y3133710D01*
G01X10586457Y3139298D01*
G01X10580869Y3145140D01*
G01X10640051Y3207878D02*
G01X10640051Y3213720D01*
G01X10645639Y3225150D01*
G01X10651481Y3230738D01*
G01X10662911Y3236580D01*
G01X10685771Y3236580D01*
G01X10697201Y3230738D01*
G01X10702789Y3225150D01*
G01X10708631Y3213720D01*
G01X10708631Y3202290D01*
G01X10702789Y3190860D01*
G01X10691359Y3173588D01*
G01X10634209Y3116438D01*
G01X10714219Y3116438D01*
G01X10761971Y3196448D02*
G01X10761971Y3116438D01*
G01X10761971Y3173588D02*
G01X10779243Y3190860D01*
G01X10790673Y3196448D01*
G01X10807691Y3196448D01*
G01X10819121Y3190860D01*
G01X10824963Y3173588D01*
G01X10824963Y3116438D01*
G01X10824963Y3173588D02*
G01X10841981Y3190860D01*
G01X10853411Y3196448D01*
G01X10870683Y3196448D01*
G01X10882113Y3190860D01*
G01X10887701Y3173588D01*
G01X10887701Y3116438D01*
G01X10935453Y3236580D02*
G01X10941295Y3230738D01*
G01X10946883Y3236580D01*
G01X10941295Y3242168D01*
G01X10935453Y3236580D01*
G01X10941295Y3196448D02*
G01X10941295Y3116438D01*
G01X10994635Y3236580D02*
G01X10994635Y3116438D01*
G01X11082519Y3259440D02*
G01X11071089Y3248010D01*
G01X11059659Y3230738D01*
G01X11048229Y3207878D01*
G01X11042387Y3179430D01*
G01X11042387Y3156570D01*
G01X11048229Y3127868D01*
G01X11059659Y3105008D01*
G01X11071089Y3087990D01*
G01X11082519Y3076560D01*
G01X11164561Y3236580D02*
G01X11147543Y3230738D01*
G01X11136113Y3213720D01*
G01X11130271Y3185018D01*
G01X11130271Y3168000D01*
G01X11136113Y3139298D01*
G01X11147543Y3122280D01*
G01X11164561Y3116438D01*
G01X11175991Y3116438D01*
G01X11193263Y3122280D01*
G01X11204693Y3139298D01*
G01X11210281Y3168000D01*
G01X11210281Y3185018D01*
G01X11204693Y3213720D01*
G01X11193263Y3230738D01*
G01X11175991Y3236580D01*
G01X11164561Y3236580D01*
G01X11263875Y3145140D02*
G01X11258033Y3139298D01*
G01X11263875Y3133710D01*
G01X11269463Y3139298D01*
G01X11263875Y3145140D01*
G01X11397225Y3236580D02*
G01X11340075Y3116438D01*
G01X11317215Y3236580D02*
G01X11397225Y3236580D01*
G01X11479267Y3236580D02*
G01X11462249Y3230738D01*
G01X11450819Y3213720D01*
G01X11444977Y3185018D01*
G01X11444977Y3168000D01*
G01X11450819Y3139298D01*
G01X11462249Y3122280D01*
G01X11479267Y3116438D01*
G01X11490697Y3116438D01*
G01X11507969Y3122280D01*
G01X11519399Y3139298D01*
G01X11524987Y3168000D01*
G01X11524987Y3185018D01*
G01X11519399Y3213720D01*
G01X11507969Y3230738D01*
G01X11490697Y3236580D01*
G01X11479267Y3236580D01*
G01X11607029Y3236580D02*
G01X11590011Y3230738D01*
G01X11578581Y3213720D01*
G01X11572739Y3185018D01*
G01X11572739Y3168000D01*
G01X11578581Y3139298D01*
G01X11590011Y3122280D01*
G01X11607029Y3116438D01*
G01X11618459Y3116438D01*
G01X11635731Y3122280D01*
G01X11647161Y3139298D01*
G01X11652749Y3168000D01*
G01X11652749Y3185018D01*
G01X11647161Y3213720D01*
G01X11635731Y3230738D01*
G01X11618459Y3236580D01*
G01X11607029Y3236580D01*
G01X11700501Y3196448D02*
G01X11763493Y3116438D01*
G01X11763493Y3196448D02*
G01X11700501Y3116438D01*
G01X11811245Y3213720D02*
G01X11822675Y3219308D01*
G01X11839947Y3236580D01*
G01X11839947Y3116438D01*
G01X11893541Y3145140D02*
G01X11887699Y3139298D01*
G01X11893541Y3133710D01*
G01X11899129Y3139298D01*
G01X11893541Y3145140D01*
G01X11952723Y3207878D02*
G01X11952723Y3213720D01*
G01X11958311Y3225150D01*
G01X11964153Y3230738D01*
G01X11975583Y3236580D01*
G01X11998443Y3236580D01*
G01X12009873Y3230738D01*
G01X12015461Y3225150D01*
G01X12021303Y3213720D01*
G01X12021303Y3202290D01*
G01X12015461Y3190860D01*
G01X12004031Y3173588D01*
G01X11946881Y3116438D01*
G01X12026891Y3116438D01*
G01X12108933Y3236580D02*
G01X12091915Y3230738D01*
G01X12080485Y3213720D01*
G01X12074643Y3185018D01*
G01X12074643Y3168000D01*
G01X12080485Y3139298D01*
G01X12091915Y3122280D01*
G01X12108933Y3116438D01*
G01X12120363Y3116438D01*
G01X12137635Y3122280D01*
G01X12149065Y3139298D01*
G01X12154653Y3168000D01*
G01X12154653Y3185018D01*
G01X12149065Y3213720D01*
G01X12137635Y3230738D01*
G01X12120363Y3236580D01*
G01X12108933Y3236580D01*
G01X12236695Y3236580D02*
G01X12219677Y3230738D01*
G01X12208247Y3213720D01*
G01X12202405Y3185018D01*
G01X12202405Y3168000D01*
G01X12208247Y3139298D01*
G01X12219677Y3122280D01*
G01X12236695Y3116438D01*
G01X12248125Y3116438D01*
G01X12265397Y3122280D01*
G01X12276827Y3139298D01*
G01X12282415Y3168000D01*
G01X12282415Y3185018D01*
G01X12276827Y3213720D01*
G01X12265397Y3230738D01*
G01X12248125Y3236580D01*
G01X12236695Y3236580D01*
G01X12330167Y3196448D02*
G01X12330167Y3116438D01*
G01X12330167Y3173588D02*
G01X12347439Y3190860D01*
G01X12358869Y3196448D01*
G01X12375887Y3196448D01*
G01X12387317Y3190860D01*
G01X12393159Y3173588D01*
G01X12393159Y3116438D01*
G01X12393159Y3173588D02*
G01X12410177Y3190860D01*
G01X12421607Y3196448D01*
G01X12438879Y3196448D01*
G01X12450309Y3190860D01*
G01X12455897Y3173588D01*
G01X12455897Y3116438D01*
G01X12503649Y3196448D02*
G01X12503649Y3116438D01*
G01X12503649Y3173588D02*
G01X12520921Y3190860D01*
G01X12532351Y3196448D01*
G01X12549369Y3196448D01*
G01X12560799Y3190860D01*
G01X12566641Y3173588D01*
G01X12566641Y3116438D01*
G01X12566641Y3173588D02*
G01X12583659Y3190860D01*
G01X12595089Y3196448D01*
G01X12612361Y3196448D01*
G01X12623791Y3190860D01*
G01X12629379Y3173588D01*
G01X12629379Y3116438D01*
G01X12677131Y3259440D02*
G01X12688561Y3248010D01*
G01X12699991Y3230738D01*
G01X12711421Y3207878D01*
G01X12717263Y3179430D01*
G01X12717263Y3156570D01*
G01X12711421Y3127868D01*
G01X12699991Y3105008D01*
G01X12688561Y3087990D01*
G01X12677131Y3076560D01*
G01X13660003Y3236580D02*
G01X13660003Y3116438D01*
G01X13660003Y3236580D02*
G01X13711565Y3236580D01*
G01X13728583Y3230738D01*
G01X13734425Y3225150D01*
G01X13740013Y3213720D01*
G01X13740013Y3196448D01*
G01X13734425Y3185018D01*
G01X13728583Y3179430D01*
G01X13711565Y3173588D01*
G01X13660003Y3173588D01*
G01X13827897Y3236580D02*
G01X13827897Y3116438D01*
G01X13787765Y3236580D02*
G01X13867775Y3236580D01*
G01X13915527Y3236580D02*
G01X13915527Y3116438D01*
G01X13995537Y3236580D02*
G01X13995537Y3116438D01*
G01X13915527Y3179430D02*
G01X13995537Y3179430D01*
G01X15201420Y3219308D02*
G01X15189990Y3230738D01*
G01X15172972Y3236580D01*
G01X15150112Y3236580D01*
G01X15132840Y3230738D01*
G01X15121410Y3219308D01*
G01X15121410Y3207878D01*
G01X15127252Y3196448D01*
G01X15132840Y3190860D01*
G01X15144270Y3185018D01*
G01X15178560Y3173588D01*
G01X15189990Y3168000D01*
G01X15195832Y3162158D01*
G01X15201420Y3150728D01*
G01X15201420Y3133710D01*
G01X15189990Y3122280D01*
G01X15172972Y3116438D01*
G01X15150112Y3116438D01*
G01X15132840Y3122280D01*
G01X15121410Y3133710D01*
G01X15249172Y3236580D02*
G01X15249172Y3116438D01*
G01X15325626Y3196448D02*
G01X15314196Y3190860D01*
G01X15302766Y3179430D01*
G01X15296924Y3162158D01*
G01X15296924Y3150728D01*
G01X15302766Y3133710D01*
G01X15314196Y3122280D01*
G01X15325626Y3116438D01*
G01X15342644Y3116438D01*
G01X15354074Y3122280D01*
G01X15365504Y3133710D01*
G01X15371346Y3150728D01*
G01X15371346Y3162158D01*
G01X15365504Y3179430D01*
G01X15354074Y3190860D01*
G01X15342644Y3196448D01*
G01X15325626Y3196448D01*
G01X15436370Y3236580D02*
G01X15436370Y3139298D01*
G01X15441958Y3122280D01*
G01X15453388Y3116438D01*
G01X15464818Y3116438D01*
G01X15419098Y3196448D02*
G01X15459230Y3196448D01*
G01X16552591Y3236580D02*
G01X16552591Y3116438D01*
G01X16552591Y3236580D02*
G01X16604153Y3236580D01*
G01X16621171Y3230738D01*
G01X16627013Y3225150D01*
G01X16632601Y3213720D01*
G01X16632601Y3196448D01*
G01X16627013Y3185018D01*
G01X16621171Y3179430D01*
G01X16604153Y3173588D01*
G01X16552591Y3173588D01*
G01X16748933Y3196448D02*
G01X16748933Y3116438D01*
G01X16748933Y3179430D02*
G01X16737503Y3190860D01*
G01X16726073Y3196448D01*
G01X16709055Y3196448D01*
G01X16697625Y3190860D01*
G01X16686195Y3179430D01*
G01X16680353Y3162158D01*
G01X16680353Y3150728D01*
G01X16686195Y3133710D01*
G01X16697625Y3122280D01*
G01X16709055Y3116438D01*
G01X16726073Y3116438D01*
G01X16737503Y3122280D01*
G01X16748933Y3133710D01*
G01X16865265Y3236580D02*
G01X16865265Y3116438D01*
G01X16865265Y3179430D02*
G01X16853835Y3190860D01*
G01X16842405Y3196448D01*
G01X16825387Y3196448D01*
G01X16813957Y3190860D01*
G01X16802527Y3179430D01*
G01X16796685Y3162158D01*
G01X16796685Y3150728D01*
G01X16802527Y3133710D01*
G01X16813957Y3122280D01*
G01X16825387Y3116438D01*
G01X16842405Y3116438D01*
G01X16853835Y3122280D01*
G01X16865265Y3133710D01*
G01X18256060Y3236580D02*
G01X18244630Y3230738D01*
G01X18233200Y3219308D01*
G01X18227612Y3207878D01*
G01X18221770Y3190860D01*
G01X18221770Y3162158D01*
G01X18227612Y3145140D01*
G01X18233200Y3133710D01*
G01X18244630Y3122280D01*
G01X18256060Y3116438D01*
G01X18278920Y3116438D01*
G01X18290350Y3122280D01*
G01X18301780Y3133710D01*
G01X18307622Y3145140D01*
G01X18313210Y3162158D01*
G01X18313210Y3190860D01*
G01X18307622Y3207878D01*
G01X18301780Y3219308D01*
G01X18290350Y3230738D01*
G01X18278920Y3236580D01*
G01X18256060Y3236580D01*
G01X18360962Y3196448D02*
G01X18395252Y3116438D01*
G01X18429542Y3196448D02*
G01X18395252Y3116438D01*
G01X18545874Y3196448D02*
G01X18545874Y3116438D01*
G01X18545874Y3179430D02*
G01X18534444Y3190860D01*
G01X18523014Y3196448D01*
G01X18505996Y3196448D01*
G01X18494566Y3190860D01*
G01X18483136Y3179430D01*
G01X18477294Y3162158D01*
G01X18477294Y3150728D01*
G01X18483136Y3133710D01*
G01X18494566Y3122280D01*
G01X18505996Y3116438D01*
G01X18523014Y3116438D01*
G01X18534444Y3122280D01*
G01X18545874Y3133710D01*
G01X18593626Y3236580D02*
G01X18593626Y3116438D01*
G01X20181271Y3236580D02*
G01X20181271Y3116438D01*
G01X20141139Y3236580D02*
G01X20221149Y3236580D01*
G01X20297603Y3196448D02*
G01X20286173Y3190860D01*
G01X20274743Y3179430D01*
G01X20268901Y3162158D01*
G01X20268901Y3150728D01*
G01X20274743Y3133710D01*
G01X20286173Y3122280D01*
G01X20297603Y3116438D01*
G01X20314621Y3116438D01*
G01X20326051Y3122280D01*
G01X20337481Y3133710D01*
G01X20343323Y3150728D01*
G01X20343323Y3162158D01*
G01X20337481Y3179430D01*
G01X20326051Y3190860D01*
G01X20314621Y3196448D01*
G01X20297603Y3196448D01*
G01X20391075Y3196448D02*
G01X20391075Y3076560D01*
G01X20391075Y3179430D02*
G01X20402505Y3190860D01*
G01X20413935Y3196448D01*
G01X20431207Y3196448D01*
G01X20442637Y3190860D01*
G01X20454067Y3179430D01*
G01X20459655Y3162158D01*
G01X20459655Y3150728D01*
G01X20454067Y3133710D01*
G01X20442637Y3122280D01*
G01X20431207Y3116438D01*
G01X20413935Y3116438D01*
G01X20402505Y3122280D01*
G01X20391075Y3133710D01*
G01X20635423Y3236580D02*
G01X20635423Y3116438D01*
G01X20635423Y3116438D02*
G01X20704003Y3116438D01*
G01X20820335Y3196448D02*
G01X20820335Y3116438D01*
G01X20820335Y3179430D02*
G01X20808905Y3190860D01*
G01X20797475Y3196448D01*
G01X20780457Y3196448D01*
G01X20769027Y3190860D01*
G01X20757597Y3179430D01*
G01X20751755Y3162158D01*
G01X20751755Y3150728D01*
G01X20757597Y3133710D01*
G01X20769027Y3122280D01*
G01X20780457Y3116438D01*
G01X20797475Y3116438D01*
G01X20808905Y3122280D01*
G01X20820335Y3133710D01*
G01X20873929Y3196448D02*
G01X20908219Y3116438D01*
G01X20942509Y3196448D02*
G01X20908219Y3116438D01*
G01X20896789Y3093578D01*
G01X20885359Y3082148D01*
G01X20873929Y3076560D01*
G01X20868087Y3076560D01*
G01X20990261Y3162158D02*
G01X21058841Y3162158D01*
G01X21058841Y3173588D01*
G01X21053253Y3185018D01*
G01X21047411Y3190860D01*
G01X21035981Y3196448D01*
G01X21018963Y3196448D01*
G01X21007533Y3190860D01*
G01X20996103Y3179430D01*
G01X20990261Y3162158D01*
G01X20990261Y3150728D01*
G01X20996103Y3133710D01*
G01X21007533Y3122280D01*
G01X21018963Y3116438D01*
G01X21035981Y3116438D01*
G01X21047411Y3122280D01*
G01X21058841Y3133710D01*
G01X21106593Y3196448D02*
G01X21106593Y3116438D01*
G01X21106593Y3162158D02*
G01X21112435Y3179430D01*
G01X21123865Y3190860D01*
G01X21135295Y3196448D01*
G01X21152313Y3196448D01*
G01X21200065Y3168000D02*
G01X21302935Y3168000D01*
G01X21350687Y3236580D02*
G01X21350687Y3116438D01*
G01X21350687Y3236580D02*
G01X21402249Y3236580D01*
G01X21419267Y3230738D01*
G01X21425109Y3225150D01*
G01X21430697Y3213720D01*
G01X21430697Y3202290D01*
G01X21425109Y3190860D01*
G01X21419267Y3185018D01*
G01X21402249Y3179430D01*
G01X21350687Y3179430D02*
G01X21402249Y3179430D01*
G01X21419267Y3173588D01*
G01X21425109Y3168000D01*
G01X21430697Y3156570D01*
G01X21430697Y3139298D01*
G01X21425109Y3127868D01*
G01X21419267Y3122280D01*
G01X21402249Y3116438D01*
G01X21350687Y3116438D01*
G01X21507151Y3196448D02*
G01X21495721Y3190860D01*
G01X21484291Y3179430D01*
G01X21478449Y3162158D01*
G01X21478449Y3150728D01*
G01X21484291Y3133710D01*
G01X21495721Y3122280D01*
G01X21507151Y3116438D01*
G01X21524169Y3116438D01*
G01X21535599Y3122280D01*
G01X21547029Y3133710D01*
G01X21552871Y3150728D01*
G01X21552871Y3162158D01*
G01X21547029Y3179430D01*
G01X21535599Y3190860D01*
G01X21524169Y3196448D01*
G01X21507151Y3196448D01*
G01X21617895Y3236580D02*
G01X21617895Y3139298D01*
G01X21623483Y3122280D01*
G01X21634913Y3116438D01*
G01X21646343Y3116438D01*
G01X21600623Y3196448D02*
G01X21640755Y3196448D01*
G01X21711367Y3236580D02*
G01X21711367Y3139298D01*
G01X21716955Y3122280D01*
G01X21728385Y3116438D01*
G01X21739815Y3116438D01*
G01X21694095Y3196448D02*
G01X21734227Y3196448D01*
G01X21816269Y3196448D02*
G01X21804839Y3190860D01*
G01X21793409Y3179430D01*
G01X21787567Y3162158D01*
G01X21787567Y3150728D01*
G01X21793409Y3133710D01*
G01X21804839Y3122280D01*
G01X21816269Y3116438D01*
G01X21833287Y3116438D01*
G01X21844717Y3122280D01*
G01X21856147Y3133710D01*
G01X21861989Y3150728D01*
G01X21861989Y3162158D01*
G01X21856147Y3179430D01*
G01X21844717Y3190860D01*
G01X21833287Y3196448D01*
G01X21816269Y3196448D01*
G01X21909741Y3196448D02*
G01X21909741Y3116438D01*
G01X21909741Y3173588D02*
G01X21927013Y3190860D01*
G01X21938443Y3196448D01*
G01X21955461Y3196448D01*
G01X21966891Y3190860D01*
G01X21972733Y3173588D01*
G01X21972733Y3116438D01*
G01X21972733Y3173588D02*
G01X21989751Y3190860D01*
G01X22001181Y3196448D01*
G01X22018453Y3196448D01*
G01X22029883Y3190860D01*
G01X22035471Y3173588D01*
G01X22035471Y3116438D01*
G01X22211239Y3236580D02*
G01X22211239Y3116438D01*
G01X22211239Y3116438D02*
G01X22279819Y3116438D01*
G01X22396151Y3196448D02*
G01X22396151Y3116438D01*
G01X22396151Y3179430D02*
G01X22384721Y3190860D01*
G01X22373291Y3196448D01*
G01X22356273Y3196448D01*
G01X22344843Y3190860D01*
G01X22333413Y3179430D01*
G01X22327571Y3162158D01*
G01X22327571Y3150728D01*
G01X22333413Y3133710D01*
G01X22344843Y3122280D01*
G01X22356273Y3116438D01*
G01X22373291Y3116438D01*
G01X22384721Y3122280D01*
G01X22396151Y3133710D01*
G01X22449745Y3196448D02*
G01X22484035Y3116438D01*
G01X22518325Y3196448D02*
G01X22484035Y3116438D01*
G01X22472605Y3093578D01*
G01X22461175Y3082148D01*
G01X22449745Y3076560D01*
G01X22443903Y3076560D01*
G01X22566077Y3162158D02*
G01X22634657Y3162158D01*
G01X22634657Y3173588D01*
G01X22629069Y3185018D01*
G01X22623227Y3190860D01*
G01X22611797Y3196448D01*
G01X22594779Y3196448D01*
G01X22583349Y3190860D01*
G01X22571919Y3179430D01*
G01X22566077Y3162158D01*
G01X22566077Y3150728D01*
G01X22571919Y3133710D01*
G01X22583349Y3122280D01*
G01X22594779Y3116438D01*
G01X22611797Y3116438D01*
G01X22623227Y3122280D01*
G01X22634657Y3133710D01*
G01X22682409Y3196448D02*
G01X22682409Y3116438D01*
G01X22682409Y3162158D02*
G01X22688251Y3179430D01*
G01X22699681Y3190860D01*
G01X22711111Y3196448D01*
G01X22728129Y3196448D01*
G01X8420454Y2638737D02*
G01X8414866Y2650167D01*
G01X8397594Y2656009D01*
G01X8386164Y2656009D01*
G01X8369146Y2650167D01*
G01X8357716Y2633149D01*
G01X8351874Y2604447D01*
G01X8351874Y2575999D01*
G01X8357716Y2553139D01*
G01X8369146Y2541709D01*
G01X8386164Y2535867D01*
G01X8392006Y2535867D01*
G01X8409024Y2541709D01*
G01X8420454Y2553139D01*
G01X8426296Y2570157D01*
G01X8426296Y2575999D01*
G01X8420454Y2593017D01*
G01X8409024Y2604447D01*
G01X8392006Y2610289D01*
G01X8386164Y2610289D01*
G01X8369146Y2604447D01*
G01X8357716Y2593017D01*
G01X8351874Y2575999D01*
G01X9777467Y2656009D02*
G01X9840459Y2656009D01*
G01X9806169Y2610289D01*
G01X9823187Y2610289D01*
G01X9834617Y2604447D01*
G01X9840459Y2598859D01*
G01X9846047Y2581587D01*
G01X9846047Y2570157D01*
G01X9840459Y2553139D01*
G01X9829029Y2541709D01*
G01X9811757Y2535867D01*
G01X9794739Y2535867D01*
G01X9777467Y2541709D01*
G01X9771879Y2547297D01*
G01X9766037Y2558727D01*
G01X9962379Y2656009D02*
G01X9905229Y2656009D01*
G01X9899641Y2604447D01*
G01X9905229Y2610289D01*
G01X9922501Y2615877D01*
G01X9939519Y2615877D01*
G01X9956791Y2610289D01*
G01X9968221Y2598859D01*
G01X9973809Y2581587D01*
G01X9973809Y2570157D01*
G01X9968221Y2553139D01*
G01X9956791Y2541709D01*
G01X9939519Y2535867D01*
G01X9922501Y2535867D01*
G01X9905229Y2541709D01*
G01X9899641Y2547297D01*
G01X9893799Y2558727D01*
G01X10027403Y2564569D02*
G01X10021561Y2558727D01*
G01X10027403Y2553139D01*
G01X10032991Y2558727D01*
G01X10027403Y2564569D01*
G01X10137893Y2656009D02*
G01X10080743Y2575999D01*
G01X10166595Y2575999D01*
G01X10137893Y2656009D02*
G01X10137893Y2535867D01*
G01X10214347Y2615877D02*
G01X10277339Y2535867D01*
G01X10277339Y2615877D02*
G01X10214347Y2535867D01*
G01X10336521Y2656009D02*
G01X10399513Y2656009D01*
G01X10365223Y2610289D01*
G01X10382241Y2610289D01*
G01X10393671Y2604447D01*
G01X10399513Y2598859D01*
G01X10405101Y2581587D01*
G01X10405101Y2570157D01*
G01X10399513Y2553139D01*
G01X10388083Y2541709D01*
G01X10370811Y2535867D01*
G01X10353793Y2535867D01*
G01X10336521Y2541709D01*
G01X10330933Y2547297D01*
G01X10325091Y2558727D01*
G01X10521433Y2656009D02*
G01X10464283Y2656009D01*
G01X10458695Y2604447D01*
G01X10464283Y2610289D01*
G01X10481555Y2615877D01*
G01X10498573Y2615877D01*
G01X10515845Y2610289D01*
G01X10527275Y2598859D01*
G01X10532863Y2581587D01*
G01X10532863Y2570157D01*
G01X10527275Y2553139D01*
G01X10515845Y2541709D01*
G01X10498573Y2535867D01*
G01X10481555Y2535867D01*
G01X10464283Y2541709D01*
G01X10458695Y2547297D01*
G01X10452853Y2558727D01*
G01X10586457Y2564569D02*
G01X10580615Y2558727D01*
G01X10586457Y2553139D01*
G01X10592045Y2558727D01*
G01X10586457Y2564569D01*
G01X10696947Y2656009D02*
G01X10639797Y2575999D01*
G01X10725649Y2575999D01*
G01X10696947Y2656009D02*
G01X10696947Y2535867D01*
G01X10773401Y2615877D02*
G01X10773401Y2535867D01*
G01X10773401Y2593017D02*
G01X10790673Y2610289D01*
G01X10802103Y2615877D01*
G01X10819121Y2615877D01*
G01X10830551Y2610289D01*
G01X10836393Y2593017D01*
G01X10836393Y2535867D01*
G01X10836393Y2593017D02*
G01X10853411Y2610289D01*
G01X10864841Y2615877D01*
G01X10882113Y2615877D01*
G01X10893543Y2610289D01*
G01X10899131Y2593017D01*
G01X10899131Y2535867D01*
G01X10946883Y2656009D02*
G01X10952725Y2650167D01*
G01X10958313Y2656009D01*
G01X10952725Y2661597D01*
G01X10946883Y2656009D01*
G01X10952725Y2615877D02*
G01X10952725Y2535867D01*
G01X11006065Y2656009D02*
G01X11006065Y2535867D01*
G01X11093949Y2678869D02*
G01X11082519Y2667439D01*
G01X11071089Y2650167D01*
G01X11059659Y2627307D01*
G01X11053817Y2598859D01*
G01X11053817Y2575999D01*
G01X11059659Y2547297D01*
G01X11071089Y2524437D01*
G01X11082519Y2507419D01*
G01X11093949Y2495989D01*
G01X11175991Y2656009D02*
G01X11158973Y2650167D01*
G01X11147543Y2633149D01*
G01X11141701Y2604447D01*
G01X11141701Y2587429D01*
G01X11147543Y2558727D01*
G01X11158973Y2541709D01*
G01X11175991Y2535867D01*
G01X11187421Y2535867D01*
G01X11204693Y2541709D01*
G01X11216123Y2558727D01*
G01X11221711Y2587429D01*
G01X11221711Y2604447D01*
G01X11216123Y2633149D01*
G01X11204693Y2650167D01*
G01X11187421Y2656009D01*
G01X11175991Y2656009D01*
G01X11275305Y2564569D02*
G01X11269463Y2558727D01*
G01X11275305Y2553139D01*
G01X11280893Y2558727D01*
G01X11275305Y2564569D01*
G01X11403067Y2615877D02*
G01X11397225Y2598859D01*
G01X11385795Y2587429D01*
G01X11368777Y2581587D01*
G01X11362935Y2581587D01*
G01X11345917Y2587429D01*
G01X11334487Y2598859D01*
G01X11328645Y2615877D01*
G01X11328645Y2621719D01*
G01X11334487Y2638737D01*
G01X11345917Y2650167D01*
G01X11362935Y2656009D01*
G01X11368777Y2656009D01*
G01X11385795Y2650167D01*
G01X11397225Y2638737D01*
G01X11403067Y2615877D01*
G01X11403067Y2587429D01*
G01X11397225Y2558727D01*
G01X11385795Y2541709D01*
G01X11368777Y2535867D01*
G01X11357347Y2535867D01*
G01X11340075Y2541709D01*
G01X11334487Y2553139D01*
G01X11485109Y2656009D02*
G01X11468091Y2650167D01*
G01X11456661Y2633149D01*
G01X11450819Y2604447D01*
G01X11450819Y2587429D01*
G01X11456661Y2558727D01*
G01X11468091Y2541709D01*
G01X11485109Y2535867D01*
G01X11496539Y2535867D01*
G01X11513811Y2541709D01*
G01X11525241Y2558727D01*
G01X11530829Y2587429D01*
G01X11530829Y2604447D01*
G01X11525241Y2633149D01*
G01X11513811Y2650167D01*
G01X11496539Y2656009D01*
G01X11485109Y2656009D01*
G01X11612871Y2656009D02*
G01X11595853Y2650167D01*
G01X11584423Y2633149D01*
G01X11578581Y2604447D01*
G01X11578581Y2587429D01*
G01X11584423Y2558727D01*
G01X11595853Y2541709D01*
G01X11612871Y2535867D01*
G01X11624301Y2535867D01*
G01X11641573Y2541709D01*
G01X11653003Y2558727D01*
G01X11658591Y2587429D01*
G01X11658591Y2604447D01*
G01X11653003Y2633149D01*
G01X11641573Y2650167D01*
G01X11624301Y2656009D01*
G01X11612871Y2656009D01*
G01X11706343Y2615877D02*
G01X11769335Y2535867D01*
G01X11769335Y2615877D02*
G01X11706343Y2535867D01*
G01X11851377Y2656009D02*
G01X11834359Y2650167D01*
G01X11822929Y2633149D01*
G01X11817087Y2604447D01*
G01X11817087Y2587429D01*
G01X11822929Y2558727D01*
G01X11834359Y2541709D01*
G01X11851377Y2535867D01*
G01X11862807Y2535867D01*
G01X11880079Y2541709D01*
G01X11891509Y2558727D01*
G01X11897097Y2587429D01*
G01X11897097Y2604447D01*
G01X11891509Y2633149D01*
G01X11880079Y2650167D01*
G01X11862807Y2656009D01*
G01X11851377Y2656009D01*
G01X11950691Y2564569D02*
G01X11944849Y2558727D01*
G01X11950691Y2553139D01*
G01X11956279Y2558727D01*
G01X11950691Y2564569D01*
G01X12078453Y2615877D02*
G01X12072611Y2598859D01*
G01X12061181Y2587429D01*
G01X12044163Y2581587D01*
G01X12038321Y2581587D01*
G01X12021303Y2587429D01*
G01X12009873Y2598859D01*
G01X12004031Y2615877D01*
G01X12004031Y2621719D01*
G01X12009873Y2638737D01*
G01X12021303Y2650167D01*
G01X12038321Y2656009D01*
G01X12044163Y2656009D01*
G01X12061181Y2650167D01*
G01X12072611Y2638737D01*
G01X12078453Y2615877D01*
G01X12078453Y2587429D01*
G01X12072611Y2558727D01*
G01X12061181Y2541709D01*
G01X12044163Y2535867D01*
G01X12032733Y2535867D01*
G01X12015461Y2541709D01*
G01X12009873Y2553139D01*
G01X12160495Y2656009D02*
G01X12143477Y2650167D01*
G01X12132047Y2633149D01*
G01X12126205Y2604447D01*
G01X12126205Y2587429D01*
G01X12132047Y2558727D01*
G01X12143477Y2541709D01*
G01X12160495Y2535867D01*
G01X12171925Y2535867D01*
G01X12189197Y2541709D01*
G01X12200627Y2558727D01*
G01X12206215Y2587429D01*
G01X12206215Y2604447D01*
G01X12200627Y2633149D01*
G01X12189197Y2650167D01*
G01X12171925Y2656009D01*
G01X12160495Y2656009D01*
G01X12288257Y2656009D02*
G01X12271239Y2650167D01*
G01X12259809Y2633149D01*
G01X12253967Y2604447D01*
G01X12253967Y2587429D01*
G01X12259809Y2558727D01*
G01X12271239Y2541709D01*
G01X12288257Y2535867D01*
G01X12299687Y2535867D01*
G01X12316959Y2541709D01*
G01X12328389Y2558727D01*
G01X12333977Y2587429D01*
G01X12333977Y2604447D01*
G01X12328389Y2633149D01*
G01X12316959Y2650167D01*
G01X12299687Y2656009D01*
G01X12288257Y2656009D01*
G01X12381729Y2615877D02*
G01X12381729Y2535867D01*
G01X12381729Y2593017D02*
G01X12399001Y2610289D01*
G01X12410431Y2615877D01*
G01X12427449Y2615877D01*
G01X12438879Y2610289D01*
G01X12444721Y2593017D01*
G01X12444721Y2535867D01*
G01X12444721Y2593017D02*
G01X12461739Y2610289D01*
G01X12473169Y2615877D01*
G01X12490441Y2615877D01*
G01X12501871Y2610289D01*
G01X12507459Y2593017D01*
G01X12507459Y2535867D01*
G01X12555211Y2615877D02*
G01X12555211Y2535867D01*
G01X12555211Y2593017D02*
G01X12572483Y2610289D01*
G01X12583913Y2615877D01*
G01X12600931Y2615877D01*
G01X12612361Y2610289D01*
G01X12618203Y2593017D01*
G01X12618203Y2535867D01*
G01X12618203Y2593017D02*
G01X12635221Y2610289D01*
G01X12646651Y2615877D01*
G01X12663923Y2615877D01*
G01X12675353Y2610289D01*
G01X12680941Y2593017D01*
G01X12680941Y2535867D01*
G01X12728693Y2678869D02*
G01X12740123Y2667439D01*
G01X12751553Y2650167D01*
G01X12762983Y2627307D01*
G01X12768825Y2598859D01*
G01X12768825Y2575999D01*
G01X12762983Y2547297D01*
G01X12751553Y2524437D01*
G01X12740123Y2507419D01*
G01X12728693Y2495989D01*
G01X13660003Y2656009D02*
G01X13660003Y2535867D01*
G01X13660003Y2656009D02*
G01X13711565Y2656009D01*
G01X13728583Y2650167D01*
G01X13734425Y2644579D01*
G01X13740013Y2633149D01*
G01X13740013Y2615877D01*
G01X13734425Y2604447D01*
G01X13728583Y2598859D01*
G01X13711565Y2593017D01*
G01X13660003Y2593017D01*
G01X13827897Y2656009D02*
G01X13827897Y2535867D01*
G01X13787765Y2656009D02*
G01X13867775Y2656009D01*
G01X13915527Y2656009D02*
G01X13915527Y2535867D01*
G01X13995537Y2656009D02*
G01X13995537Y2535867D01*
G01X13915527Y2598859D02*
G01X13995537Y2598859D01*
G01X15121410Y2656009D02*
G01X15121410Y2535867D01*
G01X15121410Y2656009D02*
G01X15172972Y2656009D01*
G01X15189990Y2650167D01*
G01X15195832Y2644579D01*
G01X15201420Y2633149D01*
G01X15201420Y2621719D01*
G01X15195832Y2610289D01*
G01X15189990Y2604447D01*
G01X15172972Y2598859D01*
G01X15121410Y2598859D01*
G01X15161542Y2598859D02*
G01X15201420Y2535867D01*
G01X15277874Y2615877D02*
G01X15266444Y2610289D01*
G01X15255014Y2598859D01*
G01X15249172Y2581587D01*
G01X15249172Y2570157D01*
G01X15255014Y2553139D01*
G01X15266444Y2541709D01*
G01X15277874Y2535867D01*
G01X15294892Y2535867D01*
G01X15306322Y2541709D01*
G01X15317752Y2553139D01*
G01X15323594Y2570157D01*
G01X15323594Y2581587D01*
G01X15317752Y2598859D01*
G01X15306322Y2610289D01*
G01X15294892Y2615877D01*
G01X15277874Y2615877D01*
G01X15371346Y2615877D02*
G01X15371346Y2558727D01*
G01X15377188Y2541709D01*
G01X15388618Y2535867D01*
G01X15405636Y2535867D01*
G01X15417066Y2541709D01*
G01X15434338Y2558727D01*
G01X15434338Y2615877D02*
G01X15434338Y2535867D01*
G01X15482090Y2615877D02*
G01X15482090Y2535867D01*
G01X15482090Y2593017D02*
G01X15499362Y2610289D01*
G01X15510792Y2615877D01*
G01X15527810Y2615877D01*
G01X15539240Y2610289D01*
G01X15545082Y2593017D01*
G01X15545082Y2535867D01*
G01X15661414Y2656009D02*
G01X15661414Y2535867D01*
G01X15661414Y2598859D02*
G01X15649984Y2610289D01*
G01X15638554Y2615877D01*
G01X15621536Y2615877D01*
G01X15610106Y2610289D01*
G01X15598676Y2598859D01*
G01X15592834Y2581587D01*
G01X15592834Y2570157D01*
G01X15598676Y2553139D01*
G01X15610106Y2541709D01*
G01X15621536Y2535867D01*
G01X15638554Y2535867D01*
G01X15649984Y2541709D01*
G01X15661414Y2553139D01*
G01X16552591Y2656009D02*
G01X16552591Y2535867D01*
G01X16552591Y2656009D02*
G01X16604153Y2656009D01*
G01X16621171Y2650167D01*
G01X16627013Y2644579D01*
G01X16632601Y2633149D01*
G01X16632601Y2615877D01*
G01X16627013Y2604447D01*
G01X16621171Y2598859D01*
G01X16604153Y2593017D01*
G01X16552591Y2593017D01*
G01X16748933Y2615877D02*
G01X16748933Y2535867D01*
G01X16748933Y2598859D02*
G01X16737503Y2610289D01*
G01X16726073Y2615877D01*
G01X16709055Y2615877D01*
G01X16697625Y2610289D01*
G01X16686195Y2598859D01*
G01X16680353Y2581587D01*
G01X16680353Y2570157D01*
G01X16686195Y2553139D01*
G01X16697625Y2541709D01*
G01X16709055Y2535867D01*
G01X16726073Y2535867D01*
G01X16737503Y2541709D01*
G01X16748933Y2553139D01*
G01X16865265Y2656009D02*
G01X16865265Y2535867D01*
G01X16865265Y2598859D02*
G01X16853835Y2610289D01*
G01X16842405Y2615877D01*
G01X16825387Y2615877D01*
G01X16813957Y2610289D01*
G01X16802527Y2598859D01*
G01X16796685Y2581587D01*
G01X16796685Y2570157D01*
G01X16802527Y2553139D01*
G01X16813957Y2541709D01*
G01X16825387Y2535867D01*
G01X16842405Y2535867D01*
G01X16853835Y2541709D01*
G01X16865265Y2553139D01*
G01X18261902Y2678869D02*
G01X18250472Y2667439D01*
G01X18239042Y2650167D01*
G01X18227612Y2627307D01*
G01X18221770Y2598859D01*
G01X18221770Y2575999D01*
G01X18227612Y2547297D01*
G01X18239042Y2524437D01*
G01X18250472Y2507419D01*
G01X18261902Y2495989D01*
G01X18309654Y2656009D02*
G01X18309654Y2535867D01*
G01X18309654Y2656009D02*
G01X18355374Y2535867D01*
G01X18401094Y2656009D02*
G01X18355374Y2535867D01*
G01X18401094Y2656009D02*
G01X18401094Y2535867D01*
G01X18448846Y2656009D02*
G01X18454688Y2650167D01*
G01X18460276Y2656009D01*
G01X18454688Y2661597D01*
G01X18448846Y2656009D01*
G01X18454688Y2615877D02*
G01X18454688Y2535867D01*
G01X18508028Y2615877D02*
G01X18571020Y2535867D01*
G01X18571020Y2615877D02*
G01X18508028Y2535867D01*
G01X18618772Y2581587D02*
G01X18687352Y2581587D01*
G01X18687352Y2593017D01*
G01X18681764Y2604447D01*
G01X18675922Y2610289D01*
G01X18664492Y2615877D01*
G01X18647474Y2615877D01*
G01X18636044Y2610289D01*
G01X18624614Y2598859D01*
G01X18618772Y2581587D01*
G01X18618772Y2570157D01*
G01X18624614Y2553139D01*
G01X18636044Y2541709D01*
G01X18647474Y2535867D01*
G01X18664492Y2535867D01*
G01X18675922Y2541709D01*
G01X18687352Y2553139D01*
G01X18803684Y2656009D02*
G01X18803684Y2535867D01*
G01X18803684Y2598859D02*
G01X18792254Y2610289D01*
G01X18780824Y2615877D01*
G01X18763806Y2615877D01*
G01X18752376Y2610289D01*
G01X18740946Y2598859D01*
G01X18735104Y2581587D01*
G01X18735104Y2570157D01*
G01X18740946Y2553139D01*
G01X18752376Y2541709D01*
G01X18763806Y2535867D01*
G01X18780824Y2535867D01*
G01X18792254Y2541709D01*
G01X18803684Y2553139D01*
G01X18851436Y2678869D02*
G01X18862866Y2667439D01*
G01X18874296Y2650167D01*
G01X18885726Y2627307D01*
G01X18891568Y2598859D01*
G01X18891568Y2575999D01*
G01X18885726Y2547297D01*
G01X18874296Y2524437D01*
G01X18862866Y2507419D01*
G01X18851436Y2495989D01*
G01X20181271Y2656009D02*
G01X20181271Y2535867D01*
G01X20141139Y2656009D02*
G01X20221149Y2656009D01*
G01X20297603Y2615877D02*
G01X20286173Y2610289D01*
G01X20274743Y2598859D01*
G01X20268901Y2581587D01*
G01X20268901Y2570157D01*
G01X20274743Y2553139D01*
G01X20286173Y2541709D01*
G01X20297603Y2535867D01*
G01X20314621Y2535867D01*
G01X20326051Y2541709D01*
G01X20337481Y2553139D01*
G01X20343323Y2570157D01*
G01X20343323Y2581587D01*
G01X20337481Y2598859D01*
G01X20326051Y2610289D01*
G01X20314621Y2615877D01*
G01X20297603Y2615877D01*
G01X20391075Y2615877D02*
G01X20391075Y2495989D01*
G01X20391075Y2598859D02*
G01X20402505Y2610289D01*
G01X20413935Y2615877D01*
G01X20431207Y2615877D01*
G01X20442637Y2610289D01*
G01X20454067Y2598859D01*
G01X20459655Y2581587D01*
G01X20459655Y2570157D01*
G01X20454067Y2553139D01*
G01X20442637Y2541709D01*
G01X20431207Y2535867D01*
G01X20413935Y2535867D01*
G01X20402505Y2541709D01*
G01X20391075Y2553139D01*
G01X20635423Y2656009D02*
G01X20635423Y2535867D01*
G01X20635423Y2535867D02*
G01X20704003Y2535867D01*
G01X20820335Y2615877D02*
G01X20820335Y2535867D01*
G01X20820335Y2598859D02*
G01X20808905Y2610289D01*
G01X20797475Y2615877D01*
G01X20780457Y2615877D01*
G01X20769027Y2610289D01*
G01X20757597Y2598859D01*
G01X20751755Y2581587D01*
G01X20751755Y2570157D01*
G01X20757597Y2553139D01*
G01X20769027Y2541709D01*
G01X20780457Y2535867D01*
G01X20797475Y2535867D01*
G01X20808905Y2541709D01*
G01X20820335Y2553139D01*
G01X20873929Y2615877D02*
G01X20908219Y2535867D01*
G01X20942509Y2615877D02*
G01X20908219Y2535867D01*
G01X20896789Y2513007D01*
G01X20885359Y2501577D01*
G01X20873929Y2495989D01*
G01X20868087Y2495989D01*
G01X20990261Y2581587D02*
G01X21058841Y2581587D01*
G01X21058841Y2593017D01*
G01X21053253Y2604447D01*
G01X21047411Y2610289D01*
G01X21035981Y2615877D01*
G01X21018963Y2615877D01*
G01X21007533Y2610289D01*
G01X20996103Y2598859D01*
G01X20990261Y2581587D01*
G01X20990261Y2570157D01*
G01X20996103Y2553139D01*
G01X21007533Y2541709D01*
G01X21018963Y2535867D01*
G01X21035981Y2535867D01*
G01X21047411Y2541709D01*
G01X21058841Y2553139D01*
G01X21106593Y2615877D02*
G01X21106593Y2535867D01*
G01X21106593Y2581587D02*
G01X21112435Y2598859D01*
G01X21123865Y2610289D01*
G01X21135295Y2615877D01*
G01X21152313Y2615877D01*
G01X21200065Y2587429D02*
G01X21302935Y2587429D01*
G01X21350687Y2656009D02*
G01X21350687Y2535867D01*
G01X21350687Y2656009D02*
G01X21402249Y2656009D01*
G01X21419267Y2650167D01*
G01X21425109Y2644579D01*
G01X21430697Y2633149D01*
G01X21430697Y2621719D01*
G01X21425109Y2610289D01*
G01X21419267Y2604447D01*
G01X21402249Y2598859D01*
G01X21350687Y2598859D02*
G01X21402249Y2598859D01*
G01X21419267Y2593017D01*
G01X21425109Y2587429D01*
G01X21430697Y2575999D01*
G01X21430697Y2558727D01*
G01X21425109Y2547297D01*
G01X21419267Y2541709D01*
G01X21402249Y2535867D01*
G01X21350687Y2535867D01*
G01X21507151Y2615877D02*
G01X21495721Y2610289D01*
G01X21484291Y2598859D01*
G01X21478449Y2581587D01*
G01X21478449Y2570157D01*
G01X21484291Y2553139D01*
G01X21495721Y2541709D01*
G01X21507151Y2535867D01*
G01X21524169Y2535867D01*
G01X21535599Y2541709D01*
G01X21547029Y2553139D01*
G01X21552871Y2570157D01*
G01X21552871Y2581587D01*
G01X21547029Y2598859D01*
G01X21535599Y2610289D01*
G01X21524169Y2615877D01*
G01X21507151Y2615877D01*
G01X21617895Y2656009D02*
G01X21617895Y2558727D01*
G01X21623483Y2541709D01*
G01X21634913Y2535867D01*
G01X21646343Y2535867D01*
G01X21600623Y2615877D02*
G01X21640755Y2615877D01*
G01X21711367Y2656009D02*
G01X21711367Y2558727D01*
G01X21716955Y2541709D01*
G01X21728385Y2535867D01*
G01X21739815Y2535867D01*
G01X21694095Y2615877D02*
G01X21734227Y2615877D01*
G01X21816269Y2615877D02*
G01X21804839Y2610289D01*
G01X21793409Y2598859D01*
G01X21787567Y2581587D01*
G01X21787567Y2570157D01*
G01X21793409Y2553139D01*
G01X21804839Y2541709D01*
G01X21816269Y2535867D01*
G01X21833287Y2535867D01*
G01X21844717Y2541709D01*
G01X21856147Y2553139D01*
G01X21861989Y2570157D01*
G01X21861989Y2581587D01*
G01X21856147Y2598859D01*
G01X21844717Y2610289D01*
G01X21833287Y2615877D01*
G01X21816269Y2615877D01*
G01X21909741Y2615877D02*
G01X21909741Y2535867D01*
G01X21909741Y2593017D02*
G01X21927013Y2610289D01*
G01X21938443Y2615877D01*
G01X21955461Y2615877D01*
G01X21966891Y2610289D01*
G01X21972733Y2593017D01*
G01X21972733Y2535867D01*
G01X21972733Y2593017D02*
G01X21989751Y2610289D01*
G01X22001181Y2615877D01*
G01X22018453Y2615877D01*
G01X22029883Y2610289D01*
G01X22035471Y2593017D01*
G01X22035471Y2535867D01*
G01X22211239Y2656009D02*
G01X22211239Y2535867D01*
G01X22211239Y2535867D02*
G01X22279819Y2535867D01*
G01X22396151Y2615877D02*
G01X22396151Y2535867D01*
G01X22396151Y2598859D02*
G01X22384721Y2610289D01*
G01X22373291Y2615877D01*
G01X22356273Y2615877D01*
G01X22344843Y2610289D01*
G01X22333413Y2598859D01*
G01X22327571Y2581587D01*
G01X22327571Y2570157D01*
G01X22333413Y2553139D01*
G01X22344843Y2541709D01*
G01X22356273Y2535867D01*
G01X22373291Y2535867D01*
G01X22384721Y2541709D01*
G01X22396151Y2553139D01*
G01X22449745Y2615877D02*
G01X22484035Y2535867D01*
G01X22518325Y2615877D02*
G01X22484035Y2535867D01*
G01X22472605Y2513007D01*
G01X22461175Y2501577D01*
G01X22449745Y2495989D01*
G01X22443903Y2495989D01*
G01X22566077Y2581587D02*
G01X22634657Y2581587D01*
G01X22634657Y2593017D01*
G01X22629069Y2604447D01*
G01X22623227Y2610289D01*
G01X22611797Y2615877D01*
G01X22594779Y2615877D01*
G01X22583349Y2610289D01*
G01X22571919Y2598859D01*
G01X22566077Y2581587D01*
G01X22566077Y2570157D01*
G01X22571919Y2553139D01*
G01X22583349Y2541709D01*
G01X22594779Y2535867D01*
G01X22611797Y2535867D01*
G01X22623227Y2541709D01*
G01X22634657Y2553139D01*
G01X22682409Y2615877D02*
G01X22682409Y2535867D01*
G01X22682409Y2581587D02*
G01X22688251Y2598859D01*
G01X22699681Y2610289D01*
G01X22711111Y2615877D01*
G01X22728129Y2615877D01*
G01X8363304Y2075437D02*
G01X8426296Y2075437D01*
G01X8392006Y2029717D01*
G01X8409024Y2029717D01*
G01X8420454Y2023875D01*
G01X8426296Y2018287D01*
G01X8431884Y2001015D01*
G01X8431884Y1989585D01*
G01X8426296Y1972567D01*
G01X8414866Y1961137D01*
G01X8397594Y1955295D01*
G01X8380576Y1955295D01*
G01X8363304Y1961137D01*
G01X8357716Y1966725D01*
G01X8351874Y1978155D01*
G01X8559646Y2075437D02*
G01X8502496Y1955295D01*
G01X8479636Y2075437D02*
G01X8559646Y2075437D01*
G01X9766037Y2052577D02*
G01X9777467Y2058165D01*
G01X9794739Y2075437D01*
G01X9794739Y1955295D01*
G01X9848333Y2046735D02*
G01X9848333Y2052577D01*
G01X9853921Y2064007D01*
G01X9859763Y2069595D01*
G01X9871193Y2075437D01*
G01X9894053Y2075437D01*
G01X9905483Y2069595D01*
G01X9911071Y2064007D01*
G01X9916913Y2052577D01*
G01X9916913Y2041147D01*
G01X9911071Y2029717D01*
G01X9899641Y2012445D01*
G01X9842491Y1955295D01*
G01X9922501Y1955295D01*
G01X9976095Y1983997D02*
G01X9970253Y1978155D01*
G01X9976095Y1972567D01*
G01X9981683Y1978155D01*
G01X9976095Y1983997D01*
G01X10063725Y2075437D02*
G01X10046707Y2069595D01*
G01X10035277Y2052577D01*
G01X10029435Y2023875D01*
G01X10029435Y2006857D01*
G01X10035277Y1978155D01*
G01X10046707Y1961137D01*
G01X10063725Y1955295D01*
G01X10075155Y1955295D01*
G01X10092427Y1961137D01*
G01X10103857Y1978155D01*
G01X10109445Y2006857D01*
G01X10109445Y2023875D01*
G01X10103857Y2052577D01*
G01X10092427Y2069595D01*
G01X10075155Y2075437D01*
G01X10063725Y2075437D01*
G01X10157197Y2035305D02*
G01X10157197Y1955295D01*
G01X10157197Y2012445D02*
G01X10174469Y2029717D01*
G01X10185899Y2035305D01*
G01X10202917Y2035305D01*
G01X10214347Y2029717D01*
G01X10220189Y2012445D01*
G01X10220189Y1955295D01*
G01X10220189Y2012445D02*
G01X10237207Y2029717D01*
G01X10248637Y2035305D01*
G01X10265909Y2035305D01*
G01X10277339Y2029717D01*
G01X10282927Y2012445D01*
G01X10282927Y1955295D01*
G01X10330679Y2075437D02*
G01X10336521Y2069595D01*
G01X10342109Y2075437D01*
G01X10336521Y2081025D01*
G01X10330679Y2075437D01*
G01X10336521Y2035305D02*
G01X10336521Y1955295D01*
G01X10389861Y2075437D02*
G01X10389861Y1955295D01*
G01X10477745Y2098297D02*
G01X10466315Y2086867D01*
G01X10454885Y2069595D01*
G01X10443455Y2046735D01*
G01X10437613Y2018287D01*
G01X10437613Y1995427D01*
G01X10443455Y1966725D01*
G01X10454885Y1943865D01*
G01X10466315Y1926847D01*
G01X10477745Y1915417D01*
G01X10559787Y2075437D02*
G01X10542769Y2069595D01*
G01X10531339Y2052577D01*
G01X10525497Y2023875D01*
G01X10525497Y2006857D01*
G01X10531339Y1978155D01*
G01X10542769Y1961137D01*
G01X10559787Y1955295D01*
G01X10571217Y1955295D01*
G01X10588489Y1961137D01*
G01X10599919Y1978155D01*
G01X10605507Y2006857D01*
G01X10605507Y2023875D01*
G01X10599919Y2052577D01*
G01X10588489Y2069595D01*
G01X10571217Y2075437D01*
G01X10559787Y2075437D01*
G01X10659101Y1983997D02*
G01X10653259Y1978155D01*
G01X10659101Y1972567D01*
G01X10664689Y1978155D01*
G01X10659101Y1983997D01*
G01X10723871Y2075437D02*
G01X10786863Y2075437D01*
G01X10752573Y2029717D01*
G01X10769591Y2029717D01*
G01X10781021Y2023875D01*
G01X10786863Y2018287D01*
G01X10792451Y2001015D01*
G01X10792451Y1989585D01*
G01X10786863Y1972567D01*
G01X10775433Y1961137D01*
G01X10758161Y1955295D01*
G01X10741143Y1955295D01*
G01X10723871Y1961137D01*
G01X10718283Y1966725D01*
G01X10712441Y1978155D01*
G01X10874493Y2075437D02*
G01X10857475Y2069595D01*
G01X10846045Y2052577D01*
G01X10840203Y2023875D01*
G01X10840203Y2006857D01*
G01X10846045Y1978155D01*
G01X10857475Y1961137D01*
G01X10874493Y1955295D01*
G01X10885923Y1955295D01*
G01X10903195Y1961137D01*
G01X10914625Y1978155D01*
G01X10920213Y2006857D01*
G01X10920213Y2023875D01*
G01X10914625Y2052577D01*
G01X10903195Y2069595D01*
G01X10885923Y2075437D01*
G01X10874493Y2075437D01*
G01X11036545Y2075437D02*
G01X10979395Y2075437D01*
G01X10973807Y2023875D01*
G01X10979395Y2029717D01*
G01X10996667Y2035305D01*
G01X11013685Y2035305D01*
G01X11030957Y2029717D01*
G01X11042387Y2018287D01*
G01X11047975Y2001015D01*
G01X11047975Y1989585D01*
G01X11042387Y1972567D01*
G01X11030957Y1961137D01*
G01X11013685Y1955295D01*
G01X10996667Y1955295D01*
G01X10979395Y1961137D01*
G01X10973807Y1966725D01*
G01X10967965Y1978155D01*
G01X11095727Y2035305D02*
G01X11095727Y1955295D01*
G01X11095727Y2012445D02*
G01X11112999Y2029717D01*
G01X11124429Y2035305D01*
G01X11141447Y2035305D01*
G01X11152877Y2029717D01*
G01X11158719Y2012445D01*
G01X11158719Y1955295D01*
G01X11158719Y2012445D02*
G01X11175737Y2029717D01*
G01X11187167Y2035305D01*
G01X11204439Y2035305D01*
G01X11215869Y2029717D01*
G01X11221457Y2012445D01*
G01X11221457Y1955295D01*
G01X11269209Y2035305D02*
G01X11269209Y1955295D01*
G01X11269209Y2012445D02*
G01X11286481Y2029717D01*
G01X11297911Y2035305D01*
G01X11314929Y2035305D01*
G01X11326359Y2029717D01*
G01X11332201Y2012445D01*
G01X11332201Y1955295D01*
G01X11332201Y2012445D02*
G01X11349219Y2029717D01*
G01X11360649Y2035305D01*
G01X11377921Y2035305D01*
G01X11389351Y2029717D01*
G01X11394939Y2012445D01*
G01X11394939Y1955295D01*
G01X11442691Y2098297D02*
G01X11454121Y2086867D01*
G01X11465551Y2069595D01*
G01X11476981Y2046735D01*
G01X11482823Y2018287D01*
G01X11482823Y1995427D01*
G01X11476981Y1966725D01*
G01X11465551Y1943865D01*
G01X11454121Y1926847D01*
G01X11442691Y1915417D01*
G01X13660003Y2075437D02*
G01X13660003Y1955295D01*
G01X13660003Y2075437D02*
G01X13711565Y2075437D01*
G01X13728583Y2069595D01*
G01X13734425Y2064007D01*
G01X13740013Y2052577D01*
G01X13740013Y2035305D01*
G01X13734425Y2023875D01*
G01X13728583Y2018287D01*
G01X13711565Y2012445D01*
G01X13660003Y2012445D01*
G01X13827897Y2075437D02*
G01X13827897Y1955295D01*
G01X13787765Y2075437D02*
G01X13867775Y2075437D01*
G01X13915527Y2075437D02*
G01X13915527Y1955295D01*
G01X13995537Y2075437D02*
G01X13995537Y1955295D01*
G01X13915527Y2018287D02*
G01X13995537Y2018287D01*
G01X15121410Y2075437D02*
G01X15121410Y1955295D01*
G01X15121410Y2075437D02*
G01X15172972Y2075437D01*
G01X15189990Y2069595D01*
G01X15195832Y2064007D01*
G01X15201420Y2052577D01*
G01X15201420Y2041147D01*
G01X15195832Y2029717D01*
G01X15189990Y2023875D01*
G01X15172972Y2018287D01*
G01X15121410Y2018287D01*
G01X15161542Y2018287D02*
G01X15201420Y1955295D01*
G01X15277874Y2035305D02*
G01X15266444Y2029717D01*
G01X15255014Y2018287D01*
G01X15249172Y2001015D01*
G01X15249172Y1989585D01*
G01X15255014Y1972567D01*
G01X15266444Y1961137D01*
G01X15277874Y1955295D01*
G01X15294892Y1955295D01*
G01X15306322Y1961137D01*
G01X15317752Y1972567D01*
G01X15323594Y1989585D01*
G01X15323594Y2001015D01*
G01X15317752Y2018287D01*
G01X15306322Y2029717D01*
G01X15294892Y2035305D01*
G01X15277874Y2035305D01*
G01X15371346Y2035305D02*
G01X15371346Y1978155D01*
G01X15377188Y1961137D01*
G01X15388618Y1955295D01*
G01X15405636Y1955295D01*
G01X15417066Y1961137D01*
G01X15434338Y1978155D01*
G01X15434338Y2035305D02*
G01X15434338Y1955295D01*
G01X15482090Y2035305D02*
G01X15482090Y1955295D01*
G01X15482090Y2012445D02*
G01X15499362Y2029717D01*
G01X15510792Y2035305D01*
G01X15527810Y2035305D01*
G01X15539240Y2029717D01*
G01X15545082Y2012445D01*
G01X15545082Y1955295D01*
G01X15661414Y2075437D02*
G01X15661414Y1955295D01*
G01X15661414Y2018287D02*
G01X15649984Y2029717D01*
G01X15638554Y2035305D01*
G01X15621536Y2035305D01*
G01X15610106Y2029717D01*
G01X15598676Y2018287D01*
G01X15592834Y2001015D01*
G01X15592834Y1989585D01*
G01X15598676Y1972567D01*
G01X15610106Y1961137D01*
G01X15621536Y1955295D01*
G01X15638554Y1955295D01*
G01X15649984Y1961137D01*
G01X15661414Y1972567D01*
G01X16552591Y2075437D02*
G01X16598311Y1955295D01*
G01X16644031Y2075437D02*
G01X16598311Y1955295D01*
G01X16691783Y2075437D02*
G01X16697625Y2069595D01*
G01X16703213Y2075437D01*
G01X16697625Y2081025D01*
G01X16691783Y2075437D01*
G01X16697625Y2035305D02*
G01X16697625Y1955295D01*
G01X16819545Y2035305D02*
G01X16819545Y1955295D01*
G01X16819545Y2018287D02*
G01X16808115Y2029717D01*
G01X16796685Y2035305D01*
G01X16779667Y2035305D01*
G01X16768237Y2029717D01*
G01X16756807Y2018287D01*
G01X16750965Y2001015D01*
G01X16750965Y1989585D01*
G01X16756807Y1972567D01*
G01X16768237Y1961137D01*
G01X16779667Y1955295D01*
G01X16796685Y1955295D01*
G01X16808115Y1961137D01*
G01X16819545Y1972567D01*
G01X20181271Y2075437D02*
G01X20181271Y1955295D01*
G01X20141139Y2075437D02*
G01X20221149Y2075437D01*
G01X20297603Y2035305D02*
G01X20286173Y2029717D01*
G01X20274743Y2018287D01*
G01X20268901Y2001015D01*
G01X20268901Y1989585D01*
G01X20274743Y1972567D01*
G01X20286173Y1961137D01*
G01X20297603Y1955295D01*
G01X20314621Y1955295D01*
G01X20326051Y1961137D01*
G01X20337481Y1972567D01*
G01X20343323Y1989585D01*
G01X20343323Y2001015D01*
G01X20337481Y2018287D01*
G01X20326051Y2029717D01*
G01X20314621Y2035305D01*
G01X20297603Y2035305D01*
G01X20391075Y2035305D02*
G01X20391075Y1915417D01*
G01X20391075Y2018287D02*
G01X20402505Y2029717D01*
G01X20413935Y2035305D01*
G01X20431207Y2035305D01*
G01X20442637Y2029717D01*
G01X20454067Y2018287D01*
G01X20459655Y2001015D01*
G01X20459655Y1989585D01*
G01X20454067Y1972567D01*
G01X20442637Y1961137D01*
G01X20431207Y1955295D01*
G01X20413935Y1955295D01*
G01X20402505Y1961137D01*
G01X20391075Y1972567D01*
G01X20635423Y2075437D02*
G01X20635423Y1955295D01*
G01X20635423Y1955295D02*
G01X20704003Y1955295D01*
G01X20820335Y2035305D02*
G01X20820335Y1955295D01*
G01X20820335Y2018287D02*
G01X20808905Y2029717D01*
G01X20797475Y2035305D01*
G01X20780457Y2035305D01*
G01X20769027Y2029717D01*
G01X20757597Y2018287D01*
G01X20751755Y2001015D01*
G01X20751755Y1989585D01*
G01X20757597Y1972567D01*
G01X20769027Y1961137D01*
G01X20780457Y1955295D01*
G01X20797475Y1955295D01*
G01X20808905Y1961137D01*
G01X20820335Y1972567D01*
G01X20873929Y2035305D02*
G01X20908219Y1955295D01*
G01X20942509Y2035305D02*
G01X20908219Y1955295D01*
G01X20896789Y1932435D01*
G01X20885359Y1921005D01*
G01X20873929Y1915417D01*
G01X20868087Y1915417D01*
G01X20990261Y2001015D02*
G01X21058841Y2001015D01*
G01X21058841Y2012445D01*
G01X21053253Y2023875D01*
G01X21047411Y2029717D01*
G01X21035981Y2035305D01*
G01X21018963Y2035305D01*
G01X21007533Y2029717D01*
G01X20996103Y2018287D01*
G01X20990261Y2001015D01*
G01X20990261Y1989585D01*
G01X20996103Y1972567D01*
G01X21007533Y1961137D01*
G01X21018963Y1955295D01*
G01X21035981Y1955295D01*
G01X21047411Y1961137D01*
G01X21058841Y1972567D01*
G01X21106593Y2035305D02*
G01X21106593Y1955295D01*
G01X21106593Y2001015D02*
G01X21112435Y2018287D01*
G01X21123865Y2029717D01*
G01X21135295Y2035305D01*
G01X21152313Y2035305D01*
G01X21200065Y2006857D02*
G01X21302935Y2006857D01*
G01X21350687Y2075437D02*
G01X21350687Y1955295D01*
G01X21350687Y2075437D02*
G01X21402249Y2075437D01*
G01X21419267Y2069595D01*
G01X21425109Y2064007D01*
G01X21430697Y2052577D01*
G01X21430697Y2041147D01*
G01X21425109Y2029717D01*
G01X21419267Y2023875D01*
G01X21402249Y2018287D01*
G01X21350687Y2018287D02*
G01X21402249Y2018287D01*
G01X21419267Y2012445D01*
G01X21425109Y2006857D01*
G01X21430697Y1995427D01*
G01X21430697Y1978155D01*
G01X21425109Y1966725D01*
G01X21419267Y1961137D01*
G01X21402249Y1955295D01*
G01X21350687Y1955295D01*
G01X21507151Y2035305D02*
G01X21495721Y2029717D01*
G01X21484291Y2018287D01*
G01X21478449Y2001015D01*
G01X21478449Y1989585D01*
G01X21484291Y1972567D01*
G01X21495721Y1961137D01*
G01X21507151Y1955295D01*
G01X21524169Y1955295D01*
G01X21535599Y1961137D01*
G01X21547029Y1972567D01*
G01X21552871Y1989585D01*
G01X21552871Y2001015D01*
G01X21547029Y2018287D01*
G01X21535599Y2029717D01*
G01X21524169Y2035305D01*
G01X21507151Y2035305D01*
G01X21617895Y2075437D02*
G01X21617895Y1978155D01*
G01X21623483Y1961137D01*
G01X21634913Y1955295D01*
G01X21646343Y1955295D01*
G01X21600623Y2035305D02*
G01X21640755Y2035305D01*
G01X21711367Y2075437D02*
G01X21711367Y1978155D01*
G01X21716955Y1961137D01*
G01X21728385Y1955295D01*
G01X21739815Y1955295D01*
G01X21694095Y2035305D02*
G01X21734227Y2035305D01*
G01X21816269Y2035305D02*
G01X21804839Y2029717D01*
G01X21793409Y2018287D01*
G01X21787567Y2001015D01*
G01X21787567Y1989585D01*
G01X21793409Y1972567D01*
G01X21804839Y1961137D01*
G01X21816269Y1955295D01*
G01X21833287Y1955295D01*
G01X21844717Y1961137D01*
G01X21856147Y1972567D01*
G01X21861989Y1989585D01*
G01X21861989Y2001015D01*
G01X21856147Y2018287D01*
G01X21844717Y2029717D01*
G01X21833287Y2035305D01*
G01X21816269Y2035305D01*
G01X21909741Y2035305D02*
G01X21909741Y1955295D01*
G01X21909741Y2012445D02*
G01X21927013Y2029717D01*
G01X21938443Y2035305D01*
G01X21955461Y2035305D01*
G01X21966891Y2029717D01*
G01X21972733Y2012445D01*
G01X21972733Y1955295D01*
G01X21972733Y2012445D02*
G01X21989751Y2029717D01*
G01X22001181Y2035305D01*
G01X22018453Y2035305D01*
G01X22029883Y2029717D01*
G01X22035471Y2012445D01*
G01X22035471Y1955295D01*
G01X22211239Y2075437D02*
G01X22211239Y1955295D01*
G01X22211239Y1955295D02*
G01X22279819Y1955295D01*
G01X22396151Y2035305D02*
G01X22396151Y1955295D01*
G01X22396151Y2018287D02*
G01X22384721Y2029717D01*
G01X22373291Y2035305D01*
G01X22356273Y2035305D01*
G01X22344843Y2029717D01*
G01X22333413Y2018287D01*
G01X22327571Y2001015D01*
G01X22327571Y1989585D01*
G01X22333413Y1972567D01*
G01X22344843Y1961137D01*
G01X22356273Y1955295D01*
G01X22373291Y1955295D01*
G01X22384721Y1961137D01*
G01X22396151Y1972567D01*
G01X22449745Y2035305D02*
G01X22484035Y1955295D01*
G01X22518325Y2035305D02*
G01X22484035Y1955295D01*
G01X22472605Y1932435D01*
G01X22461175Y1921005D01*
G01X22449745Y1915417D01*
G01X22443903Y1915417D01*
G01X22566077Y2001015D02*
G01X22634657Y2001015D01*
G01X22634657Y2012445D01*
G01X22629069Y2023875D01*
G01X22623227Y2029717D01*
G01X22611797Y2035305D01*
G01X22594779Y2035305D01*
G01X22583349Y2029717D01*
G01X22571919Y2018287D01*
G01X22566077Y2001015D01*
G01X22566077Y1989585D01*
G01X22571919Y1972567D01*
G01X22583349Y1961137D01*
G01X22594779Y1955295D01*
G01X22611797Y1955295D01*
G01X22623227Y1961137D01*
G01X22634657Y1972567D01*
G01X22682409Y2035305D02*
G01X22682409Y1955295D01*
G01X22682409Y2001015D02*
G01X22688251Y2018287D01*
G01X22699681Y2029717D01*
G01X22711111Y2035305D01*
G01X22728129Y2035305D01*

G04 Image Start*
G36*
G01X7187262Y2475396D02*
G01X7081649Y2486877D01*
G01X7038774Y2389671D01*
G01X6995899Y2486877D01*
G01X6890286Y2475396D01*
G01X6953049Y2561121D01*
G01X6913327Y2615376D01*
G01X6944819Y2615376D01*
G01X6984520Y2561121D01*
G01X6944819Y2506867D01*
G01X7011647Y2514131D01*
G01X7011647Y2514131D01*
G01X7038774Y2452638D01*
G01X7065901Y2514131D01*
G01X7132729Y2506867D01*
G01X7093028Y2561121D01*
G01X7132703Y2615350D01*
G01X7065876Y2608086D01*
G01X7038774Y2669605D01*
G01X7011647Y2608111D01*
G01X6944819Y2615376D01*
G01X6913327Y2615376D01*
G01X6890286Y2646846D01*
G01X6995924Y2635366D01*
G01X7038774Y2732571D01*
G01X7081649Y2635366D01*
G01X7187262Y2646846D01*
G01X7124499Y2561121D01*
G01X7187262Y2475396D01*
G37*
G36*
G01X7058269Y3589701D02*
G01X7050529Y3589113D01*
G01X7042686Y3588914D01*
G01X7034843Y3589113D01*
G01X7027102Y3589701D01*
G01X7019475Y3590670D01*
G01X7011970Y3592010D01*
G01X6997364Y3595765D01*
G01X6983362Y3600890D01*
G01X6970039Y3607307D01*
G01X6957474Y3614940D01*
G01X6945742Y3623713D01*
G01X6934920Y3633548D01*
G01X6925084Y3644371D01*
G01X6916311Y3656103D01*
G01X6908678Y3668668D01*
G01X6902261Y3681990D01*
G01X6897137Y3695992D01*
G01X6893382Y3710598D01*
G01X6892041Y3718104D01*
G01X6891072Y3725731D01*
G01X6890484Y3733471D01*
G01X6890286Y3741314D01*
G01X6915686Y3741314D01*
G01X6916343Y3728348D01*
G01X6918270Y3715752D01*
G01X6921405Y3703590D01*
G01X6925682Y3691928D01*
G01X6931036Y3680828D01*
G01X6937405Y3670357D01*
G01X6944723Y3660577D01*
G01X6952925Y3651554D01*
G01X6961949Y3643351D01*
G01X6971728Y3636034D01*
G01X6982200Y3629665D01*
G01X6993299Y3624310D01*
G01X7004961Y3620034D01*
G01X7017123Y3616899D01*
G01X7017123Y3616899D01*
G01X7029719Y3614971D01*
G01X7042686Y3614314D01*
G01X7055652Y3614971D01*
G01X7068248Y3616899D01*
G01X7080410Y3620034D01*
G01X7092072Y3624310D01*
G01X7103172Y3629665D01*
G01X7113643Y3636034D01*
G01X7123423Y3643351D01*
G01X7132446Y3651554D01*
G01X7140649Y3660577D01*
G01X7147966Y3670357D01*
G01X7154335Y3680828D01*
G01X7159690Y3691928D01*
G01X7163966Y3703590D01*
G01X7167101Y3715752D01*
G01X7169029Y3728348D01*
G01X7169686Y3741314D01*
G01X7169029Y3754281D01*
G01X7167101Y3766877D01*
G01X7163966Y3779038D01*
G01X7159690Y3790701D01*
G01X7154335Y3801800D01*
G01X7147966Y3812272D01*
G01X7140649Y3822051D01*
G01X7132446Y3831075D01*
G01X7123423Y3839277D01*
G01X7113643Y3846595D01*
G01X7103172Y3852963D01*
G01X7092072Y3858318D01*
G01X7080410Y3862595D01*
G01X7068248Y3865730D01*
G01X7055652Y3867657D01*
G01X7042686Y3868314D01*
G01X7029719Y3867657D01*
G01X7017123Y3865730D01*
G01X7004961Y3862595D01*
G01X6993299Y3858318D01*
G01X6982200Y3852963D01*
G01X6971728Y3846595D01*
G01X6961949Y3839277D01*
G01X6952925Y3831075D01*
G01X6944723Y3822051D01*
G01X6937405Y3812272D01*
G01X6931036Y3801800D01*
G01X6925682Y3790701D01*
G01X6921405Y3779038D01*
G01X6918270Y3766877D01*
G01X6916343Y3754281D01*
G01X6915686Y3741314D01*
G01X6890286Y3741314D01*
G01X6890484Y3749157D01*
G01X6891072Y3756898D01*
G01X6892041Y3764525D01*
G01X6893382Y3772030D01*
G01X6897137Y3786636D01*
G01X6902261Y3800638D01*
G01X6908678Y3813960D01*
G01X6916311Y3826526D01*
G01X6925084Y3838258D01*
G01X6934920Y3849080D01*
G01X6945742Y3858916D01*
G01X6957474Y3867689D01*
G01X6970039Y3875322D01*
G01X6983362Y3881739D01*
G01X6997364Y3886863D01*
G01X7011970Y3890618D01*
G01X7019475Y3891958D01*
G01X7027102Y3892928D01*
G01X7034843Y3893516D01*
G01X7042686Y3893714D01*
G01X7050529Y3893516D01*
G01X7058269Y3892928D01*
G01X7065896Y3891958D01*
G01X7073402Y3890618D01*
G01X7088007Y3886863D01*
G01X7102010Y3881739D01*
G01X7115332Y3875322D01*
G01X7127897Y3867689D01*
G01X7139629Y3858916D01*
G01X7150451Y3849080D01*
G01X7160287Y3838258D01*
G01X7169060Y3826526D01*
G01X7176693Y3813960D01*
G01X7183110Y3800638D01*
G01X7188235Y3786636D01*
G01X7191990Y3772030D01*
G01X7193330Y3764525D01*
G01X7194299Y3756898D01*
G01X7194887Y3749157D01*
G01X7195086Y3741314D01*
G01X7194887Y3733471D01*
G01X7194299Y3725731D01*
G01X7193330Y3718104D01*
G01X7191990Y3710598D01*
G01X7188235Y3695992D01*
G01X7183110Y3681990D01*
G01X7176693Y3668668D01*
G01X7169060Y3656103D01*
G01X7160287Y3644371D01*
G01X7150451Y3633548D01*
G01X7139629Y3623713D01*
G01X7127897Y3614940D01*
G01X7115332Y3607307D01*
G01X7102010Y3600890D01*
G01X7088007Y3595765D01*
G01X7073402Y3592010D01*
G01X7065896Y3590670D01*
G01X7058269Y3589701D01*
G37*
G36*
G01X7195086Y2152000D02*
G01X7125058Y1999600D01*
G01X7195086Y1847200D01*
G01X7042686Y1917228D01*
G01X6890286Y1847200D01*
G01X6914048Y1898914D01*
G01X6942000Y1898914D01*
G01X7032068Y1940316D01*
G01X7042686Y1945193D01*
G01X7053303Y1940316D01*
G01X7143371Y1898914D01*
G01X7101969Y1988983D01*
G01X7097092Y1999600D01*
G01X7101969Y2010217D01*
G01X7143371Y2100286D01*
G01X7053303Y2058884D01*
G01X7042686Y2054007D01*
G01X7032068Y2058884D01*
G01X6942000Y2100286D01*
G01X6983402Y2010217D01*
G01X6988279Y1999600D01*
G01X6988279Y1999600D01*
G01X6983402Y1988983D01*
G01X6942000Y1898914D01*
G01X6914048Y1898914D01*
G01X6960313Y1999600D01*
G01X6890286Y2152000D01*
G01X7042686Y2081972D01*
G01X7195086Y2152000D01*
G37*
G36*
G01X6890286Y3313143D02*
G01X7195086Y3313143D01*
G01X7042686Y3049186D01*
G01X6904951Y3287743D01*
G01X6934278Y3287743D01*
G01X7042686Y3099986D01*
G01X7151093Y3287743D01*
G01X7151093Y3287743D01*
G01X6934278Y3287743D01*
G01X6904951Y3287743D01*
G01X6890286Y3313143D01*
G37*
G36*
G01X6890286Y4474286D02*
G01X7169686Y4474286D01*
G01X7169686Y4194886D01*
G01X6890286Y4194886D01*
G01X6890286Y4448886D01*
G01X6915686Y4448886D01*
G01X6915686Y4220286D01*
G01X7144286Y4220286D01*
G01X7144286Y4448886D01*
G01X7144286Y4448886D01*
G01X6915686Y4448886D01*
G01X6890286Y4448886D01*
G01X6890286Y4474286D01*
G37*

G04 PolygonModel Start*
G54D16*
G01X6600000Y1716571D02*
G01X23318861Y1716571D01*
G01X6600000Y2297143D02*
G01X23318861Y2297143D01*
G01X6600000Y2877714D02*
G01X23318861Y2877714D01*
G01X6600000Y3458286D02*
G01X23318861Y3458286D01*
G01X6600000Y4038857D02*
G01X23318861Y4038857D01*
G01X6600000Y4619429D02*
G01X23318861Y4619429D01*
G01X6600000Y5200000D02*
G01X23318861Y5200000D01*
G01X6600000Y5200000D02*
G01X6600000Y1741971D01*
G01X8051429Y5200000D02*
G01X8051429Y1741971D01*
G01X9465592Y5200000D02*
G01X9465592Y1741971D01*
G01X13359557Y5200000D02*
G01X13359557Y1741971D01*
G01X14820964Y5200000D02*
G01X14820964Y1741971D01*
G01X16252145Y5200000D02*
G01X16252145Y1741971D01*
G01X17921324Y5200000D02*
G01X17921324Y1741971D01*
G01X19840693Y5200000D02*
G01X19840693Y1741971D01*
G01X23318861Y5200000D02*
G01X23318861Y1741971D01*

M02*

