G04 Layer: BottomSolderMaskLayer*
G04 EasyEDA Pro v3.2.69, 2026-01-08 09:06:00*
G04 Gerber Generator version 0.3*
G04 Scale: 100 percent, Rotated: No, Reflected: No*
G04 Dimensions in millimeters*
G04 Leading zeros omitted, absolute positions, 4 integers and 5 decimals*
G04 Generated by one-click*
%FSLAX45Y45*%
%MOMM*%
%AMRoundRect*1,1,$1,$2,$3*1,1,$1,$4,$5*1,1,$1,0-$2,0-$3*1,1,$1,0-$4,0-$5*20,1,$1,$2,$3,$4,$5,0*20,1,$1,$4,$5,0-$2,0-$3,0*20,1,$1,0-$2,0-$3,0-$4,0-$5,0*20,1,$1,0-$4,0-$5,$2,$3,0*4,1,4,$2,$3,$4,$5,0-$2,0-$3,0-$4,0-$5,$2,$3,0*%
%ADD10RoundRect,0.102X-0.45X-0.4X-0.45X0.4*%
%ADD11RoundRect,0.102X-0.1505X-0.29249X-0.15049X0.29249*%
%ADD12RoundRect,0.102X-0.4X0.45X0.4X0.45*%
%ADD13C,1.502*%
%ADD14RoundRect,0.102X-0.7X-0.762X-0.7X0.762*%
%ADD15RoundRect,0.1016X-0.3X-0.3X-0.3X0.3*%
%ADD16RoundRect,0.102X-0.2X0.255X0.2X0.255*%
%ADD17RoundRect,0.1016X-0.432X-0.40324X-0.432X0.40324*%
%ADD18RoundRect,0.1016X-0.40324X0.432X0.40324X0.432*%
%ADD19RoundRect,0.1063X-0.68X-0.615X-0.68X0.615*%
%ADD20RoundRect,0.102X-0.68X-0.615X-0.68X0.615*%
%ADD21RoundRect,0.102X-0.5X-0.3X-0.5X0.3*%
%ADD22RoundRect,0.102X-0.35X-0.5X-0.35X0.5*%
%ADD23RoundRect,0.10003X-0.5X-1.0X-0.5X1.0*%
%ADD24RoundRect,0.10003X-0.35X-0.35X-0.35X0.35*%
%ADD25RoundRect,0.102X-0.245X0.5785X0.245X0.5785*%
%ADD26RoundRect,0.102X-0.245X0.5875X0.245X0.5875*%
%ADD27RoundRect,0.102X-0.6X-0.3X-0.6X0.3*%
%ADD28RoundRect,0.102X-1.2X-1.65X-1.2X1.65*%
%ADD29RoundRect,0.1016X-0.4X0.6X0.4X0.6*%
%ADD30RoundRect,0.1016X-0.35X0.6X0.35X0.6*%
%ADD31O,1.202X1.802*%
%ADD32RoundRect,0.102X-0.62501X0.35X0.62501X0.35*%
%ADD33C,2.102*%
G75*


G04 Pad Start*
G54D10*
G01X901700Y4794098D03*
G01X901700Y4934102D03*
G01X1092200Y4438498D03*
G01X1092200Y4578502D03*
G01X1663700Y4937361D03*
G01X1663700Y4797356D03*
G54D11*
G01X1067600Y1918462D03*
G01X1167600Y1918462D03*
G01X1117613Y1789938D03*
G54D12*
G01X3588361Y389490D03*
G01X3448356Y389490D03*
G01X870102Y2057400D03*
G01X730098Y2057400D03*
G54D13*
G01X292101Y1998599D03*
G01X292101Y1798599D03*
G01X292101Y1598600D03*
G01X292101Y1398600D03*
G01X292101Y1198601D03*
G54D14*
G01X292101Y998601D03*
G54D15*
G01X2781300Y4166807D03*
G01X2781300Y4316794D03*
G54D16*
G01X1117587Y1535201D03*
G01X1067600Y1665199D03*
G01X1167600Y1665199D03*
G54D17*
G01X901700Y4583836D03*
G01X901700Y4433164D03*
G54D18*
G01X3009036Y863600D03*
G01X2858364Y863600D03*
G01X3009036Y685800D03*
G01X2858364Y685800D03*
G54D17*
G01X892885Y1584049D03*
G01X892885Y1734722D03*
G01X1282700Y4583836D03*
G01X1282700Y4433164D03*
G54D20*
G01X2800000Y1818491D03*
G01X2800000Y1381509D03*
G54D21*
G01X1342495Y1824993D03*
G01X1342495Y1524994D03*
G01X1342495Y1375007D03*
G54D22*
G01X1657505Y1235002D03*
G01X1657505Y1964998D03*
G01X1427483Y1964998D03*
G01X1427483Y1235002D03*
G54D23*
G01X720001Y4075005D03*
G01X869988Y4075005D03*
G01X1020001Y4075005D03*
G01X1169988Y4075005D03*
G01X1320000Y4075005D03*
G01X1469987Y4075005D03*
G01X1619999Y4075005D03*
G01X1769986Y4075005D03*
G01X1919999Y4075005D03*
G01X1919999Y2324995D03*
G01X1769986Y2324995D03*
G01X1619999Y2324995D03*
G01X1469987Y2324995D03*
G01X1320000Y2324995D03*
G01X1169988Y2324995D03*
G01X1020001Y2324995D03*
G01X869988Y2324995D03*
G01X720001Y2324995D03*
G54D24*
G01X1229982Y3213995D03*
G01X1339990Y3213995D03*
G01X1449997Y3213995D03*
G01X1229982Y3104013D03*
G01X1339990Y3104013D03*
G01X1449997Y3104013D03*
G01X1449997Y2994006D03*
G01X1339990Y2994006D03*
G01X1229982Y2994006D03*
G54D25*
G01X1289304Y4982726D03*
G01X1384300Y4982726D03*
G01X1479296Y4982726D03*
G54D26*
G01X1479296Y4751992D03*
G01X1289304Y4751992D03*
G54D27*
G01X3803806Y958488D03*
G01X3803806Y831488D03*
G01X3803806Y704488D03*
G01X3803806Y577488D03*
G01X3222146Y577488D03*
G01X3222146Y704488D03*
G01X3222146Y831488D03*
G01X3222146Y958488D03*
G54D28*
G01X3512976Y767988D03*
G54D29*
G01X2030011Y4647498D03*
G54D30*
G01X2150000Y4647498D03*
G01X2250000Y4647498D03*
G01X2350000Y4647498D03*
G01X2450000Y4647498D03*
G54D29*
G01X2569989Y4647498D03*
G54D31*
G01X2731990Y5052501D03*
G01X1868009Y5052501D03*
G01X2731990Y4672492D03*
G01X1868009Y4672492D03*
G54D15*
G01X2336800Y4166807D03*
G01X2336800Y4316794D03*
G01X2641600Y4166807D03*
G01X2641600Y4316794D03*
G54D32*
G01X1065120Y664157D03*
G01X1065120Y474165D03*
G01X865120Y569161D03*
G01X1446120Y664157D03*
G01X1446120Y474165D03*
G01X1246120Y569161D03*
G54D18*
G01X1040456Y848561D03*
G01X889784Y848561D03*
G54D17*
G01X2184400Y4166464D03*
G01X2184400Y4317136D03*
G01X2489200Y4166464D03*
G01X2489200Y4317136D03*
G54D18*
G01X1473984Y848561D03*
G01X1624656Y848561D03*
G54D17*
G01X1638220Y644497D03*
G01X1638220Y493824D03*
G54D33*
G01X525000Y4675000D03*
G01X4075000Y4675000D03*
G01X2300000Y1050000D03*
G54D17*
G01X3988258Y834854D03*
G01X3988258Y985526D03*
G54D10*
G01X1092200Y4797356D03*
G01X1092200Y4937361D03*
G54D17*
G01X692885Y1734722D03*
G01X692885Y1584049D03*
G04 Pad End*

M02*

