G04 Layer: TopSilkscreenLayer*
G04 EasyEDA Pro v3.2.69, 2026-01-08 09:06:00*
G04 Gerber Generator version 0.3*
G04 Scale: 100 percent, Rotated: No, Reflected: No*
G04 Dimensions in millimeters*
G04 Leading zeros omitted, absolute positions, 4 integers and 5 decimals*
G04 Generated by one-click*
%FSLAX45Y45*%
%MOMM*%
%ADD10C,0.1524*%
%ADD11C,0.254*%
%ADD12C,0.3*%
%ADD13C,0.5066*%
G75*


G04 Text Start*
G36*
G01X1709985Y4513724D02*
G01X1706576Y4513724D01*
G01X1702788Y4514861D01*
G01X1699000Y4516755D01*
G01X1696348Y4518648D01*
G01X1694455Y4520921D01*
G01X1692939Y4523951D01*
G01X1692182Y4528876D01*
G01X1692939Y4534557D01*
G01X1694833Y4538724D01*
G01X1697864Y4542133D01*
G01X1701273Y4544406D01*
G01X1703924Y4545542D01*
G01X1708091Y4545921D01*
G01X1713394Y4545164D01*
G01X1716803Y4543648D01*
G01X1719833Y4541755D01*
G01X1722485Y4539103D01*
G01X1724000Y4536073D01*
G01X1724758Y4530770D01*
G01X1724000Y4524709D01*
G01X1722485Y4521300D01*
G01X1720970Y4519027D01*
G01X1719076Y4517133D01*
G01X1716803Y4515618D01*
G01X1713773Y4514482D01*
G01X1709985Y4513724D01*
G37*
G36*
G01X1861500Y4513724D02*
G01X1857712Y4513724D01*
G01X1853924Y4514861D01*
G01X1850894Y4516376D01*
G01X1847864Y4518270D01*
G01X1845212Y4521300D01*
G01X1843697Y4524709D01*
G01X1842939Y4528876D01*
G01X1843697Y4533800D01*
G01X1845591Y4537967D01*
G01X1848242Y4541376D01*
G01X1851273Y4543648D01*
G01X1854303Y4545164D01*
G01X1858091Y4545921D01*
G01X1862258Y4545542D01*
G01X1866046Y4544406D01*
G01X1869833Y4542512D01*
G01X1873242Y4539482D01*
G01X1875136Y4535694D01*
G01X1875894Y4532664D01*
G01X1875894Y4528876D01*
G01X1874757Y4523951D01*
G01X1873242Y4520921D01*
G01X1871727Y4519027D01*
G01X1869833Y4517133D01*
G01X1867561Y4515618D01*
G01X1864909Y4514482D01*
G01X1861500Y4513724D01*
G37*
G36*
G01X3046348Y4313346D02*
G01X3037258Y4313724D01*
G01X3027788Y4315618D01*
G01X3023621Y4317512D01*
G01X3020970Y4319406D01*
G01X3019076Y4322058D01*
G01X3017939Y4326982D01*
G01X3018318Y4331148D01*
G01X3019076Y4333800D01*
G01X3021349Y4336830D01*
G01X3025894Y4339103D01*
G01X3031955Y4339482D01*
G01X3036500Y4338724D01*
G01X3041424Y4338346D01*
G01X3046348Y4338724D01*
G01X3049379Y4339482D01*
G01X3052030Y4340618D01*
G01X3053924Y4342133D01*
G01X3056576Y4344785D01*
G01X3058849Y4348573D01*
G01X3061879Y4354633D01*
G01X3063394Y4358042D01*
G01X3064530Y4361073D01*
G01X3065667Y4363724D01*
G01X3065667Y4367133D01*
G01X3053546Y4397436D01*
G01X3052030Y4401603D01*
G01X3033849Y4447058D01*
G01X3032333Y4451224D01*
G01X3024758Y4470164D01*
G01X3022485Y4476224D01*
G01X3021727Y4480391D01*
G01X3022106Y4484936D01*
G01X3023242Y4488345D01*
G01X3024758Y4490997D01*
G01X3026273Y4492891D01*
G01X3028924Y4495164D01*
G01X3032712Y4497058D01*
G01X3035742Y4497815D01*
G01X3038773Y4497815D01*
G01X3041803Y4497058D01*
G01X3044833Y4495921D01*
G01X3048243Y4493270D01*
G01X3050515Y4489861D01*
G01X3052030Y4487209D01*
G01X3053546Y4483800D01*
G01X3056576Y4475467D01*
G01X3062636Y4457285D01*
G01X3064152Y4453497D01*
G01X3070970Y4433043D01*
G01X3073243Y4426982D01*
G01X3078924Y4409936D01*
G01X3081197Y4403876D01*
G01X3082333Y4400467D01*
G01X3083091Y4399709D01*
G01X3083849Y4400467D01*
G01X3085364Y4403497D01*
G01X3088773Y4413724D01*
G01X3091045Y4419785D01*
G01X3094455Y4430012D01*
G01X3095970Y4433800D01*
G01X3099000Y4442891D01*
G01X3100515Y4446679D01*
G01X3103924Y4456906D01*
G01X3106197Y4462967D01*
G01X3109606Y4473194D01*
G01X3113015Y4482285D01*
G01X3114152Y4484936D01*
G01X3117561Y4491755D01*
G01X3120212Y4495164D01*
G01X3123621Y4497058D01*
G01X3126652Y4497815D01*
G01X3128924Y4497815D01*
G01X3132333Y4497058D01*
G01X3135743Y4495921D01*
G01X3138015Y4494406D01*
G01X3140667Y4491755D01*
G01X3142561Y4488345D01*
G01X3143318Y4485694D01*
G01X3143318Y4483800D01*
G01X3142561Y4480391D01*
G01X3141424Y4476224D01*
G01X3139151Y4468649D01*
G01X3137636Y4464861D01*
G01X3136121Y4460694D01*
G01X3134606Y4456906D01*
G01X3133091Y4452740D01*
G01X3130061Y4445164D01*
G01X3127030Y4436830D01*
G01X3125515Y4433043D01*
G01X3123242Y4426982D01*
G01X3121727Y4423194D01*
G01X3120212Y4419027D01*
G01X3118697Y4415239D01*
G01X3117182Y4411073D01*
G01X3115667Y4407285D01*
G01X3113394Y4401224D01*
G01X3111879Y4397436D01*
G01X3110364Y4393270D01*
G01X3108848Y4389482D01*
G01X3107333Y4385315D01*
G01X3104303Y4377739D01*
G01X3101273Y4369406D01*
G01X3098242Y4361830D01*
G01X3096727Y4357664D01*
G01X3095212Y4353876D01*
G01X3093697Y4349709D01*
G01X3092182Y4346300D01*
G01X3089909Y4340997D01*
G01X3088394Y4337967D01*
G01X3083849Y4330012D01*
G01X3082333Y4327740D01*
G01X3080439Y4325467D01*
G01X3078546Y4323573D01*
G01X3074758Y4320542D01*
G01X3072106Y4318649D01*
G01X3069076Y4317133D01*
G01X3065288Y4315618D01*
G01X3061500Y4314482D01*
G01X3056197Y4313724D01*
G01X3046348Y4313346D01*
G37*
G36*
G01X2835742Y4362588D02*
G01X2828167Y4362967D01*
G01X2825894Y4363345D01*
G01X2822864Y4363724D01*
G01X2818697Y4364482D01*
G01X2813394Y4365618D01*
G01X2808849Y4367133D01*
G01X2804682Y4368648D01*
G01X2798621Y4371679D01*
G01X2795970Y4373194D01*
G01X2790667Y4376982D01*
G01X2788773Y4378497D01*
G01X2783091Y4384179D01*
G01X2780818Y4387209D01*
G01X2778167Y4390997D01*
G01X2776273Y4394027D01*
G01X2774758Y4397058D01*
G01X2773242Y4400846D01*
G01X2771727Y4405012D01*
G01X2770591Y4408421D01*
G01X2769076Y4415997D01*
G01X2768318Y4423573D01*
G01X2767939Y4429255D01*
G01X2768318Y4434936D01*
G01X2769076Y4442512D01*
G01X2769151Y4442891D01*
G01X2802030Y4442891D01*
G01X2802409Y4440997D01*
G01X2831576Y4440618D01*
G01X2861500Y4440997D01*
G01X2862258Y4441565D01*
G01X2862258Y4442512D01*
G01X2861879Y4446300D01*
G01X2861121Y4450467D01*
G01X2859985Y4454255D01*
G01X2858848Y4457664D01*
G01X2857333Y4460694D01*
G01X2855061Y4464482D01*
G01X2852788Y4467512D01*
G01X2850136Y4469785D01*
G01X2847485Y4471679D01*
G01X2844455Y4473194D01*
G01X2841045Y4474330D01*
G01X2838394Y4474709D01*
G01X2834985Y4475088D01*
G01X2831955Y4475088D01*
G01X2829303Y4474709D01*
G01X2825894Y4474330D01*
G01X2821727Y4473194D01*
G01X2817561Y4471300D01*
G01X2814909Y4469406D01*
G01X2813015Y4467891D01*
G01X2810364Y4465239D01*
G01X2808091Y4461830D01*
G01X2806576Y4459179D01*
G01X2805439Y4456527D01*
G01X2804303Y4453497D01*
G01X2803167Y4449330D01*
G01X2802409Y4445542D01*
G01X2802030Y4442891D01*
G01X2802030Y4442891D01*
G01X2769151Y4442891D01*
G01X2770591Y4450088D01*
G01X2771349Y4453118D01*
G01X2772485Y4456906D01*
G01X2775515Y4464482D01*
G01X2777030Y4467512D01*
G01X2778924Y4470542D01*
G01X2781197Y4473952D01*
G01X2783849Y4477361D01*
G01X2786121Y4480391D01*
G01X2790667Y4484179D01*
G01X2793318Y4486452D01*
G01X2796727Y4488724D01*
G01X2800136Y4490618D01*
G01X2803167Y4492133D01*
G01X2806576Y4493648D01*
G01X2811121Y4495164D01*
G01X2815288Y4496300D01*
G01X2818318Y4497058D01*
G01X2824379Y4497815D01*
G01X2830439Y4498194D01*
G01X2838773Y4497815D01*
G01X2844833Y4497058D01*
G01X2849379Y4496300D01*
G01X2853545Y4495164D01*
G01X2858091Y4493648D01*
G01X2861500Y4492133D01*
G01X2864530Y4490618D01*
G01X2867939Y4488724D01*
G01X2871349Y4486452D01*
G01X2874000Y4484558D01*
G01X2875894Y4483042D01*
G01X2882333Y4476603D01*
G01X2884985Y4472815D01*
G01X2887258Y4469406D01*
G01X2888773Y4466376D01*
G01X2891046Y4461073D01*
G01X2892182Y4458043D01*
G01X2893318Y4453876D01*
G01X2894076Y4450088D01*
G01X2894455Y4444027D01*
G01X2894076Y4437967D01*
G01X2893318Y4434558D01*
G01X2891803Y4430770D01*
G01X2889909Y4428118D01*
G01X2887636Y4426224D01*
G01X2884606Y4424709D01*
G01X2880440Y4423573D01*
G01X2876652Y4422815D01*
G01X2838773Y4422436D01*
G01X2802030Y4422436D01*
G01X2802030Y4420164D01*
G01X2802409Y4416755D01*
G01X2802788Y4414103D01*
G01X2803546Y4410315D01*
G01X2804682Y4406906D01*
G01X2805818Y4403876D01*
G01X2807333Y4400846D01*
G01X2809227Y4397815D01*
G01X2811121Y4395164D01*
G01X2812636Y4393270D01*
G01X2814530Y4391376D01*
G01X2816424Y4389861D01*
G01X2819076Y4388345D01*
G01X2822106Y4386830D01*
G01X2825136Y4385694D01*
G01X2828167Y4384936D01*
G01X2833470Y4384558D01*
G01X2839530Y4384936D01*
G01X2843318Y4385694D01*
G01X2846349Y4386452D01*
G01X2849758Y4387588D01*
G01X2853167Y4389103D01*
G01X2856197Y4390997D01*
G01X2858848Y4392891D01*
G01X2860743Y4394027D01*
G01X2862636Y4395543D01*
G01X2867182Y4399330D01*
G01X2872864Y4405012D01*
G01X2875515Y4406906D01*
G01X2878924Y4408042D01*
G01X2883470Y4407664D01*
G01X2887258Y4406527D01*
G01X2889530Y4405012D01*
G01X2891424Y4402739D01*
G01X2892561Y4400088D01*
G01X2892561Y4397058D01*
G01X2891803Y4394027D01*
G01X2890667Y4390997D01*
G01X2888773Y4387209D01*
G01X2884985Y4381906D01*
G01X2881955Y4378497D01*
G01X2878167Y4375467D01*
G01X2874379Y4372815D01*
G01X2871349Y4370921D01*
G01X2868318Y4369406D01*
G01X2864909Y4367891D01*
G01X2858091Y4365618D01*
G01X2854303Y4364482D01*
G01X2850894Y4363724D01*
G01X2844076Y4362967D01*
G01X2835742Y4362588D01*
G37*
G36*
G01X2939152Y4362588D02*
G01X2935364Y4362967D01*
G01X2933091Y4364103D01*
G01X2929682Y4365997D01*
G01X2927030Y4368270D01*
G01X2925136Y4371300D01*
G01X2923621Y4375088D01*
G01X2922864Y4378118D01*
G01X2922485Y4427739D01*
G01X2922864Y4478876D01*
G01X2923621Y4483421D01*
G01X2924758Y4487588D01*
G01X2926652Y4491755D01*
G01X2929682Y4495164D01*
G01X2933470Y4497058D01*
G01X2936500Y4497815D01*
G01X2939530Y4497815D01*
G01X2943318Y4497058D01*
G01X2947106Y4495543D01*
G01X2950515Y4492512D01*
G01X2952788Y4488345D01*
G01X2953924Y4484936D01*
G01X2954682Y4478876D01*
G01X2955250Y4478402D01*
G01X2956197Y4479255D01*
G01X2958470Y4482285D01*
G01X2960742Y4485694D01*
G01X2963015Y4488345D01*
G01X2967561Y4492891D01*
G01X2970970Y4495164D01*
G01X2974758Y4496679D01*
G01X2980440Y4497815D01*
G01X2984985Y4497815D01*
G01X2990288Y4497058D01*
G01X2993697Y4496300D01*
G01X2997864Y4495164D01*
G01X3001652Y4493648D01*
G01X3005061Y4491755D01*
G01X3008470Y4489482D01*
G01X3011121Y4487209D01*
G01X3012636Y4484936D01*
G01X3013773Y4481148D01*
G01X3013394Y4475845D01*
G01X3011500Y4471300D01*
G01X3008470Y4467891D01*
G01X3004303Y4465618D01*
G01X3000894Y4465239D01*
G01X2997106Y4465997D01*
G01X2992939Y4467133D01*
G01X2989152Y4468270D01*
G01X2985743Y4469027D01*
G01X2981197Y4469406D01*
G01X2975894Y4469027D01*
G01X2972864Y4468270D01*
G01X2969833Y4467133D01*
G01X2967182Y4465239D01*
G01X2965288Y4463346D01*
G01X2963394Y4461073D01*
G01X2961879Y4458421D01*
G01X2960742Y4455770D01*
G01X2959606Y4452740D01*
G01X2958470Y4448573D01*
G01X2957712Y4444785D01*
G01X2956955Y4439482D01*
G01X2956197Y4429633D01*
G01X2955818Y4405012D01*
G01X2955439Y4379633D01*
G01X2954682Y4375846D01*
G01X2953546Y4372436D01*
G01X2952030Y4369406D01*
G01X2949379Y4366376D01*
G01X2946348Y4364482D01*
G01X2943697Y4363345D01*
G01X2939152Y4362588D01*
G37*
G36*
G01X1592561Y4073573D02*
G01X1588773Y4073573D01*
G01X1586121Y4073952D01*
G01X1581197Y4074330D01*
G01X1576651Y4075088D01*
G01X1572106Y4076224D01*
G01X1567560Y4077739D01*
G01X1564152Y4079255D01*
G01X1561121Y4080770D01*
G01X1558470Y4082285D01*
G01X1556197Y4083800D01*
G01X1550136Y4088346D01*
G01X1548243Y4090239D01*
G01X1545212Y4094027D01*
G01X1543697Y4096300D01*
G01X1542182Y4098952D01*
G01X1540667Y4102361D01*
G01X1539530Y4105391D01*
G01X1539152Y4109558D01*
G01X1539530Y4114482D01*
G01X1540667Y4117512D01*
G01X1541803Y4119785D01*
G01X1544076Y4122058D01*
G01X1547485Y4123951D01*
G01X1551651Y4124709D01*
G01X1556576Y4123951D01*
G01X1559985Y4122436D01*
G01X1562257Y4120921D01*
G01X1565288Y4117891D01*
G01X1567182Y4115239D01*
G01X1568697Y4111452D01*
G01X1570591Y4108042D01*
G01X1572485Y4105391D01*
G01X1574000Y4103497D01*
G01X1575515Y4101982D01*
G01X1578167Y4100088D01*
G01X1581955Y4098194D01*
G01X1584985Y4097057D01*
G01X1590288Y4096679D01*
G01X1597106Y4097436D01*
G01X1601652Y4098952D01*
G01X1606955Y4101603D01*
G01X1608848Y4103118D01*
G01X1613394Y4107664D01*
G01X1616046Y4111452D01*
G01X1617939Y4114861D01*
G01X1619454Y4118648D01*
G01X1620970Y4123573D01*
G01X1622106Y4127361D01*
G01X1623621Y4135694D01*
G01X1624379Y4140997D01*
G01X1625136Y4149330D01*
G01X1625515Y4153118D01*
G01X1625231Y4155012D01*
G01X1624379Y4155391D01*
G01X1622485Y4153876D01*
G01X1616803Y4148194D01*
G01X1614151Y4146300D01*
G01X1611121Y4144406D01*
G01X1607712Y4142512D01*
G01X1603924Y4140618D01*
G01X1600894Y4139482D01*
G01X1594076Y4137967D01*
G01X1587636Y4137588D01*
G01X1578924Y4137967D01*
G01X1572864Y4139103D01*
G01X1567939Y4140618D01*
G01X1564530Y4142133D01*
G01X1557712Y4145543D01*
G01X1553924Y4148194D01*
G01X1550894Y4150467D01*
G01X1545212Y4156149D01*
G01X1543697Y4158042D01*
G01X1541803Y4160694D01*
G01X1539909Y4163724D01*
G01X1536879Y4169785D01*
G01X1535742Y4172815D01*
G01X1534606Y4176224D01*
G01X1533470Y4180012D01*
G01X1532712Y4183421D01*
G01X1531955Y4190239D01*
G01X1531576Y4192891D01*
G01X1531896Y4197058D01*
G01X1564152Y4197058D01*
G01X1564530Y4189482D01*
G01X1565288Y4185315D01*
G01X1566424Y4180770D01*
G01X1567939Y4176982D01*
G01X1569455Y4173952D01*
G01X1570591Y4172058D01*
G01X1572106Y4170164D01*
G01X1576651Y4165618D01*
G01X1580061Y4163345D01*
G01X1583091Y4161830D01*
G01X1586879Y4161073D01*
G01X1586879Y4161073D01*
G01X1589530Y4160694D01*
G01X1592182Y4160315D01*
G01X1595591Y4160694D01*
G01X1598242Y4161073D01*
G01X1601273Y4161830D01*
G01X1604682Y4163345D01*
G01X1608470Y4165239D01*
G01X1611121Y4167133D01*
G01X1613015Y4168648D01*
G01X1614909Y4170542D01*
G01X1617182Y4173573D01*
G01X1619454Y4177361D01*
G01X1620970Y4181527D01*
G01X1622106Y4184936D01*
G01X1622485Y4192891D01*
G01X1622106Y4200845D01*
G01X1621349Y4205012D01*
G01X1620212Y4209558D01*
G01X1619076Y4212588D01*
G01X1617561Y4215997D01*
G01X1615288Y4219406D01*
G01X1613394Y4222057D01*
G01X1609606Y4225845D01*
G01X1607333Y4227739D01*
G01X1604303Y4229633D01*
G01X1600894Y4231148D01*
G01X1597864Y4231906D01*
G01X1594076Y4232285D01*
G01X1588773Y4231906D01*
G01X1583848Y4230770D01*
G01X1580439Y4229255D01*
G01X1577788Y4227739D01*
G01X1575515Y4225845D01*
G01X1571727Y4222057D01*
G01X1569833Y4219406D01*
G01X1567939Y4215997D01*
G01X1566424Y4212588D01*
G01X1565288Y4208421D01*
G01X1564530Y4204633D01*
G01X1564152Y4197058D01*
G01X1531896Y4197058D01*
G01X1531955Y4197815D01*
G01X1532712Y4204633D01*
G01X1533849Y4210694D01*
G01X1535364Y4215618D01*
G01X1536879Y4219785D01*
G01X1538394Y4223194D01*
G01X1539909Y4226224D01*
G01X1541424Y4228876D01*
G01X1542940Y4231148D01*
G01X1544455Y4233042D01*
G01X1545591Y4234936D01*
G01X1547106Y4236830D01*
G01X1551651Y4241376D01*
G01X1554682Y4243648D01*
G01X1556576Y4245164D01*
G01X1558849Y4246679D01*
G01X1561879Y4248573D01*
G01X1564909Y4250088D01*
G01X1567560Y4251224D01*
G01X1570591Y4252361D01*
G01X1574000Y4253497D01*
G01X1578167Y4254633D01*
G01X1581955Y4255391D01*
G01X1591045Y4256149D01*
G01X1592939Y4256149D01*
G01X1596727Y4255770D01*
G01X1602409Y4255391D01*
G01X1606955Y4254633D01*
G01X1613015Y4253118D01*
G01X1616424Y4251982D01*
G01X1619454Y4250846D01*
G01X1621727Y4249709D01*
G01X1624379Y4248194D01*
G01X1627788Y4246300D01*
G01X1631197Y4244027D01*
G01X1633848Y4241755D01*
G01X1636121Y4239861D01*
G01X1638394Y4237588D01*
G01X1640288Y4235315D01*
G01X1642561Y4232664D01*
G01X1644833Y4229255D01*
G01X1646727Y4226224D01*
G01X1648242Y4223573D01*
G01X1649758Y4220542D01*
G01X1651273Y4216754D01*
G01X1652788Y4212588D01*
G01X1654303Y4208043D01*
G01X1655439Y4203876D01*
G01X1656197Y4200845D01*
G01X1657712Y4192512D01*
G01X1658470Y4185694D01*
G01X1659227Y4171300D01*
G01X1659227Y4169027D01*
G01X1658470Y4153118D01*
G01X1658091Y4150467D01*
G01X1657712Y4145543D01*
G01X1656955Y4140997D01*
G01X1656576Y4138345D01*
G01X1655818Y4134179D01*
G01X1653545Y4125088D01*
G01X1652030Y4120164D01*
G01X1649000Y4112588D01*
G01X1647485Y4109558D01*
G01X1645970Y4106906D01*
G01X1644455Y4103876D01*
G01X1642561Y4100845D01*
G01X1640667Y4098194D01*
G01X1639530Y4096300D01*
G01X1638015Y4094406D01*
G01X1630439Y4086830D01*
G01X1627409Y4084558D01*
G01X1624000Y4082285D01*
G01X1621349Y4080770D01*
G01X1618318Y4079255D01*
G01X1614909Y4077739D01*
G01X1607333Y4075467D01*
G01X1604303Y4074709D01*
G01X1601652Y4074330D01*
G01X1598242Y4073952D01*
G01X1592561Y4073573D01*
G37*
G36*
G01X1745591Y4073194D02*
G01X1739530Y4073573D01*
G01X1736879Y4073952D01*
G01X1733470Y4074330D01*
G01X1730818Y4074709D01*
G01X1726652Y4075467D01*
G01X1721349Y4076982D01*
G01X1717182Y4078497D01*
G01X1713773Y4080012D01*
G01X1709985Y4081906D01*
G01X1706576Y4084179D01*
G01X1703167Y4086830D01*
G01X1700136Y4089103D01*
G01X1696348Y4092891D01*
G01X1694076Y4095542D01*
G01X1691803Y4098952D01*
G01X1689909Y4102361D01*
G01X1688394Y4105770D01*
G01X1686879Y4109936D01*
G01X1685742Y4115239D01*
G01X1686121Y4120164D01*
G01X1687636Y4123573D01*
G01X1688773Y4125846D01*
G01X1691045Y4128118D01*
G01X1694076Y4130012D01*
G01X1697485Y4130770D01*
G01X1702409Y4130391D01*
G01X1706197Y4129255D01*
G01X1708470Y4127739D01*
G01X1711121Y4125088D01*
G01X1713394Y4121679D01*
G01X1714909Y4119027D01*
G01X1716424Y4115997D01*
G01X1718318Y4112588D01*
G01X1719833Y4109936D01*
G01X1721349Y4108042D01*
G01X1725136Y4104255D01*
G01X1727030Y4102739D01*
G01X1729303Y4101224D01*
G01X1731955Y4099709D01*
G01X1735364Y4098194D01*
G01X1738773Y4097057D01*
G01X1744076Y4096679D01*
G01X1751652Y4097057D01*
G01X1756576Y4098194D01*
G01X1759985Y4099709D01*
G01X1763773Y4101982D01*
G01X1766803Y4104255D01*
G01X1769455Y4106906D01*
G01X1771727Y4110315D01*
G01X1773242Y4112967D01*
G01X1774379Y4115618D01*
G01X1775515Y4118648D01*
G01X1776652Y4122815D01*
G01X1777409Y4126603D01*
G01X1777788Y4131906D01*
G01X1777409Y4139482D01*
G01X1776652Y4144785D01*
G01X1775515Y4148951D01*
G01X1774000Y4153118D01*
G01X1772106Y4156906D01*
G01X1770212Y4159557D01*
G01X1768697Y4161452D01*
G01X1764909Y4165239D01*
G01X1762258Y4167133D01*
G01X1759227Y4168648D01*
G01X1755818Y4169785D01*
G01X1752409Y4170542D01*
G01X1747106Y4170921D01*
G01X1741803Y4170542D01*
G01X1739151Y4170164D01*
G01X1734985Y4169406D01*
G01X1731197Y4167891D01*
G01X1728167Y4165997D01*
G01X1724758Y4163724D01*
G01X1722106Y4161830D01*
G01X1719076Y4159557D01*
G01X1715288Y4156906D01*
G01X1712258Y4155012D01*
G01X1708470Y4153497D01*
G01X1703924Y4153118D01*
G01X1700894Y4153876D01*
G01X1698242Y4154633D01*
G01X1695970Y4156149D01*
G01X1692182Y4159936D01*
G01X1690667Y4162588D01*
G01X1689909Y4165997D01*
G01X1690288Y4169027D01*
G01X1691803Y4178118D01*
G01X1692560Y4181906D01*
G01X1694076Y4190997D01*
G01X1694833Y4194785D01*
G01X1696348Y4203876D01*
G01X1697864Y4212209D01*
G01X1699379Y4221300D01*
G01X1700136Y4225088D01*
G01X1700894Y4229633D01*
G01X1702409Y4237209D01*
G01X1703545Y4241376D01*
G01X1705061Y4244785D01*
G01X1706576Y4247058D01*
G01X1709606Y4250088D01*
G01X1712636Y4251982D01*
G01X1716045Y4253118D01*
G01X1753924Y4253497D01*
G01X1791803Y4253118D01*
G01X1795212Y4252361D01*
G01X1798621Y4251224D01*
G01X1800894Y4250088D01*
G01X1802788Y4248573D01*
G01X1804682Y4245543D01*
G01X1805818Y4239861D01*
G01X1805061Y4234558D01*
G01X1803924Y4231906D01*
G01X1801651Y4229255D01*
G01X1798621Y4227361D01*
G01X1795970Y4226224D01*
G01X1762636Y4225467D01*
G01X1730061Y4224709D01*
G01X1728924Y4221300D01*
G01X1728167Y4217512D01*
G01X1726652Y4208421D01*
G01X1725894Y4204633D01*
G01X1724379Y4195542D01*
G01X1723621Y4191755D01*
G01X1723242Y4188346D01*
G01X1723621Y4186736D01*
G01X1724758Y4186451D01*
G01X1727409Y4187588D01*
G01X1730440Y4189103D01*
G01X1734606Y4190618D01*
G01X1739151Y4192133D01*
G01X1743318Y4193270D01*
G01X1746349Y4194027D01*
G01X1753924Y4194406D01*
G01X1761500Y4194027D01*
G01X1764151Y4193649D01*
G01X1768318Y4192891D01*
G01X1773242Y4191376D01*
G01X1776652Y4189861D01*
G01X1782712Y4186830D01*
G01X1785742Y4184936D01*
G01X1791045Y4181148D01*
G01X1793697Y4178876D01*
G01X1797485Y4175088D01*
G01X1799000Y4173194D01*
G01X1800894Y4170542D01*
G01X1803167Y4166755D01*
G01X1805061Y4163724D01*
G01X1806197Y4161073D01*
G01X1807333Y4158042D01*
G01X1808849Y4153876D01*
G01X1809985Y4150088D01*
G01X1810742Y4144785D01*
G01X1811121Y4138345D01*
G01X1810742Y4131906D01*
G01X1809606Y4123951D01*
G01X1808849Y4120164D01*
G01X1807333Y4115239D01*
G01X1805818Y4111452D01*
G01X1803546Y4106148D01*
G01X1802030Y4103497D01*
G01X1800136Y4100467D01*
G01X1798243Y4097815D01*
G01X1795212Y4094027D01*
G01X1789530Y4088346D01*
G01X1786500Y4086073D01*
G01X1782712Y4083421D01*
G01X1779682Y4081527D01*
G01X1773621Y4078497D01*
G01X1770591Y4077361D01*
G01X1767182Y4076224D01*
G01X1763015Y4075088D01*
G01X1759227Y4074330D01*
G01X1752409Y4073573D01*
G01X1745591Y4073194D01*
G37*
G36*
G01X1907712Y4073194D02*
G01X1903167Y4073952D01*
G01X1900136Y4075467D01*
G01X1897106Y4077739D01*
G01X1894076Y4081148D01*
G01X1892561Y4084558D01*
G01X1891803Y4087209D01*
G01X1891045Y4202361D01*
G01X1890477Y4203023D01*
G01X1889530Y4202740D01*
G01X1887258Y4201224D01*
G01X1885364Y4199709D01*
G01X1877409Y4194027D01*
G01X1870591Y4189482D01*
G01X1866803Y4187209D01*
G01X1863773Y4185315D01*
G01X1860743Y4183800D01*
G01X1857333Y4182285D01*
G01X1853924Y4181148D01*
G01X1850894Y4180391D01*
G01X1847485Y4180770D01*
G01X1844076Y4182285D01*
G01X1841803Y4183421D01*
G01X1839530Y4185694D01*
G01X1837636Y4188724D01*
G01X1836879Y4193270D01*
G01X1837636Y4198194D01*
G01X1838773Y4200845D01*
G01X1841045Y4203118D01*
G01X1843697Y4205012D01*
G01X1846349Y4206527D01*
G01X1861500Y4214103D01*
G01X1866803Y4217133D01*
G01X1869833Y4219027D01*
G01X1875136Y4222815D01*
G01X1883091Y4229633D01*
G01X1884985Y4231527D01*
G01X1888015Y4235315D01*
G01X1889909Y4237209D01*
G01X1894455Y4242891D01*
G01X1900136Y4250846D01*
G01X1903167Y4254255D01*
G01X1905345Y4255391D01*
G01X1908091Y4255770D01*
G01X1913015Y4255391D01*
G01X1916424Y4254255D01*
G01X1919455Y4251982D01*
G01X1921727Y4248951D01*
G01X1923243Y4245921D01*
G01X1924000Y4242133D01*
G01X1924379Y4238724D01*
G01X1924758Y4168648D01*
G01X1924379Y4098573D01*
G01X1923621Y4090239D01*
G01X1922864Y4086451D01*
G01X1921727Y4082664D01*
G01X1920591Y4080391D01*
G01X1919076Y4078497D01*
G01X1917182Y4076603D01*
G01X1914530Y4074709D01*
G01X1911500Y4073573D01*
G01X1907712Y4073194D01*
G37*
G36*
G01X2042561Y4073194D02*
G01X2036500Y4073573D01*
G01X2033849Y4073952D01*
G01X2030439Y4074330D01*
G01X2025894Y4075088D01*
G01X2020970Y4076224D01*
G01X2017561Y4077361D01*
G01X2014530Y4078497D01*
G01X2011879Y4079633D01*
G01X2008470Y4081148D01*
G01X2005061Y4083421D01*
G01X2002409Y4084936D01*
G01X2000515Y4086451D01*
G01X1995970Y4090239D01*
G01X1994076Y4092133D01*
G01X1991803Y4094785D01*
G01X1989530Y4098194D01*
G01X1987636Y4101224D01*
G01X1986121Y4104255D01*
G01X1984606Y4108042D01*
G01X1983470Y4111452D01*
G01X1983091Y4116376D01*
G01X1983848Y4122058D01*
G01X1985364Y4124709D01*
G01X1986879Y4126603D01*
G01X1988773Y4128497D01*
G01X1991046Y4130012D01*
G01X1995591Y4130770D01*
G01X2000136Y4130391D01*
G01X2002788Y4129633D01*
G01X2005061Y4128118D01*
G01X2008848Y4124330D01*
G01X2010364Y4122058D01*
G01X2013394Y4115997D01*
G01X2015288Y4112967D01*
G01X2019076Y4107664D01*
G01X2021349Y4105012D01*
G01X2023242Y4103497D01*
G01X2025894Y4101603D01*
G01X2028924Y4099709D01*
G01X2032333Y4098194D01*
G01X2035742Y4097057D01*
G01X2042561Y4096679D01*
G01X2050894Y4097436D01*
G01X2055439Y4098952D01*
G01X2059227Y4100845D01*
G01X2061879Y4102739D01*
G01X2063773Y4104255D01*
G01X2066424Y4106906D01*
G01X2068697Y4109936D01*
G01X2070212Y4112209D01*
G01X2071348Y4114861D01*
G01X2072485Y4117891D01*
G01X2073621Y4122058D01*
G01X2074379Y4125846D01*
G01X2074758Y4132664D01*
G01X2074379Y4140239D01*
G01X2073621Y4144785D01*
G01X2072485Y4149709D01*
G01X2070970Y4153497D01*
G01X2069455Y4156527D01*
G01X2067939Y4158800D01*
G01X2066045Y4161452D01*
G01X2063773Y4164103D01*
G01X2061879Y4165618D01*
G01X2059227Y4167133D01*
G01X2056197Y4168648D01*
G01X2053167Y4169785D01*
G01X2050136Y4170542D01*
G01X2044455Y4170921D01*
G01X2038773Y4170542D01*
G01X2036121Y4170164D01*
G01X2032333Y4169406D01*
G01X2028545Y4167891D01*
G01X2025894Y4166376D01*
G01X2023621Y4164861D01*
G01X2013015Y4157285D01*
G01X2010742Y4155770D01*
G01X2007712Y4154254D01*
G01X2004682Y4153118D01*
G01X2000894Y4153118D01*
G01X1996349Y4154254D01*
G01X1993697Y4155770D01*
G01X1991803Y4157285D01*
G01X1989909Y4159179D01*
G01X1988394Y4161073D01*
G01X1987258Y4163724D01*
G01X1987258Y4168270D01*
G01X1988015Y4172815D01*
G01X1988773Y4176603D01*
G01X1991046Y4190239D01*
G01X1991803Y4194027D01*
G01X1993318Y4203118D01*
G01X1994076Y4206906D01*
G01X1995591Y4215997D01*
G01X1996349Y4219785D01*
G01X1997864Y4228876D01*
G01X1999379Y4236452D01*
G01X2000136Y4239482D01*
G01X2001273Y4242512D01*
G01X2002788Y4245543D01*
G01X2004682Y4248194D01*
G01X2006576Y4250088D01*
G01X2009606Y4251982D01*
G01X2013015Y4253118D01*
G01X2050136Y4253497D01*
G01X2088773Y4253118D01*
G01X2093697Y4251982D01*
G01X2097864Y4250088D01*
G01X2100515Y4247815D01*
G01X2102030Y4245543D01*
G01X2102788Y4241376D01*
G01X2102409Y4236452D01*
G01X2101273Y4232664D01*
G01X2098621Y4229255D01*
G01X2095591Y4227361D01*
G01X2092939Y4226224D01*
G01X2059985Y4225467D01*
G01X2027409Y4224709D01*
G01X2026462Y4223289D01*
G01X2025894Y4220542D01*
G01X2025136Y4215997D01*
G01X2024379Y4212209D01*
G01X2022864Y4203118D01*
G01X2022106Y4199330D01*
G01X2020591Y4190239D01*
G01X2020212Y4187588D01*
G01X2020496Y4186546D01*
G01X2021349Y4186451D01*
G01X2024379Y4187588D01*
G01X2027788Y4189103D01*
G01X2031576Y4190618D01*
G01X2036121Y4192133D01*
G01X2040288Y4193270D01*
G01X2043318Y4194027D01*
G01X2050136Y4194406D01*
G01X2058470Y4194027D01*
G01X2063015Y4193270D01*
G01X2069076Y4191755D01*
G01X2072106Y4190618D01*
G01X2074758Y4189482D01*
G01X2078167Y4187967D01*
G01X2081955Y4185694D01*
G01X2085742Y4183043D01*
G01X2088773Y4180770D01*
G01X2095212Y4174330D01*
G01X2097864Y4170542D01*
G01X2100136Y4167133D01*
G01X2102030Y4163724D01*
G01X2103545Y4160694D01*
G01X2104682Y4157664D01*
G01X2105818Y4154254D01*
G01X2106955Y4149709D01*
G01X2107712Y4145543D01*
G01X2108091Y4137967D01*
G01X2107712Y4129633D01*
G01X2106955Y4125846D01*
G01X2106197Y4121300D01*
G01X2105061Y4117133D01*
G01X2103924Y4113724D01*
G01X2102788Y4110694D01*
G01X2099379Y4103876D01*
G01X2097106Y4100467D01*
G01X2095212Y4097436D01*
G01X2093318Y4095164D01*
G01X2086121Y4087967D01*
G01X2083470Y4085694D01*
G01X2079682Y4083421D01*
G01X2076651Y4081527D01*
G01X2070591Y4078497D01*
G01X2067561Y4077361D01*
G01X2064152Y4076224D01*
G01X2059985Y4075088D01*
G01X2056197Y4074330D01*
G01X2049379Y4073573D01*
G01X2042561Y4073194D01*
G37*
G36*
G01X2191045Y4073194D02*
G01X2183470Y4073573D01*
G01X2179682Y4074330D01*
G01X2174379Y4075467D01*
G01X2170591Y4076603D01*
G01X2167940Y4077361D01*
G01X2165288Y4078497D01*
G01X2159227Y4081527D01*
G01X2156576Y4083043D01*
G01X2154303Y4084558D01*
G01X2152409Y4085694D01*
G01X2150515Y4087209D01*
G01X2145212Y4091754D01*
G01X2143697Y4093649D01*
G01X2141424Y4096300D01*
G01X2139151Y4099330D01*
G01X2137258Y4101982D01*
G01X2135364Y4105391D01*
G01X2133848Y4108421D01*
G01X2132712Y4111073D01*
G01X2131576Y4114103D01*
G01X2130439Y4118270D01*
G01X2130439Y4123573D01*
G01X2131576Y4127739D01*
G01X2133091Y4130770D01*
G01X2135742Y4133800D01*
G01X2139530Y4136073D01*
G01X2142561Y4137209D01*
G01X2145970Y4137209D01*
G01X2150136Y4136073D01*
G01X2152788Y4134558D01*
G01X2154682Y4133042D01*
G01X2156576Y4130770D01*
G01X2158091Y4127361D01*
G01X2159606Y4123573D01*
G01X2164152Y4114482D01*
G01X2165667Y4111830D01*
G01X2167182Y4109558D01*
G01X2168318Y4107664D01*
G01X2169833Y4105770D01*
G01X2173621Y4101982D01*
G01X2175894Y4100467D01*
G01X2179303Y4098952D01*
G01X2182712Y4097815D01*
G01X2189909Y4097436D01*
G01X2198621Y4098194D01*
G01X2203167Y4099709D01*
G01X2205818Y4101224D01*
G01X2208091Y4102361D01*
G01X2210364Y4103876D01*
G01X2214909Y4108421D01*
G01X2217182Y4111830D01*
G01X2219076Y4115239D01*
G01X2220591Y4119027D01*
G01X2221349Y4122058D01*
G01X2221727Y4127739D01*
G01X2221349Y4133421D01*
G01X2220591Y4137588D01*
G01X2219455Y4142133D01*
G01X2217939Y4145543D01*
G01X2216424Y4148194D01*
G01X2213394Y4151982D01*
G01X2211879Y4153497D01*
G01X2209227Y4155391D01*
G01X2205818Y4157285D01*
G01X2202030Y4158421D01*
G01X2198621Y4159179D01*
G01X2192561Y4159557D01*
G01X2186500Y4159179D01*
G01X2181197Y4158800D01*
G01X2174379Y4159179D01*
G01X2170591Y4160315D01*
G01X2168318Y4161830D01*
G01X2166424Y4163724D01*
G01X2164909Y4165997D01*
G01X2164152Y4170164D01*
G01X2164909Y4175088D01*
G01X2166424Y4177739D01*
G01X2167940Y4179633D01*
G01X2170212Y4181527D01*
G01X2173243Y4183043D01*
G01X2179682Y4183800D01*
G01X2185742Y4184179D01*
G01X2188773Y4184558D01*
G01X2192561Y4184936D01*
G01X2195591Y4185694D01*
G01X2198242Y4186451D01*
G01X2200894Y4187588D01*
G01X2203924Y4189482D01*
G01X2206197Y4191376D01*
G01X2209606Y4194785D01*
G01X2211500Y4197815D01*
G01X2213015Y4201982D01*
G01X2213773Y4206906D01*
G01X2213773Y4210694D01*
G01X2213394Y4213724D01*
G01X2212636Y4217133D01*
G01X2211121Y4220542D01*
G01X2209606Y4223194D01*
G01X2208470Y4225088D01*
G01X2206955Y4226603D01*
G01X2205061Y4228118D01*
G01X2202409Y4230012D01*
G01X2199000Y4231527D01*
G01X2195970Y4232285D01*
G01X2193318Y4232664D01*
G01X2190288Y4233042D01*
G01X2187258Y4232664D01*
G01X2183849Y4232285D01*
G01X2180061Y4231527D01*
G01X2176651Y4230012D01*
G01X2172864Y4228118D01*
G01X2169455Y4225088D01*
G01X2167182Y4221679D01*
G01X2165667Y4219027D01*
G01X2162636Y4212967D01*
G01X2161500Y4210315D01*
G01X2159985Y4206906D01*
G01X2158091Y4204255D01*
G01X2155439Y4202361D01*
G01X2149758Y4201224D01*
G01X2144455Y4201982D01*
G01X2141046Y4203876D01*
G01X2138394Y4206148D01*
G01X2136879Y4208421D01*
G01X2135742Y4211830D01*
G01X2135742Y4217512D01*
G01X2136879Y4222436D01*
G01X2138394Y4225845D01*
G01X2139909Y4228876D01*
G01X2141803Y4231906D01*
G01X2143697Y4234558D01*
G01X2145212Y4236452D01*
G01X2150894Y4242133D01*
G01X2152788Y4243648D01*
G01X2155439Y4245543D01*
G01X2158470Y4247436D01*
G01X2164530Y4250467D01*
G01X2167561Y4251603D01*
G01X2170970Y4252739D01*
G01X2174758Y4253876D01*
G01X2178167Y4254633D01*
G01X2183470Y4255391D01*
G01X2191424Y4255770D01*
G01X2200894Y4255391D01*
G01X2205439Y4254633D01*
G01X2209227Y4253876D01*
G01X2213773Y4252739D01*
G01X2217939Y4251224D01*
G01X2221349Y4249709D01*
G01X2225136Y4247815D01*
G01X2228924Y4245164D01*
G01X2231955Y4242891D01*
G01X2237636Y4237209D01*
G01X2239530Y4234558D01*
G01X2241424Y4231527D01*
G01X2242939Y4228497D01*
G01X2244454Y4224330D01*
G01X2245591Y4220542D01*
G01X2245970Y4212967D01*
G01X2245591Y4205391D01*
G01X2244833Y4201603D01*
G01X2243697Y4197436D01*
G01X2242182Y4194027D01*
G01X2240288Y4190618D01*
G01X2238773Y4187967D01*
G01X2237258Y4186073D01*
G01X2232712Y4180770D01*
G01X2227030Y4175088D01*
G01X2227030Y4173194D01*
G01X2229682Y4171300D01*
G01X2233091Y4169027D01*
G01X2235743Y4167133D01*
G01X2239530Y4164103D01*
G01X2245212Y4158421D01*
G01X2247106Y4155770D01*
G01X2249000Y4152739D01*
G01X2250515Y4150088D01*
G01X2251652Y4147436D01*
G01X2252788Y4144406D01*
G01X2253924Y4140239D01*
G01X2254682Y4136452D01*
G01X2255061Y4131906D01*
G01X2254682Y4126603D01*
G01X2253924Y4121300D01*
G01X2252788Y4116376D01*
G01X2251652Y4112967D01*
G01X2250515Y4109936D01*
G01X2247106Y4103118D01*
G01X2245212Y4100088D01*
G01X2240667Y4094027D01*
G01X2236879Y4090239D01*
G01X2233091Y4087209D01*
G01X2230440Y4084936D01*
G01X2226652Y4082664D01*
G01X2223621Y4080770D01*
G01X2218318Y4078497D01*
G01X2215288Y4077361D01*
G01X2211879Y4076224D01*
G01X2208091Y4075088D01*
G01X2204682Y4074330D01*
G01X2198621Y4073573D01*
G01X2191045Y4073194D01*
G37*
G36*
G01X2342561Y4073573D02*
G01X2340288Y4073573D01*
G01X2337258Y4073952D01*
G01X2332712Y4074330D01*
G01X2329682Y4075088D01*
G01X2327030Y4075467D01*
G01X2324000Y4076224D01*
G01X2316424Y4079255D01*
G01X2313015Y4081148D01*
G01X2309227Y4083421D01*
G01X2306576Y4085315D01*
G01X2303924Y4087588D01*
G01X2300894Y4089861D01*
G01X2299000Y4091754D01*
G01X2297485Y4093649D01*
G01X2295212Y4096300D01*
G01X2292561Y4100088D01*
G01X2290667Y4102739D01*
G01X2289152Y4105391D01*
G01X2286121Y4111452D01*
G01X2284606Y4115997D01*
G01X2283091Y4120921D01*
G01X2281955Y4124330D01*
G01X2280439Y4131906D01*
G01X2279682Y4137967D01*
G01X2278924Y4144785D01*
G01X2278545Y4162588D01*
G01X2278626Y4166376D01*
G01X2311879Y4166376D01*
G01X2312258Y4146300D01*
G01X2313015Y4137967D01*
G01X2313773Y4131906D01*
G01X2314152Y4129255D01*
G01X2314909Y4125088D01*
G01X2316045Y4121300D01*
G01X2316803Y4118270D01*
G01X2317939Y4115239D01*
G01X2321348Y4108421D01*
G01X2323242Y4105770D01*
G01X2324758Y4103876D01*
G01X2327030Y4101982D01*
G01X2330439Y4100088D01*
G01X2333849Y4098952D01*
G01X2333849Y4098952D01*
G01X2335742Y4098573D01*
G01X2340288Y4098194D01*
G01X2346727Y4098952D01*
G01X2350136Y4100088D01*
G01X2352788Y4101224D01*
G01X2355061Y4102739D01*
G01X2356955Y4104255D01*
G01X2359227Y4106906D01*
G01X2361500Y4110315D01*
G01X2363394Y4113724D01*
G01X2364909Y4117891D01*
G01X2366046Y4121300D01*
G01X2367561Y4128876D01*
G01X2368318Y4134179D01*
G01X2369076Y4142512D01*
G01X2369454Y4164482D01*
G01X2369076Y4186451D01*
G01X2368697Y4189103D01*
G01X2368318Y4194027D01*
G01X2367561Y4199330D01*
G01X2366046Y4206906D01*
G01X2364909Y4211073D01*
G01X2363394Y4215239D01*
G01X2361879Y4218270D01*
G01X2360743Y4220921D01*
G01X2359227Y4223194D01*
G01X2354682Y4227739D01*
G01X2350894Y4230012D01*
G01X2347864Y4231148D01*
G01X2341424Y4231527D01*
G01X2334985Y4231148D01*
G01X2331955Y4230391D01*
G01X2328546Y4228876D01*
G01X2325136Y4226603D01*
G01X2322106Y4223573D01*
G01X2319833Y4220164D01*
G01X2317939Y4216376D01*
G01X2315288Y4208421D01*
G01X2313773Y4200845D01*
G01X2313015Y4194785D01*
G01X2312258Y4186451D01*
G01X2311879Y4166376D01*
G01X2278626Y4166376D01*
G01X2278924Y4180391D01*
G01X2279303Y4183421D01*
G01X2279682Y4188724D01*
G01X2280439Y4194785D01*
G01X2281197Y4200088D01*
G01X2281955Y4203876D01*
G01X2282333Y4206527D01*
G01X2283091Y4209558D01*
G01X2285364Y4217133D01*
G01X2286879Y4220542D01*
G01X2288394Y4224330D01*
G01X2290288Y4228118D01*
G01X2292561Y4231527D01*
G01X2294455Y4234558D01*
G01X2296348Y4236830D01*
G01X2300894Y4242133D01*
G01X2304682Y4245164D01*
G01X2307333Y4247058D01*
G01X2310364Y4248951D01*
G01X2313015Y4250467D01*
G01X2316424Y4251982D01*
G01X2320212Y4253497D01*
G01X2324000Y4254633D01*
G01X2327409Y4255391D01*
G01X2334227Y4256149D01*
G01X2338394Y4256527D01*
G01X2344833Y4256149D01*
G01X2350136Y4255391D01*
G01X2353924Y4254633D01*
G01X2356955Y4253876D01*
G01X2360364Y4252739D01*
G01X2364530Y4251224D01*
G01X2368318Y4249330D01*
G01X2371349Y4247436D01*
G01X2374000Y4245921D01*
G01X2376273Y4244027D01*
G01X2378924Y4241755D01*
G01X2381197Y4239482D01*
G01X2382712Y4237588D01*
G01X2384606Y4235694D01*
G01X2386121Y4233800D01*
G01X2388015Y4231148D01*
G01X2390288Y4227361D01*
G01X2392182Y4224330D01*
G01X2393697Y4221300D01*
G01X2395212Y4217512D01*
G01X2396727Y4213346D01*
G01X2398242Y4208421D01*
G01X2399379Y4204633D01*
G01X2400894Y4196300D01*
G01X2401652Y4190997D01*
G01X2402409Y4182664D01*
G01X2402788Y4164861D01*
G01X2402409Y4147058D01*
G01X2402030Y4143270D01*
G01X2401652Y4138724D01*
G01X2400894Y4133421D01*
G01X2400136Y4128876D01*
G01X2399758Y4126224D01*
G01X2399000Y4123194D01*
G01X2396727Y4115618D01*
G01X2395591Y4112588D01*
G01X2394455Y4109936D01*
G01X2391046Y4103118D01*
G01X2388773Y4099709D01*
G01X2386879Y4096679D01*
G01X2384985Y4094406D01*
G01X2383091Y4092512D01*
G01X2381197Y4090239D01*
G01X2378924Y4088346D01*
G01X2377030Y4086451D01*
G01X2374379Y4084179D01*
G01X2370970Y4081906D01*
G01X2367561Y4080012D01*
G01X2364530Y4078497D01*
G01X2361879Y4077361D01*
G01X2358848Y4076224D01*
G01X2355061Y4075088D01*
G01X2351652Y4074330D01*
G01X2347485Y4073952D01*
G01X2342561Y4073573D01*
G37*
G36*
G01X1596727Y3783800D02*
G01X1589152Y3784179D01*
G01X1585742Y3784936D01*
G01X1581955Y3785694D01*
G01X1578545Y3786452D01*
G01X1574758Y3787588D01*
G01X1571348Y3789103D01*
G01X1565288Y3792133D01*
G01X1562636Y3793648D01*
G01X1560364Y3794785D01*
G01X1558091Y3796300D01*
G01X1552788Y3800845D01*
G01X1548243Y3805391D01*
G01X1545970Y3808421D01*
G01X1544076Y3811073D01*
G01X1542182Y3814103D01*
G01X1540667Y3816754D01*
G01X1539152Y3819785D01*
G01X1537636Y3823952D01*
G01X1536500Y3827361D01*
G01X1536121Y3830770D01*
G01X1536500Y3834936D01*
G01X1537636Y3838724D01*
G01X1539152Y3841376D01*
G01X1540667Y3843270D01*
G01X1542561Y3845164D01*
G01X1544833Y3846679D01*
G01X1548621Y3847815D01*
G01X1553924Y3847436D01*
G01X1557712Y3845921D01*
G01X1559985Y3844406D01*
G01X1561879Y3842133D01*
G01X1563394Y3839103D01*
G01X1564909Y3835315D01*
G01X1566424Y3831906D01*
G01X1569833Y3825088D01*
G01X1573621Y3819027D01*
G01X1575894Y3816376D01*
G01X1579682Y3812588D01*
G01X1581955Y3811073D01*
G01X1584606Y3809936D01*
G01X1587636Y3808800D01*
G01X1594833Y3808043D01*
G01X1601652Y3808421D01*
G01X1605061Y3809179D01*
G01X1608470Y3810315D01*
G01X1611500Y3811830D01*
G01X1615288Y3814103D01*
G01X1618318Y3816376D01*
G01X1620212Y3818270D01*
G01X1622106Y3820921D01*
G01X1624000Y3823952D01*
G01X1625515Y3827361D01*
G01X1626652Y3830391D01*
G01X1627409Y3837209D01*
G01X1627409Y3839482D01*
G01X1627030Y3843649D01*
G01X1626273Y3849330D01*
G01X1624757Y3853876D01*
G01X1623242Y3856906D01*
G01X1621349Y3859936D01*
G01X1619076Y3862588D01*
G01X1617182Y3864482D01*
G01X1614530Y3866376D01*
G01X1611500Y3867891D01*
G01X1608091Y3869027D01*
G01X1604682Y3869785D01*
G01X1598621Y3870164D01*
G01X1592561Y3869785D01*
G01X1585742Y3869406D01*
G01X1578545Y3870164D01*
G01X1575515Y3871300D01*
G01X1572485Y3873573D01*
G01X1570591Y3876982D01*
G01X1569833Y3879633D01*
G01X1569833Y3882285D01*
G01X1571348Y3887588D01*
G01X1573621Y3890618D01*
G01X1576651Y3892512D01*
G01X1579303Y3893648D01*
G01X1585742Y3894406D01*
G01X1591803Y3894785D01*
G01X1595212Y3895164D01*
G01X1600136Y3895921D01*
G01X1604682Y3897436D01*
G01X1608470Y3899330D01*
G01X1611121Y3901224D01*
G01X1613015Y3902739D01*
G01X1614909Y3904633D01*
G01X1616424Y3906527D01*
G01X1617939Y3909557D01*
G01X1619076Y3912967D01*
G01X1619454Y3917512D01*
G01X1619076Y3924330D01*
G01X1617939Y3928876D01*
G01X1616424Y3931906D01*
G01X1614909Y3934558D01*
G01X1613394Y3936451D01*
G01X1610743Y3939103D01*
G01X1606955Y3941376D01*
G01X1603924Y3942512D01*
G01X1599379Y3943270D01*
G01X1592561Y3943270D01*
G01X1588015Y3942512D01*
G01X1584985Y3941755D01*
G01X1581197Y3940239D01*
G01X1578545Y3938346D01*
G01X1576651Y3936830D01*
G01X1574758Y3934936D01*
G01X1573242Y3933043D01*
G01X1571727Y3930391D01*
G01X1568697Y3924330D01*
G01X1567182Y3920542D01*
G01X1565288Y3916755D01*
G01X1563015Y3914103D01*
G01X1560364Y3912588D01*
G01X1555439Y3911830D01*
G01X1550136Y3912588D01*
G01X1547485Y3914103D01*
G01X1545591Y3915618D01*
G01X1543697Y3917512D01*
G01X1542182Y3920164D01*
G01X1541424Y3924330D01*
G01X1541803Y3929633D01*
G01X1542940Y3933800D01*
G01X1544455Y3937209D01*
G01X1547485Y3942512D01*
G01X1549379Y3945164D01*
G01X1553924Y3950467D01*
G01X1555818Y3951982D01*
G01X1558470Y3954255D01*
G01X1564152Y3958043D01*
G01X1566803Y3959558D01*
G01X1570212Y3961073D01*
G01X1574000Y3962588D01*
G01X1577409Y3963724D01*
G01X1583470Y3965239D01*
G01X1588773Y3965997D01*
G01X1596727Y3966376D01*
G01X1606197Y3965997D01*
G01X1611500Y3965239D01*
G01X1616803Y3964103D01*
G01X1621727Y3962588D01*
G01X1625136Y3961073D01*
G01X1631955Y3957664D01*
G01X1634606Y3955770D01*
G01X1636500Y3954633D01*
G01X1638394Y3953118D01*
G01X1642939Y3948573D01*
G01X1645591Y3944785D01*
G01X1647485Y3941755D01*
G01X1649758Y3936451D01*
G01X1650894Y3932664D01*
G01X1651652Y3928876D01*
G01X1652030Y3923194D01*
G01X1651652Y3917512D01*
G01X1650894Y3913345D01*
G01X1649758Y3908800D01*
G01X1648242Y3905391D01*
G01X1646727Y3902361D01*
G01X1644833Y3899330D01*
G01X1642939Y3896679D01*
G01X1640667Y3894027D01*
G01X1638394Y3890997D01*
G01X1635742Y3888345D01*
G01X1632712Y3886073D01*
G01X1631955Y3884558D01*
G01X1634227Y3882664D01*
G01X1637258Y3880770D01*
G01X1639530Y3879254D01*
G01X1641424Y3877739D01*
G01X1643697Y3876224D01*
G01X1645970Y3874330D01*
G01X1649758Y3870543D01*
G01X1651273Y3868648D01*
G01X1653167Y3865997D01*
G01X1655061Y3862967D01*
G01X1656576Y3859936D01*
G01X1658091Y3856527D01*
G01X1659227Y3853118D01*
G01X1659985Y3850088D01*
G01X1660364Y3843270D01*
G01X1659985Y3834179D01*
G01X1658849Y3828118D01*
G01X1657333Y3823194D01*
G01X1655818Y3819785D01*
G01X1652788Y3813724D01*
G01X1650894Y3810694D01*
G01X1649000Y3808043D01*
G01X1646727Y3805391D01*
G01X1644455Y3802361D01*
G01X1640667Y3799330D01*
G01X1638773Y3797436D01*
G01X1636121Y3795542D01*
G01X1633091Y3793648D01*
G01X1630439Y3792133D01*
G01X1625894Y3789861D01*
G01X1622485Y3788345D01*
G01X1617939Y3786830D01*
G01X1613773Y3785694D01*
G01X1610743Y3784936D01*
G01X1604682Y3784179D01*
G01X1596727Y3783800D01*
G37*
G36*
G01X1812257Y3783800D02*
G01X1808091Y3784179D01*
G01X1806197Y3785315D01*
G01X1803167Y3786830D01*
G01X1800515Y3788724D01*
G01X1799000Y3790618D01*
G01X1797485Y3793270D01*
G01X1796348Y3796300D01*
G01X1795970Y3803497D01*
G01X1796348Y3811451D01*
G01X1797106Y3815997D01*
G01X1797864Y3819785D01*
G01X1798621Y3823194D01*
G01X1799758Y3828118D01*
G01X1801273Y3833043D01*
G01X1802409Y3836451D01*
G01X1803167Y3839482D01*
G01X1804303Y3842891D01*
G01X1808849Y3855012D01*
G01X1810364Y3858421D01*
G01X1813394Y3865997D01*
G01X1814909Y3869027D01*
G01X1817939Y3875846D01*
G01X1822485Y3884936D01*
G01X1826273Y3891755D01*
G01X1828167Y3895543D01*
G01X1830439Y3899330D01*
G01X1832333Y3902361D01*
G01X1833849Y3905012D01*
G01X1835742Y3908042D01*
G01X1842561Y3918270D01*
G01X1846349Y3923573D01*
G01X1849000Y3927361D01*
G01X1851273Y3930391D01*
G01X1852788Y3932285D01*
G01X1853924Y3934179D01*
G01X1846064Y3935031D01*
G01X1821727Y3935315D01*
G01X1786500Y3935694D01*
G01X1781955Y3936451D01*
G01X1778167Y3937588D01*
G01X1774379Y3939482D01*
G01X1771727Y3941755D01*
G01X1770212Y3944406D01*
G01X1769455Y3949709D01*
G01X1769833Y3954633D01*
G01X1770970Y3957664D01*
G01X1772864Y3960315D01*
G01X1775136Y3961830D01*
G01X1778924Y3962967D01*
G01X1782712Y3963724D01*
G01X1827788Y3964103D01*
G01X1874379Y3963724D01*
G01X1879682Y3962967D01*
G01X1883848Y3961830D01*
G01X1886879Y3960315D01*
G01X1889909Y3957664D01*
G01X1891803Y3954255D01*
G01X1892561Y3951603D01*
G01X1892561Y3947815D01*
G01X1891424Y3943649D01*
G01X1889909Y3940618D01*
G01X1888015Y3937588D01*
G01X1885742Y3934179D01*
G01X1883091Y3930391D01*
G01X1880818Y3927361D01*
G01X1877788Y3923573D01*
G01X1870970Y3914482D01*
G01X1868318Y3910694D01*
G01X1866424Y3908042D01*
G01X1864909Y3905770D01*
G01X1861121Y3899709D01*
G01X1858091Y3894406D01*
G01X1856197Y3890997D01*
G01X1854303Y3887967D01*
G01X1852788Y3884936D01*
G01X1848242Y3874709D01*
G01X1843697Y3862588D01*
G01X1841424Y3855770D01*
G01X1838015Y3844406D01*
G01X1837258Y3840997D01*
G01X1836500Y3837209D01*
G01X1834227Y3823573D01*
G01X1833470Y3818270D01*
G01X1831955Y3809179D01*
G01X1830818Y3803118D01*
G01X1829303Y3798194D01*
G01X1827788Y3794785D01*
G01X1826273Y3791755D01*
G01X1824379Y3789103D01*
G01X1822485Y3787209D01*
G01X1820212Y3785694D01*
G01X1817182Y3784557D01*
G01X1812257Y3783800D01*
G37*
G36*
G01X1711500Y3783800D02*
G01X1706576Y3784557D01*
G01X1703167Y3786073D01*
G01X1700515Y3787588D01*
G01X1698621Y3789103D01*
G01X1696727Y3790997D01*
G01X1694833Y3794027D01*
G01X1693318Y3798194D01*
G01X1693318Y3803876D01*
G01X1694455Y3808421D01*
G01X1695970Y3811451D01*
G01X1697864Y3814103D01*
G01X1699758Y3815997D01*
G01X1702030Y3817891D01*
G01X1705061Y3819406D01*
G01X1710364Y3820164D01*
G01X1716424Y3819406D01*
G01X1719833Y3817891D01*
G01X1722106Y3816376D01*
G01X1724758Y3814103D01*
G01X1727030Y3811073D01*
G01X1728545Y3808043D01*
G01X1729303Y3802739D01*
G01X1728545Y3796679D01*
G01X1727030Y3793270D01*
G01X1725515Y3790618D01*
G01X1723621Y3788724D01*
G01X1721727Y3787209D01*
G01X1719455Y3785694D01*
G01X1716424Y3784557D01*
G01X1711500Y3783800D01*
G37*
G36*
G01X1984606Y3783800D02*
G01X1978545Y3784557D01*
G01X1974379Y3786073D01*
G01X1971727Y3787588D01*
G01X1969076Y3789482D01*
G01X1965667Y3792512D01*
G01X1961879Y3798194D01*
G01X1960364Y3801224D01*
G01X1958849Y3804633D01*
G01X1957712Y3807664D01*
G01X1956576Y3811073D01*
G01X1954303Y3817133D01*
G01X1952788Y3820921D01*
G01X1951273Y3825467D01*
G01X1949758Y3829255D01*
G01X1948621Y3832664D01*
G01X1944076Y3844785D01*
G01X1942939Y3848194D01*
G01X1940667Y3854255D01*
G01X1939152Y3858042D01*
G01X1937636Y3862588D01*
G01X1936121Y3866376D01*
G01X1934985Y3869785D01*
G01X1930439Y3881906D01*
G01X1929303Y3885315D01*
G01X1927030Y3891376D01*
G01X1925515Y3895164D01*
G01X1924000Y3899709D01*
G01X1922485Y3903497D01*
G01X1921348Y3906906D01*
G01X1916803Y3919027D01*
G01X1915667Y3922436D01*
G01X1914152Y3926224D01*
G01X1909606Y3938724D01*
G01X1908470Y3941755D01*
G01X1906955Y3947815D01*
G01X1906576Y3950467D01*
G01X1906955Y3953876D01*
G01X1908091Y3957664D01*
G01X1909606Y3960694D01*
G01X1911121Y3962967D01*
G01X1913015Y3964861D01*
G01X1916045Y3966754D01*
G01X1919076Y3968270D01*
G01X1923621Y3968649D01*
G01X1929303Y3967891D01*
G01X1933470Y3965997D01*
G01X1936879Y3962967D01*
G01X1939152Y3959558D01*
G01X1942182Y3952739D01*
G01X1944455Y3946679D01*
G01X1958091Y3905770D01*
G01X1960364Y3899709D01*
G01X1977409Y3848573D01*
G01X1979682Y3842512D01*
G01X1984227Y3828876D01*
G01X1985364Y3826603D01*
G01X1986500Y3827361D01*
G01X1987636Y3830012D01*
G01X2005818Y3884558D01*
G01X2008091Y3890618D01*
G01X2027409Y3948573D01*
G01X2030818Y3957664D01*
G01X2032333Y3960694D01*
G01X2034227Y3963346D01*
G01X2036121Y3965239D01*
G01X2038015Y3966754D01*
G01X2040667Y3967891D01*
G01X2045212Y3968649D01*
G01X2050515Y3967891D01*
G01X2053924Y3966376D01*
G01X2056576Y3964861D01*
G01X2058849Y3962967D01*
G01X2060742Y3960315D01*
G01X2062257Y3957285D01*
G01X2063015Y3954633D01*
G01X2063015Y3951224D01*
G01X2062257Y3947815D01*
G01X2061500Y3944785D01*
G01X2060364Y3940618D01*
G01X2058849Y3936830D01*
G01X2057712Y3933421D01*
G01X2053167Y3921300D01*
G01X2052030Y3917891D01*
G01X2050515Y3914103D01*
G01X2047485Y3905770D01*
G01X2045970Y3901982D01*
G01X2044833Y3898573D01*
G01X2038015Y3880391D01*
G01X2036879Y3876982D01*
G01X2035364Y3873194D01*
G01X2032333Y3864861D01*
G01X2030818Y3861073D01*
G01X2029682Y3857664D01*
G01X2022864Y3839482D01*
G01X2021727Y3836073D01*
G01X2017182Y3823952D01*
G01X2015667Y3820164D01*
G01X2014151Y3815618D01*
G01X2012636Y3811830D01*
G01X2011500Y3808421D01*
G01X2010364Y3805391D01*
G01X2009227Y3802739D01*
G01X2007712Y3799330D01*
G01X2005818Y3796300D01*
G01X2004682Y3794027D01*
G01X2003167Y3792133D01*
G01X2001273Y3790239D01*
G01X1998621Y3787967D01*
G01X1995591Y3786073D01*
G01X1992561Y3784936D01*
G01X1989530Y3784179D01*
G01X1984606Y3783800D01*
G37*
G36*
G01X2236121Y3783800D02*
G01X2231576Y3784557D01*
G01X2228924Y3786073D01*
G01X2226652Y3787588D01*
G01X2224758Y3789482D01*
G01X2223242Y3791755D01*
G01X2222106Y3794785D01*
G01X2221349Y3797815D01*
G01X2220970Y3812209D01*
G01X2220970Y3825467D01*
G01X2188015Y3825467D01*
G01X2153924Y3825845D01*
G01X2150515Y3826603D01*
G01X2147106Y3827739D01*
G01X2144455Y3829255D01*
G01X2142182Y3831148D01*
G01X2140288Y3833043D01*
G01X2138394Y3835694D01*
G01X2137258Y3838724D01*
G01X2136879Y3842512D01*
G01X2137258Y3847057D01*
G01X2138394Y3850467D01*
G01X2139446Y3852361D01*
G01X2169076Y3852361D01*
G01X2195212Y3851982D01*
G01X2220970Y3851982D01*
G01X2220970Y3887209D01*
G01X2220780Y3913535D01*
G01X2220212Y3922058D01*
G01X2217939Y3919785D01*
G01X2215667Y3916755D01*
G01X2214152Y3914861D01*
G01X2212258Y3912209D01*
G01X2209606Y3908421D01*
G01X2202788Y3899330D01*
G01X2201273Y3897436D01*
G01X2199379Y3894785D01*
G01X2196727Y3890997D01*
G01X2185364Y3875846D01*
G01X2181576Y3870543D01*
G01X2172485Y3858421D01*
G01X2170970Y3856527D01*
G01X2169455Y3854255D01*
G01X2169455Y3854255D01*
G01X2169076Y3852361D01*
G01X2139446Y3852361D01*
G01X2140288Y3853876D01*
G01X2142561Y3857285D01*
G01X2144455Y3859936D01*
G01X2162636Y3884179D01*
G01X2164152Y3886073D01*
G01X2166045Y3888724D01*
G01X2168697Y3892512D01*
G01X2214152Y3953118D01*
G01X2217182Y3956906D01*
G01X2219455Y3959936D01*
G01X2225136Y3965618D01*
G01X2227788Y3967133D01*
G01X2231576Y3967891D01*
G01X2236500Y3967512D01*
G01X2241046Y3966376D01*
G01X2243697Y3964861D01*
G01X2245591Y3963346D01*
G01X2247485Y3961451D01*
G01X2249000Y3959179D01*
G01X2250136Y3956527D01*
G01X2250894Y3953876D01*
G01X2251273Y3902361D01*
G01X2251273Y3851982D01*
G01X2256197Y3851982D01*
G01X2263773Y3851603D01*
G01X2268697Y3850467D01*
G01X2272864Y3848573D01*
G01X2275894Y3845542D01*
G01X2276746Y3843080D01*
G01X2277030Y3839482D01*
G01X2276273Y3833421D01*
G01X2274758Y3830770D01*
G01X2273242Y3828876D01*
G01X2270970Y3827361D01*
G01X2267939Y3826224D01*
G01X2258848Y3825467D01*
G01X2251273Y3825467D01*
G01X2251273Y3812967D01*
G01X2250894Y3797815D01*
G01X2249758Y3793270D01*
G01X2247864Y3789861D01*
G01X2245970Y3787209D01*
G01X2243318Y3785315D01*
G01X2240288Y3784179D01*
G01X2236121Y3783800D01*
G37*
G36*
G01X2611879Y3783800D02*
G01X2608091Y3784179D01*
G01X2605440Y3785315D01*
G01X2602788Y3786830D01*
G01X2600894Y3787967D01*
G01X2598621Y3790239D01*
G01X2596727Y3793270D01*
G01X2595591Y3796300D01*
G01X2594833Y3799330D01*
G01X2594455Y3850845D01*
G01X2594833Y3903118D01*
G01X2595591Y3906906D01*
G01X2596727Y3910315D01*
G01X2598242Y3912967D01*
G01X2599758Y3914861D01*
G01X2602030Y3916755D01*
G01X2605061Y3918270D01*
G01X2607712Y3919027D01*
G01X2611121Y3919027D01*
G01X2615667Y3917891D01*
G01X2619833Y3915618D01*
G01X2623242Y3912209D01*
G01X2625136Y3908421D01*
G01X2625894Y3905391D01*
G01X2626273Y3901982D01*
G01X2626273Y3899709D01*
G01X2627788Y3900467D01*
G01X2631955Y3904633D01*
G01X2633848Y3906149D01*
G01X2635743Y3908042D01*
G01X2638773Y3910315D01*
G01X2642182Y3912588D01*
G01X2644833Y3914103D01*
G01X2647485Y3915239D01*
G01X2650515Y3916376D01*
G01X2654303Y3917512D01*
G01X2657712Y3918270D01*
G01X2665288Y3918648D01*
G01X2673621Y3918270D01*
G01X2677409Y3917512D01*
G01X2681576Y3916376D01*
G01X2685742Y3914861D01*
G01X2689152Y3912967D01*
G01X2692182Y3911073D01*
G01X2694455Y3909179D01*
G01X2699000Y3904633D01*
G01X2701651Y3900846D01*
G01X2702788Y3899614D01*
G01X2703924Y3899709D01*
G01X2711500Y3907285D01*
G01X2713394Y3908800D01*
G01X2716045Y3910694D01*
G01X2719455Y3912967D01*
G01X2723242Y3914861D01*
G01X2727030Y3916376D01*
G01X2730818Y3917512D01*
G01X2734227Y3918270D01*
G01X2740667Y3918648D01*
G01X2749379Y3918270D01*
G01X2753924Y3917512D01*
G01X2757333Y3916755D01*
G01X2760743Y3915618D01*
G01X2763394Y3914482D01*
G01X2767939Y3912209D01*
G01X2770212Y3910694D01*
G01X2772485Y3908800D01*
G01X2775515Y3906149D01*
G01X2777788Y3903118D01*
G01X2779303Y3900846D01*
G01X2780818Y3897815D01*
G01X2782333Y3894406D01*
G01X2783470Y3889861D01*
G01X2784227Y3885694D01*
G01X2784985Y3875088D01*
G01X2785364Y3839482D01*
G01X2784985Y3803876D01*
G01X2784227Y3798573D01*
G01X2783470Y3795542D01*
G01X2782333Y3792512D01*
G01X2780818Y3790239D01*
G01X2777788Y3787209D01*
G01X2775136Y3785315D01*
G01X2772106Y3784179D01*
G01X2769076Y3783800D01*
G01X2766046Y3784179D01*
G01X2763015Y3784936D01*
G01X2759227Y3786452D01*
G01X2756576Y3788724D01*
G01X2754682Y3790618D01*
G01X2753167Y3792891D01*
G01X2752030Y3795921D01*
G01X2751273Y3798952D01*
G01X2750894Y3801603D01*
G01X2750515Y3837209D01*
G01X2750136Y3874330D01*
G01X2749379Y3879633D01*
G01X2748242Y3883421D01*
G01X2747106Y3886073D01*
G01X2745591Y3888345D01*
G01X2743697Y3890239D01*
G01X2740667Y3892133D01*
G01X2735743Y3893270D01*
G01X2731955Y3893270D01*
G01X2729303Y3892891D01*
G01X2725515Y3892133D01*
G01X2722106Y3890618D01*
G01X2719076Y3888724D01*
G01X2716424Y3886452D01*
G01X2714530Y3884558D01*
G01X2712258Y3881906D01*
G01X2710364Y3878497D01*
G01X2709227Y3875088D01*
G01X2708470Y3872058D01*
G01X2707712Y3865997D01*
G01X2706955Y3803876D01*
G01X2706197Y3798573D01*
G01X2705439Y3795542D01*
G01X2704303Y3792512D01*
G01X2703167Y3790239D01*
G01X2701651Y3788724D01*
G01X2699758Y3787209D01*
G01X2697106Y3785315D01*
G01X2694076Y3784179D01*
G01X2691045Y3783800D01*
G01X2688015Y3784179D01*
G01X2684985Y3784936D01*
G01X2681576Y3786452D01*
G01X2678924Y3788345D01*
G01X2677030Y3790239D01*
G01X2675515Y3792512D01*
G01X2674379Y3795164D01*
G01X2673621Y3797815D01*
G01X2672864Y3865997D01*
G01X2672106Y3876603D01*
G01X2671348Y3880391D01*
G01X2670212Y3884179D01*
G01X2668697Y3887209D01*
G01X2666045Y3890618D01*
G01X2662258Y3892512D01*
G01X2658470Y3893270D01*
G01X2653924Y3893270D01*
G01X2648621Y3892512D01*
G01X2644076Y3891376D01*
G01X2638773Y3888724D01*
G01X2636879Y3887209D01*
G01X2635364Y3885315D01*
G01X2633848Y3882664D01*
G01X2632333Y3878876D01*
G01X2631197Y3875846D01*
G01X2629682Y3867512D01*
G01X2628924Y3860694D01*
G01X2628545Y3831148D01*
G01X2628167Y3800845D01*
G01X2627409Y3797058D01*
G01X2626273Y3793648D01*
G01X2624758Y3790618D01*
G01X2622106Y3787588D01*
G01X2619076Y3785694D01*
G01X2616424Y3784557D01*
G01X2611879Y3783800D01*
G37*
G36*
G01X2358470Y3784179D02*
G01X2355440Y3784179D01*
G01X2353167Y3784557D01*
G01X2348621Y3784936D01*
G01X2344833Y3785694D01*
G01X2341424Y3786452D01*
G01X2337636Y3787588D01*
G01X2333849Y3789103D01*
G01X2330439Y3790618D01*
G01X2327788Y3792133D01*
G01X2324758Y3794027D01*
G01X2321348Y3796679D01*
G01X2318318Y3798952D01*
G01X2311879Y3805391D01*
G01X2309606Y3808421D01*
G01X2308091Y3810694D01*
G01X2304303Y3816754D01*
G01X2302788Y3819785D01*
G01X2301273Y3823573D01*
G01X2299758Y3828118D01*
G01X2298243Y3833043D01*
G01X2297106Y3837209D01*
G01X2296348Y3841754D01*
G01X2295591Y3845542D01*
G01X2294833Y3853118D01*
G01X2294076Y3865239D01*
G01X2293697Y3873573D01*
G01X2293852Y3876982D01*
G01X2327030Y3876982D01*
G01X2327409Y3865997D01*
G01X2328167Y3853118D01*
G01X2328924Y3846300D01*
G01X2329682Y3840997D01*
G01X2331197Y3833421D01*
G01X2331955Y3830391D01*
G01X2333091Y3826982D01*
G01X2334606Y3823573D01*
G01X2336500Y3819785D01*
G01X2338394Y3817133D01*
G01X2339909Y3815239D01*
G01X2341803Y3813346D01*
G01X2344455Y3811451D01*
G01X2348242Y3809936D01*
G01X2348242Y3809936D01*
G01X2350894Y3809179D01*
G01X2354682Y3808800D01*
G01X2360743Y3809179D01*
G01X2364909Y3810315D01*
G01X2368318Y3811830D01*
G01X2370970Y3813724D01*
G01X2374758Y3817512D01*
G01X2376652Y3820164D01*
G01X2378545Y3823573D01*
G01X2380061Y3827739D01*
G01X2381576Y3832664D01*
G01X2382712Y3836451D01*
G01X2383470Y3841754D01*
G01X2384227Y3847815D01*
G01X2384985Y3858421D01*
G01X2385364Y3875088D01*
G01X2384985Y3891755D01*
G01X2384227Y3901603D01*
G01X2383091Y3910694D01*
G01X2382333Y3915239D01*
G01X2381197Y3919027D01*
G01X2380439Y3922058D01*
G01X2379303Y3925467D01*
G01X2377788Y3928876D01*
G01X2375515Y3932664D01*
G01X2373242Y3935694D01*
G01X2370591Y3938346D01*
G01X2367182Y3940239D01*
G01X2364151Y3941376D01*
G01X2357333Y3942133D01*
G01X2350894Y3941755D01*
G01X2347864Y3940997D01*
G01X2344833Y3939861D01*
G01X2342561Y3938724D01*
G01X2340667Y3937209D01*
G01X2338773Y3935315D01*
G01X2336879Y3933043D01*
G01X2335364Y3930770D01*
G01X2333849Y3927739D01*
G01X2331197Y3919785D01*
G01X2329682Y3912967D01*
G01X2328924Y3907664D01*
G01X2328167Y3900846D01*
G01X2327409Y3887967D01*
G01X2327030Y3876982D01*
G01X2293852Y3876982D01*
G01X2294076Y3881906D01*
G01X2294833Y3894785D01*
G01X2295212Y3898194D01*
G01X2295591Y3902361D01*
G01X2296348Y3907664D01*
G01X2297106Y3912209D01*
G01X2297864Y3915997D01*
G01X2299000Y3921300D01*
G01X2300515Y3926224D01*
G01X2302030Y3930391D01*
G01X2306954Y3940239D01*
G01X2311500Y3947058D01*
G01X2313773Y3949709D01*
G01X2318318Y3954255D01*
G01X2322106Y3957285D01*
G01X2325894Y3959558D01*
G01X2329682Y3961451D01*
G01X2333091Y3962967D01*
G01X2336121Y3964103D01*
G01X2339909Y3965239D01*
G01X2343318Y3965997D01*
G01X2350136Y3966754D01*
G01X2355061Y3967133D01*
G01X2359985Y3966754D01*
G01X2366046Y3965997D01*
G01X2369454Y3965239D01*
G01X2374000Y3964103D01*
G01X2378167Y3962588D01*
G01X2381576Y3961073D01*
G01X2384606Y3959558D01*
G01X2387636Y3957664D01*
G01X2390288Y3955770D01*
G01X2394076Y3952739D01*
G01X2399758Y3947058D01*
G01X2401273Y3945164D01*
G01X2403167Y3942512D01*
G01X2405439Y3938724D01*
G01X2407333Y3935694D01*
G01X2408849Y3932664D01*
G01X2410364Y3929255D01*
G01X2411879Y3925467D01*
G01X2413394Y3920542D01*
G01X2414530Y3916755D01*
G01X2416045Y3909936D01*
G01X2416803Y3904633D01*
G01X2417561Y3898573D01*
G01X2418318Y3888724D01*
G01X2418697Y3875846D01*
G01X2418318Y3862967D01*
G01X2417561Y3852361D01*
G01X2417182Y3849709D01*
G01X2416803Y3845542D01*
G01X2416045Y3840997D01*
G01X2415288Y3837209D01*
G01X2414530Y3834179D01*
G01X2413773Y3830770D01*
G01X2412636Y3826982D01*
G01X2411121Y3823194D01*
G01X2409606Y3819785D01*
G01X2406197Y3812967D01*
G01X2403924Y3809558D01*
G01X2401273Y3806148D01*
G01X2399000Y3803118D01*
G01X2392561Y3796679D01*
G01X2388773Y3794027D01*
G01X2386121Y3792133D01*
G01X2383470Y3790618D01*
G01X2380439Y3789103D01*
G01X2377409Y3787967D01*
G01X2374000Y3786830D01*
G01X2370212Y3785694D01*
G01X2366803Y3784936D01*
G01X2363394Y3784557D01*
G01X2358470Y3784179D01*
G37*
G36*
G01X2506955Y3784179D02*
G01X2504682Y3784179D01*
G01X2502030Y3784557D01*
G01X2497106Y3784936D01*
G01X2493318Y3785694D01*
G01X2489909Y3786452D01*
G01X2486121Y3787588D01*
G01X2479303Y3790618D01*
G01X2475894Y3792512D01*
G01X2472864Y3794406D01*
G01X2466803Y3798952D01*
G01X2461121Y3804633D01*
G01X2458849Y3807664D01*
G01X2456197Y3811451D01*
G01X2454303Y3814103D01*
G01X2452788Y3816754D01*
G01X2451273Y3820542D01*
G01X2449758Y3823573D01*
G01X2448621Y3826982D01*
G01X2446348Y3834558D01*
G01X2445591Y3837967D01*
G01X2444076Y3846300D01*
G01X2443318Y3853118D01*
G01X2442561Y3867512D01*
G01X2442182Y3873951D01*
G01X2442427Y3878118D01*
G01X2475515Y3878118D01*
G01X2475894Y3870543D01*
G01X2476652Y3853876D01*
G01X2477030Y3850467D01*
G01X2477409Y3846300D01*
G01X2478924Y3837209D01*
G01X2479682Y3834179D01*
G01X2480440Y3830770D01*
G01X2481576Y3826982D01*
G01X2483091Y3823573D01*
G01X2484985Y3819785D01*
G01X2486879Y3817133D01*
G01X2488394Y3815239D01*
G01X2490288Y3813346D01*
G01X2492939Y3811451D01*
G01X2496727Y3809936D01*
G01X2496727Y3809936D01*
G01X2499379Y3809179D01*
G01X2503545Y3808800D01*
G01X2509227Y3809179D01*
G01X2513394Y3810315D01*
G01X2516803Y3811830D01*
G01X2519455Y3813346D01*
G01X2521727Y3815239D01*
G01X2523242Y3817133D01*
G01X2524758Y3819406D01*
G01X2526273Y3822058D01*
G01X2527788Y3825088D01*
G01X2529303Y3829255D01*
G01X2530439Y3832664D01*
G01X2531955Y3840997D01*
G01X2532712Y3847057D01*
G01X2533470Y3856906D01*
G01X2533849Y3875088D01*
G01X2533470Y3893270D01*
G01X2533091Y3897058D01*
G01X2532712Y3902361D01*
G01X2531955Y3908421D01*
G01X2531197Y3912967D01*
G01X2529682Y3919785D01*
G01X2528545Y3923194D01*
G01X2527030Y3927361D01*
G01X2525136Y3931148D01*
G01X2523242Y3933800D01*
G01X2521727Y3935694D01*
G01X2519076Y3938346D01*
G01X2515288Y3940618D01*
G01X2512258Y3941755D01*
G01X2505818Y3942133D01*
G01X2499379Y3941755D01*
G01X2496349Y3940997D01*
G01X2492561Y3939482D01*
G01X2489909Y3937588D01*
G01X2488015Y3936073D01*
G01X2485743Y3933421D01*
G01X2483470Y3929633D01*
G01X2481576Y3925467D01*
G01X2480061Y3920542D01*
G01X2478924Y3916755D01*
G01X2477409Y3907664D01*
G01X2476652Y3900088D01*
G01X2475894Y3885694D01*
G01X2475515Y3878118D01*
G01X2442427Y3878118D01*
G01X2442561Y3880391D01*
G01X2443318Y3894027D01*
G01X2443697Y3897436D01*
G01X2444076Y3901603D01*
G01X2444833Y3906906D01*
G01X2445591Y3911452D01*
G01X2447106Y3919027D01*
G01X2447864Y3922058D01*
G01X2449000Y3926224D01*
G01X2450515Y3930391D01*
G01X2455061Y3939482D01*
G01X2456955Y3942512D01*
G01X2458849Y3945164D01*
G01X2460364Y3947436D01*
G01X2462258Y3949709D01*
G01X2466045Y3953497D01*
G01X2471727Y3958043D01*
G01X2474379Y3959558D01*
G01X2478167Y3961451D01*
G01X2481576Y3962967D01*
G01X2484606Y3964103D01*
G01X2488394Y3965239D01*
G01X2491803Y3965997D01*
G01X2498621Y3966754D01*
G01X2503545Y3967133D01*
G01X2508470Y3966754D01*
G01X2511121Y3966376D01*
G01X2514530Y3965997D01*
G01X2517561Y3965239D01*
G01X2520970Y3964482D01*
G01X2524758Y3963346D01*
G01X2528545Y3961830D01*
G01X2531576Y3960315D01*
G01X2536879Y3957285D01*
G01X2538773Y3956148D01*
G01X2540667Y3954633D01*
G01X2548243Y3947058D01*
G01X2550515Y3944027D01*
G01X2553167Y3940239D01*
G01X2555061Y3937209D01*
G01X2558091Y3931148D01*
G01X2559606Y3927739D01*
G01X2561121Y3923194D01*
G01X2562636Y3918270D01*
G01X2563773Y3914482D01*
G01X2565288Y3905391D01*
G01X2566045Y3899330D01*
G01X2566803Y3889482D01*
G01X2567182Y3875467D01*
G01X2566803Y3861452D01*
G01X2566045Y3851603D01*
G01X2565288Y3845542D01*
G01X2564530Y3840239D01*
G01X2563015Y3833421D01*
G01X2562258Y3830391D01*
G01X2561121Y3826982D01*
G01X2559606Y3823194D01*
G01X2558091Y3819785D01*
G01X2554682Y3812967D01*
G01X2552409Y3809558D01*
G01X2550515Y3806906D01*
G01X2547485Y3803118D01*
G01X2541045Y3796679D01*
G01X2537258Y3794027D01*
G01X2534606Y3792133D01*
G01X2531955Y3790618D01*
G01X2528924Y3789103D01*
G01X2525894Y3787967D01*
G01X2522485Y3786830D01*
G01X2518697Y3785694D01*
G01X2515288Y3784936D01*
G01X2511500Y3784557D01*
G01X2506955Y3784179D01*
G37*
G36*
G01X2824758Y3783800D02*
G01X2820970Y3784179D01*
G01X2818318Y3785315D01*
G01X2815667Y3786830D01*
G01X2813015Y3788724D01*
G01X2809985Y3791755D01*
G01X2808091Y3795164D01*
G01X2807333Y3799709D01*
G01X2808091Y3805391D01*
G01X2809606Y3810315D01*
G01X2811121Y3814482D01*
G01X2815667Y3825845D01*
G01X2817182Y3830012D01*
G01X2826273Y3852739D01*
G01X2827788Y3856906D01*
G01X2828697Y3859179D01*
G01X2863015Y3859179D01*
G01X2863015Y3856906D01*
G01X2889530Y3856527D01*
G01X2915667Y3856527D01*
G01X2915288Y3858421D01*
G01X2914152Y3862209D01*
G01X2906576Y3883042D01*
G01X2905061Y3886830D01*
G01X2903924Y3890239D01*
G01X2901652Y3896300D01*
G01X2900515Y3899709D01*
G01X2899000Y3903497D01*
G01X2897485Y3908042D01*
G01X2895970Y3911830D01*
G01X2894833Y3915239D01*
G01X2892561Y3921300D01*
G01X2891424Y3924709D01*
G01X2890288Y3927739D01*
G01X2889151Y3929633D01*
G01X2888394Y3929349D01*
G01X2887636Y3927739D01*
G01X2886121Y3923194D01*
G01X2884606Y3919406D01*
G01X2882333Y3912588D01*
G01X2880818Y3908800D01*
G01X2879303Y3904254D01*
G01X2877788Y3900467D01*
G01X2875515Y3893648D01*
G01X2873242Y3887588D01*
G01X2872106Y3884179D01*
G01X2869833Y3878118D01*
G01X2868697Y3874709D01*
G01X2866424Y3868648D01*
G01X2865288Y3865239D01*
G01X2863015Y3859179D01*
G01X2863015Y3859179D01*
G01X2828697Y3859179D01*
G01X2835364Y3875846D01*
G01X2836879Y3880012D01*
G01X2845970Y3902739D01*
G01X2847485Y3906906D01*
G01X2855061Y3925845D01*
G01X2856576Y3930012D01*
G01X2861121Y3941376D01*
G01X2862258Y3944406D01*
G01X2863394Y3947058D01*
G01X2866424Y3953876D01*
G01X2867939Y3956527D01*
G01X2869455Y3958800D01*
G01X2870970Y3960694D01*
G01X2873621Y3963346D01*
G01X2877409Y3965997D01*
G01X2880818Y3967512D01*
G01X2883470Y3968270D01*
G01X2888773Y3968649D01*
G01X2895591Y3967891D01*
G01X2900136Y3966376D01*
G01X2903924Y3964103D01*
G01X2906955Y3961830D01*
G01X2908849Y3959936D01*
G01X2910742Y3957285D01*
G01X2912636Y3954255D01*
G01X2914152Y3951603D01*
G01X2915667Y3948194D01*
G01X2918697Y3940618D01*
G01X2920212Y3936451D01*
G01X2926273Y3921300D01*
G01X2927788Y3917891D01*
G01X2936879Y3895164D01*
G01X2938015Y3892133D01*
G01X2939152Y3889482D01*
G01X2940667Y3886073D01*
G01X2951273Y3859558D01*
G01X2952788Y3856148D01*
G01X2964909Y3825845D01*
G01X2966424Y3822436D01*
G01X2970970Y3810315D01*
G01X2972106Y3806148D01*
G01X2972864Y3802361D01*
G01X2972864Y3799330D01*
G01X2971727Y3795542D01*
G01X2970212Y3792512D01*
G01X2968697Y3790239D01*
G01X2966045Y3787588D01*
G01X2962258Y3785315D01*
G01X2959227Y3784179D01*
G01X2956197Y3783800D01*
G01X2951651Y3784557D01*
G01X2947864Y3786073D01*
G01X2945591Y3787209D01*
G01X2943697Y3788724D01*
G01X2942182Y3790618D01*
G01X2940667Y3793270D01*
G01X2937636Y3799330D01*
G01X2933091Y3810694D01*
G01X2931576Y3814861D01*
G01X2930061Y3818649D01*
G01X2927788Y3824709D01*
G01X2926652Y3828118D01*
G01X2926273Y3830012D01*
G01X2889530Y3830012D01*
G01X2861879Y3829633D01*
G01X2852409Y3828497D01*
G01X2851273Y3825845D01*
G01X2847864Y3816754D01*
G01X2846727Y3813346D01*
G01X2843318Y3804255D01*
G01X2839909Y3796300D01*
G01X2838394Y3793270D01*
G01X2836500Y3789861D01*
G01X2834606Y3787209D01*
G01X2831955Y3785315D01*
G01X2828924Y3784179D01*
G01X2824758Y3783800D01*
G37*
G36*
G01X3013015Y3783800D02*
G01X3008848Y3784179D01*
G01X3003545Y3786830D01*
G01X3001273Y3788724D01*
G01X2999379Y3791376D01*
G01X2997864Y3794785D01*
G01X2997106Y3797815D01*
G01X2996727Y3874330D01*
G01X2997106Y3952361D01*
G01X2997864Y3956148D01*
G01X2998621Y3958800D01*
G01X3000136Y3961830D01*
G01X3002030Y3964482D01*
G01X3004303Y3966376D01*
G01X3007333Y3967891D01*
G01X3012636Y3968649D01*
G01X3017939Y3967891D01*
G01X3020970Y3966754D01*
G01X3023242Y3965239D01*
G01X3025136Y3963346D01*
G01X3027030Y3961073D01*
G01X3028545Y3958043D01*
G01X3029303Y3955012D01*
G01X3029682Y3952361D01*
G01X3030439Y3900846D01*
G01X3030913Y3900277D01*
G01X3031576Y3900846D01*
G01X3037258Y3906527D01*
G01X3042940Y3911073D01*
G01X3048243Y3914103D01*
G01X3050894Y3915239D01*
G01X3053924Y3916376D01*
G01X3057333Y3917512D01*
G01X3060742Y3918270D01*
G01X3063394Y3918648D01*
G01X3068318Y3919027D01*
G01X3072864Y3919027D01*
G01X3075515Y3918648D01*
G01X3079682Y3918270D01*
G01X3084606Y3917133D01*
G01X3088015Y3915997D01*
G01X3091045Y3914861D01*
G01X3094833Y3912967D01*
G01X3098621Y3910315D01*
G01X3101652Y3908042D01*
G01X3104303Y3905391D01*
G01X3106576Y3902361D01*
G01X3108091Y3900467D01*
G01X3109606Y3897815D01*
G01X3111121Y3894785D01*
G01X3112636Y3890997D01*
G01X3113773Y3887209D01*
G01X3114530Y3881906D01*
G01X3115288Y3869785D01*
G01X3115667Y3837588D01*
G01X3115288Y3805391D01*
G01X3114909Y3802739D01*
G01X3114530Y3798573D01*
G01X3113394Y3794027D01*
G01X3111500Y3790618D01*
G01X3109606Y3787967D01*
G01X3106955Y3786073D01*
G01X3103545Y3784557D01*
G01X3100515Y3783800D01*
G01X3096349Y3784179D01*
G01X3092182Y3785315D01*
G01X3088773Y3787209D01*
G01X3086121Y3789482D01*
G01X3084606Y3791755D01*
G01X3083470Y3794785D01*
G01X3082712Y3797815D01*
G01X3082333Y3831906D01*
G01X3081955Y3867512D01*
G01X3081197Y3872815D01*
G01X3080061Y3878118D01*
G01X3078546Y3882664D01*
G01X3076651Y3886452D01*
G01X3073621Y3889861D01*
G01X3069455Y3892133D01*
G01X3066045Y3893270D01*
G01X3060364Y3893648D01*
G01X3053167Y3892891D01*
G01X3048621Y3891376D01*
G01X3045591Y3889861D01*
G01X3042561Y3887967D01*
G01X3039909Y3885694D01*
G01X3038015Y3883800D01*
G01X3035742Y3881149D01*
G01X3033849Y3878118D01*
G01X3032333Y3874330D01*
G01X3031197Y3870543D01*
G01X3030439Y3864482D01*
G01X3030061Y3833800D01*
G01X3029682Y3802361D01*
G01X3028924Y3797815D01*
G01X3027788Y3793648D01*
G01X3026652Y3790997D01*
G01X3025136Y3789103D01*
G01X3023242Y3787209D01*
G01X3020591Y3785315D01*
G01X3017561Y3784179D01*
G01X3013015Y3783800D01*
G37*
G36*
G01X1608470Y4365618D02*
G01X1559227Y4365997D01*
G01X1555439Y4367133D01*
G01X1551651Y4368648D01*
G01X1549379Y4369785D01*
G01X1547485Y4371300D01*
G01X1545970Y4373194D01*
G01X1544833Y4375467D01*
G01X1543697Y4378497D01*
G01X1542940Y4382664D01*
G01X1542561Y4386452D01*
G01X1542182Y4455770D01*
G01X1542561Y4525088D01*
G01X1543318Y4531906D01*
G01X1544076Y4534936D01*
G01X1545212Y4537967D01*
G01X1546727Y4540618D01*
G01X1549379Y4543648D01*
G01X1552788Y4545921D01*
G01X1555439Y4547058D01*
G01X1558470Y4547436D01*
G01X1563015Y4547058D01*
G01X1567560Y4545921D01*
G01X1570212Y4544406D01*
G01X1572106Y4542891D01*
G01X1574379Y4540618D01*
G01X1576273Y4537967D01*
G01X1577409Y4534936D01*
G01X1578167Y4531906D01*
G01X1578545Y4462967D01*
G01X1578545Y4395164D01*
G01X1616803Y4395164D01*
G01X1656197Y4394785D01*
G01X1659227Y4394027D01*
G01X1663015Y4392512D01*
G01X1666045Y4390240D01*
G01X1667940Y4387967D01*
G01X1669455Y4385315D01*
G01X1670212Y4382285D01*
G01X1669833Y4378118D01*
G01X1668697Y4374330D01*
G01X1667561Y4372058D01*
G01X1666045Y4370164D01*
G01X1664152Y4368648D01*
G01X1661121Y4367133D01*
G01X1657712Y4365997D01*
G01X1608470Y4365618D01*
G37*
G36*
G01X1708470Y4362588D02*
G01X1703924Y4363345D01*
G01X1700136Y4365239D01*
G01X1697485Y4367512D01*
G01X1695591Y4369406D01*
G01X1693697Y4372436D01*
G01X1692560Y4375846D01*
G01X1692182Y4429255D01*
G01X1692560Y4482664D01*
G01X1693318Y4486073D01*
G01X1694455Y4489482D01*
G01X1695970Y4491755D01*
G01X1699000Y4494785D01*
G01X1701651Y4496679D01*
G01X1705439Y4497815D01*
G01X1708470Y4497815D01*
G01X1711121Y4497436D01*
G01X1714152Y4496679D01*
G01X1717182Y4495164D01*
G01X1719455Y4493270D01*
G01X1721349Y4491376D01*
G01X1723242Y4488724D01*
G01X1724379Y4485694D01*
G01X1724758Y4432664D01*
G01X1724379Y4378118D01*
G01X1723242Y4373573D01*
G01X1721727Y4370164D01*
G01X1719833Y4367891D01*
G01X1717939Y4365997D01*
G01X1715288Y4364103D01*
G01X1712258Y4362967D01*
G01X1708470Y4362588D01*
G37*
G36*
G01X1784227Y4416376D02*
G01X1758091Y4416755D01*
G01X1752788Y4419406D01*
G01X1749757Y4422058D01*
G01X1747864Y4425467D01*
G01X1747106Y4428118D01*
G01X1747106Y4430770D01*
G01X1747864Y4434179D01*
G01X1749379Y4437967D01*
G01X1751273Y4440618D01*
G01X1752788Y4442133D01*
G01X1755439Y4443649D01*
G01X1758470Y4444785D01*
G01X1781955Y4445164D01*
G01X1806954Y4444785D01*
G01X1811879Y4443649D01*
G01X1814909Y4442133D01*
G01X1816803Y4440618D01*
G01X1818697Y4438724D01*
G01X1820212Y4436073D01*
G01X1820970Y4431148D01*
G01X1820212Y4426224D01*
G01X1819076Y4423194D01*
G01X1816803Y4420164D01*
G01X1813394Y4417891D01*
G01X1810742Y4416755D01*
G01X1784227Y4416376D01*
G37*
G36*
G01X1859606Y4362588D02*
G01X1855818Y4362967D01*
G01X1853545Y4364103D01*
G01X1850136Y4365997D01*
G01X1846727Y4369027D01*
G01X1844455Y4373194D01*
G01X1843318Y4376603D01*
G01X1842939Y4428497D01*
G01X1843318Y4481906D01*
G01X1844455Y4486830D01*
G01X1845970Y4490239D01*
G01X1847485Y4492512D01*
G01X1850136Y4495164D01*
G01X1853924Y4497058D01*
G01X1856955Y4497815D01*
G01X1859227Y4497815D01*
G01X1863015Y4497058D01*
G01X1867561Y4495543D01*
G01X1870970Y4492891D01*
G01X1873621Y4489482D01*
G01X1875136Y4485694D01*
G01X1875894Y4482664D01*
G01X1876273Y4433421D01*
G01X1875894Y4381906D01*
G01X1875136Y4376603D01*
G01X1874000Y4372815D01*
G01X1872106Y4369406D01*
G01X1870212Y4366755D01*
G01X1867561Y4364861D01*
G01X1864151Y4363345D01*
G01X1859606Y4362588D01*
G37*
G36*
G01X1969076Y4362588D02*
G01X1959985Y4362967D01*
G01X1956955Y4363724D01*
G01X1952788Y4364482D01*
G01X1948242Y4365618D01*
G01X1944833Y4366755D01*
G01X1941803Y4367891D01*
G01X1939152Y4369027D01*
G01X1935742Y4370543D01*
G01X1931954Y4372815D01*
G01X1926651Y4376603D01*
G01X1924000Y4378876D01*
G01X1917182Y4385694D01*
G01X1914909Y4388724D01*
G01X1912636Y4392133D01*
G01X1911121Y4394785D01*
G01X1908091Y4400846D01*
G01X1906955Y4403876D01*
G01X1905818Y4407285D01*
G01X1904682Y4411452D01*
G01X1903924Y4415239D01*
G01X1903167Y4421300D01*
G01X1902788Y4429255D01*
G01X1902950Y4432664D01*
G01X1936121Y4432664D01*
G01X1936500Y4422815D01*
G01X1937257Y4417512D01*
G01X1938773Y4411452D01*
G01X1939909Y4408042D01*
G01X1941424Y4404633D01*
G01X1944076Y4399330D01*
G01X1945591Y4397436D01*
G01X1949379Y4393648D01*
G01X1951273Y4392133D01*
G01X1953924Y4390618D01*
G01X1957333Y4389103D01*
G01X1960364Y4388345D01*
G01X1960364Y4388345D01*
G01X1962258Y4387967D01*
G01X1967939Y4387588D01*
G01X1975136Y4387967D01*
G01X1978167Y4388724D01*
G01X1980818Y4389482D01*
G01X1984227Y4390997D01*
G01X1986879Y4392891D01*
G01X1989151Y4394406D01*
G01X1991046Y4396300D01*
G01X1992561Y4398194D01*
G01X1994833Y4400846D01*
G01X1996727Y4403876D01*
G01X1997864Y4406527D01*
G01X1999000Y4409557D01*
G01X2000136Y4412967D01*
G01X2000894Y4415997D01*
G01X2001652Y4421300D01*
G01X2002030Y4428876D01*
G01X2001652Y4436452D01*
G01X2001273Y4439103D01*
G01X2000894Y4442512D01*
G01X2000136Y4446300D01*
G01X1999000Y4450467D01*
G01X1997485Y4454633D01*
G01X1995591Y4458421D01*
G01X1993697Y4461073D01*
G01X1992182Y4462967D01*
G01X1989909Y4465618D01*
G01X1987258Y4467891D01*
G01X1984606Y4469785D01*
G01X1980818Y4471679D01*
G01X1977409Y4472815D01*
G01X1971349Y4473194D01*
G01X1963015Y4472815D01*
G01X1958091Y4471679D01*
G01X1954682Y4470164D01*
G01X1950894Y4467891D01*
G01X1947864Y4465618D01*
G01X1945212Y4462967D01*
G01X1942939Y4459558D01*
G01X1941424Y4456906D01*
G01X1939909Y4453876D01*
G01X1938394Y4449330D01*
G01X1937257Y4445542D01*
G01X1936500Y4440239D01*
G01X1936121Y4432664D01*
G01X1902950Y4432664D01*
G01X1903167Y4437209D01*
G01X1903924Y4443270D01*
G01X1904682Y4447058D01*
G01X1905818Y4451982D01*
G01X1908091Y4458800D01*
G01X1909606Y4462209D01*
G01X1912636Y4468270D01*
G01X1914530Y4471300D01*
G01X1916424Y4473952D01*
G01X1918697Y4476603D01*
G01X1920970Y4479633D01*
G01X1922864Y4481527D01*
G01X1928546Y4486073D01*
G01X1930818Y4487588D01*
G01X1933849Y4489482D01*
G01X1937257Y4491376D01*
G01X1941045Y4492891D01*
G01X1945212Y4494406D01*
G01X1948621Y4495543D01*
G01X1956197Y4497058D01*
G01X1964530Y4497815D01*
G01X1967561Y4498194D01*
G01X1970591Y4497815D01*
G01X1974000Y4497436D01*
G01X1978924Y4497058D01*
G01X1983470Y4496300D01*
G01X1987258Y4495543D01*
G01X1991424Y4494406D01*
G01X1995591Y4492891D01*
G01X1999379Y4491376D01*
G01X2003167Y4489482D01*
G01X2006955Y4487209D01*
G01X2009606Y4485315D01*
G01X2011879Y4483800D01*
G01X2014151Y4481906D01*
G01X2019833Y4476224D01*
G01X2022106Y4473573D01*
G01X2024379Y4470164D01*
G01X2026273Y4467133D01*
G01X2027788Y4464482D01*
G01X2030061Y4459179D01*
G01X2031197Y4456148D01*
G01X2032333Y4452740D01*
G01X2033470Y4448573D01*
G01X2034227Y4444785D01*
G01X2034985Y4437967D01*
G01X2035364Y4431527D01*
G01X2034985Y4425088D01*
G01X2034227Y4419027D01*
G01X2033849Y4416376D01*
G01X2033091Y4412209D01*
G01X2031955Y4408421D01*
G01X2031197Y4405391D01*
G01X2030061Y4402361D01*
G01X2027030Y4395543D01*
G01X2025515Y4392891D01*
G01X2021727Y4386830D01*
G01X2019833Y4384558D01*
G01X2012258Y4376982D01*
G01X2009227Y4374709D01*
G01X2005818Y4372436D01*
G01X2002788Y4370543D01*
G01X1999757Y4369027D01*
G01X1997106Y4367891D01*
G01X1994076Y4366755D01*
G01X1990667Y4365618D01*
G01X1986500Y4364482D01*
G01X1982712Y4363724D01*
G01X1977409Y4362967D01*
G01X1969076Y4362588D01*
G37*
G36*
G01X2077030Y4362588D02*
G01X2072485Y4363345D01*
G01X2069833Y4364861D01*
G01X2067561Y4365997D01*
G01X2065667Y4367512D01*
G01X2064152Y4369406D01*
G01X2062636Y4372058D01*
G01X2061500Y4375088D01*
G01X2060742Y4381149D01*
G01X2060364Y4429633D01*
G01X2060742Y4478118D01*
G01X2061121Y4480770D01*
G01X2061500Y4484936D01*
G01X2062636Y4488724D01*
G01X2064152Y4491755D01*
G01X2066045Y4494406D01*
G01X2067939Y4495921D01*
G01X2070591Y4497058D01*
G01X2073621Y4497815D01*
G01X2075894Y4497815D01*
G01X2078546Y4497436D01*
G01X2081197Y4496679D01*
G01X2084227Y4495164D01*
G01X2087636Y4492512D01*
G01X2089530Y4489482D01*
G01X2090667Y4486830D01*
G01X2091424Y4480770D01*
G01X2091424Y4476224D01*
G01X2092939Y4476982D01*
G01X2095591Y4479633D01*
G01X2097864Y4482285D01*
G01X2099758Y4484179D01*
G01X2103545Y4487209D01*
G01X2106197Y4489482D01*
G01X2109985Y4491755D01*
G01X2113773Y4493648D01*
G01X2117182Y4495164D01*
G01X2120970Y4496300D01*
G01X2124379Y4497058D01*
G01X2131197Y4497815D01*
G01X2133848Y4498194D01*
G01X2136500Y4497815D01*
G01X2139530Y4497436D01*
G01X2143318Y4497058D01*
G01X2146349Y4496300D01*
G01X2149758Y4495543D01*
G01X2153167Y4494406D01*
G01X2161500Y4490239D01*
G01X2163394Y4488724D01*
G01X2166045Y4486452D01*
G01X2168697Y4483800D01*
G01X2170591Y4481527D01*
G01X2172485Y4478876D01*
G01X2175515Y4472815D01*
G01X2177030Y4468270D01*
G01X2178167Y4464482D01*
G01X2178924Y4457664D01*
G01X2179303Y4418648D01*
G01X2178924Y4379633D01*
G01X2178546Y4376982D01*
G01X2177788Y4373952D01*
G01X2176273Y4370543D01*
G01X2174379Y4367891D01*
G01X2172485Y4365997D01*
G01X2169833Y4364103D01*
G01X2166803Y4362967D01*
G01X2163773Y4362588D01*
G01X2159227Y4363345D01*
G01X2155439Y4364861D01*
G01X2153167Y4365997D01*
G01X2151273Y4367512D01*
G01X2149758Y4369406D01*
G01X2148242Y4372058D01*
G01X2147106Y4375088D01*
G01X2146349Y4381149D01*
G01X2145970Y4414482D01*
G01X2145591Y4448573D01*
G01X2144833Y4453118D01*
G01X2143697Y4458421D01*
G01X2142182Y4462209D01*
G01X2140667Y4465239D01*
G01X2138773Y4467891D01*
G01X2136121Y4469785D01*
G01X2132712Y4471300D01*
G01X2129682Y4472057D01*
G01X2125136Y4472436D01*
G01X2119833Y4472057D01*
G01X2113773Y4470542D01*
G01X2109985Y4469027D01*
G01X2107333Y4467133D01*
G01X2105061Y4465618D01*
G01X2102788Y4463724D01*
G01X2100515Y4460694D01*
G01X2098242Y4457285D01*
G01X2096727Y4454255D01*
G01X2095591Y4450467D01*
G01X2094833Y4447058D01*
G01X2094076Y4437209D01*
G01X2093318Y4378876D01*
G01X2092939Y4376224D01*
G01X2092182Y4373573D01*
G01X2090667Y4370543D01*
G01X2088773Y4367891D01*
G01X2086879Y4365997D01*
G01X2084227Y4364103D01*
G01X2081197Y4362967D01*
G01X2077030Y4362588D01*
G37*
G36*
G01X2330061Y4365618D02*
G01X2292182Y4366376D01*
G01X2288015Y4367891D01*
G01X2284985Y4369406D01*
G01X2281576Y4372058D01*
G01X2279303Y4375846D01*
G01X2278167Y4378876D01*
G01X2277409Y4384179D01*
G01X2277216Y4419406D01*
G01X2313394Y4419406D01*
G01X2313773Y4393270D01*
G01X2336121Y4392891D01*
G01X2360743Y4393270D01*
G01X2365288Y4394027D01*
G01X2369076Y4394785D01*
G01X2373242Y4395921D01*
G01X2376652Y4397436D01*
G01X2378924Y4398573D01*
G01X2380818Y4400088D01*
G01X2384606Y4403876D01*
G01X2386121Y4405770D01*
G01X2387636Y4409179D01*
G01X2388773Y4412967D01*
G01X2389151Y4416755D01*
G01X2388773Y4422815D01*
G01X2387636Y4428497D01*
G01X2386121Y4431906D01*
G01X2384227Y4434936D01*
G01X2381955Y4437588D01*
G01X2379303Y4439482D01*
G01X2375894Y4441376D01*
G01X2372864Y4442512D01*
G01X2366803Y4444027D01*
G01X2361500Y4444785D01*
G01X2336879Y4445164D01*
G01X2313394Y4445164D01*
G01X2313394Y4419406D01*
G01X2313394Y4419406D01*
G01X2277216Y4419406D01*
G01X2277030Y4453118D01*
G01X2277252Y4494406D01*
G01X2313394Y4494406D01*
G01X2313773Y4471300D01*
G01X2333470Y4470921D01*
G01X2353924Y4471300D01*
G01X2359985Y4472057D01*
G01X2363773Y4472815D01*
G01X2368318Y4473952D01*
G01X2373621Y4476603D01*
G01X2375515Y4478497D01*
G01X2377409Y4480770D01*
G01X2379303Y4483421D01*
G01X2380818Y4486830D01*
G01X2381576Y4489861D01*
G01X2381955Y4492512D01*
G01X2381955Y4494785D01*
G01X2381576Y4498194D01*
G01X2380818Y4502739D01*
G01X2379303Y4506527D01*
G01X2377788Y4508800D01*
G01X2376273Y4510694D01*
G01X2373621Y4512588D01*
G01X2370212Y4514103D01*
G01X2366424Y4515240D01*
G01X2363015Y4515997D01*
G01X2357712Y4516755D01*
G01X2334985Y4517133D01*
G01X2313394Y4517133D01*
G01X2313394Y4494406D01*
G01X2313394Y4494406D01*
G01X2277252Y4494406D01*
G01X2277409Y4523573D01*
G01X2278167Y4528876D01*
G01X2279303Y4533421D01*
G01X2280818Y4536452D01*
G01X2282333Y4538724D01*
G01X2284227Y4540618D01*
G01X2286500Y4542133D01*
G01X2289530Y4543270D01*
G01X2292561Y4544027D01*
G01X2330439Y4544406D01*
G01X2368318Y4544027D01*
G01X2375136Y4543270D01*
G01X2377788Y4542891D01*
G01X2381955Y4542133D01*
G01X2386879Y4540618D01*
G01X2391046Y4539103D01*
G01X2394833Y4537209D01*
G01X2398242Y4534936D01*
G01X2400894Y4533042D01*
G01X2404682Y4530012D01*
G01X2406576Y4528118D01*
G01X2410364Y4522815D01*
G01X2411879Y4520543D01*
G01X2413394Y4517512D01*
G01X2414909Y4514103D01*
G01X2416045Y4510315D01*
G01X2416803Y4506906D01*
G01X2417182Y4500088D01*
G01X2416424Y4491755D01*
G01X2415288Y4487967D01*
G01X2414530Y4484936D01*
G01X2413015Y4481148D01*
G01X2409227Y4475088D01*
G01X2406955Y4472436D01*
G01X2402409Y4467891D01*
G01X2399379Y4465618D01*
G01X2397485Y4464103D01*
G01X2394833Y4462588D01*
G01X2391803Y4461073D01*
G01X2391140Y4460410D01*
G01X2391424Y4459936D01*
G01X2393697Y4458800D01*
G01X2396727Y4457664D01*
G01X2399379Y4456527D01*
G01X2404682Y4453497D01*
G01X2407712Y4451603D01*
G01X2410364Y4449709D01*
G01X2412258Y4448194D01*
G01X2416045Y4444406D01*
G01X2418318Y4441755D01*
G01X2420591Y4437967D01*
G01X2422485Y4434179D01*
G01X2424000Y4429633D01*
G01X2425136Y4425845D01*
G01X2425515Y4418270D01*
G01X2425136Y4409936D01*
G01X2424379Y4406906D01*
G01X2424000Y4404254D01*
G01X2423243Y4401603D01*
G01X2420970Y4395543D01*
G01X2417940Y4390240D01*
G01X2416424Y4387967D01*
G01X2414909Y4386073D01*
G01X2413015Y4383421D01*
G01X2410364Y4380770D01*
G01X2408091Y4378876D01*
G01X2405439Y4376603D01*
G01X2402788Y4374709D01*
G01X2400136Y4373194D01*
G01X2396727Y4371679D01*
G01X2389909Y4369406D01*
G01X2385742Y4368270D01*
G01X2381955Y4367512D01*
G01X2375894Y4366755D01*
G01X2366046Y4365997D01*
G01X2330061Y4365618D01*
G37*
G36*
G01X2490667Y4362588D02*
G01X2483091Y4362967D01*
G01X2478924Y4364103D01*
G01X2475136Y4365239D01*
G01X2471727Y4366376D01*
G01X2467561Y4368270D01*
G01X2464530Y4370164D01*
G01X2462258Y4371679D01*
G01X2458470Y4374709D01*
G01X2456576Y4376603D01*
G01X2454682Y4379255D01*
G01X2452788Y4382285D01*
G01X2451273Y4384936D01*
G01X2449758Y4388345D01*
G01X2448621Y4391755D01*
G01X2447864Y4397815D01*
G01X2447864Y4400846D01*
G01X2448567Y4405770D01*
G01X2481197Y4405770D01*
G01X2481197Y4401603D01*
G01X2481576Y4398951D01*
G01X2482333Y4396300D01*
G01X2483470Y4393648D01*
G01X2484985Y4391376D01*
G01X2486879Y4389482D01*
G01X2489151Y4387588D01*
G01X2491803Y4386073D01*
G01X2494454Y4385315D01*
G01X2494454Y4385315D01*
G01X2496349Y4384936D01*
G01X2501652Y4384558D01*
G01X2507712Y4384936D01*
G01X2511500Y4385694D01*
G01X2515667Y4386830D01*
G01X2519076Y4388345D01*
G01X2524379Y4390997D01*
G01X2526273Y4392512D01*
G01X2530818Y4397058D01*
G01X2533091Y4400467D01*
G01X2534606Y4404254D01*
G01X2535742Y4407664D01*
G01X2536500Y4412967D01*
G01X2536879Y4421679D01*
G01X2536879Y4429255D01*
G01X2534606Y4428876D01*
G01X2527030Y4426603D01*
G01X2522106Y4425467D01*
G01X2518318Y4424330D01*
G01X2510743Y4422815D01*
G01X2503924Y4421300D01*
G01X2500136Y4420542D01*
G01X2495970Y4419406D01*
G01X2492939Y4418270D01*
G01X2489909Y4416755D01*
G01X2486500Y4414482D01*
G01X2483848Y4412209D01*
G01X2482333Y4409936D01*
G01X2481197Y4405770D01*
G01X2448567Y4405770D01*
G01X2448621Y4406149D01*
G01X2449758Y4411073D01*
G01X2451273Y4414482D01*
G01X2453167Y4418270D01*
G01X2455061Y4420921D01*
G01X2456576Y4423194D01*
G01X2458470Y4425088D01*
G01X2460364Y4426603D01*
G01X2462258Y4428497D01*
G01X2464530Y4430012D01*
G01X2467182Y4431527D01*
G01X2470212Y4433043D01*
G01X2474000Y4434558D01*
G01X2477409Y4435694D01*
G01X2483470Y4437209D01*
G01X2487636Y4437967D01*
G01X2493318Y4439103D01*
G01X2497864Y4440239D01*
G01X2505439Y4441755D01*
G01X2508470Y4442512D01*
G01X2512258Y4443270D01*
G01X2517561Y4444406D01*
G01X2521349Y4445542D01*
G01X2524758Y4446300D01*
G01X2529303Y4447436D01*
G01X2532712Y4448573D01*
G01X2535364Y4448952D01*
G01X2536500Y4449520D01*
G01X2536879Y4451224D01*
G01X2536500Y4454633D01*
G01X2535742Y4458800D01*
G01X2534606Y4463346D01*
G01X2533091Y4466754D01*
G01X2531197Y4469406D01*
G01X2529303Y4471300D01*
G01X2526273Y4473194D01*
G01X2522864Y4474330D01*
G01X2516046Y4475088D01*
G01X2513015Y4475467D01*
G01X2506955Y4474709D01*
G01X2501652Y4474330D01*
G01X2496727Y4473194D01*
G01X2493318Y4471679D01*
G01X2490667Y4470164D01*
G01X2488394Y4468649D01*
G01X2485364Y4465997D01*
G01X2483091Y4462967D01*
G01X2481197Y4460315D01*
G01X2478924Y4456906D01*
G01X2476273Y4453118D01*
G01X2473621Y4450467D01*
G01X2469076Y4449709D01*
G01X2464530Y4450088D01*
G01X2461500Y4451224D01*
G01X2458849Y4452740D01*
G01X2456955Y4454255D01*
G01X2455061Y4456906D01*
G01X2453924Y4459936D01*
G01X2453924Y4462588D01*
G01X2454682Y4466754D01*
G01X2455818Y4471300D01*
G01X2457333Y4474330D01*
G01X2459227Y4477361D01*
G01X2461121Y4480012D01*
G01X2462636Y4481906D01*
G01X2465288Y4484558D01*
G01X2468318Y4486830D01*
G01X2470591Y4488345D01*
G01X2475894Y4491376D01*
G01X2479303Y4492891D01*
G01X2487258Y4495543D01*
G01X2494833Y4497058D01*
G01X2501652Y4497815D01*
G01X2511500Y4498194D01*
G01X2521349Y4497815D01*
G01X2524000Y4497436D01*
G01X2528924Y4497058D01*
G01X2533470Y4496300D01*
G01X2536121Y4495921D01*
G01X2539152Y4495164D01*
G01X2545970Y4492891D01*
G01X2549379Y4491376D01*
G01X2553167Y4489103D01*
G01X2556197Y4486830D01*
G01X2559985Y4483042D01*
G01X2561879Y4480770D01*
G01X2563773Y4477739D01*
G01X2565288Y4474330D01*
G01X2566424Y4470921D01*
G01X2567561Y4467133D01*
G01X2568318Y4463724D01*
G01X2569076Y4457664D01*
G01X2569455Y4431148D01*
G01X2569833Y4402361D01*
G01X2570591Y4397815D01*
G01X2571348Y4394027D01*
G01X2572485Y4389103D01*
G01X2573621Y4385694D01*
G01X2575136Y4379633D01*
G01X2575515Y4376982D01*
G01X2574758Y4373194D01*
G01X2573243Y4370164D01*
G01X2571727Y4368270D01*
G01X2569833Y4366376D01*
G01X2567182Y4364482D01*
G01X2563394Y4362967D01*
G01X2559227Y4362967D01*
G01X2555439Y4364103D01*
G01X2552788Y4365618D01*
G01X2550894Y4366755D01*
G01X2548243Y4369027D01*
G01X2545212Y4372815D01*
G01X2542940Y4375846D01*
G01X2541424Y4377739D01*
G01X2540288Y4380012D01*
G01X2539625Y4380959D01*
G01X2538394Y4380770D01*
G01X2536121Y4379255D01*
G01X2533470Y4377361D01*
G01X2530061Y4375088D01*
G01X2527030Y4373194D01*
G01X2521727Y4370164D01*
G01X2514909Y4367133D01*
G01X2511121Y4365618D01*
G01X2506955Y4364482D01*
G01X2503924Y4363724D01*
G01X2497864Y4362967D01*
G01X2490667Y4362588D01*
G37*
G36*
G01X2640288Y4362588D02*
G01X2631576Y4362967D01*
G01X2628924Y4363724D01*
G01X2625136Y4364482D01*
G01X2621349Y4365618D01*
G01X2618318Y4367133D01*
G01X2614909Y4369027D01*
G01X2612258Y4370921D01*
G01X2610364Y4372815D01*
G01X2608848Y4374709D01*
G01X2607333Y4377361D01*
G01X2605818Y4380770D01*
G01X2604682Y4384936D01*
G01X2603924Y4388724D01*
G01X2603167Y4396300D01*
G01X2602788Y4433800D01*
G01X2602504Y4461167D01*
G01X2601652Y4470542D01*
G01X2597864Y4471300D01*
G01X2593318Y4472057D01*
G01X2589530Y4473573D01*
G01X2586879Y4475467D01*
G01X2584985Y4478118D01*
G01X2583849Y4481527D01*
G01X2584227Y4484936D01*
G01X2585364Y4488345D01*
G01X2587636Y4491376D01*
G01X2591045Y4493648D01*
G01X2594076Y4494785D01*
G01X2599000Y4495164D01*
G01X2602788Y4495164D01*
G01X2602788Y4509558D01*
G01X2603167Y4525088D01*
G01X2603545Y4527739D01*
G01X2604303Y4531527D01*
G01X2606197Y4535694D01*
G01X2608470Y4538724D01*
G01X2610743Y4540618D01*
G01X2613394Y4542133D01*
G01X2618697Y4542891D01*
G01X2624000Y4542133D01*
G01X2627030Y4540997D01*
G01X2629303Y4539482D01*
G01X2631197Y4537588D01*
G01X2633091Y4535315D01*
G01X2634606Y4532285D01*
G01X2635364Y4528876D01*
G01X2635743Y4525846D01*
G01X2636121Y4509936D01*
G01X2636121Y4495164D01*
G01X2641424Y4495164D01*
G01X2650136Y4494785D01*
G01X2655061Y4493648D01*
G01X2657712Y4492512D01*
G01X2659606Y4490997D01*
G01X2661500Y4487967D01*
G01X2662636Y4483800D01*
G01X2661879Y4479633D01*
G01X2660364Y4476982D01*
G01X2658849Y4475088D01*
G01X2655818Y4473194D01*
G01X2652409Y4472057D01*
G01X2646349Y4471300D01*
G01X2640667Y4470921D01*
G01X2636121Y4470921D01*
G01X2636121Y4435694D01*
G01X2636500Y4398573D01*
G01X2637258Y4395543D01*
G01X2638394Y4392512D01*
G01X2641046Y4389482D01*
G01X2645212Y4388345D01*
G01X2650894Y4388724D01*
G01X2655439Y4389482D01*
G01X2661500Y4390240D01*
G01X2664909Y4389861D01*
G01X2667940Y4388345D01*
G01X2669833Y4386830D01*
G01X2672106Y4384179D01*
G01X2673243Y4380391D01*
G01X2672864Y4376603D01*
G01X2671727Y4373573D01*
G01X2670212Y4371300D01*
G01X2668318Y4369406D01*
G01X2666424Y4367891D01*
G01X2664152Y4366755D01*
G01X2661500Y4365618D01*
G01X2658091Y4364482D01*
G01X2654682Y4363724D01*
G01X2648621Y4362967D01*
G01X2640288Y4362588D01*
G37*
G36*
G01X2728924Y4362588D02*
G01X2719833Y4362967D01*
G01X2715288Y4364103D01*
G01X2711500Y4365239D01*
G01X2708470Y4366376D01*
G01X2704682Y4368270D01*
G01X2702030Y4370164D01*
G01X2700136Y4371679D01*
G01X2698243Y4373573D01*
G01X2696727Y4375846D01*
G01X2695591Y4378118D01*
G01X2694455Y4380770D01*
G01X2693318Y4384558D01*
G01X2692561Y4387967D01*
G01X2691803Y4394027D01*
G01X2691424Y4433043D01*
G01X2691424Y4470921D01*
G01X2689530Y4470921D01*
G01X2683470Y4471679D01*
G01X2680439Y4472436D01*
G01X2677409Y4473952D01*
G01X2674758Y4475845D01*
G01X2673243Y4478118D01*
G01X2672485Y4481906D01*
G01X2672864Y4485694D01*
G01X2673621Y4488345D01*
G01X2675894Y4491376D01*
G01X2679682Y4493648D01*
G01X2682712Y4494785D01*
G01X2687636Y4495164D01*
G01X2691424Y4495164D01*
G01X2691424Y4509936D01*
G01X2691803Y4526603D01*
G01X2692561Y4530391D01*
G01X2693697Y4533800D01*
G01X2695591Y4537209D01*
G01X2698621Y4540239D01*
G01X2702030Y4542133D01*
G01X2705818Y4542891D01*
G01X2710742Y4542512D01*
G01X2714530Y4541376D01*
G01X2717182Y4539861D01*
G01X2720212Y4537209D01*
G01X2722106Y4534179D01*
G01X2723242Y4531527D01*
G01X2724000Y4526982D01*
G01X2724379Y4522815D01*
G01X2724758Y4508421D01*
G01X2724758Y4495164D01*
G01X2731576Y4495164D01*
G01X2741046Y4494406D01*
G01X2745591Y4492512D01*
G01X2748621Y4489861D01*
G01X2750515Y4486830D01*
G01X2751273Y4483800D01*
G01X2750515Y4480012D01*
G01X2749000Y4476982D01*
G01X2747485Y4475088D01*
G01X2744455Y4473194D01*
G01X2741046Y4472057D01*
G01X2734985Y4471300D01*
G01X2729303Y4470921D01*
G01X2724758Y4470921D01*
G01X2724758Y4434179D01*
G01X2725515Y4395921D01*
G01X2727030Y4392512D01*
G01X2729682Y4389482D01*
G01X2733848Y4388345D01*
G01X2739530Y4388724D01*
G01X2744076Y4389482D01*
G01X2749758Y4389861D01*
G01X2755439Y4389103D01*
G01X2757712Y4387588D01*
G01X2759606Y4385694D01*
G01X2761121Y4383421D01*
G01X2761879Y4380391D01*
G01X2761121Y4376224D01*
G01X2759227Y4372058D01*
G01X2756955Y4369406D01*
G01X2754682Y4367891D01*
G01X2751652Y4366376D01*
G01X2747106Y4364861D01*
G01X2743318Y4363724D01*
G01X2737258Y4362967D01*
G01X2728924Y4362588D01*
G37*
G36*
G01X1890700Y2642473D02*
G01X1879791Y2642927D01*
G01X1874791Y2643836D01*
G01X1868427Y2644745D01*
G01X1863882Y2645654D01*
G01X1860245Y2646563D01*
G01X1855245Y2647927D01*
G01X1850245Y2649745D01*
G01X1845700Y2651563D01*
G01X1841155Y2653836D01*
G01X1837064Y2656563D01*
G01X1833882Y2658382D01*
G01X1831609Y2660200D01*
G01X1826155Y2664745D01*
G01X1821609Y2669291D01*
G01X1819791Y2671564D01*
G01X1815246Y2677927D01*
G01X1813427Y2681109D01*
G01X1811609Y2684745D01*
G01X1808882Y2691109D01*
G01X1807518Y2695200D01*
G01X1806609Y2701109D01*
G01X1806609Y2706564D01*
G01X1807518Y2710200D01*
G01X1808882Y2713836D01*
G01X1810700Y2717018D01*
G01X1812518Y2719291D01*
G01X1815246Y2721564D01*
G01X1818882Y2723382D01*
G01X1824791Y2724291D01*
G01X1831155Y2723382D01*
G01X1835700Y2721109D01*
G01X1838882Y2718382D01*
G01X1841155Y2715200D01*
G01X1843427Y2711564D01*
G01X1845245Y2707473D01*
G01X1847064Y2703836D01*
G01X1848427Y2700655D01*
G01X1850245Y2696564D01*
G01X1852518Y2692927D01*
G01X1854336Y2689745D01*
G01X1856609Y2687018D01*
G01X1861155Y2682473D01*
G01X1863427Y2680654D01*
G01X1866609Y2678836D01*
G01X1870700Y2677018D01*
G01X1875700Y2675654D01*
G01X1880245Y2674745D01*
G01X1888882Y2674291D01*
G01X1897518Y2674745D01*
G01X1902973Y2675654D01*
G01X1909336Y2677018D01*
G01X1913882Y2678836D01*
G01X1918427Y2681109D01*
G01X1921609Y2683382D01*
G01X1924336Y2685200D01*
G01X1927064Y2687473D01*
G01X1929791Y2691109D01*
G01X1932518Y2696109D01*
G01X1933882Y2702018D01*
G01X1933882Y2707473D01*
G01X1932973Y2712927D01*
G01X1931154Y2718382D01*
G01X1928882Y2721564D01*
G01X1927064Y2723836D01*
G01X1924791Y2726109D01*
G01X1921154Y2728836D01*
G01X1916609Y2731564D01*
G01X1911609Y2733382D01*
G01X1906154Y2735200D01*
G01X1900245Y2737018D01*
G01X1895700Y2738382D01*
G01X1891609Y2739291D01*
G01X1885700Y2740654D01*
G01X1881154Y2742018D01*
G01X1876609Y2742927D01*
G01X1871609Y2744291D01*
G01X1862518Y2747018D01*
G01X1854336Y2749745D01*
G01X1850245Y2751563D01*
G01X1845700Y2753382D01*
G01X1842064Y2755200D01*
G01X1838882Y2757018D01*
G01X1831609Y2761563D01*
G01X1828882Y2763836D01*
G01X1822064Y2770654D01*
G01X1819336Y2773836D01*
G01X1817064Y2777472D01*
G01X1815246Y2781109D01*
G01X1813427Y2785200D01*
G01X1812064Y2789745D01*
G01X1811155Y2793836D01*
G01X1810700Y2802018D01*
G01X1811155Y2812018D01*
G01X1812518Y2818382D01*
G01X1814336Y2823836D01*
G01X1816155Y2828382D01*
G01X1819791Y2834745D01*
G01X1822064Y2837927D01*
G01X1824791Y2841109D01*
G01X1827518Y2843836D01*
G01X1829791Y2845654D01*
G01X1832064Y2847927D01*
G01X1835246Y2850200D01*
G01X1838882Y2852473D01*
G01X1842064Y2854291D01*
G01X1845700Y2856109D01*
G01X1850700Y2857927D01*
G01X1860245Y2861109D01*
G01X1870245Y2862927D01*
G01X1877518Y2863836D01*
G01X1889336Y2864291D01*
G01X1901154Y2863836D01*
G01X1904336Y2863382D01*
G01X1908427Y2862927D01*
G01X1913882Y2862018D01*
G01X1920245Y2860654D01*
G01X1926154Y2858836D01*
G01X1930700Y2857018D01*
G01X1934791Y2855200D01*
G01X1939336Y2852927D01*
G01X1943427Y2850200D01*
G01X1946609Y2847927D01*
G01X1951155Y2844291D01*
G01X1955700Y2839745D01*
G01X1959336Y2835200D01*
G01X1961609Y2832018D01*
G01X1963427Y2828382D01*
G01X1965245Y2824291D01*
G01X1966609Y2820200D01*
G01X1967064Y2813836D01*
G01X1966155Y2806109D01*
G01X1963882Y2801563D01*
G01X1961609Y2798382D01*
G01X1959336Y2796109D01*
G01X1955700Y2793836D01*
G01X1949791Y2792472D01*
G01X1943882Y2792927D01*
G01X1939791Y2794291D01*
G01X1936155Y2797018D01*
G01X1933427Y2800200D01*
G01X1931609Y2802472D01*
G01X1929791Y2805654D01*
G01X1927973Y2809291D01*
G01X1926154Y2812473D01*
G01X1923882Y2816109D01*
G01X1921154Y2820200D01*
G01X1918427Y2823382D01*
G01X1916154Y2825654D01*
G01X1912973Y2828382D01*
G01X1908882Y2830654D01*
G01X1904336Y2832018D01*
G01X1900245Y2832927D01*
G01X1890245Y2833382D01*
G01X1879336Y2832927D01*
G01X1874791Y2832018D01*
G01X1869791Y2830654D01*
G01X1865245Y2828836D01*
G01X1861155Y2826564D01*
G01X1857973Y2823836D01*
G01X1855700Y2821564D01*
G01X1853427Y2818836D01*
G01X1851609Y2815654D01*
G01X1850700Y2809745D01*
G01X1851609Y2802472D01*
G01X1853427Y2798382D01*
G01X1855245Y2795654D01*
G01X1858427Y2792472D01*
G01X1862973Y2789291D01*
G01X1867064Y2787018D01*
G01X1870700Y2785654D01*
G01X1873882Y2784291D01*
G01X1877973Y2782927D01*
G01X1883427Y2781563D01*
G01X1887518Y2780200D01*
G01X1891609Y2779291D01*
G01X1897518Y2777927D01*
G01X1902064Y2776563D01*
G01X1911154Y2774291D01*
G01X1917518Y2772472D01*
G01X1923427Y2770654D01*
G01X1928882Y2768836D01*
G01X1933882Y2767018D01*
G01X1938427Y2765200D01*
G01X1945700Y2761563D01*
G01X1949791Y2759291D01*
G01X1953882Y2756563D01*
G01X1957064Y2754291D01*
G01X1959336Y2752473D01*
G01X1963882Y2747927D01*
G01X1966609Y2744745D01*
G01X1969336Y2740654D01*
G01X1971609Y2736563D01*
G01X1973427Y2732473D01*
G01X1974791Y2727927D01*
G01X1975700Y2723836D01*
G01X1976155Y2720200D01*
G01X1976609Y2714745D01*
G01X1976609Y2710200D01*
G01X1976155Y2707018D01*
G01X1975700Y2701109D01*
G01X1974336Y2693836D01*
G01X1972518Y2688382D01*
G01X1970700Y2683836D01*
G01X1968427Y2679291D01*
G01X1966155Y2675654D01*
G01X1964336Y2672927D01*
G01X1960700Y2668382D01*
G01X1953882Y2661563D01*
G01X1947518Y2657018D01*
G01X1944791Y2655200D01*
G01X1937518Y2651563D01*
G01X1934336Y2650200D01*
G01X1927064Y2647472D01*
G01X1922064Y2646109D01*
G01X1917518Y2644745D01*
G01X1911154Y2643836D01*
G01X1901154Y2642927D01*
G01X1890700Y2642473D01*
G37*
G36*
G01X2084791Y2642473D02*
G01X2075700Y2642927D01*
G01X2072973Y2643382D01*
G01X2069336Y2643836D01*
G01X2064336Y2644745D01*
G01X2057973Y2646109D01*
G01X2052518Y2647927D01*
G01X2047518Y2649745D01*
G01X2040245Y2653382D01*
G01X2037063Y2655200D01*
G01X2030700Y2659745D01*
G01X2028427Y2661563D01*
G01X2021609Y2668382D01*
G01X2018882Y2672018D01*
G01X2015700Y2676564D01*
G01X2013427Y2680200D01*
G01X2011609Y2683836D01*
G01X2009791Y2688382D01*
G01X2007973Y2693382D01*
G01X2006609Y2697473D01*
G01X2004791Y2706564D01*
G01X2003882Y2716564D01*
G01X2003427Y2722473D01*
G01X2003882Y2728382D01*
G01X2004791Y2737473D01*
G01X2005018Y2738836D01*
G01X2044336Y2738836D01*
G01X2044791Y2736563D01*
G01X2079791Y2736109D01*
G01X2115700Y2736563D01*
G01X2116609Y2737245D01*
G01X2116609Y2738382D01*
G01X2116155Y2741563D01*
G01X2115700Y2745654D01*
G01X2113882Y2752927D01*
G01X2112518Y2756563D01*
G01X2110700Y2760200D01*
G01X2107973Y2764745D01*
G01X2105245Y2768382D01*
G01X2102064Y2771109D01*
G01X2098882Y2773382D01*
G01X2095245Y2775200D01*
G01X2091155Y2776563D01*
G01X2087973Y2777018D01*
G01X2083882Y2777472D01*
G01X2080245Y2777472D01*
G01X2077064Y2777018D01*
G01X2072973Y2776563D01*
G01X2067973Y2775200D01*
G01X2062973Y2772927D01*
G01X2059791Y2770654D01*
G01X2057518Y2768836D01*
G01X2054336Y2765654D01*
G01X2051609Y2761563D01*
G01X2049791Y2758382D01*
G01X2048427Y2755200D01*
G01X2047063Y2751563D01*
G01X2045700Y2746563D01*
G01X2044791Y2742018D01*
G01X2044336Y2738836D01*
G01X2044336Y2738836D01*
G01X2005018Y2738836D01*
G01X2005700Y2742927D01*
G01X2007064Y2749745D01*
G01X2008882Y2755200D01*
G01X2010700Y2760200D01*
G01X2012518Y2764745D01*
G01X2014336Y2768382D01*
G01X2016609Y2772018D01*
G01X2019336Y2776109D01*
G01X2022518Y2780200D01*
G01X2025245Y2783836D01*
G01X2030700Y2788382D01*
G01X2033882Y2791109D01*
G01X2037973Y2793836D01*
G01X2042063Y2796109D01*
G01X2045700Y2797927D01*
G01X2049791Y2799745D01*
G01X2055245Y2801563D01*
G01X2060245Y2802927D01*
G01X2063882Y2803836D01*
G01X2071154Y2804745D01*
G01X2078427Y2805200D01*
G01X2088427Y2804745D01*
G01X2095700Y2803836D01*
G01X2101155Y2802927D01*
G01X2106155Y2801563D01*
G01X2111609Y2799745D01*
G01X2115700Y2797927D01*
G01X2119336Y2796109D01*
G01X2123427Y2793836D01*
G01X2127518Y2791109D01*
G01X2130700Y2788836D01*
G01X2132973Y2787018D01*
G01X2140700Y2779291D01*
G01X2143882Y2774745D01*
G01X2146154Y2771563D01*
G01X2147973Y2768382D01*
G01X2149791Y2764291D01*
G01X2152518Y2757018D01*
G01X2153882Y2752018D01*
G01X2154791Y2747473D01*
G01X2155245Y2740200D01*
G01X2154791Y2732927D01*
G01X2153882Y2728836D01*
G01X2152064Y2724291D01*
G01X2149791Y2721109D01*
G01X2147064Y2718836D01*
G01X2143427Y2717018D01*
G01X2138427Y2715654D01*
G01X2133882Y2714745D01*
G01X2088427Y2714291D01*
G01X2055359Y2713836D01*
G01X2044336Y2712473D01*
G01X2044791Y2707473D01*
G01X2045700Y2702018D01*
G01X2047063Y2697018D01*
G01X2048882Y2692018D01*
G01X2050700Y2688382D01*
G01X2052973Y2684745D01*
G01X2055245Y2681564D01*
G01X2057063Y2679291D01*
G01X2059336Y2677018D01*
G01X2061609Y2675200D01*
G01X2064791Y2673382D01*
G01X2068427Y2671564D01*
G01X2072064Y2670200D01*
G01X2075700Y2669291D01*
G01X2082064Y2668836D01*
G01X2089336Y2669291D01*
G01X2093882Y2670200D01*
G01X2097518Y2671109D01*
G01X2101609Y2672473D01*
G01X2105700Y2674291D01*
G01X2109336Y2676564D01*
G01X2112518Y2678836D01*
G01X2114791Y2680200D01*
G01X2117064Y2682018D01*
G01X2122518Y2686564D01*
G01X2129336Y2693382D01*
G01X2132518Y2695655D01*
G01X2136609Y2697018D01*
G01X2142064Y2696564D01*
G01X2146609Y2695200D01*
G01X2149336Y2693382D01*
G01X2151609Y2690655D01*
G01X2152973Y2687473D01*
G01X2152973Y2684745D01*
G01X2152518Y2681564D01*
G01X2151609Y2678382D01*
G01X2149791Y2674745D01*
G01X2147518Y2670654D01*
G01X2145245Y2667473D01*
G01X2141609Y2662927D01*
G01X2139336Y2660654D01*
G01X2135700Y2657927D01*
G01X2131154Y2654745D01*
G01X2127518Y2652472D01*
G01X2123882Y2650654D01*
G01X2119791Y2648836D01*
G01X2111609Y2646109D01*
G01X2107064Y2644745D01*
G01X2102973Y2643836D01*
G01X2094791Y2642927D01*
G01X2084791Y2642473D01*
G37*
G36*
G01X2207973Y2642473D02*
G01X2201609Y2643836D01*
G01X2196609Y2646563D01*
G01X2192973Y2650200D01*
G01X2190700Y2653836D01*
G01X2189336Y2657927D01*
G01X2188427Y2662018D01*
G01X2187973Y2721564D01*
G01X2188427Y2783836D01*
G01X2189336Y2790200D01*
G01X2190700Y2794291D01*
G01X2192518Y2797927D01*
G01X2195700Y2801563D01*
G01X2200245Y2803836D01*
G01X2203882Y2804745D01*
G01X2207063Y2804745D01*
G01X2211154Y2803836D01*
G01X2214791Y2802472D01*
G01X2217518Y2801109D01*
G01X2219791Y2799291D01*
G01X2221609Y2797018D01*
G01X2222973Y2794291D01*
G01X2224336Y2791109D01*
G01X2225245Y2785654D01*
G01X2225700Y2780200D01*
G01X2226495Y2779632D01*
G01X2227973Y2780654D01*
G01X2230700Y2783836D01*
G01X2237518Y2790654D01*
G01X2242064Y2794291D01*
G01X2244791Y2796109D01*
G01X2247973Y2797927D01*
G01X2251609Y2799745D01*
G01X2256154Y2801563D01*
G01X2260245Y2802927D01*
G01X2265245Y2803836D01*
G01X2272973Y2804745D01*
G01X2278427Y2804745D01*
G01X2281609Y2804291D01*
G01X2286609Y2803836D01*
G01X2291154Y2802927D01*
G01X2295245Y2802018D01*
G01X2299336Y2800654D01*
G01X2306609Y2797018D01*
G01X2309791Y2795200D01*
G01X2312518Y2792927D01*
G01X2314791Y2791109D01*
G01X2316609Y2789291D01*
G01X2318427Y2787018D01*
G01X2320700Y2784291D01*
G01X2322972Y2780654D01*
G01X2325245Y2776563D01*
G01X2327063Y2772018D01*
G01X2328427Y2767473D01*
G01X2329336Y2763836D01*
G01X2330245Y2753836D01*
G01X2330700Y2708836D01*
G01X2330245Y2663836D01*
G01X2329336Y2659291D01*
G01X2327972Y2654291D01*
G01X2326609Y2651109D01*
G01X2324791Y2648836D01*
G01X2322518Y2646563D01*
G01X2319336Y2644291D01*
G01X2315700Y2642927D01*
G01X2312518Y2642473D01*
G01X2308427Y2642927D01*
G01X2303882Y2644291D01*
G01X2299336Y2646563D01*
G01X2296154Y2649291D01*
G01X2293882Y2652927D01*
G01X2292063Y2657927D01*
G01X2291154Y2662018D01*
G01X2290245Y2743836D01*
G01X2288882Y2753382D01*
G01X2287973Y2757018D01*
G01X2286154Y2761563D01*
G01X2283427Y2766563D01*
G01X2279336Y2770654D01*
G01X2274791Y2772927D01*
G01X2271154Y2773836D01*
G01X2265700Y2774291D01*
G01X2259336Y2773836D01*
G01X2252064Y2772018D01*
G01X2248427Y2770654D01*
G01X2244791Y2768382D01*
G01X2241609Y2766109D01*
G01X2239336Y2764291D01*
G01X2235700Y2759745D01*
G01X2233427Y2756563D01*
G01X2231609Y2752927D01*
G01X2230245Y2748836D01*
G01X2229336Y2744745D01*
G01X2228427Y2735654D01*
G01X2227518Y2662927D01*
G01X2227064Y2659745D01*
G01X2226154Y2656109D01*
G01X2224336Y2652018D01*
G01X2222064Y2648836D01*
G01X2219791Y2646563D01*
G01X2216609Y2644291D01*
G01X2212973Y2642927D01*
G01X2207973Y2642473D01*
G37*
G36*
G01X2429791Y2642473D02*
G01X2419336Y2642927D01*
G01X2408427Y2644745D01*
G01X2403882Y2645654D01*
G01X2398882Y2647018D01*
G01X2394336Y2648836D01*
G01X2390245Y2650654D01*
G01X2386609Y2652472D01*
G01X2380245Y2656109D01*
G01X2377064Y2658382D01*
G01X2374791Y2660200D01*
G01X2372973Y2662018D01*
G01X2371154Y2664291D01*
G01X2368427Y2667473D01*
G01X2366154Y2671109D01*
G01X2364336Y2674745D01*
G01X2362973Y2678382D01*
G01X2362518Y2684291D01*
G01X2363427Y2690200D01*
G01X2365245Y2693836D01*
G01X2367518Y2697018D01*
G01X2369791Y2698836D01*
G01X2372973Y2700200D01*
G01X2376609Y2701109D01*
G01X2379791Y2701109D01*
G01X2386154Y2699291D01*
G01X2388882Y2697473D01*
G01X2390700Y2695200D01*
G01X2392973Y2692018D01*
G01X2398427Y2683836D01*
G01X2401154Y2680654D01*
G01X2406609Y2675200D01*
G01X2410700Y2672473D01*
G01X2415245Y2670654D01*
G01X2419336Y2669291D01*
G01X2422518Y2668836D01*
G01X2428427Y2668382D01*
G01X2433882Y2668382D01*
G01X2437973Y2668836D01*
G01X2443882Y2669745D01*
G01X2448427Y2671564D01*
G01X2451609Y2672927D01*
G01X2454336Y2674745D01*
G01X2456609Y2677018D01*
G01X2458882Y2679745D01*
G01X2460245Y2682927D01*
G01X2460245Y2687018D01*
G01X2459336Y2691109D01*
G01X2458427Y2694745D01*
G01X2456609Y2697927D01*
G01X2454336Y2700200D01*
G01X2451154Y2702473D01*
G01X2447518Y2704291D01*
G01X2443882Y2705654D01*
G01X2435700Y2708382D01*
G01X2430245Y2709745D01*
G01X2423882Y2711564D01*
G01X2419336Y2712927D01*
G01X2415700Y2713836D01*
G01X2410700Y2715200D01*
G01X2399791Y2718836D01*
G01X2395245Y2720654D01*
G01X2391154Y2722473D01*
G01X2387518Y2724291D01*
G01X2384336Y2726109D01*
G01X2381609Y2727927D01*
G01X2378427Y2730200D01*
G01X2375245Y2732927D01*
G01X2372973Y2735200D01*
G01X2370245Y2738382D01*
G01X2367973Y2742018D01*
G01X2366154Y2746109D01*
G01X2364791Y2750200D01*
G01X2364336Y2756109D01*
G01X2364791Y2764745D01*
G01X2366154Y2770654D01*
G01X2367973Y2774745D01*
G01X2370245Y2779291D01*
G01X2373427Y2783836D01*
G01X2376154Y2787472D01*
G01X2378427Y2789745D01*
G01X2382064Y2792472D01*
G01X2386154Y2795200D01*
G01X2389336Y2797018D01*
G01X2392973Y2798836D01*
G01X2397518Y2800654D01*
G01X2401154Y2802018D01*
G01X2410245Y2803836D01*
G01X2420245Y2804745D01*
G01X2425700Y2805200D01*
G01X2431154Y2804745D01*
G01X2434791Y2804291D01*
G01X2441154Y2803836D01*
G01X2446609Y2802927D01*
G01X2450700Y2802018D01*
G01X2456609Y2800654D01*
G01X2461609Y2798836D01*
G01X2466154Y2797018D01*
G01X2470245Y2795200D01*
G01X2473882Y2792927D01*
G01X2477063Y2790654D01*
G01X2479791Y2788836D01*
G01X2483427Y2785654D01*
G01X2486154Y2782018D01*
G01X2488427Y2778382D01*
G01X2490700Y2772927D01*
G01X2491154Y2768382D01*
G01X2490700Y2765200D01*
G01X2489336Y2761109D01*
G01X2486154Y2757018D01*
G01X2482063Y2754291D01*
G01X2477518Y2752927D01*
G01X2472972Y2752927D01*
G01X2469336Y2753836D01*
G01X2465700Y2755200D01*
G01X2462518Y2757473D01*
G01X2455700Y2764291D01*
G01X2452063Y2768836D01*
G01X2449791Y2771109D01*
G01X2446609Y2773836D01*
G01X2442518Y2776563D01*
G01X2437973Y2778382D01*
G01X2433882Y2779291D01*
G01X2427518Y2779745D01*
G01X2421154Y2779291D01*
G01X2416609Y2778382D01*
G01X2412064Y2777018D01*
G01X2408427Y2775200D01*
G01X2405245Y2772927D01*
G01X2402973Y2770654D01*
G01X2401154Y2767018D01*
G01X2401154Y2761109D01*
G01X2403427Y2755654D01*
G01X2406609Y2752473D01*
G01X2408882Y2750654D01*
G01X2411609Y2749291D01*
G01X2414791Y2747927D01*
G01X2418427Y2746563D01*
G01X2423427Y2745200D01*
G01X2427518Y2743836D01*
G01X2431609Y2742927D01*
G01X2437518Y2741563D01*
G01X2442063Y2740200D01*
G01X2451154Y2737927D01*
G01X2457063Y2736109D01*
G01X2462518Y2734291D01*
G01X2467063Y2732473D01*
G01X2471154Y2730654D01*
G01X2475700Y2728382D01*
G01X2479336Y2726109D01*
G01X2482518Y2724291D01*
G01X2485245Y2722018D01*
G01X2491154Y2716109D01*
G01X2493427Y2713382D01*
G01X2495700Y2709291D01*
G01X2497518Y2705200D01*
G01X2498427Y2702018D01*
G01X2498882Y2694745D01*
G01X2498427Y2687473D01*
G01X2497972Y2684291D01*
G01X2497063Y2680654D01*
G01X2495700Y2676564D01*
G01X2493882Y2672018D01*
G01X2489336Y2664745D01*
G01X2486609Y2661563D01*
G01X2482063Y2657018D01*
G01X2478882Y2654745D01*
G01X2475245Y2652472D01*
G01X2472063Y2650654D01*
G01X2467972Y2648836D01*
G01X2458427Y2645654D01*
G01X2448427Y2643836D01*
G01X2440245Y2642927D01*
G01X2429791Y2642473D01*
G37*
G36*
G01X2602972Y2642473D02*
G01X2592518Y2642927D01*
G01X2589336Y2643836D01*
G01X2584336Y2644745D01*
G01X2577972Y2646109D01*
G01X2572518Y2647927D01*
G01X2568427Y2649745D01*
G01X2560245Y2653836D01*
G01X2556154Y2656563D01*
G01X2552973Y2658836D01*
G01X2548427Y2662473D01*
G01X2541609Y2669291D01*
G01X2538882Y2672927D01*
G01X2536154Y2677018D01*
G01X2533882Y2680654D01*
G01X2531609Y2684745D01*
G01X2529791Y2689291D01*
G01X2527973Y2694291D01*
G01X2526609Y2698382D01*
G01X2524791Y2707473D01*
G01X2523427Y2722473D01*
G01X2523799Y2726564D01*
G01X2563427Y2726564D01*
G01X2563882Y2717473D01*
G01X2564791Y2710200D01*
G01X2566154Y2702927D01*
G01X2567973Y2697927D01*
G01X2569336Y2694291D01*
G01X2572063Y2688836D01*
G01X2573882Y2686109D01*
G01X2576154Y2683382D01*
G01X2578882Y2680654D01*
G01X2581609Y2678382D01*
G01X2584791Y2676109D01*
G01X2588882Y2674291D01*
G01X2592518Y2673382D01*
G01X2592518Y2673382D01*
G01X2594791Y2672927D01*
G01X2600700Y2672473D01*
G01X2610245Y2672927D01*
G01X2616154Y2674291D01*
G01X2620245Y2676109D01*
G01X2624791Y2678836D01*
G01X2628427Y2681564D01*
G01X2631609Y2684745D01*
G01X2634791Y2689291D01*
G01X2637063Y2692927D01*
G01X2638427Y2696564D01*
G01X2639791Y2700655D01*
G01X2641154Y2705654D01*
G01X2642063Y2710200D01*
G01X2642518Y2722018D01*
G01X2642063Y2734745D01*
G01X2641154Y2740200D01*
G01X2639791Y2746109D01*
G01X2637972Y2751109D01*
G01X2636154Y2755200D01*
G01X2632518Y2761563D01*
G01X2630245Y2764291D01*
G01X2627972Y2766563D01*
G01X2624791Y2769291D01*
G01X2621154Y2771563D01*
G01X2617063Y2773382D01*
G01X2612972Y2774745D01*
G01X2605700Y2775200D01*
G01X2596609Y2774745D01*
G01X2592063Y2773836D01*
G01X2588882Y2772927D01*
G01X2584791Y2771109D01*
G01X2581609Y2768836D01*
G01X2578882Y2767018D01*
G01X2576609Y2764745D01*
G01X2574791Y2762473D01*
G01X2572063Y2759291D01*
G01X2569791Y2755654D01*
G01X2568427Y2752473D01*
G01X2567063Y2748836D01*
G01X2565700Y2744291D01*
G01X2564791Y2740200D01*
G01X2563882Y2733836D01*
G01X2563427Y2726564D01*
G01X2523799Y2726564D01*
G01X2523882Y2727473D01*
G01X2524336Y2731564D01*
G01X2524791Y2737473D01*
G01X2525700Y2742018D01*
G01X2526154Y2745200D01*
G01X2527064Y2748836D01*
G01X2528427Y2753382D01*
G01X2529791Y2757473D01*
G01X2533427Y2765654D01*
G01X2535245Y2768836D01*
G01X2537518Y2772472D01*
G01X2539336Y2775654D01*
G01X2541154Y2777927D01*
G01X2551154Y2787927D01*
G01X2554791Y2790654D01*
G01X2557973Y2792927D01*
G01X2562063Y2795200D01*
G01X2569336Y2798836D01*
G01X2574336Y2800654D01*
G01X2578427Y2802018D01*
G01X2587518Y2803836D01*
G01X2597518Y2804745D01*
G01X2601609Y2805200D01*
G01X2609791Y2804291D01*
G01X2615700Y2803836D01*
G01X2624791Y2802018D01*
G01X2629791Y2800654D01*
G01X2633881Y2799291D01*
G01X2637518Y2797927D01*
G01X2644791Y2794291D01*
G01X2647972Y2792472D01*
G01X2650700Y2790654D01*
G01X2653882Y2788382D01*
G01X2657063Y2785654D01*
G01X2659336Y2783836D01*
G01X2661609Y2781563D01*
G01X2663882Y2778836D01*
G01X2666154Y2776563D01*
G01X2668427Y2773382D01*
G01X2670700Y2769745D01*
G01X2672518Y2766563D01*
G01X2675245Y2761109D01*
G01X2677063Y2757018D01*
G01X2678882Y2751563D01*
G01X2680245Y2746563D01*
G01X2681154Y2742927D01*
G01X2682063Y2735654D01*
G01X2682518Y2726109D01*
G01X2682063Y2714745D01*
G01X2681154Y2708382D01*
G01X2679336Y2699291D01*
G01X2677973Y2694291D01*
G01X2676154Y2689745D01*
G01X2674336Y2685655D01*
G01X2670700Y2678382D01*
G01X2668427Y2674745D01*
G01X2666154Y2671564D01*
G01X2663427Y2668382D01*
G01X2660700Y2664745D01*
G01X2658427Y2662473D01*
G01X2651609Y2657018D01*
G01X2648882Y2655200D01*
G01X2645245Y2652927D01*
G01X2641154Y2650654D01*
G01X2637063Y2648836D01*
G01X2628881Y2646109D01*
G01X2624336Y2644745D01*
G01X2620245Y2643836D01*
G01X2612972Y2642927D01*
G01X2602972Y2642473D01*
G37*
G36*
G01X2733882Y2642473D02*
G01X2728882Y2643382D01*
G01X2725245Y2644745D01*
G01X2722518Y2646563D01*
G01X2717972Y2651109D01*
G01X2716154Y2654745D01*
G01X2714791Y2658382D01*
G01X2714336Y2720200D01*
G01X2714791Y2784745D01*
G01X2716154Y2791563D01*
G01X2718427Y2796563D01*
G01X2721609Y2800654D01*
G01X2725700Y2803382D01*
G01X2730245Y2804745D01*
G01X2733882Y2804745D01*
G01X2738427Y2803836D01*
G01X2743427Y2802018D01*
G01X2746609Y2799745D01*
G01X2748881Y2796563D01*
G01X2750700Y2792472D01*
G01X2752063Y2786563D01*
G01X2753427Y2782018D01*
G01X2754336Y2782132D01*
G01X2755245Y2783382D01*
G01X2757063Y2786109D01*
G01X2758427Y2788382D01*
G01X2760245Y2790654D01*
G01X2762972Y2793836D01*
G01X2766609Y2797927D01*
G01X2770700Y2800654D01*
G01X2773881Y2802472D01*
G01X2777972Y2803836D01*
G01X2783881Y2804745D01*
G01X2788427Y2804745D01*
G01X2795700Y2803836D01*
G01X2799791Y2802927D01*
G01X2804336Y2801563D01*
G01X2808427Y2799745D01*
G01X2812973Y2797472D01*
G01X2816154Y2795200D01*
G01X2818427Y2793382D01*
G01X2820700Y2791109D01*
G01X2822518Y2788382D01*
G01X2823427Y2784745D01*
G01X2822973Y2779291D01*
G01X2821609Y2774745D01*
G01X2820245Y2772018D01*
G01X2818427Y2770200D01*
G01X2816154Y2768382D01*
G01X2812518Y2766109D01*
G01X2807518Y2765654D01*
G01X2794791Y2768836D01*
G01X2790245Y2770200D01*
G01X2785700Y2770654D01*
G01X2778427Y2770200D01*
G01X2772972Y2768836D01*
G01X2769336Y2767018D01*
G01X2765245Y2763836D01*
G01X2762518Y2759745D01*
G01X2760700Y2756563D01*
G01X2759336Y2752927D01*
G01X2757972Y2748836D01*
G01X2756609Y2743382D01*
G01X2755700Y2738382D01*
G01X2754791Y2729291D01*
G01X2753881Y2705654D01*
G01X2752972Y2660200D01*
G01X2752063Y2656563D01*
G01X2750700Y2652927D01*
G01X2748881Y2650200D01*
G01X2745245Y2646563D01*
G01X2742063Y2644291D01*
G01X2738427Y2642927D01*
G01X2733882Y2642473D01*
G37*
G36*
G01X1889791Y2298836D02*
G01X1812064Y2299745D01*
G01X1806609Y2301564D01*
G01X1802064Y2303836D01*
G01X1798882Y2306109D01*
G01X1797064Y2307927D01*
G01X1795245Y2310655D01*
G01X1793427Y2314291D01*
G01X1792518Y2320655D01*
G01X1793427Y2327927D01*
G01X1796609Y2334291D01*
G01X1798427Y2337018D01*
G01X1812064Y2353382D01*
G01X1817518Y2359745D01*
G01X1862973Y2414291D01*
G01X1868427Y2420655D01*
G01X1909336Y2469745D01*
G01X1914791Y2476109D01*
G01X1916609Y2478836D01*
G01X1917063Y2480654D01*
G01X1871155Y2480654D01*
G01X1823882Y2481109D01*
G01X1820246Y2481564D01*
G01X1815246Y2482473D01*
G01X1810246Y2484745D01*
G01X1806155Y2488382D01*
G01X1803882Y2492927D01*
G01X1803882Y2498382D01*
G01X1805246Y2503382D01*
G01X1807518Y2507018D01*
G01X1809791Y2509745D01*
G01X1812973Y2511563D01*
G01X1816609Y2512927D01*
G01X1882064Y2513382D01*
G01X1950246Y2512927D01*
G01X1956155Y2511563D01*
G01X1959791Y2510200D01*
G01X1962518Y2508382D01*
G01X1964791Y2506109D01*
G01X1967064Y2502927D01*
G01X1968427Y2499291D01*
G01X1968882Y2492927D01*
G01X1968427Y2484745D01*
G01X1967064Y2479291D01*
G01X1965245Y2475654D01*
G01X1962973Y2472018D01*
G01X1960700Y2468836D01*
G01X1958882Y2466109D01*
G01X1938427Y2441564D01*
G01X1932973Y2435200D01*
G01X1919336Y2418836D01*
G01X1913882Y2412473D01*
G01X1904791Y2401564D01*
G01X1899336Y2395200D01*
G01X1885700Y2378836D01*
G01X1880245Y2372473D01*
G01X1866609Y2356109D01*
G01X1861155Y2349745D01*
G01X1856609Y2344291D01*
G01X1852973Y2339745D01*
G01X1850700Y2337473D01*
G01X1848882Y2335200D01*
G01X1847518Y2332927D01*
G01X1861155Y2331904D01*
G01X1902973Y2331564D01*
G01X1962973Y2331109D01*
G01X1969336Y2329745D01*
G01X1973882Y2327473D01*
G01X1977064Y2324745D01*
G01X1978882Y2321564D01*
G01X1979791Y2316109D01*
G01X1978882Y2310655D01*
G01X1977064Y2306564D01*
G01X1974791Y2303382D01*
G01X1972064Y2301564D01*
G01X1968882Y2300200D01*
G01X1965700Y2299291D01*
G01X1889791Y2298836D01*
G37*
G36*
G01X2058882Y2295200D02*
G01X2052973Y2295655D01*
G01X2049336Y2297018D01*
G01X2045700Y2298836D01*
G01X2042063Y2301564D01*
G01X2038882Y2304745D01*
G01X2036609Y2307927D01*
G01X2034336Y2312473D01*
G01X2032518Y2317927D01*
G01X2030700Y2323836D01*
G01X2029336Y2328382D01*
G01X2028427Y2332473D01*
G01X2027064Y2338382D01*
G01X2025700Y2342927D01*
G01X2024791Y2347018D01*
G01X2023427Y2352927D01*
G01X2022064Y2357473D01*
G01X2021154Y2361563D01*
G01X2019791Y2367473D01*
G01X2018427Y2372018D01*
G01X2017518Y2376564D01*
G01X2016154Y2382927D01*
G01X2014791Y2387473D01*
G01X2013882Y2391564D01*
G01X2012518Y2397473D01*
G01X2011154Y2402018D01*
G01X2010245Y2406109D01*
G01X2008882Y2412018D01*
G01X2007518Y2416564D01*
G01X2006609Y2420655D01*
G01X2005245Y2426564D01*
G01X2003882Y2431109D01*
G01X2002973Y2435200D01*
G01X2001609Y2441109D01*
G01X2000245Y2445655D01*
G01X1999336Y2449745D01*
G01X1997973Y2455654D01*
G01X1995700Y2464745D01*
G01X1994791Y2468836D01*
G01X1993427Y2474745D01*
G01X1992064Y2479291D01*
G01X1990245Y2487473D01*
G01X1989791Y2495200D01*
G01X1990700Y2503382D01*
G01X1992518Y2507473D01*
G01X1994791Y2510654D01*
G01X1997064Y2512927D01*
G01X2000245Y2515200D01*
G01X2003882Y2516563D01*
G01X2007064Y2517018D01*
G01X2012973Y2516563D01*
G01X2018427Y2515200D01*
G01X2021154Y2513836D01*
G01X2023427Y2512018D01*
G01X2025245Y2509745D01*
G01X2026609Y2507018D01*
G01X2027973Y2503836D01*
G01X2029336Y2499745D01*
G01X2032064Y2490654D01*
G01X2036609Y2470200D01*
G01X2037518Y2465654D01*
G01X2038882Y2459291D01*
G01X2041154Y2450200D01*
G01X2046609Y2425655D01*
G01X2047518Y2421109D01*
G01X2048882Y2414745D01*
G01X2051154Y2405655D01*
G01X2054791Y2389291D01*
G01X2055700Y2384745D01*
G01X2057063Y2378382D01*
G01X2059336Y2369291D01*
G01X2059791Y2365654D01*
G01X2060018Y2364064D01*
G01X2060700Y2363836D01*
G01X2062518Y2367018D01*
G01X2063882Y2371109D01*
G01X2064791Y2375654D01*
G01X2066154Y2380654D01*
G01X2067518Y2385200D01*
G01X2068882Y2390655D01*
G01X2070245Y2394745D01*
G01X2071154Y2398836D01*
G01X2072518Y2404291D01*
G01X2073882Y2408382D01*
G01X2074791Y2412927D01*
G01X2076154Y2417927D01*
G01X2077518Y2422473D01*
G01X2078882Y2427927D01*
G01X2080245Y2432018D01*
G01X2081154Y2436109D01*
G01X2082518Y2441564D01*
G01X2083882Y2445655D01*
G01X2084791Y2450200D01*
G01X2086155Y2455200D01*
G01X2087518Y2459745D01*
G01X2088882Y2465200D01*
G01X2090245Y2469291D01*
G01X2091155Y2473836D01*
G01X2092518Y2478836D01*
G01X2093882Y2483382D01*
G01X2095245Y2488836D01*
G01X2097064Y2494291D01*
G01X2098882Y2499291D01*
G01X2101155Y2503836D01*
G01X2103427Y2507018D01*
G01X2105245Y2509291D01*
G01X2107518Y2511563D01*
G01X2109791Y2513382D01*
G01X2113427Y2515200D01*
G01X2117518Y2516563D01*
G01X2122973Y2517018D01*
G01X2129336Y2516563D01*
G01X2132973Y2515654D01*
G01X2136154Y2514745D01*
G01X2138882Y2513382D01*
G01X2141154Y2512018D01*
G01X2144336Y2509291D01*
G01X2147064Y2505654D01*
G01X2148882Y2502927D01*
G01X2150700Y2498836D01*
G01X2153882Y2489291D01*
G01X2154791Y2485200D01*
G01X2156154Y2480654D01*
G01X2167063Y2440655D01*
G01X2168427Y2436109D01*
G01X2169791Y2430200D01*
G01X2171609Y2423836D01*
G01X2172973Y2419291D01*
G01X2175245Y2410200D01*
G01X2177063Y2403836D01*
G01X2178427Y2399291D01*
G01X2180700Y2390200D01*
G01X2182063Y2385655D01*
G01X2184336Y2376564D01*
G01X2186154Y2370200D01*
G01X2187518Y2365654D01*
G01X2188086Y2364859D01*
G01X2188882Y2365200D01*
G01X2190245Y2368382D01*
G01X2191154Y2372018D01*
G01X2196609Y2396564D01*
G01X2197518Y2401109D01*
G01X2198882Y2407473D01*
G01X2201154Y2416564D01*
G01X2208427Y2449291D01*
G01X2209336Y2453836D01*
G01X2210700Y2460200D01*
G01X2212973Y2469291D01*
G01X2219336Y2497927D01*
G01X2220700Y2502018D01*
G01X2222064Y2505654D01*
G01X2223882Y2508836D01*
G01X2225700Y2511109D01*
G01X2228427Y2513836D01*
G01X2232518Y2516109D01*
G01X2238427Y2517018D01*
G01X2245245Y2516109D01*
G01X2250245Y2513836D01*
G01X2254336Y2510654D01*
G01X2257518Y2506563D01*
G01X2259336Y2502927D01*
G01X2259791Y2498836D01*
G01X2259336Y2492927D01*
G01X2257518Y2483836D01*
G01X2256154Y2477473D01*
G01X2254791Y2472927D01*
G01X2253882Y2468382D01*
G01X2252518Y2462018D01*
G01X2251155Y2457473D01*
G01X2250245Y2453382D01*
G01X2248882Y2447473D01*
G01X2247518Y2442927D01*
G01X2246609Y2438836D01*
G01X2245245Y2432927D01*
G01X2243882Y2428382D01*
G01X2242973Y2424291D01*
G01X2241609Y2418382D01*
G01X2240245Y2413836D01*
G01X2239336Y2409746D01*
G01X2237973Y2403836D01*
G01X2236609Y2399291D01*
G01X2235700Y2395200D01*
G01X2234336Y2389291D01*
G01X2232973Y2384745D01*
G01X2232064Y2380200D01*
G01X2230700Y2373836D01*
G01X2229336Y2369291D01*
G01X2228427Y2365200D01*
G01X2227064Y2359291D01*
G01X2225700Y2354745D01*
G01X2224791Y2350654D01*
G01X2223427Y2344745D01*
G01X2222064Y2340200D01*
G01X2221154Y2336109D01*
G01X2219791Y2330200D01*
G01X2218427Y2325654D01*
G01X2217518Y2322018D01*
G01X2216154Y2317018D01*
G01X2214336Y2312018D01*
G01X2212063Y2307473D01*
G01X2209791Y2304291D01*
G01X2207973Y2302018D01*
G01X2205700Y2299745D01*
G01X2202972Y2297927D01*
G01X2199791Y2296564D01*
G01X2196609Y2295655D01*
G01X2192973Y2295200D01*
G01X2187518Y2295655D01*
G01X2182973Y2296564D01*
G01X2179336Y2297927D01*
G01X2176154Y2299745D01*
G01X2173882Y2301109D01*
G01X2172063Y2302927D01*
G01X2170245Y2305200D01*
G01X2167973Y2307927D01*
G01X2166154Y2311564D01*
G01X2163427Y2319745D01*
G01X2160700Y2328836D01*
G01X2157973Y2338836D01*
G01X2156609Y2343382D01*
G01X2155245Y2348836D01*
G01X2153882Y2352927D01*
G01X2152973Y2357473D01*
G01X2148882Y2372473D01*
G01X2147518Y2377018D01*
G01X2146154Y2382473D01*
G01X2144791Y2386564D01*
G01X2143882Y2391109D01*
G01X2142518Y2396109D01*
G01X2141154Y2400655D01*
G01X2139791Y2406109D01*
G01X2138427Y2410200D01*
G01X2137518Y2414745D01*
G01X2133427Y2429745D01*
G01X2132064Y2434291D01*
G01X2130700Y2440200D01*
G01X2128882Y2446564D01*
G01X2127518Y2451109D01*
G01X2126609Y2455200D01*
G01X2126154Y2457927D01*
G01X2124336Y2457018D01*
G01X2122859Y2455541D01*
G01X2122064Y2452927D01*
G01X2093427Y2347927D01*
G01X2092064Y2343382D01*
G01X2090700Y2337927D01*
G01X2089336Y2333836D01*
G01X2088427Y2329745D01*
G01X2084336Y2316109D01*
G01X2082973Y2312473D01*
G01X2081154Y2308382D01*
G01X2078882Y2305200D01*
G01X2077064Y2302927D01*
G01X2074791Y2300655D01*
G01X2072518Y2298836D01*
G01X2068882Y2297018D01*
G01X2064791Y2295655D01*
G01X2058882Y2295200D01*
G37*
G36*
G01X2535700Y2295655D02*
G01X2532064Y2295655D01*
G01X2528882Y2296109D01*
G01X2522973Y2296564D01*
G01X2516609Y2297927D01*
G01X2512063Y2299291D01*
G01X2508427Y2300655D01*
G01X2503882Y2302473D01*
G01X2499336Y2304745D01*
G01X2495245Y2307473D01*
G01X2491609Y2309745D01*
G01X2486154Y2314291D01*
G01X2482972Y2317473D01*
G01X2477518Y2323836D01*
G01X2474791Y2327927D01*
G01X2472518Y2331564D01*
G01X2470700Y2334745D01*
G01X2467063Y2342018D01*
G01X2465700Y2346109D01*
G01X2464336Y2350654D01*
G01X2462972Y2354745D01*
G01X2462063Y2358382D01*
G01X2460245Y2367473D01*
G01X2458427Y2383836D01*
G01X2457972Y2401564D01*
G01X2458124Y2407473D01*
G01X2497972Y2407473D01*
G01X2498427Y2388382D01*
G01X2499336Y2375654D01*
G01X2499791Y2372473D01*
G01X2500245Y2368382D01*
G01X2501154Y2362018D01*
G01X2502518Y2354745D01*
G01X2504336Y2348836D01*
G01X2506154Y2343836D01*
G01X2507973Y2340200D01*
G01X2510245Y2336564D01*
G01X2512518Y2333836D01*
G01X2516609Y2329745D01*
G01X2519336Y2327927D01*
G01X2523427Y2326564D01*
G01X2523427Y2326564D01*
G01X2526609Y2325654D01*
G01X2531609Y2325200D01*
G01X2537518Y2325654D01*
G01X2541609Y2326564D01*
G01X2546609Y2328382D01*
G01X2549791Y2330654D01*
G01X2552063Y2332473D01*
G01X2554336Y2334745D01*
G01X2556154Y2337018D01*
G01X2557973Y2340200D01*
G01X2559791Y2343836D01*
G01X2561154Y2347473D01*
G01X2562518Y2351564D01*
G01X2563882Y2356109D01*
G01X2564791Y2360200D01*
G01X2565700Y2366563D01*
G01X2566609Y2375654D01*
G01X2567518Y2391109D01*
G01X2567973Y2405200D01*
G01X2567518Y2419291D01*
G01X2566609Y2433836D01*
G01X2565700Y2442018D01*
G01X2564791Y2448382D01*
G01X2563882Y2453382D01*
G01X2562518Y2458836D01*
G01X2561154Y2462927D01*
G01X2559791Y2466564D01*
G01X2557973Y2470200D01*
G01X2556154Y2473382D01*
G01X2553882Y2476564D01*
G01X2551154Y2479745D01*
G01X2548427Y2481564D01*
G01X2545700Y2482927D01*
G01X2542518Y2484291D01*
G01X2535245Y2485200D01*
G01X2526609Y2484745D01*
G01X2521154Y2483382D01*
G01X2517518Y2481564D01*
G01X2514791Y2479745D01*
G01X2510245Y2475200D01*
G01X2507973Y2472018D01*
G01X2506154Y2468382D01*
G01X2504791Y2464745D01*
G01X2503427Y2460654D01*
G01X2502063Y2456109D01*
G01X2501154Y2452018D01*
G01X2500245Y2445655D01*
G01X2499336Y2438382D01*
G01X2498427Y2426564D01*
G01X2497972Y2407473D01*
G01X2458124Y2407473D01*
G01X2458427Y2419291D01*
G01X2458882Y2424291D01*
G01X2459336Y2432018D01*
G01X2460245Y2439291D01*
G01X2461154Y2445655D01*
G01X2462972Y2454745D01*
G01X2464336Y2461109D01*
G01X2466154Y2467018D01*
G01X2467972Y2472018D01*
G01X2471609Y2479291D01*
G01X2473882Y2483382D01*
G01X2476609Y2487473D01*
G01X2478882Y2490654D01*
G01X2480700Y2492927D01*
G01X2488427Y2500654D01*
G01X2492063Y2503382D01*
G01X2494791Y2505200D01*
G01X2501154Y2508836D01*
G01X2508427Y2511563D01*
G01X2512973Y2512927D01*
G01X2517518Y2513836D01*
G01X2525700Y2514745D01*
G01X2531609Y2515200D01*
G01X2537518Y2514745D01*
G01X2541609Y2514291D01*
G01X2547518Y2513382D01*
G01X2552063Y2512018D01*
G01X2555700Y2511109D01*
G01X2559336Y2509745D01*
G01X2566609Y2506109D01*
G01X2570245Y2503836D01*
G01X2574336Y2501109D01*
G01X2577518Y2498836D01*
G01X2582063Y2494291D01*
G01X2585700Y2489745D01*
G01X2588427Y2486563D01*
G01X2590700Y2483382D01*
G01X2592518Y2480200D01*
G01X2594336Y2476564D01*
G01X2596154Y2473382D01*
G01X2597972Y2469291D01*
G01X2599791Y2464291D01*
G01X2601609Y2458382D01*
G01X2602972Y2453836D01*
G01X2604791Y2444745D01*
G01X2605700Y2438382D01*
G01X2606609Y2430200D01*
G01X2607518Y2413836D01*
G01X2607972Y2405200D01*
G01X2607518Y2396564D01*
G01X2606609Y2380200D01*
G01X2606154Y2377018D01*
G01X2605700Y2372018D01*
G01X2604791Y2365654D01*
G01X2602972Y2356563D01*
G01X2601609Y2350654D01*
G01X2597972Y2340654D01*
G01X2595700Y2336109D01*
G01X2591154Y2327927D01*
G01X2588882Y2324291D01*
G01X2586609Y2321564D01*
G01X2582972Y2317018D01*
G01X2580700Y2314745D01*
G01X2576154Y2311109D01*
G01X2572973Y2308382D01*
G01X2568882Y2305655D01*
G01X2564791Y2303382D01*
G01X2561609Y2301564D01*
G01X2558427Y2300200D01*
G01X2554336Y2298836D01*
G01X2549791Y2297473D01*
G01X2545700Y2296564D01*
G01X2541609Y2296109D01*
G01X2535700Y2295655D01*
G37*
G36*
G01X2369791Y2295200D02*
G01X2365245Y2295655D01*
G01X2358882Y2298836D01*
G01X2355245Y2302018D01*
G01X2352972Y2305655D01*
G01X2351609Y2308836D01*
G01X2350700Y2313382D01*
G01X2350245Y2317473D01*
G01X2349791Y2385200D01*
G01X2349564Y2434859D01*
G01X2348882Y2451109D01*
G01X2346609Y2449745D01*
G01X2344336Y2447927D01*
G01X2341154Y2445655D01*
G01X2332063Y2439291D01*
G01X2327972Y2436564D01*
G01X2324336Y2434291D01*
G01X2321609Y2432473D01*
G01X2315245Y2428836D01*
G01X2311609Y2427018D01*
G01X2307063Y2425200D01*
G01X2302063Y2424291D01*
G01X2296609Y2424745D01*
G01X2292973Y2426109D01*
G01X2290245Y2427927D01*
G01X2287973Y2430200D01*
G01X2286154Y2432927D01*
G01X2284791Y2437018D01*
G01X2284791Y2442018D01*
G01X2286154Y2446564D01*
G01X2289336Y2450654D01*
G01X2296154Y2455200D01*
G01X2299336Y2457018D01*
G01X2318427Y2466564D01*
G01X2322972Y2469291D01*
G01X2327063Y2472018D01*
G01X2331154Y2475200D01*
G01X2334791Y2477927D01*
G01X2346154Y2489291D01*
G01X2353427Y2498382D01*
G01X2357973Y2504745D01*
G01X2363427Y2511563D01*
G01X2365700Y2513382D01*
G01X2370700Y2514291D01*
G01X2376609Y2513836D01*
G01X2380245Y2512473D01*
G01X2382973Y2510654D01*
G01X2385245Y2508382D01*
G01X2387064Y2505654D01*
G01X2388427Y2502473D01*
G01X2389336Y2499291D01*
G01X2389791Y2410200D01*
G01X2389336Y2318382D01*
G01X2388427Y2312927D01*
G01X2387518Y2309291D01*
G01X2386154Y2305655D01*
G01X2384791Y2302927D01*
G01X2382064Y2299745D01*
G01X2377973Y2297018D01*
G01X2374791Y2295655D01*
G01X2369791Y2295200D01*
G37*
G36*
G01X2726154Y2295200D02*
G01X2721609Y2295655D01*
G01X2719336Y2297018D01*
G01X2715700Y2298836D01*
G01X2712518Y2301109D01*
G01X2710700Y2303382D01*
G01X2708882Y2306564D01*
G01X2707518Y2310200D01*
G01X2707063Y2381109D01*
G01X2706154Y2451109D01*
G01X2702972Y2449745D01*
G01X2695700Y2444291D01*
G01X2691154Y2441109D01*
G01X2682973Y2435655D01*
G01X2679791Y2433382D01*
G01X2676609Y2431564D01*
G01X2672518Y2429291D01*
G01X2667973Y2427018D01*
G01X2663427Y2425200D01*
G01X2657063Y2424291D01*
G01X2651154Y2425200D01*
G01X2647972Y2427018D01*
G01X2645245Y2429291D01*
G01X2643427Y2431564D01*
G01X2642063Y2434291D01*
G01X2641154Y2437473D01*
G01X2641154Y2440655D01*
G01X2642063Y2443836D01*
G01X2643427Y2447473D01*
G01X2645700Y2450654D01*
G01X2648882Y2452927D01*
G01X2652972Y2455200D01*
G01X2667518Y2462473D01*
G01X2673882Y2466109D01*
G01X2677973Y2468382D01*
G01X2682063Y2471109D01*
G01X2685245Y2473382D01*
G01X2687973Y2475200D01*
G01X2690700Y2477473D01*
G01X2702063Y2488836D01*
G01X2709336Y2497927D01*
G01X2712063Y2501109D01*
G01X2715245Y2505654D01*
G01X2718882Y2510200D01*
G01X2722063Y2513382D01*
G01X2727063Y2514291D01*
G01X2732972Y2513836D01*
G01X2737518Y2512018D01*
G01X2741609Y2508382D01*
G01X2744336Y2503836D01*
G01X2745700Y2500200D01*
G01X2746154Y2408836D01*
G01X2745700Y2317473D01*
G01X2744791Y2312473D01*
G01X2743427Y2307473D01*
G01X2742063Y2304291D01*
G01X2740245Y2301564D01*
G01X2737972Y2299291D01*
G01X2734791Y2297018D01*
G01X2731154Y2295655D01*
G01X2726154Y2295200D01*
G37*
G54D10*
G01X3381502Y751840D02*
G01X3378454Y758190D01*
G01X3372104Y764286D01*
G01X3366008Y767334D01*
G01X3353562Y767334D01*
G01X3347466Y764286D01*
G01X3341116Y758190D01*
G01X3338068Y751840D01*
G01X3335020Y742696D01*
G01X3335020Y727202D01*
G01X3338068Y717804D01*
G01X3341116Y711708D01*
G01X3347466Y705358D01*
G01X3353562Y702310D01*
G01X3366008Y702310D01*
G01X3372104Y705358D01*
G01X3378454Y711708D01*
G01X3381502Y717804D01*
G01X3411728Y767334D02*
G01X3411728Y702310D01*
G01X3411728Y767334D02*
G01X3454908Y702310D01*
G01X3454908Y767334D02*
G01X3454908Y702310D01*
G01X3488182Y751840D02*
G01X3488182Y754888D01*
G01X3491230Y761238D01*
G01X3494278Y764286D01*
G01X3500374Y767334D01*
G01X3512820Y767334D01*
G01X3519170Y764286D01*
G01X3522218Y761238D01*
G01X3525266Y754888D01*
G01X3525266Y748792D01*
G01X3522218Y742696D01*
G01X3515868Y733298D01*
G01X3485134Y702310D01*
G01X3528314Y702310D01*
G01X2204720Y195834D02*
G01X2204720Y130810D01*
G01X2204720Y130810D02*
G01X2241804Y130810D01*
G01X2272030Y195834D02*
G01X2272030Y130810D01*
G01X2272030Y195834D02*
G01X2312162Y195834D01*
G01X2272030Y164846D02*
G01X2296668Y164846D01*
G01X2272030Y130810D02*
G01X2312162Y130810D01*
G01X2342388Y195834D02*
G01X2342388Y130810D01*
G01X2342388Y195834D02*
G01X2363978Y195834D01*
G01X2373122Y192786D01*
G01X2379472Y186690D01*
G01X2382520Y180340D01*
G01X2385568Y171196D01*
G01X2385568Y155702D01*
G01X2382520Y146304D01*
G01X2379472Y140208D01*
G01X2373122Y133858D01*
G01X2363978Y130810D01*
G01X2342388Y130810D01*
G01X2415794Y183388D02*
G01X2421890Y186690D01*
G01X2431034Y195834D01*
G01X2431034Y130810D01*
G01X1057402Y713740D02*
G01X1054354Y720090D01*
G01X1048004Y726186D01*
G01X1041908Y729234D01*
G01X1029462Y729234D01*
G01X1023366Y726186D01*
G01X1017016Y720090D01*
G01X1013968Y713740D01*
G01X1010920Y704596D01*
G01X1010920Y689102D01*
G01X1013968Y679704D01*
G01X1017016Y673608D01*
G01X1023366Y667258D01*
G01X1029462Y664210D01*
G01X1041908Y664210D01*
G01X1048004Y667258D01*
G01X1054354Y673608D01*
G01X1057402Y679704D01*
G01X1087628Y729234D02*
G01X1087628Y664210D01*
G01X1087628Y729234D02*
G01X1130808Y664210D01*
G01X1130808Y729234D02*
G01X1130808Y664210D01*
G01X1161034Y716788D02*
G01X1167130Y720090D01*
G01X1176274Y729234D01*
G01X1176274Y664210D01*
G04 Text End*

G04 PolygonModel Start*
G54D11*
G01X3639599Y561104D02*
G01X3639599Y665104D01*
G01X3639599Y665104D02*
G01X3172600Y665104D01*
G01X3172600Y665104D02*
G01X3172600Y570106D01*
G01X3028594Y272484D02*
G01X3028594Y208603D01*
G01X3529211Y208603D02*
G01X3778593Y208603D01*
G01X3778593Y208603D02*
G01X3778593Y272486D01*
G01X3028594Y208603D02*
G01X3277982Y208603D01*
G01X2452387Y574600D02*
G01X2147587Y574600D01*
G01X2452400Y269800D02*
G01X2147600Y269800D01*
G36*
G01X2274600Y307900D02*
G01X2274600Y536500D01*
G01X2300000Y536500D01*
G01X2300000Y460300D01*
G01X2338100Y460300D01*
G01X2338100Y384100D01*
G01X2300000Y384100D01*
G01X2300000Y307900D01*
G01X2274600Y307900D01*
G37*
G54D10*
G01X525000Y4675000D02*
G01X657080Y4807080D01*
G01X662160Y4807080D01*
G01X525000Y4675000D02*
G01X392920Y4542920D01*
G01X387840Y4542920D01*
G01X525000Y4675000D02*
G01X660692Y4539308D01*
G01X525000Y4683742D02*
G01X398000Y4810742D01*
G01X398000Y4812160D01*
G01X4075000Y4675000D02*
G01X4207080Y4807080D01*
G01X4212160Y4807080D01*
G01X4075000Y4675000D02*
G01X3942920Y4542920D01*
G01X3937840Y4542920D01*
G01X4075000Y4675000D02*
G01X4210692Y4539308D01*
G01X4075000Y4683742D02*
G01X3948000Y4810742D01*
G01X3948000Y4812160D01*
G01X2300000Y1050000D02*
G01X2432080Y1182080D01*
G01X2437160Y1182080D01*
G01X2300000Y1050000D02*
G01X2167920Y917920D01*
G01X2162840Y917920D01*
G01X2300000Y1050000D02*
G01X2435692Y914308D01*
G01X2300000Y1058742D02*
G01X2173000Y1185742D01*
G01X2173000Y1187160D01*
G54D11*
G01X1504599Y221000D02*
G01X1623997Y221000D01*
G01X1623997Y221000D02*
G01X1623997Y407886D01*
G01X1486492Y651002D02*
G01X926493Y651002D01*
G01X788993Y223698D02*
G01X788993Y409151D01*
G01X908378Y221000D02*
G01X788993Y221000D01*
G01X1408377Y221000D02*
G01X1404600Y221000D01*
G01X1008383Y221000D02*
G01X1004606Y221000D01*
G01X1108382Y221000D02*
G01X1104605Y221000D01*
G01X1208369Y221000D02*
G01X1204613Y221000D01*
G01X1308377Y221000D02*
G01X1304600Y221000D01*
G36*
G01X1534287Y160198D02*
G01X1508887Y198298D01*
G01X1559687Y198298D01*
G01X1534287Y160198D01*
G37*

G04 Rect Start*
G01X800000Y3630000D02*
G01X800000Y5130000D01*
G01X3800000Y5130000D01*
G01X3800000Y3630000D01*
G01X800000Y3630000D01*
G04 Rect End*

G04 Circle Start*
G01X1340000Y2600000D02*
G03X3260000Y2600000I960000J0D01*
G03X1340000Y2600000I-960000J0D01*
G54D12*
G01X3543592Y159106D02*
G03X3573615Y159106I15011J0D01*
G03X3543592Y159106I-15011J0D01*
G54D11*
G01X2490487Y257100D02*
G03X2515887Y257100I12700J0D01*
G03X2490487Y257100I-12700J0D01*
G54D10*
G01X335008Y4675000D02*
G03X714992Y4675000I189992J0D01*
G03X335008Y4675000I-189992J0D01*
G01X3885008Y4675000D02*
G03X4264992Y4675000I189992J0D01*
G03X3885008Y4675000I-189992J0D01*
G01X2110008Y1050000D02*
G03X2489992Y1050000I189992J0D01*
G03X2110008Y1050000I-189992J0D01*
G04 Circle End*

M02*

