G04 Layer: BottomLayer*
G04 EasyEDA Pro v3.2.69, 2026-01-08 09:06:00*
G04 Gerber Generator version 0.3*
G04 Scale: 100 percent, Rotated: No, Reflected: No*
G04 Dimensions in millimeters*
G04 Leading zeros omitted, absolute positions, 4 integers and 5 decimals*
G04 Generated by one-click*
%FSLAX45Y45*%
%MOMM*%
%ADD10C,0.2032*%
%ADD11R,0.9X0.8*%
%ADD12R,0.30099X0.58499*%
%ADD13R,0.8X0.9*%
%ADD14C,1.4*%
%ADD15R,1.4X1.524*%
%ADD16R,0.6007X0.6*%
%ADD17R,0.6X0.6*%
%ADD18R,0.4X0.51001*%
%ADD19R,0.86401X0.80648*%
%ADD20R,0.80648X0.86401*%
%ADD21R,1.35999X1.23*%
%ADD22R,1.0X0.6*%
%ADD23R,0.7X1.0*%
%ADD24R,1.0X2.0*%
%ADD25R,0.7X0.7*%
%ADD26R,0.48999X1.157*%
%ADD27R,0.48999X1.175*%
%ADD28R,1.2X0.6*%
%ADD29R,2.4X3.29999*%
%ADD30R,0.8X1.2*%
%ADD31R,0.7X1.2*%
%ADD32O,1.1X1.7*%
%ADD33R,1.25001X0.7*%
%ADD34C,2.0*%
%ADD35C,0.61*%
%ADD36C,0.508*%
%ADD37C,0.635*%
%ADD38C,0.254*%
G75*


G04 Copper Start*
G36*
G01X614498Y2255653D02*
G01X624775Y2257159D01*
G01X634187Y2261550D01*
G01X634187Y2224996D01*
G01X636125Y2213375D01*
G01X641729Y2203011D01*
G01X650392Y2195027D01*
G01X661177Y2190286D01*
G01X537195Y2066305D01*
G01X529486Y2056257D01*
G01X524639Y2044556D01*
G01X522986Y2032000D01*
G01X522986Y1701800D01*
G01X524639Y1689244D01*
G01X529486Y1677543D01*
G01X537195Y1667495D01*
G01X581645Y1623045D01*
G01X591693Y1615336D01*
G01X603394Y1610489D01*
G01X615950Y1608836D01*
G01X813871Y1608836D01*
G01X813871Y1543725D01*
G01X815623Y1532658D01*
G01X820710Y1522674D01*
G01X828634Y1514751D01*
G01X838617Y1509664D01*
G01X849685Y1507911D01*
G01X888307Y1507911D01*
G01X897293Y1506604D01*
G01X905534Y1502791D01*
G01X907428Y1500897D01*
G01X917475Y1493187D01*
G01X929176Y1488340D01*
G01X941732Y1486687D01*
G01X1059487Y1486687D01*
G01X1068178Y1485267D01*
G01X1075963Y1481152D01*
G01X1086182Y1475752D01*
G01X1097587Y1473887D01*
G01X1137587Y1473887D01*
G01X1148654Y1475640D01*
G01X1158638Y1480727D01*
G01X1166561Y1488650D01*
G01X1171648Y1498634D01*
G01X1173401Y1509701D01*
G01X1173401Y1521329D01*
G01X1213021Y1481709D01*
G01X1222297Y1474096D01*
G01X1232881Y1468440D01*
G01X1244364Y1464956D01*
G01X1256306Y1463780D01*
G01X1270030Y1462911D01*
G01X1283535Y1460319D01*
G01X1292495Y1459180D01*
G01X1392495Y1459180D01*
G01X1403562Y1460933D01*
G01X1413545Y1466020D01*
G01X1421469Y1473943D01*
G01X1426556Y1483927D01*
G01X1428309Y1494994D01*
G01X1428309Y1554994D01*
G01X1426556Y1566061D01*
G01X1421469Y1576045D01*
G01X1413545Y1583968D01*
G01X1403562Y1589055D01*
G01X1392495Y1590808D01*
G01X1292495Y1590808D01*
G01X1283535Y1589669D01*
G01X1279222Y1588648D01*
G01X1242733Y1625136D01*
G01X1242188Y1704777D01*
G01X1287885Y1750474D01*
G01X1295111Y1759179D01*
G01X1327213Y1759179D01*
G01X1342494Y1757429D01*
G01X1357775Y1759179D01*
G01X1392495Y1759179D01*
G01X1402414Y1760581D01*
G01X1411558Y1764675D01*
G01X1431754Y1775230D01*
G01X1453369Y1782447D01*
G01X1475856Y1786141D01*
G01X1469365Y1769984D01*
G01X1466732Y1752772D01*
G01X1468094Y1735413D01*
G01X1473382Y1718823D01*
G01X1482315Y1703877D01*
G01X1494422Y1691363D01*
G01X1509065Y1681941D01*
G01X1525472Y1676109D01*
G01X1542776Y1674174D01*
G01X1560066Y1676238D01*
G01X1576428Y1682192D01*
G01X1591001Y1691722D01*
G01X1603015Y1704326D01*
G01X1611837Y1719338D01*
G01X1617001Y1735967D01*
G01X1618234Y1753336D01*
G01X1615473Y1770528D01*
G01X1608861Y1786636D01*
G01X1889714Y1786636D01*
G01X2651179Y1025171D01*
G01X2652268Y1023883D01*
G01X2652735Y1023196D01*
G01X2658896Y1008306D01*
G01X2668407Y995299D01*
G01X2680728Y984915D01*
G01X2695158Y977743D01*
G01X2710876Y974192D01*
G01X2726987Y974464D01*
G01X2742576Y978543D01*
G01X2756756Y986197D01*
G01X2768720Y996992D01*
G01X2777787Y1010312D01*
G01X2783442Y1025401D01*
G01X2785364Y1041400D01*
G01X2785364Y1054100D01*
G01X2784066Y1067281D01*
G01X2780221Y1079956D01*
G01X2773977Y1091637D01*
G01X2765575Y1101875D01*
G01X1987459Y1879991D01*
G01X2696186Y1879991D01*
G01X2696186Y1756991D01*
G01X2697939Y1745924D01*
G01X2703026Y1735940D01*
G01X2710949Y1728017D01*
G01X2720933Y1722930D01*
G01X2732000Y1721177D01*
G01X2868000Y1721177D01*
G01X2879067Y1722930D01*
G01X2889051Y1728017D01*
G01X2896974Y1735940D01*
G01X2902061Y1745924D01*
G01X2903814Y1756991D01*
G01X2903814Y1879991D01*
G01X2902061Y1891058D01*
G01X2896974Y1901042D01*
G01X2889051Y1908965D01*
G01X2879067Y1914052D01*
G01X2868000Y1915805D01*
G01X2855437Y1915805D01*
G01X2855214Y1918091D01*
G01X2855214Y1948433D01*
G01X2857133Y1950841D01*
G01X2865553Y1963340D01*
G01X2870933Y1977417D01*
G01X2872996Y1992345D01*
G01X2871635Y2007354D01*
G01X2866920Y2021668D01*
G01X2859096Y2034548D01*
G01X2848565Y2045328D01*
G01X2835872Y2053453D01*
G01X2821673Y2058502D01*
G01X2806700Y2060214D01*
G01X2791727Y2058502D01*
G01X2777528Y2053453D01*
G01X2764835Y2045328D01*
G01X2754304Y2034548D01*
G01X2746480Y2021668D01*
G01X2741765Y2007354D01*
G01X2740404Y1992345D01*
G01X2742467Y1977417D01*
G01X2747847Y1963340D01*
G01X2756267Y1950841D01*
G01X2758186Y1948433D01*
G01X2758186Y1918091D01*
G01X2757963Y1915805D01*
G01X2757963Y1915805D01*
G01X2732000Y1915805D01*
G01X2720933Y1914052D01*
G01X2710949Y1908965D01*
G01X2703026Y1901042D01*
G01X2697939Y1891058D01*
G01X2696186Y1879991D01*
G01X1987459Y1879991D01*
G01X1965475Y1901975D01*
G01X1955237Y1910377D01*
G01X1943556Y1916621D01*
G01X1930881Y1920466D01*
G01X1917700Y1921764D01*
G01X1371701Y1921764D01*
G01X1358520Y1920466D01*
G01X1345845Y1916621D01*
G01X1334164Y1910377D01*
G01X1323926Y1901975D01*
G01X1312759Y1890807D01*
G01X1305814Y1890807D01*
G01X1305814Y1930444D01*
G01X1394017Y2018647D01*
G01X1917700Y2018647D01*
G01X1929642Y2019823D01*
G01X1941126Y2023307D01*
G01X1951709Y2028964D01*
G01X1960985Y2036576D01*
G01X2113385Y2188976D01*
G01X2120998Y2198253D01*
G01X2126654Y2208836D01*
G01X2130138Y2220319D01*
G01X2131314Y2232261D01*
G01X2131314Y4188061D01*
G01X2130138Y4200003D01*
G01X2126654Y4211487D01*
G01X2120998Y4222070D01*
G01X2113385Y4231346D01*
G01X1833623Y4511107D01*
G01X1833623Y4716735D01*
G01X1859385Y4742497D01*
G01X1866998Y4751773D01*
G01X1872654Y4762356D01*
G01X1876138Y4773839D01*
G01X1877314Y4785781D01*
G01X1877314Y4889500D01*
G01X1876138Y4901442D01*
G01X1872654Y4912926D01*
G01X1866998Y4923509D01*
G01X1859385Y4932785D01*
G01X1811524Y4980646D01*
G01X1802247Y4988259D01*
G01X1791664Y4993916D01*
G01X1780181Y4997399D01*
G01X1768239Y4998575D01*
G01X1753411Y4999766D01*
G01X1738964Y5003309D01*
G01X1725268Y5009112D01*
G01X1717229Y5012145D01*
G01X1708700Y5013175D01*
G01X1675115Y5013175D01*
G01X1663261Y5016503D01*
G01X1651000Y5017625D01*
G01X1565346Y5017625D01*
G01X1552471Y5030501D01*
G01X1546860Y5035519D01*
G01X1546860Y5061204D01*
G01X1545562Y5074385D01*
G01X1541717Y5087060D01*
G01X1535473Y5098741D01*
G01X1527071Y5108979D01*
G01X1482875Y5153175D01*
G01X1476011Y5159170D01*
G01X1468403Y5164186D01*
G01X3650000Y5164186D01*
G01X3709791Y5162229D01*
G01X3769325Y5156365D01*
G01X3828349Y5146620D01*
G01X3886609Y5133036D01*
G01X3943855Y5115670D01*
G01X3999844Y5094598D01*
G01X4054334Y5069909D01*
G01X4107093Y5041708D01*
G01X4157895Y5010118D01*
G01X4206521Y4975273D01*
G01X4252765Y4937321D01*
G01X4296427Y4896427D01*
G01X4337321Y4852765D01*
G01X4375272Y4806521D01*
G01X4410118Y4757895D01*
G01X4441708Y4707093D01*
G01X4469908Y4654334D01*
G01X4494598Y4599844D01*
G01X4515670Y4543856D01*
G01X4533036Y4486609D01*
G01X4546620Y4428349D01*
G01X4556365Y4369325D01*
G01X4562229Y4309791D01*
G01X4564186Y4250000D01*
G01X4564186Y950000D01*
G01X4562229Y890209D01*
G01X4556365Y830675D01*
G01X4546620Y771651D01*
G01X4533036Y713391D01*
G01X4515670Y656144D01*
G01X4494598Y600156D01*
G01X4469908Y545666D01*
G01X4441708Y492907D01*
G01X4410118Y442105D01*
G01X4375272Y393479D01*
G01X4337321Y347235D01*
G01X4296427Y303573D01*
G01X4252765Y262679D01*
G01X4206521Y224727D01*
G01X4157895Y189882D01*
G01X4107093Y158292D01*
G01X4054334Y130091D01*
G01X3999844Y105402D01*
G01X3943855Y84330D01*
G01X3886609Y66964D01*
G01X3828349Y53380D01*
G01X3769325Y43635D01*
G01X3709791Y37771D01*
G01X3650000Y35814D01*
G01X950000Y35814D01*
G01X890209Y37771D01*
G01X830675Y43635D01*
G01X771651Y53380D01*
G01X713391Y66964D01*
G01X656144Y84330D01*
G01X600156Y105402D01*
G01X545666Y130091D01*
G01X492907Y158292D01*
G01X442105Y189882D01*
G01X393479Y224727D01*
G01X347235Y262679D01*
G01X303573Y303573D01*
G01X262679Y347235D01*
G01X224727Y393479D01*
G01X189882Y442105D01*
G01X158292Y492907D01*
G01X130091Y545666D01*
G01X105402Y600156D01*
G01X84330Y656144D01*
G01X66964Y713391D01*
G01X53380Y771651D01*
G01X43635Y830675D01*
G01X37771Y890209D01*
G01X35814Y950000D01*
G01X35814Y1833498D01*
G01X65786Y1833498D01*
G01X65786Y925544D01*
G01X65786Y925544D01*
G01X66962Y913602D01*
G01X70446Y902119D01*
G01X76102Y891536D01*
G01X83715Y882259D01*
G01X160699Y805276D01*
G01X169975Y797663D01*
G01X180558Y792006D01*
G01X192041Y788523D01*
G01X203984Y787347D01*
G01X628926Y787347D01*
G01X640872Y765857D01*
G01X650324Y743160D01*
G01X657162Y719544D01*
G01X661301Y695308D01*
G01X662686Y670761D01*
G01X662686Y546100D01*
G01X663862Y534158D01*
G01X667346Y522674D01*
G01X673002Y512091D01*
G01X680615Y502815D01*
G01X752551Y430880D01*
G01X761827Y423267D01*
G01X772410Y417610D01*
G01X783893Y414127D01*
G01X795835Y412951D01*
G01X868614Y412951D01*
G01X879312Y401860D01*
G01X887518Y388818D01*
G01X892887Y374374D01*
G01X890273Y359232D01*
G01X891215Y343896D01*
G01X895661Y329187D01*
G01X903372Y315897D01*
G01X913936Y304739D01*
G01X926783Y296311D01*
G01X941226Y291066D01*
G01X956488Y289286D01*
G01X971750Y291066D01*
G01X986192Y296311D01*
G01X999040Y304739D01*
G01X1009603Y315897D01*
G01X1017315Y329187D01*
G01X1021761Y343896D01*
G01X1022702Y359232D01*
G01X1020089Y374374D01*
G01X1025886Y389673D01*
G01X1034862Y403351D01*
G01X1127620Y403351D01*
G01X1138687Y405104D01*
G01X1148671Y410191D01*
G01X1156594Y418114D01*
G01X1157097Y419100D01*
G01X1952986Y419100D01*
G01X1954698Y404127D01*
G01X1959747Y389928D01*
G01X1967872Y377235D01*
G01X1978652Y366704D01*
G01X1991532Y358880D01*
G01X2005846Y354165D01*
G01X2020855Y352804D01*
G01X2035783Y354867D01*
G01X2049860Y360247D01*
G01X2062359Y368667D01*
G01X2064767Y370586D01*
G01X2189705Y370586D01*
G01X2347307Y212983D01*
G01X2357355Y205274D01*
G01X2369056Y200427D01*
G01X2381612Y198774D01*
G01X3638188Y198774D01*
G01X3650744Y200427D01*
G01X3662445Y205274D01*
G01X3672493Y212983D01*
G01X3742705Y283195D01*
G01X3750414Y293243D01*
G01X3755261Y304944D01*
G01X3756914Y317500D01*
G01X3756914Y495094D01*
G01X3756178Y503512D01*
G01X3753993Y511674D01*
G01X3863806Y511674D01*
G01X3874873Y513427D01*
G01X3884857Y518514D01*
G01X3892780Y526437D01*
G01X3897867Y536421D01*
G01X3899620Y547488D01*
G01X3899620Y607488D01*
G01X3897867Y618555D01*
G01X3892780Y628539D01*
G01X3884857Y636462D01*
G01X3874873Y641549D01*
G01X3863806Y643302D01*
G01X3743806Y643302D01*
G01X3738912Y642966D01*
G01X3707932Y639769D01*
G01X3676806Y638702D01*
G01X3664864Y637526D01*
G01X3653381Y634042D01*
G01X3642798Y628386D01*
G01X3633521Y620773D01*
G01X3630215Y617467D01*
G01X3401314Y617467D01*
G01X3401314Y861488D01*
G01X3707992Y861488D01*
G01X3707992Y801488D01*
G01X3709745Y790421D01*
G01X3714832Y780437D01*
G01X3722755Y772514D01*
G01X3732739Y767427D01*
G01X3743806Y765674D01*
G01X3863806Y765674D01*
G01X3873261Y766945D01*
G01X3882045Y770666D01*
G01X3889534Y776574D01*
G01X3895199Y784250D01*
G01X3898393Y785805D01*
G01X3901906Y786340D01*
G01X3906958Y786340D01*
G01X3910311Y785854D01*
G01X3915027Y775016D01*
G01X3923014Y766304D01*
G01X3933401Y760666D01*
G01X3945058Y758716D01*
G01X4031459Y758716D01*
G01X4042526Y760469D01*
G01X4052510Y765556D01*
G01X4060433Y773479D01*
G01X4065520Y783463D01*
G01X4067273Y794530D01*
G01X4067273Y875177D01*
G01X4065520Y886244D01*
G01X4060433Y896228D01*
G01X4052510Y904151D01*
G01X4042526Y909238D01*
G01X4031459Y910991D01*
G01X3945058Y910991D01*
G01X3933401Y909041D01*
G01X3923014Y903403D01*
G01X3915027Y894691D01*
G01X3910311Y883853D01*
G01X3906958Y883368D01*
G01X3906958Y883368D01*
G01X3901906Y883368D01*
G01X3893923Y884782D01*
G01X3886912Y888851D01*
G01X3879946Y893459D01*
G01X3872102Y896328D01*
G01X3863806Y897302D01*
G01X3743806Y897302D01*
G01X3732739Y895549D01*
G01X3722755Y890462D01*
G01X3714832Y882539D01*
G01X3709745Y872555D01*
G01X3707992Y861488D01*
G01X3401314Y861488D01*
G01X3401314Y891334D01*
G01X3400138Y903277D01*
G01X3396654Y914760D01*
G01X3390998Y925343D01*
G01X3383385Y934619D01*
G01X3359713Y958291D01*
G01X3334883Y983858D01*
G01X3310813Y1010141D01*
G01X3301717Y1027249D01*
G01X3295090Y1045456D01*
G01X3291062Y1064409D01*
G01X3289710Y1083738D01*
G01X3289710Y3875947D01*
G01X3288412Y3889128D01*
G01X3284567Y3901803D01*
G01X3278324Y3913484D01*
G01X3269921Y3923722D01*
G01X2896427Y4297217D01*
G01X2876464Y4318723D01*
G01X2858156Y4341654D01*
G01X2841602Y4365883D01*
G01X2836624Y4372118D01*
G01X2830389Y4377096D01*
G01X2806160Y4393649D01*
G01X2783229Y4411958D01*
G01X2761723Y4431920D01*
G01X2700868Y4492775D01*
G01X2690630Y4501177D01*
G01X2678949Y4507421D01*
G01X2666275Y4511266D01*
G01X2653094Y4512564D01*
G01X2567986Y4512564D01*
G01X2518503Y4562047D01*
G01X2520540Y4583081D01*
G01X2520814Y4587499D01*
G01X2520814Y4675000D01*
G01X3939186Y4675000D01*
G01X3941038Y4652646D01*
G01X3946545Y4630901D01*
G01X3955555Y4610360D01*
G01X3967824Y4591581D01*
G01X3983016Y4575078D01*
G01X4000717Y4561301D01*
G01X4020444Y4550625D01*
G01X4041660Y4543342D01*
G01X4063785Y4539650D01*
G01X4086215Y4539650D01*
G01X4108340Y4543342D01*
G01X4129556Y4550625D01*
G01X4149283Y4561301D01*
G01X4166984Y4575078D01*
G01X4182176Y4591581D01*
G01X4194445Y4610360D01*
G01X4203455Y4630901D01*
G01X4208962Y4652646D01*
G01X4210814Y4675000D01*
G01X4208962Y4697354D01*
G01X4203455Y4719099D01*
G01X4194445Y4739640D01*
G01X4182176Y4758419D01*
G01X4166984Y4774922D01*
G01X4149283Y4788699D01*
G01X4129556Y4799375D01*
G01X4108340Y4806658D01*
G01X4086215Y4810350D01*
G01X4063785Y4810350D01*
G01X4041660Y4806658D01*
G01X4020444Y4799375D01*
G01X4000717Y4788699D01*
G01X3983016Y4774922D01*
G01X3967824Y4758419D01*
G01X3955555Y4739640D01*
G01X3946545Y4719099D01*
G01X3941038Y4697354D01*
G01X3939186Y4675000D01*
G01X3939186Y4675000D01*
G01X2520814Y4675000D01*
G01X2520814Y4707498D01*
G01X2520379Y4713060D01*
G01X2518269Y4731024D01*
G01X2517564Y4749098D01*
G01X2516265Y4762280D01*
G01X2512421Y4774954D01*
G01X2506177Y4786635D01*
G01X2497775Y4796873D01*
G01X2446975Y4847673D01*
G01X2436736Y4856076D01*
G01X2425055Y4862319D01*
G01X2412381Y4866164D01*
G01X2399200Y4867462D01*
G01X2200800Y4867462D01*
G01X2187619Y4866164D01*
G01X2174945Y4862319D01*
G01X2163264Y4856076D01*
G01X2153025Y4847673D01*
G01X2102225Y4796873D01*
G01X2093823Y4786635D01*
G01X2087579Y4774954D01*
G01X2083734Y4762280D01*
G01X2082436Y4749098D01*
G01X2081731Y4731024D01*
G01X2079621Y4713060D01*
G01X2079186Y4707498D01*
G01X2079186Y4587499D01*
G01X2080939Y4576431D01*
G01X2086026Y4566448D01*
G01X2093949Y4558524D01*
G01X2103933Y4553437D01*
G01X2115000Y4551685D01*
G01X2181138Y4551685D01*
G01X2181204Y4550159D01*
G01X2177065Y4510888D01*
G01X2170031Y4472032D01*
G01X2160140Y4433802D01*
G01X2147449Y4396409D01*
G01X2133228Y4392376D01*
G01X2122144Y4387784D01*
G01X2113199Y4379789D01*
G01X2107395Y4369288D01*
G01X2105386Y4357460D01*
G01X2105386Y4276813D01*
G01X2107139Y4265745D01*
G01X2112226Y4255762D01*
G01X2120149Y4247838D01*
G01X2130133Y4242751D01*
G01X2141200Y4240999D01*
G01X2227600Y4240999D01*
G01X2237292Y4242335D01*
G01X2246260Y4246244D01*
G01X2253836Y4252434D01*
G01X2259454Y4260443D01*
G01X2262696Y4269673D01*
G01X2265409Y4280556D01*
G01X2268465Y4280057D01*
G01X2276408Y4267848D01*
G01X2282126Y4260835D01*
G01X2289420Y4255479D01*
G01X2297824Y4252123D01*
G01X2306800Y4250980D01*
G01X2321522Y4250980D01*
G01X2336800Y4249230D01*
G01X2352078Y4250980D01*
G01X2366800Y4250980D01*
G01X2377867Y4252732D01*
G01X2387851Y4257819D01*
G01X2395774Y4265743D01*
G01X2400861Y4275726D01*
G01X2402614Y4286794D01*
G01X2402614Y4294319D01*
G01X2407458Y4281736D01*
G01X2411104Y4268755D01*
G01X2415711Y4257701D01*
G01X2423705Y4248784D01*
G01X2434192Y4243001D01*
G01X2446000Y4240999D01*
G01X2532400Y4240999D01*
G01X2538796Y4241574D01*
G01X2583044Y4247569D01*
G01X2627650Y4249572D01*
G01X2634802Y4249572D01*
G01X2645898Y4249366D01*
G01X2656878Y4250980D01*
G01X2671600Y4250980D01*
G01X2682667Y4252732D01*
G01X2692651Y4257819D01*
G01X2700574Y4265743D01*
G01X2705661Y4275726D01*
G01X2707414Y4286794D01*
G01X2707414Y4287862D01*
G01X2720998Y4267704D01*
G01X2725976Y4261469D01*
G01X2732211Y4256491D01*
G01X2756440Y4239938D01*
G01X2779371Y4221629D01*
G01X2800877Y4201667D01*
G01X3154582Y3847961D01*
G01X3154582Y1083738D01*
G01X3154582Y1083738D01*
G01X3153141Y1063785D01*
G01X3148849Y1044246D01*
G01X3141794Y1025526D01*
G01X3132124Y1008014D01*
G01X3127811Y998671D01*
G01X3126332Y988488D01*
G01X3126332Y928488D01*
G01X3127337Y920065D01*
G01X3130295Y912114D01*
G01X3087460Y912114D01*
G01X3084728Y912434D01*
G01X3081755Y922072D01*
G01X3076212Y930499D01*
G01X3068540Y937046D01*
G01X3059346Y941194D01*
G01X3049360Y942614D01*
G01X2968713Y942614D01*
G01X2959099Y941300D01*
G01X2950191Y937453D01*
G01X2942642Y931356D01*
G01X2937007Y923456D01*
G01X2933700Y914334D01*
G01X2930393Y923456D01*
G01X2924758Y931356D01*
G01X2917209Y937453D01*
G01X2908301Y941300D01*
G01X2898687Y942614D01*
G01X2818040Y942614D01*
G01X2808054Y941194D01*
G01X2798860Y937046D01*
G01X2791188Y930499D01*
G01X2785645Y922072D01*
G01X2782672Y912434D01*
G01X2779940Y912114D01*
G01X2641600Y912114D01*
G01X2629044Y910461D01*
G01X2617343Y905614D01*
G01X2607295Y897905D01*
G01X2416795Y707405D01*
G01X2409086Y697357D01*
G01X2404239Y685656D01*
G01X2402586Y673100D01*
G01X2402586Y406400D01*
G01X2404239Y393844D01*
G01X2409086Y382143D01*
G01X2416795Y372095D01*
G01X2467595Y321295D01*
G01X2477643Y313586D01*
G01X2489344Y308739D01*
G01X2501900Y307086D01*
G01X2545333Y307086D01*
G01X2547741Y305167D01*
G01X2554633Y300017D01*
G01X2562134Y295802D01*
G01X2401707Y295802D01*
G01X2244105Y453405D01*
G01X2234057Y461114D01*
G01X2222356Y465961D01*
G01X2209800Y467614D01*
G01X2064767Y467614D01*
G01X2062359Y469533D01*
G01X2049860Y477953D01*
G01X2035783Y483333D01*
G01X2020855Y485396D01*
G01X2005846Y484035D01*
G01X1991532Y479320D01*
G01X1978652Y471496D01*
G01X1967872Y460965D01*
G01X1959747Y448272D01*
G01X1954698Y434073D01*
G01X1952986Y419100D01*
G01X1157097Y419100D01*
G01X1161681Y428098D01*
G01X1163434Y439165D01*
G01X1163434Y504577D01*
G01X1173057Y499940D01*
G01X1183620Y498347D01*
G01X1308621Y498347D01*
G01X1319688Y500100D01*
G01X1329672Y505187D01*
G01X1337595Y513110D01*
G01X1342682Y523094D01*
G01X1344435Y534161D01*
G01X1344435Y604161D01*
G01X1342682Y615228D01*
G01X1337595Y625212D01*
G01X1329672Y633135D01*
G01X1319688Y638222D01*
G01X1308621Y639975D01*
G01X1300923Y639975D01*
G01X1285663Y641159D01*
G01X1270768Y644684D01*
G01X1256596Y650466D01*
G01X1243485Y658365D01*
G01X1202694Y699157D01*
G01X1347805Y699157D01*
G01X1347805Y629157D01*
G01X1349558Y618090D01*
G01X1354645Y608106D01*
G01X1362568Y600183D01*
G01X1372552Y595096D01*
G01X1383619Y593343D01*
G01X1442117Y593343D01*
G01X1485611Y591695D01*
G01X1495381Y587071D01*
G01X1505812Y584237D01*
G01X1516579Y583283D01*
G01X1518820Y583283D01*
G01X1540187Y581904D01*
G01X1561200Y577788D01*
G01X1581510Y571005D01*
G01X1588136Y569027D01*
G01X1595020Y568359D01*
G01X1681420Y568359D01*
G01X1692487Y570112D01*
G01X1702471Y575199D01*
G01X1710394Y583122D01*
G01X1715481Y593106D01*
G01X1717234Y604173D01*
G01X1717234Y684821D01*
G01X1715481Y695888D01*
G01X1710394Y705872D01*
G01X1702471Y713795D01*
G01X1692487Y718882D01*
G01X1681420Y720635D01*
G01X1595020Y720635D01*
G01X1588136Y719967D01*
G01X1581510Y717989D01*
G01X1563329Y711783D01*
G01X1544554Y707716D01*
G01X1542016Y712396D01*
G01X1537317Y730873D01*
G01X1534249Y749690D01*
G01X1538898Y770223D01*
G01X1546576Y789825D01*
G01X1549320Y797827D01*
G01X1552627Y788704D01*
G01X1558262Y780805D01*
G01X1565811Y774708D01*
G01X1574719Y770861D01*
G01X1584333Y769546D01*
G01X1664980Y769546D01*
G01X1675431Y771105D01*
G01X1684972Y775645D01*
G01X1692773Y782772D01*
G01X1698154Y791865D01*
G01X1700648Y802133D01*
G01X1703080Y802386D01*
G01X1732533Y802386D01*
G01X1734941Y800467D01*
G01X1747440Y792047D01*
G01X1761517Y786667D01*
G01X1776445Y784604D01*
G01X1791454Y785965D01*
G01X1805768Y790680D01*
G01X1818648Y798504D01*
G01X1829428Y809035D01*
G01X1837553Y821728D01*
G01X1842602Y835927D01*
G01X1844314Y850900D01*
G01X1842602Y865873D01*
G01X1837553Y880072D01*
G01X1829428Y892765D01*
G01X1818648Y903296D01*
G01X1805768Y911120D01*
G01X1791454Y915835D01*
G01X1776445Y917196D01*
G01X1761517Y915133D01*
G01X1747440Y909753D01*
G01X1734941Y901333D01*
G01X1732533Y899414D01*
G01X1703080Y899414D01*
G01X1699866Y899860D01*
G01X1695252Y910899D01*
G01X1687258Y919803D01*
G01X1676777Y925576D01*
G01X1664980Y927575D01*
G01X1584333Y927575D01*
G01X1574719Y926261D01*
G01X1565811Y922414D01*
G01X1558262Y916317D01*
G01X1552627Y908417D01*
G01X1549320Y899295D01*
G01X1546013Y908417D01*
G01X1540378Y916317D01*
G01X1532829Y922414D01*
G01X1523921Y926261D01*
G01X1514307Y927575D01*
G01X1433660Y927575D01*
G01X1422593Y925822D01*
G01X1412609Y920735D01*
G01X1404686Y912812D01*
G01X1399599Y902828D01*
G01X1397846Y891761D01*
G01X1397846Y805360D01*
G01X1399711Y793953D01*
G01X1404656Y776769D01*
G01X1408073Y759218D01*
G01X1408073Y759218D01*
G01X1402713Y746288D01*
G01X1394477Y734971D01*
G01X1383619Y734971D01*
G01X1372552Y733218D01*
G01X1362568Y728131D01*
G01X1354645Y720208D01*
G01X1349558Y710224D01*
G01X1347805Y699157D01*
G01X1202694Y699157D01*
G01X1194409Y707441D01*
G01X1181992Y717018D01*
G01X1167550Y723126D01*
G01X1152030Y725364D01*
G01X1149708Y727348D01*
G01X1139886Y737024D01*
G01X1132488Y748658D01*
G01X1127892Y761657D01*
G01X1126334Y775357D01*
G01X1126334Y823897D01*
G01X1125225Y835495D01*
G01X1121939Y846674D01*
G01X1116594Y857026D01*
G01X1116594Y891761D01*
G01X1114841Y902828D01*
G01X1109754Y912812D01*
G01X1101831Y920735D01*
G01X1091847Y925822D01*
G01X1080780Y927575D01*
G01X1000133Y927575D01*
G01X990519Y926261D01*
G01X981611Y922414D01*
G01X974062Y916317D01*
G01X968427Y908417D01*
G01X965120Y899295D01*
G01X961813Y908417D01*
G01X956178Y916317D01*
G01X948629Y922414D01*
G01X939721Y926261D01*
G01X930107Y927575D01*
G01X849460Y927575D01*
G01X841313Y926636D01*
G01X833593Y923869D01*
G01X814283Y916100D01*
G01X794014Y911365D01*
G01X773260Y909775D01*
G01X229339Y909775D01*
G01X188214Y950900D01*
G01X188214Y1178501D01*
G01X193208Y1160960D01*
G01X201141Y1144538D01*
G01X211775Y1129722D01*
G01X224795Y1116952D01*
G01X239815Y1106608D01*
G01X256388Y1098996D01*
G01X274022Y1094343D01*
G01X292192Y1092787D01*
G01X294575Y1092803D01*
G01X295636Y1092846D01*
G01X297061Y1092903D01*
G01X299602Y1093005D01*
G01X302599Y1093252D01*
G01X311640Y1094380D01*
G01X313782Y1094714D01*
G01X325201Y1096847D01*
G01X325734Y1096359D01*
G01X364197Y1057895D01*
G01X374245Y1050186D01*
G01X385946Y1045339D01*
G01X398502Y1043686D01*
G01X1592833Y1043686D01*
G01X1595241Y1041767D01*
G01X1607740Y1033347D01*
G01X1621817Y1027967D01*
G01X1636745Y1025904D01*
G01X1651754Y1027265D01*
G01X1666068Y1031980D01*
G01X1678948Y1039804D01*
G01X1689385Y1050000D01*
G01X2164186Y1050000D01*
G01X2166038Y1027646D01*
G01X2171545Y1005901D01*
G01X2180555Y985360D01*
G01X2192824Y966581D01*
G01X2208016Y950078D01*
G01X2225717Y936301D01*
G01X2245444Y925625D01*
G01X2266660Y918342D01*
G01X2288785Y914650D01*
G01X2311215Y914650D01*
G01X2333340Y918342D01*
G01X2354556Y925625D01*
G01X2374283Y936301D01*
G01X2391984Y950078D01*
G01X2407176Y966581D01*
G01X2419445Y985360D01*
G01X2428455Y1005901D01*
G01X2433962Y1027646D01*
G01X2435814Y1050000D01*
G01X2433962Y1072354D01*
G01X2428455Y1094099D01*
G01X2419445Y1114640D01*
G01X2407176Y1133419D01*
G01X2391984Y1149922D01*
G01X2374283Y1163699D01*
G01X2354556Y1174375D01*
G01X2333340Y1181658D01*
G01X2311215Y1185350D01*
G01X2288785Y1185350D01*
G01X2266660Y1181658D01*
G01X2245444Y1174375D01*
G01X2225717Y1163699D01*
G01X2208016Y1149922D01*
G01X2192824Y1133419D01*
G01X2180555Y1114640D01*
G01X2171545Y1094099D01*
G01X2166038Y1072354D01*
G01X2164186Y1050000D01*
G01X2164186Y1050000D01*
G01X1689385Y1050000D01*
G01X1689728Y1050335D01*
G01X1697853Y1063028D01*
G01X1702902Y1077227D01*
G01X1704614Y1092200D01*
G01X1702902Y1107173D01*
G01X1697853Y1121372D01*
G01X1689728Y1134065D01*
G01X1678948Y1144596D01*
G01X1666068Y1152420D01*
G01X1651754Y1157135D01*
G01X1636745Y1158496D01*
G01X1621817Y1156433D01*
G01X1607740Y1151053D01*
G01X1595241Y1142633D01*
G01X1592833Y1140714D01*
G01X418597Y1140714D01*
G01X394343Y1164968D01*
G01X393855Y1165501D01*
G01X395988Y1176920D01*
G01X396322Y1179062D01*
G01X397450Y1188103D01*
G01X397697Y1191100D01*
G01X397799Y1193641D01*
G01X397856Y1195066D01*
G01X397899Y1196127D01*
G01X397915Y1198509D01*
G01X396279Y1217137D01*
G01X391390Y1235185D01*
G01X383400Y1252091D01*
G01X372558Y1267326D01*
G01X359205Y1280416D01*
G01X343756Y1290950D01*
G01X326693Y1298600D01*
G01X343744Y1306244D01*
G01X359185Y1316769D01*
G01X372533Y1329845D01*
G01X383373Y1345065D01*
G01X391367Y1361955D01*
G01X396265Y1379987D01*
G01X397915Y1398600D01*
G01X397347Y1405007D01*
G01X1256681Y1405007D01*
G01X1256681Y1345007D01*
G01X1258434Y1333940D01*
G01X1263521Y1323956D01*
G01X1271444Y1316033D01*
G01X1281428Y1310946D01*
G01X1292495Y1309193D01*
G01X1392495Y1309193D01*
G01X1392495Y1309193D01*
G01X1403562Y1310946D01*
G01X1413545Y1316033D01*
G01X1421469Y1323956D01*
G01X1426556Y1333940D01*
G01X1428309Y1345007D01*
G01X1428309Y1405007D01*
G01X1426556Y1416074D01*
G01X1421469Y1426058D01*
G01X1413545Y1433981D01*
G01X1403562Y1439068D01*
G01X1392495Y1440821D01*
G01X1292495Y1440821D01*
G01X1281428Y1439068D01*
G01X1271444Y1433981D01*
G01X1263521Y1426058D01*
G01X1258434Y1416074D01*
G01X1256681Y1405007D01*
G01X397347Y1405007D01*
G01X396265Y1417213D01*
G01X391367Y1435246D01*
G01X384390Y1449988D01*
G01X1466680Y1449988D01*
G01X1468581Y1433118D01*
G01X1474188Y1417093D01*
G01X1483221Y1402718D01*
G01X1495225Y1390714D01*
G01X1509600Y1381682D01*
G01X1525624Y1376075D01*
G01X1542494Y1374174D01*
G01X1559364Y1376075D01*
G01X1575389Y1381682D01*
G01X1589763Y1390714D01*
G01X1601768Y1402718D01*
G01X1610800Y1417093D01*
G01X1616407Y1433118D01*
G01X1618308Y1449988D01*
G01X1616407Y1466858D01*
G01X1610800Y1482882D01*
G01X1601768Y1497257D01*
G01X1589763Y1509261D01*
G01X1575389Y1518294D01*
G01X1559364Y1523901D01*
G01X1542494Y1525802D01*
G01X1525624Y1523901D01*
G01X1509600Y1518294D01*
G01X1495225Y1509261D01*
G01X1483221Y1497257D01*
G01X1474188Y1482882D01*
G01X1468581Y1466858D01*
G01X1466680Y1449988D01*
G01X1466680Y1449988D01*
G01X384390Y1449988D01*
G01X383373Y1452135D01*
G01X372533Y1467356D01*
G01X359185Y1480432D01*
G01X343744Y1490956D01*
G01X326693Y1498600D01*
G01X344996Y1506955D01*
G01X361386Y1518623D01*
G01X375271Y1533183D01*
G01X386149Y1550107D01*
G01X393628Y1568785D01*
G01X397436Y1588540D01*
G01X397436Y1608659D01*
G01X393628Y1628415D01*
G01X386149Y1647092D01*
G01X375271Y1664017D01*
G01X361386Y1678576D01*
G01X344996Y1690245D01*
G01X326693Y1698600D01*
G01X343744Y1706244D01*
G01X359185Y1716768D01*
G01X372533Y1729844D01*
G01X383373Y1745064D01*
G01X391367Y1761954D01*
G01X396265Y1779986D01*
G01X397915Y1798599D01*
G01X396265Y1817212D01*
G01X391367Y1835245D01*
G01X383373Y1852135D01*
G01X372533Y1867355D01*
G01X359185Y1880431D01*
G01X343744Y1890955D01*
G01X326693Y1898599D01*
G01X344033Y1906405D01*
G01X359695Y1917188D01*
G01X373174Y1930601D01*
G01X384035Y1946209D01*
G01X391927Y1963509D01*
G01X396596Y1981942D01*
G01X397890Y2000914D01*
G01X395767Y2019810D01*
G01X390297Y2038022D01*
G01X381656Y2054960D01*
G01X370122Y2070078D01*
G01X356069Y2082888D01*
G01X339950Y2092976D01*
G01X322286Y2100016D01*
G01X303647Y2103781D01*
G01X284636Y2104149D01*
G01X265865Y2101109D01*
G01X247942Y2094758D01*
G01X231444Y2085301D01*
G01X216906Y2073045D01*
G01X204796Y2058385D01*
G01X195505Y2041794D01*
G01X189334Y2023807D01*
G01X186482Y2005007D01*
G01X185611Y1990872D01*
G01X185073Y1985498D01*
G01X184390Y1981363D01*
G01X183640Y1978530D01*
G01X182936Y1976795D01*
G01X182274Y1975683D01*
G01X180383Y1973450D01*
G01X83715Y1876783D01*
G01X76102Y1867506D01*
G01X70446Y1856923D01*
G01X66962Y1845440D01*
G01X65786Y1833498D01*
G01X35814Y1833498D01*
G01X35814Y2191467D01*
G01X37423Y2205750D01*
G01X42170Y2219316D01*
G01X49817Y2231486D01*
G01X59981Y2241649D01*
G01X72151Y2249296D01*
G01X85717Y2254044D01*
G01X100000Y2255653D01*
G01X614498Y2255653D01*
G37*
G36*
G01X3515920Y313290D02*
G01X3516827Y320271D01*
G01X3519489Y326788D01*
G01X3522980Y335335D01*
G01X3524170Y344490D01*
G01X3524170Y434490D01*
G01X3522417Y445557D01*
G01X3517330Y455541D01*
G01X3509407Y463464D01*
G01X3499423Y468551D01*
G01X3488356Y470304D01*
G01X3477398Y470304D01*
G01X3456906Y471897D01*
G01X3436907Y476639D01*
G01X3417881Y484415D01*
G01X3400286Y495039D01*
G01X3629213Y495039D01*
G01X3640469Y491859D01*
G01X3659886Y474979D01*
G01X3659886Y337595D01*
G01X3618093Y295802D01*
G01X3513618Y295802D01*
G01X3515342Y304471D01*
G01X3515920Y313290D01*
G37*
G36*
G01X634187Y4175004D02*
G01X634187Y4137343D01*
G01X624775Y4141734D01*
G01X614498Y4143240D01*
G01X100000Y4143240D01*
G01X85717Y4144849D01*
G01X72151Y4149597D01*
G01X59981Y4157244D01*
G01X49817Y4167407D01*
G01X42170Y4179577D01*
G01X37423Y4193143D01*
G01X35814Y4207426D01*
G01X35814Y4250000D01*
G01X37771Y4309791D01*
G01X43635Y4369325D01*
G01X53380Y4428349D01*
G01X66964Y4486609D01*
G01X84330Y4543856D01*
G01X105402Y4599844D01*
G01X130091Y4654334D01*
G01X141138Y4675000D01*
G01X389186Y4675000D01*
G01X391038Y4652646D01*
G01X396545Y4630901D01*
G01X405555Y4610360D01*
G01X417824Y4591581D01*
G01X433016Y4575078D01*
G01X450717Y4561301D01*
G01X470444Y4550625D01*
G01X491660Y4543342D01*
G01X513785Y4539650D01*
G01X536215Y4539650D01*
G01X558340Y4543342D01*
G01X579556Y4550625D01*
G01X599283Y4561301D01*
G01X616984Y4575078D01*
G01X632176Y4591581D01*
G01X644445Y4610360D01*
G01X653455Y4630901D01*
G01X658962Y4652646D01*
G01X660814Y4675000D01*
G01X658962Y4697354D01*
G01X653455Y4719099D01*
G01X644445Y4739640D01*
G01X632176Y4758419D01*
G01X616984Y4774922D01*
G01X599283Y4788699D01*
G01X579556Y4799375D01*
G01X558340Y4806658D01*
G01X536215Y4810350D01*
G01X513785Y4810350D01*
G01X491660Y4806658D01*
G01X470444Y4799375D01*
G01X450717Y4788699D01*
G01X433016Y4774922D01*
G01X417824Y4758419D01*
G01X405555Y4739640D01*
G01X396545Y4719099D01*
G01X391038Y4697354D01*
G01X389186Y4675000D01*
G01X389186Y4675000D01*
G01X141138Y4675000D01*
G01X158292Y4707093D01*
G01X189882Y4757895D01*
G01X224727Y4806521D01*
G01X262679Y4852765D01*
G01X303573Y4896427D01*
G01X347235Y4937321D01*
G01X393479Y4975273D01*
G01X442105Y5010118D01*
G01X492907Y5041708D01*
G01X545666Y5069909D01*
G01X600156Y5094598D01*
G01X656144Y5115670D01*
G01X713391Y5133036D01*
G01X771651Y5146620D01*
G01X830675Y5156365D01*
G01X890209Y5162229D01*
G01X950000Y5164186D01*
G01X1300197Y5164186D01*
G01X1292589Y5159170D01*
G01X1285725Y5153175D01*
G01X1240824Y5108274D01*
G01X1232421Y5098035D01*
G01X1226178Y5086354D01*
G01X1222333Y5073680D01*
G01X1221035Y5060499D01*
G01X1221035Y4983431D01*
G01X1223054Y4967037D01*
G01X1228990Y4951623D01*
G01X1228990Y4924876D01*
G01X1230743Y4913809D01*
G01X1235830Y4903825D01*
G01X1243753Y4895902D01*
G01X1253737Y4890815D01*
G01X1264804Y4889062D01*
G01X1313804Y4889062D01*
G01X1324871Y4890815D01*
G01X1334855Y4895902D01*
G01X1342778Y4903825D01*
G01X1347865Y4913809D01*
G01X1349618Y4924876D01*
G01X1349618Y4952276D01*
G01X1354536Y4965130D01*
G01X1356749Y4978713D01*
G01X1356163Y4992463D01*
G01X1356163Y5032513D01*
G01X1361486Y5037836D01*
G01X1407114Y5037836D01*
G01X1411732Y5033218D01*
G01X1411732Y4982726D01*
G01X1413570Y4967075D01*
G01X1418982Y4952276D01*
G01X1418982Y4924876D01*
G01X1420735Y4913809D01*
G01X1425822Y4903825D01*
G01X1433745Y4895902D01*
G01X1443729Y4890815D01*
G01X1454796Y4889062D01*
G01X1503796Y4889062D01*
G01X1507834Y4889290D01*
G01X1522212Y4884217D01*
G01X1537360Y4882497D01*
G01X1559534Y4880630D01*
G01X1581082Y4875080D01*
G01X1601399Y4866003D01*
G01X1609767Y4862679D01*
G01X1618700Y4861547D01*
G01X1708700Y4861547D01*
G01X1717229Y4862578D01*
G01X1725268Y4865610D01*
G01X1735239Y4870088D01*
G01X1745667Y4873363D01*
G01X1754886Y4864144D01*
G01X1754886Y4811137D01*
G01X1729125Y4785376D01*
G01X1721512Y4776100D01*
G01X1715855Y4765516D01*
G01X1712372Y4754033D01*
G01X1711195Y4742091D01*
G01X1711195Y4485752D01*
G01X1712372Y4473810D01*
G01X1715855Y4462326D01*
G01X1721512Y4451743D01*
G01X1729125Y4442467D01*
G01X2008886Y4162706D01*
G01X2008886Y2257617D01*
G01X2005813Y2254543D01*
G01X2005813Y2424995D01*
G01X2004060Y2436062D01*
G01X1998973Y2446046D01*
G01X1991050Y2453969D01*
G01X1981066Y2459056D01*
G01X1969999Y2460809D01*
G01X1869999Y2460809D01*
G01X1860873Y2459627D01*
G01X1852350Y2456159D01*
G01X1844993Y2450634D01*
G01X1837635Y2456159D01*
G01X1829112Y2459627D01*
G01X1819986Y2460809D01*
G01X1719986Y2460809D01*
G01X1710867Y2459629D01*
G01X1702348Y2456165D01*
G01X1694993Y2450646D01*
G01X1687637Y2456165D01*
G01X1679119Y2459629D01*
G01X1669999Y2460809D01*
G01X1626999Y2460809D01*
G01X1618013Y2462116D01*
G01X1609772Y2465929D01*
G01X1564002Y2511700D01*
G01X1553954Y2519410D01*
G01X1542254Y2524256D01*
G01X1529697Y2525909D01*
G01X1498964Y2525909D01*
G01X1496556Y2527828D01*
G01X1484486Y2536023D01*
G01X1470917Y2541381D01*
G01X1456504Y2543641D01*
G01X1441945Y2542695D01*
G01X1427946Y2538589D01*
G01X1415183Y2531521D01*
G01X1404275Y2521833D01*
G01X1395749Y2509995D01*
G01X1390018Y2496579D01*
G01X1387360Y2482234D01*
G01X1387902Y2467655D01*
G01X1391620Y2453547D01*
G01X1381403Y2458945D01*
G01X1370000Y2460809D01*
G01X1270000Y2460809D01*
G01X1260875Y2459627D01*
G01X1252352Y2456159D01*
G01X1244994Y2450634D01*
G01X1237636Y2456159D01*
G01X1229113Y2459627D01*
G01X1219987Y2460809D01*
G01X1119988Y2460809D01*
G01X1110868Y2459629D01*
G01X1102350Y2456165D01*
G01X1094994Y2450646D01*
G01X1087638Y2456165D01*
G01X1079120Y2459629D01*
G01X1070000Y2460809D01*
G01X970001Y2460809D01*
G01X960875Y2459627D01*
G01X952352Y2456159D01*
G01X944994Y2450634D01*
G01X937636Y2456159D01*
G01X929113Y2459627D01*
G01X919988Y2460809D01*
G01X819988Y2460809D01*
G01X810869Y2459629D01*
G01X802350Y2456165D01*
G01X794995Y2450646D01*
G01X787639Y2456165D01*
G01X779121Y2459629D01*
G01X770001Y2460809D01*
G01X670001Y2460809D01*
G01X659725Y2459303D01*
G01X650312Y2454912D01*
G01X650312Y3937919D01*
G01X654989Y3925329D01*
G01X657833Y3912202D01*
G01X658787Y3898805D01*
G01X658787Y3250284D01*
G01X658621Y3245183D01*
G01X658244Y3241030D01*
G01X657197Y3234390D01*
G01X653953Y3219036D01*
G01X654408Y3203349D01*
G01X658536Y3188209D01*
G01X666106Y3174462D01*
G01X676694Y3162880D01*
G01X689708Y3154109D01*
G01X704418Y3148643D01*
G01X720001Y3146786D01*
G01X735584Y3148643D01*
G01X750294Y3154109D01*
G01X763308Y3162880D01*
G01X773896Y3174462D01*
G01X781466Y3188209D01*
G01X785594Y3203349D01*
G01X786049Y3219036D01*
G01X782805Y3234390D01*
G01X781759Y3241030D01*
G01X781381Y3245183D01*
G01X781215Y3250284D01*
G01X781215Y3898805D01*
G01X782844Y3916277D01*
G01X787675Y3933146D01*
G01X795542Y3948831D01*
G01X802791Y3943590D01*
G01X811113Y3940308D01*
G01X819988Y3939191D01*
G01X821251Y3939191D01*
G01X821474Y3936905D01*
G01X821474Y3277015D01*
G01X811047Y3266244D01*
G01X803305Y3253405D01*
G01X798645Y3239156D01*
G01X797305Y3224224D01*
G01X799353Y3209373D01*
G01X804684Y3195362D01*
G01X813027Y3182906D01*
G01X823955Y3172642D01*
G01X836908Y3165095D01*
G01X851226Y3160651D01*
G01X866176Y3159536D01*
G01X880995Y3161808D01*
G01X894925Y3167351D01*
G01X907253Y3175881D01*
G01X917351Y3186962D01*
G01X924701Y3200028D01*
G01X928929Y3214411D01*
G01X929818Y3229377D01*
G01X927322Y3244159D01*
G01X921570Y3258004D01*
G01X919481Y3261851D01*
G01X918502Y3264130D01*
G01X918502Y3936905D01*
G01X918725Y3939191D01*
G01X919988Y3939191D01*
G01X929113Y3940373D01*
G01X937636Y3943841D01*
G01X944994Y3949366D01*
G01X952352Y3943841D01*
G01X960875Y3940373D01*
G01X970001Y3939191D01*
G01X1070000Y3939191D01*
G01X1079120Y3940371D01*
G01X1087638Y3943835D01*
G01X1094994Y3949354D01*
G01X1102350Y3943835D01*
G01X1110868Y3940371D01*
G01X1119988Y3939191D01*
G01X1219987Y3939191D01*
G01X1229113Y3940373D01*
G01X1237636Y3943841D01*
G01X1244994Y3949366D01*
G01X1252352Y3943841D01*
G01X1260875Y3940373D01*
G01X1270000Y3939191D01*
G01X1370000Y3939191D01*
G01X1379119Y3940371D01*
G01X1387638Y3943835D01*
G01X1394993Y3949354D01*
G01X1402349Y3943835D01*
G01X1410867Y3940371D01*
G01X1419987Y3939191D01*
G01X1421250Y3939191D01*
G01X1421473Y3936905D01*
G01X1421473Y3372640D01*
G01X1421313Y3372372D01*
G01X1419225Y3369584D01*
G01X1411271Y3356790D01*
G01X1406409Y3342531D01*
G01X1404891Y3327543D01*
G01X1406796Y3312599D01*
G01X1412024Y3298471D01*
G01X1420306Y3285887D01*
G01X1431215Y3275497D01*
G01X1444187Y3267837D01*
G01X1458554Y3263303D01*
G01X1473573Y3262128D01*
G01X1488469Y3264374D01*
G01X1502475Y3269924D01*
G01X1514866Y3278492D01*
G01X1525004Y3289635D01*
G01X1532365Y3302779D01*
G01X1536569Y3317246D01*
G01X1537400Y3332287D01*
G01X1534814Y3347129D01*
G01X1528946Y3361004D01*
G01X1520097Y3373196D01*
G01X1518501Y3375101D01*
G01X1518501Y3936905D01*
G01X1518724Y3939191D01*
G01X1519987Y3939191D01*
G01X1529112Y3940373D01*
G01X1537635Y3943841D01*
G01X1544993Y3949366D01*
G01X1552351Y3943841D01*
G01X1560874Y3940373D01*
G01X1569999Y3939191D01*
G01X1669999Y3939191D01*
G01X1679119Y3940371D01*
G01X1687637Y3943835D01*
G01X1694993Y3949354D01*
G01X1702348Y3943835D01*
G01X1710867Y3940371D01*
G01X1719986Y3939191D01*
G01X1721249Y3939191D01*
G01X1721472Y3936905D01*
G01X1721472Y2623567D01*
G01X1719553Y2621159D01*
G01X1711134Y2608660D01*
G01X1705753Y2594583D01*
G01X1703690Y2579655D01*
G01X1705051Y2564646D01*
G01X1709766Y2550332D01*
G01X1717591Y2537452D01*
G01X1728121Y2526672D01*
G01X1740814Y2518547D01*
G01X1755014Y2513498D01*
G01X1769986Y2511786D01*
G01X1784959Y2513498D01*
G01X1799158Y2518547D01*
G01X1811851Y2526672D01*
G01X1822382Y2537452D01*
G01X1830207Y2550332D01*
G01X1834921Y2564646D01*
G01X1836282Y2579655D01*
G01X1834219Y2594583D01*
G01X1828839Y2608660D01*
G01X1820419Y2621159D01*
G01X1818500Y2623567D01*
G01X1818500Y3936905D01*
G01X1818724Y3939191D01*
G01X1819986Y3939191D01*
G01X1831053Y3940944D01*
G01X1841037Y3946031D01*
G01X1848960Y3953954D01*
G01X1854047Y3963938D01*
G01X1855800Y3975005D01*
G01X1855800Y4175004D01*
G01X1854047Y4186071D01*
G01X1848960Y4196055D01*
G01X1841037Y4203978D01*
G01X1831053Y4209065D01*
G01X1819986Y4210818D01*
G01X1719986Y4210818D01*
G01X1710867Y4209638D01*
G01X1702348Y4206174D01*
G01X1694993Y4200655D01*
G01X1687637Y4206174D01*
G01X1679119Y4209638D01*
G01X1669999Y4210818D01*
G01X1611161Y4210818D01*
G01X1602175Y4212126D01*
G01X1593934Y4215939D01*
G01X1371271Y4438602D01*
G01X1365768Y4445333D01*
G01X1361714Y4453024D01*
G01X1361714Y4473487D01*
G01X1360400Y4483101D01*
G01X1356553Y4492009D01*
G01X1350456Y4499558D01*
G01X1342556Y4505193D01*
G01X1333434Y4508500D01*
G01X1342556Y4511807D01*
G01X1350456Y4517442D01*
G01X1356553Y4524991D01*
G01X1360400Y4533899D01*
G01X1361714Y4543513D01*
G01X1361714Y4624160D01*
G01X1360201Y4634462D01*
G01X1354838Y4656079D01*
G01X1351601Y4678115D01*
G01X1350864Y4693242D01*
G01X1418982Y4693242D01*
G01X1420735Y4682175D01*
G01X1425822Y4672191D01*
G01X1433745Y4664268D01*
G01X1443729Y4659181D01*
G01X1454796Y4657428D01*
G01X1503796Y4657428D01*
G01X1514863Y4659181D01*
G01X1524847Y4664268D01*
G01X1532770Y4672191D01*
G01X1537857Y4682175D01*
G01X1539610Y4693242D01*
G01X1539610Y4810742D01*
G01X1537857Y4821809D01*
G01X1532770Y4831793D01*
G01X1524847Y4839716D01*
G01X1514863Y4844803D01*
G01X1503796Y4846556D01*
G01X1454796Y4846556D01*
G01X1443729Y4844803D01*
G01X1433745Y4839716D01*
G01X1425822Y4831793D01*
G01X1420735Y4821809D01*
G01X1418982Y4810742D01*
G01X1418982Y4693242D01*
G01X1418982Y4693242D01*
G01X1350864Y4693242D01*
G01X1350518Y4700360D01*
G01X1350518Y4751992D01*
G01X1349618Y4762453D01*
G01X1349618Y4810742D01*
G01X1347865Y4821809D01*
G01X1342778Y4831793D01*
G01X1334855Y4839716D01*
G01X1324871Y4844803D01*
G01X1313804Y4846556D01*
G01X1295057Y4847231D01*
G01X1276408Y4849250D01*
G01X1266231Y4854367D01*
G01X1255282Y4857510D01*
G01X1243940Y4858570D01*
G01X1213400Y4858570D01*
G01X1191960Y4859925D01*
G01X1170860Y4863968D01*
G01X1150438Y4870634D01*
G01X1143939Y4872531D01*
G01X1137200Y4873170D01*
G01X1047200Y4873170D01*
G01X1039028Y4872225D01*
G01X1031287Y4869441D01*
G01X1013792Y4862236D01*
G01X995465Y4857535D01*
G01X977434Y4861491D01*
G01X959938Y4867375D01*
G01X953439Y4869272D01*
G01X946700Y4869912D01*
G01X856700Y4869912D01*
G01X845633Y4868159D01*
G01X835649Y4863072D01*
G01X827726Y4855148D01*
G01X822639Y4845165D01*
G01X820886Y4834098D01*
G01X820886Y4754098D01*
G01X822015Y4745176D01*
G01X825331Y4736817D01*
G01X832418Y4721546D01*
G01X837338Y4705446D01*
G01X839996Y4688822D01*
G01X837507Y4672032D01*
G01X832949Y4655682D01*
G01X826392Y4640027D01*
G01X823625Y4632307D01*
G01X822686Y4624160D01*
G01X821367Y4609738D01*
G01X817455Y4595793D01*
G01X811079Y4582790D01*
G01X802451Y4571158D01*
G01X676716Y4445422D01*
G01X669104Y4436146D01*
G01X663447Y4425563D01*
G01X659963Y4414080D01*
G01X658787Y4402138D01*
G01X658787Y4251204D01*
G01X657638Y4236509D01*
G01X654217Y4222171D01*
G01X648608Y4208539D01*
G01X640948Y4195946D01*
G01X635919Y4186007D01*
G01X634187Y4175004D01*
G37*
G36*
G01X620014Y2011905D02*
G01X754306Y2146197D01*
G01X762015Y2156244D01*
G01X766862Y2167945D01*
G01X768515Y2180501D01*
G01X768515Y2186896D01*
G01X768738Y2189182D01*
G01X770001Y2189182D01*
G01X779121Y2190362D01*
G01X787639Y2193826D01*
G01X794995Y2199345D01*
G01X802350Y2193826D01*
G01X810869Y2190362D01*
G01X819988Y2189182D01*
G01X821365Y2189182D01*
G01X821588Y2186896D01*
G01X821588Y2140500D01*
G01X821076Y2137058D01*
G01X810362Y2132282D01*
G01X801766Y2124301D01*
G01X796209Y2113971D01*
G01X794288Y2102400D01*
G01X794288Y2012400D01*
G01X796209Y2000829D01*
G01X801766Y1990499D01*
G01X810362Y1982518D01*
G01X821076Y1977742D01*
G01X821588Y1974300D01*
G01X821588Y1813145D01*
G01X820352Y1800819D01*
G01X816694Y1788983D01*
G01X814937Y1783722D01*
G01X811585Y1783236D01*
G01X774186Y1783236D01*
G01X770833Y1783722D01*
G01X766117Y1794559D01*
G01X758130Y1803271D01*
G01X747743Y1808909D01*
G01X736086Y1810859D01*
G01X649685Y1810859D01*
G01X638234Y1808979D01*
G01X627985Y1803536D01*
G01X620014Y1795102D01*
G01X620014Y2011905D01*
G37*
G36*
G01X1033296Y1773481D02*
G01X1026414Y1764814D01*
G01X1026414Y1788032D01*
G01X1025742Y1796078D01*
G01X1025742Y1829710D01*
G01X1026265Y1833956D01*
G01X1046264Y1853955D01*
G01X1052551Y1853399D01*
G01X1082650Y1853399D01*
G01X1093717Y1855151D01*
G01X1103701Y1860238D01*
G01X1111624Y1868162D01*
G01X1116711Y1878145D01*
G01X1118464Y1889213D01*
G01X1118464Y1947711D01*
G01X1116711Y1958779D01*
G01X1111624Y1968762D01*
G01X1103701Y1976686D01*
G01X1093717Y1981773D01*
G01X1082650Y1983525D01*
G01X1052551Y1983525D01*
G01X1042244Y1982010D01*
G01X1032809Y1977593D01*
G01X1025045Y1970648D01*
G01X1019608Y1961762D01*
G01X1008607Y1953516D01*
G01X943595Y1888505D01*
G01X935886Y1878457D01*
G01X931039Y1866756D01*
G01X929386Y1854200D01*
G01X929386Y1845130D01*
G01X928714Y1837084D01*
G01X928714Y1810859D01*
G01X918840Y1810859D01*
G01X918616Y1813145D01*
G01X918616Y1974300D01*
G01X919129Y1977742D01*
G01X929843Y1982518D01*
G01X938439Y1990499D01*
G01X943995Y2000829D01*
G01X945916Y2012400D01*
G01X945916Y2102400D01*
G01X943995Y2113971D01*
G01X938439Y2124301D01*
G01X929843Y2132282D01*
G01X919129Y2137058D01*
G01X918616Y2140500D01*
G01X918616Y2186896D01*
G01X918840Y2189182D01*
G01X919988Y2189182D01*
G01X929113Y2190364D01*
G01X937636Y2193832D01*
G01X944994Y2199357D01*
G01X952352Y2193832D01*
G01X960875Y2190364D01*
G01X970001Y2189182D01*
G01X1024299Y2189182D01*
G01X1033285Y2187874D01*
G01X1041525Y2184061D01*
G01X1055146Y2170441D01*
G01X1055492Y2167381D01*
G01X1058506Y2152184D01*
G01X1064964Y2138102D01*
G01X1074513Y2125902D01*
G01X1086632Y2116250D01*
G01X1100660Y2109674D01*
G01X1115831Y2106533D01*
G01X1131317Y2106997D01*
G01X1146273Y2111042D01*
G01X1159882Y2118447D01*
G01X1171401Y2128807D01*
G01X1180202Y2141557D01*
G01X1185805Y2156001D01*
G01X1187903Y2171352D01*
G01X1186382Y2186770D01*
G01X1191512Y2184061D01*
G01X1205133Y2170441D01*
G01X1205479Y2167381D01*
G01X1208484Y2152211D01*
G01X1214922Y2138149D01*
G01X1224441Y2125961D01*
G01X1236525Y2116309D01*
G01X1250515Y2109718D01*
G01X1265652Y2106547D01*
G01X1281111Y2106969D01*
G01X1296053Y2110959D01*
G01X1309664Y2118302D01*
G01X1321204Y2128598D01*
G01X1325892Y2123655D01*
G01X1325376Y2123146D01*
G01X1201315Y1999085D01*
G01X1193702Y1989809D01*
G01X1188046Y1979226D01*
G01X1184562Y1967742D01*
G01X1183386Y1955800D01*
G01X1183386Y1819115D01*
G01X1168476Y1804205D01*
G01X1168476Y1819187D01*
G01X1166723Y1830255D01*
G01X1161636Y1840238D01*
G01X1153713Y1848162D01*
G01X1143729Y1853249D01*
G01X1132662Y1855001D01*
G01X1102563Y1855001D01*
G01X1091496Y1853249D01*
G01X1081512Y1848162D01*
G01X1073589Y1840238D01*
G01X1068502Y1830255D01*
G01X1066749Y1819187D01*
G01X1066749Y1806934D01*
G01X1033296Y1773481D01*
G37*
G36*
G01X1070000Y4210818D02*
G01X970001Y4210818D01*
G01X959859Y4209352D01*
G01X950547Y4205075D01*
G01X950214Y4213104D01*
G01X950214Y4354740D01*
G01X950534Y4357472D01*
G01X961738Y4361231D01*
G01X971109Y4368432D01*
G01X977626Y4378290D01*
G01X980579Y4389733D01*
G01X983000Y4389984D01*
G01X1009100Y4389984D01*
G01X1012542Y4389471D01*
G01X1017318Y4378757D01*
G01X1025299Y4370161D01*
G01X1035629Y4364605D01*
G01X1047200Y4362684D01*
G01X1137200Y4362684D01*
G01X1148267Y4364437D01*
G01X1158251Y4369524D01*
G01X1166174Y4377447D01*
G01X1171261Y4387431D01*
G01X1173014Y4398498D01*
G01X1173014Y4478498D01*
G01X1171261Y4489565D01*
G01X1166174Y4499548D01*
G01X1158251Y4507472D01*
G01X1148267Y4512559D01*
G01X1137200Y4514312D01*
G01X1047200Y4514312D01*
G01X1035629Y4512391D01*
G01X1025299Y4506834D01*
G01X1017318Y4498238D01*
G01X1012542Y4487524D01*
G01X1009100Y4487012D01*
G01X983000Y4487012D01*
G01X977468Y4488388D01*
G01X971372Y4497610D01*
G01X962753Y4504534D01*
G01X952434Y4508500D01*
G01X961556Y4511807D01*
G01X969456Y4517442D01*
G01X975553Y4524991D01*
G01X979400Y4533899D01*
G01X980714Y4543513D01*
G01X980714Y4624160D01*
G01X979775Y4632307D01*
G01X977008Y4640027D01*
G01X970451Y4655682D01*
G01X965893Y4672032D01*
G01X963404Y4688822D01*
G01X966528Y4707385D01*
G01X972468Y4725247D01*
G01X985509Y4728729D01*
G01X998785Y4731168D01*
G01X1017952Y4727949D01*
G01X1036770Y4723095D01*
G01X1047200Y4721543D01*
G01X1137200Y4721543D01*
G01X1143939Y4722182D01*
G01X1150438Y4724079D01*
G01X1170860Y4730745D01*
G01X1191960Y4734788D01*
G01X1213400Y4736142D01*
G01X1216288Y4736142D01*
G01X1223841Y4721260D01*
G01X1228090Y4705120D01*
G01X1228090Y4700360D01*
G01X1226947Y4685642D01*
G01X1223547Y4671277D01*
G01X1217969Y4657609D01*
G01X1210349Y4644966D01*
G01X1205392Y4635084D01*
G01X1203686Y4624160D01*
G01X1203686Y4543513D01*
G01X1205000Y4533899D01*
G01X1208847Y4524991D01*
G01X1214944Y4517442D01*
G01X1222844Y4511807D01*
G01X1231966Y4508500D01*
G01X1222844Y4505193D01*
G01X1214944Y4499558D01*
G01X1208847Y4492009D01*
G01X1205000Y4483101D01*
G01X1203686Y4473487D01*
G01X1203686Y4392840D01*
G01X1205439Y4381773D01*
G01X1210526Y4371789D01*
G01X1218449Y4363866D01*
G01X1228433Y4358779D01*
G01X1239500Y4357026D01*
G01X1313954Y4357026D01*
G01X1329798Y4342856D01*
G01X1461836Y4210818D01*
G01X1419987Y4210818D01*
G01X1410867Y4209638D01*
G01X1402349Y4206174D01*
G01X1394993Y4200655D01*
G01X1387638Y4206174D01*
G01X1379119Y4209638D01*
G01X1370000Y4210818D01*
G01X1270000Y4210818D01*
G01X1260875Y4209636D01*
G01X1252352Y4206168D01*
G01X1244994Y4200643D01*
G01X1237636Y4206168D01*
G01X1229113Y4209636D01*
G01X1219987Y4210818D01*
G01X1119988Y4210818D01*
G01X1110868Y4209638D01*
G01X1102350Y4206174D01*
G01X1094994Y4200655D01*
G01X1087638Y4206174D01*
G01X1079120Y4209638D01*
G01X1070000Y4210818D01*
G37*
G54D10*
G01X614498Y2255653D02*
G03X634187Y2261550I0J35814D01*
G01X634187Y2224996D01*
G03X661177Y2190286I35814J0D01*
G01X537195Y2066305D01*
G03X522986Y2032000I34305J-34305D01*
G01X522986Y1701800D01*
G03X537195Y1667495I48514J0D01*
G01X581645Y1623045D01*
G03X615950Y1608836I34305J34305D01*
G01X813871Y1608836D01*
G01X813871Y1543725D01*
G03X849685Y1507911I35814J0D01*
G01X888307Y1507911D01*
G02X905534Y1502791I0J-31538D01*
G01X907428Y1500897D01*
G03X941732Y1486687I34305J34305D01*
G01X1059487Y1486687D01*
G02X1075963Y1481152I0J-27288D01*
G03X1097587Y1473887I21624J28549D01*
G01X1137587Y1473887D01*
G03X1173401Y1509701I0J35814D01*
G01X1173401Y1521329D01*
G01X1213021Y1481709D01*
G03X1256306Y1463780I43285J43285D01*
G02X1283535Y1460319I0J-108838D01*
G03X1292495Y1459180I8960J34675D01*
G01X1392495Y1459180D01*
G03X1428309Y1494994I0J35814D01*
G01X1428309Y1554994D01*
G03X1392495Y1590808I-35814J0D01*
G01X1292495Y1590808D01*
G03X1283535Y1589669I0J-35814D01*
G02X1279222Y1588648I-27229J105377D01*
G01X1242733Y1625136D01*
G01X1242188Y1704777D01*
G01X1287885Y1750474D01*
G03X1295111Y1759179I-43285J43285D01*
G01X1327213Y1759179D01*
G03X1357775Y1759179I15281J65813D01*
G01X1392495Y1759179D01*
G03X1411558Y1764675I0J35814D01*
G02X1475856Y1786141I76187J-121169D01*
G03X1542776Y1674174I66638J-36154D01*
G03X1608861Y1786636I-282J75813D01*
G01X1889714Y1786636D01*
G01X2651179Y1025171D01*
G01X2652268Y1023883D01*
G01X2652735Y1023196D01*
G03X2785364Y1041400I65065J18204D01*
G01X2785364Y1054100D01*
G03X2765575Y1101875I-67564J0D01*
G01X1965475Y1901975D01*
G03X1917700Y1921764I-47775J-47775D01*
G01X1371701Y1921764D01*
G03X1323926Y1901975I0J-67564D01*
G01X1312759Y1890807D01*
G01X1305814Y1890807D01*
G01X1305814Y1930444D01*
G01X1394017Y2018647D01*
G01X1917700Y2018647D01*
G03X1960985Y2036576I0J61214D01*
G01X2113385Y2188976D01*
G03X2131314Y2232261I-43285J43285D01*
G01X2131314Y4188061D01*
G03X2113385Y4231346I-61214J0D01*
G01X1833623Y4511107D01*
G01X1833623Y4716735D01*
G01X1859385Y4742497D01*
G03X1877314Y4785781I-43285J43285D01*
G01X1877314Y4889500D01*
G03X1859385Y4932785I-61214J0D01*
G01X1811524Y4980646D01*
G03X1768239Y4998575I-43285J-43285D01*
G02X1725268Y5009112I0J92887D01*
G03X1708700Y5013175I-16568J-31751D01*
G01X1675115Y5013175D01*
G03X1651000Y5017625I-24115J-63114D01*
G01X1565346Y5017625D01*
G01X1552471Y5030501D01*
G03X1546860Y5035519I-47775J-47775D01*
G01X1546860Y5061204D01*
G03X1527071Y5108979I-67564J0D01*
G01X1482875Y5153175D01*
G03X1468403Y5164186I-47775J-47775D01*
G01X3650000Y5164186D01*
G02X4564186Y4250000I0J-914186D01*
G01X4564186Y950000D01*
G02X3650000Y35814I-914186J0D01*
G01X950000Y35814D01*
G02X35814Y950000I0J914186D01*
G01X35814Y2191467D01*
G02X100000Y2255653I64186J0D01*
G01X614498Y2255653D01*
G01X65786Y925544D02*
G03X83715Y882259I61214J0D01*
G01X160699Y805276D01*
G03X203984Y787347I43285J43285D01*
G01X628926Y787347D01*
G02X662686Y670761I-184426J-116586D01*
G01X662686Y546100D01*
G03X680615Y502815I61214J0D01*
G01X752551Y430880D01*
G03X795835Y412951I43285J43285D01*
G01X868614Y412951D01*
G02X892887Y374374I-48355J-57351D01*
G03X956488Y289286I63601J-18774D01*
G03X1020089Y374374I0J66314D01*
G02X1034862Y403351I72629J-18774D01*
G01X1127620Y403351D01*
G03X1163434Y439165I0J35814D01*
G01X1163434Y504577D01*
G03X1183620Y498347I20185J29584D01*
G01X1308621Y498347D01*
G03X1344435Y534161I0J35814D01*
G01X1344435Y604161D01*
G03X1308621Y639975I-35814J0D01*
G01X1300923Y639975D01*
G02X1243485Y658365I0J98890D01*
G01X1194409Y707441D01*
G03X1152030Y725364I-43285J-43285D01*
G03X1149708Y727348I-24409J-26207D01*
G02X1126334Y775357I37615J48008D01*
G01X1126334Y823897D01*
G03X1116594Y857026I-61214J0D01*
G01X1116594Y891761D01*
G03X1080780Y927575I-35814J0D01*
G01X1000133Y927575D01*
G03X965120Y899295I0J-35814D01*
G03X930107Y927575I-35013J-7534D01*
G01X849460Y927575D01*
G03X833593Y923869I0J-35814D01*
G02X773260Y909775I-60334J122092D01*
G01X229339Y909775D01*
G01X188214Y950900D01*
G01X188214Y1178501D01*
G03X292192Y1092787I103887J20100D01*
G01X294575Y1092803D01*
G01X295636Y1092846D01*
G01X297061Y1092903D01*
G01X299602Y1093005D01*
G03X302599Y1093252I-1437J35785D01*
G01X311640Y1094380D01*
G01X313782Y1094714D01*
G01X325201Y1096847D01*
G01X325734Y1096359D01*
G01X364197Y1057895D01*
G03X398502Y1043686I34305J34305D01*
G01X1592833Y1043686D01*
G01X1595241Y1041767D01*
G03X1704614Y1092200I43059J50433D01*
G03X1595241Y1142633I-66314J0D01*
G01X1592833Y1140714D01*
G01X418597Y1140714D01*
G01X394343Y1164968D01*
G01X393855Y1165501D01*
G01X395988Y1176920D01*
G01X396322Y1179062D01*
G01X397450Y1188103D01*
G03X397697Y1191100I-35538J4435D01*
G01X397799Y1193641D01*
G01X397856Y1195066D01*
G01X397899Y1196127D01*
G01X397915Y1198509D01*
G03X326693Y1298600I-105814J91D01*
G03X397915Y1398600I-34592J100000D01*
G03X326693Y1498600I-105814J0D01*
G03X326693Y1698600I-34592J100000D01*
G03X397915Y1798599I-34592J100000D01*
G03X326693Y1898599I-105814J0D01*
G03X356069Y2082888I-34592J100000D01*
G03X186482Y2005007I-63968J-84289D01*
G01X185611Y1990872D01*
G01X185073Y1985498D01*
G01X184390Y1981363D01*
G01X183640Y1978530D01*
G01X182936Y1976795D01*
G01X182274Y1975683D01*
G01X180383Y1973450D01*
G01X83715Y1876783D01*
G03X65786Y1833498I43285J-43285D01*
G01X65786Y925544D01*
G01X1392495Y1309193D02*
G03X1428309Y1345007I0J35814D01*
G01X1428309Y1405007D01*
G03X1392495Y1440821I-35814J0D01*
G01X1292495Y1440821D01*
G03X1256681Y1405007I0J-35814D01*
G01X1256681Y1345007D01*
G03X1292495Y1309193I35814J0D01*
G01X1392495Y1309193D01*
G01X1408073Y759218D02*
G02X1394477Y734971I-57203J16138D01*
G01X1383619Y734971D01*
G03X1347805Y699157I0J-35814D01*
G01X1347805Y629157D01*
G03X1383619Y593343I35814J0D01*
G01X1442117Y593343D01*
G02X1485611Y591695I0J-574699D01*
G03X1516579Y583283I30969J52803D01*
G01X1518820Y583283D01*
G02X1581510Y571005I0J-166185D01*
G03X1595020Y568359I13510J33168D01*
G01X1681420Y568359D01*
G03X1717234Y604173I0J35814D01*
G01X1717234Y684821D01*
G03X1681420Y720635I-35814J0D01*
G01X1595020Y720635D01*
G03X1581510Y717989I0J-35814D01*
G02X1544554Y707716I-62690J153907D01*
G02X1542016Y712396I83620J48376D01*
G02X1534249Y749690I208882J62960D01*
G02X1546576Y789825I138336J-20530D01*
G03X1549320Y797827I-32269J15535D01*
G03X1584333Y769546I35013J7534D01*
G01X1664980Y769546D01*
G03X1700648Y802133I0J35814D01*
G01X1703080Y802386D01*
G01X1732533Y802386D01*
G01X1734941Y800467D01*
G03X1844314Y850900I43059J50433D01*
G03X1734941Y901333I-66314J0D01*
G01X1732533Y899414D01*
G01X1703080Y899414D01*
G02X1699866Y899860I0J11811D01*
G03X1664980Y927575I-34886J-8099D01*
G01X1584333Y927575D01*
G03X1549320Y899295I0J-35814D01*
G03X1514307Y927575I-35013J-7534D01*
G01X1433660Y927575D01*
G03X1397846Y891761I0J-35814D01*
G01X1397846Y805360D01*
G03X1399711Y793953I35814J0D01*
G02X1408073Y759218I-192825J-64793D01*
G01X1466680Y1449988D02*
G03X1618308Y1449988I75814J0D01*
G03X1466680Y1449988I-75814J0D01*
G01X3154582Y1083738D02*
G02X3132124Y1008014I-138888J0D01*
G03X3126332Y988488I30023J-19526D01*
G01X3126332Y928488D01*
G03X3130295Y912114I35814J0D01*
G01X3087460Y912114D01*
G02X3084728Y912434I0J11811D01*
G03X3049360Y942614I-35368J-5634D01*
G01X2968713Y942614D01*
G03X2933700Y914334I0J-35814D01*
G03X2898687Y942614I-35013J-7534D01*
G01X2818040Y942614D01*
G03X2782672Y912434I0J-35814D01*
G02X2779940Y912114I-2732J11491D01*
G01X2641600Y912114D01*
G03X2607295Y897905I0J-48514D01*
G01X2416795Y707405D01*
G03X2402586Y673100I34305J-34305D01*
G01X2402586Y406400D01*
G03X2416795Y372095I48514J0D01*
G01X2467595Y321295D01*
G03X2501900Y307086I34305J34305D01*
G01X2545333Y307086D01*
G01X2547741Y305167D01*
G03X2562134Y295802I43059J50433D01*
G01X2401707Y295802D01*
G01X2244105Y453405D01*
G03X2209800Y467614I-34305J-34305D01*
G01X2064767Y467614D01*
G01X2062359Y469533D01*
G03X1952986Y419100I-43059J-50433D01*
G03X2062359Y368667I66314J0D01*
G01X2064767Y370586D01*
G01X2189705Y370586D01*
G01X2347307Y212983D01*
G03X2381612Y198774I34305J34305D01*
G01X3638188Y198774D01*
G03X3672493Y212983I0J48514D01*
G01X3742705Y283195D01*
G03X3756914Y317500I-34305J34305D01*
G01X3756914Y495094D01*
G03X3753993Y511674I-48514J0D01*
G01X3863806Y511674D01*
G03X3899620Y547488I0J35814D01*
G01X3899620Y607488D01*
G03X3863806Y643302I-35814J0D01*
G01X3743806Y643302D01*
G03X3738912Y642966I0J-35814D01*
G02X3676806Y638702I-62106J450165D01*
G03X3633521Y620773I0J-61214D01*
G01X3630215Y617467D01*
G01X3401314Y617467D01*
G01X3401314Y891334D01*
G03X3383385Y934619I-61214J0D01*
G01X3359713Y958291D01*
G02X3310813Y1010141I860949J860949D01*
G02X3289710Y1083738I117785J73597D01*
G01X3289710Y3875947D01*
G03X3269921Y3923722I-67564J0D01*
G01X2896427Y4297217D01*
G02X2841602Y4365883I278894J278894D01*
G03X2830389Y4377096I-30303J-19089D01*
G02X2761723Y4431920I210228J333719D01*
G01X2700868Y4492775D01*
G03X2653094Y4512564I-47775J-47775D01*
G01X2567986Y4512564D01*
G01X2518503Y4562047D01*
G02X2520540Y4583081I388891J-27047D01*
G03X2520814Y4587499I-35541J4417D01*
G01X2520814Y4707498D01*
G03X2520379Y4713060I-35814J0D01*
G02X2517564Y4749098I229243J36038D01*
G03X2497775Y4796873I-67564J0D01*
G01X2446975Y4847673D01*
G03X2399200Y4867462I-47775J-47775D01*
G01X2200800Y4867462D01*
G03X2153025Y4847673I0J-67564D01*
G01X2102225Y4796873D01*
G03X2082436Y4749098I47775J-47775D01*
G02X2079621Y4713060I-232058J0D01*
G03X2079186Y4707498I35379J-5562D01*
G01X2079186Y4587499D01*
G03X2115000Y4551685I35814J0D01*
G01X2181138Y4551685D01*
G01X2181204Y4550159D01*
G02X2147449Y4396409I-532044J36229D01*
G02X2133228Y4392376I-45915J134793D01*
G03X2105386Y4357460I7971J-34916D01*
G01X2105386Y4276813D01*
G03X2141200Y4240999I35814J0D01*
G01X2227600Y4240999D01*
G03X2262696Y4269673I0J35814D01*
G02X2265409Y4280556I125999J-25631D01*
G02X2268465Y4280057I-4981J-40135D01*
G02X2276408Y4267848I-311838J-211551D01*
G03X2306800Y4250980I30392J18946D01*
G01X2321522Y4250980D01*
G03X2352078Y4250980I15278J65814D01*
G01X2366800Y4250980D01*
G03X2402614Y4286794I0J35814D01*
G01X2402614Y4294319D01*
G02X2411104Y4268755I-131761J-57950D01*
G03X2446000Y4240999I34896J8058D01*
G01X2532400Y4240999D01*
G03X2538796Y4241574I0J35814D01*
G02X2627650Y4249572I88854J-489563D01*
G01X2634802Y4249572D01*
G03X2656878Y4250980I6798J67221D01*
G01X2671600Y4250980D01*
G03X2707414Y4286794I0J35814D01*
G01X2707414Y4287862D01*
G02X2720998Y4267704I-320135J-230386D01*
G03X2732211Y4256491I30303J19089D01*
G02X2800877Y4201667I-210228J-333719D01*
G01X3154582Y3847961D01*
G01X3154582Y1083738D01*
G01X2164186Y1050000D02*
G03X2435814Y1050000I135814J0D01*
G03X2164186Y1050000I-135814J0D01*
G01X2757963Y1915805D02*
G01X2732000Y1915805D01*
G03X2696186Y1879991I0J-35814D01*
G01X2696186Y1756991D01*
G03X2732000Y1721177I35814J0D01*
G01X2868000Y1721177D01*
G03X2903814Y1756991I0J35814D01*
G01X2903814Y1879991D01*
G03X2868000Y1915805I-35814J0D01*
G01X2855437Y1915805D01*
G01X2855214Y1918091D01*
G01X2855214Y1948433D01*
G01X2857133Y1950841D01*
G03X2806700Y2060214I-50433J43059D01*
G03X2756267Y1950841I0J-66314D01*
G01X2758186Y1948433D01*
G01X2758186Y1918091D01*
G01X2757963Y1915805D01*
G01X3906958Y883368D02*
G01X3901906Y883368D01*
G02X3886912Y888851I0J23240D01*
G03X3863806Y897302I-23106J-27363D01*
G01X3743806Y897302D01*
G03X3707992Y861488I0J-35814D01*
G01X3707992Y801488D01*
G03X3743806Y765674I35814J0D01*
G01X3863806Y765674D01*
G03X3895199Y784250I0J35814D01*
G02X3901906Y786340I6707J-9722D01*
G01X3906958Y786340D01*
G02X3910311Y785854I0J-11811D01*
G03X3945058Y758716I34747J8676D01*
G01X4031459Y758716D01*
G03X4067273Y794530I0J35814D01*
G01X4067273Y875177D01*
G03X4031459Y910991I-35814J0D01*
G01X3945058Y910991D01*
G03X3910311Y883853I0J-35814D01*
G02X3906958Y883368I-3353J11325D01*
G01X3939186Y4675000D02*
G03X4210814Y4675000I135814J0D01*
G03X3939186Y4675000I-135814J0D01*
G01X3515920Y313290D02*
G02X3519489Y326788I27308J0D01*
G03X3524170Y344490I-31133J17702D01*
G01X3524170Y434490D01*
G03X3488356Y470304I-35814J0D01*
G01X3477398Y470304D01*
G02X3400286Y495039I0J132566D01*
G01X3629213Y495039D01*
G03X3640469Y491859I22193J57049D01*
G02X3659886Y474979I-134861J-174735D01*
G01X3659886Y337595D01*
G01X3618093Y295802D01*
G01X3513618Y295802D01*
G03X3515920Y313290I-65262J17488D01*
G01X634187Y4175004D02*
G01X634187Y4137343D01*
G03X614498Y4143240I-19689J-29916D01*
G01X100000Y4143240D01*
G02X35814Y4207426I0J64186D01*
G01X35814Y4250000D01*
G02X950000Y5164186I914186J0D01*
G01X1300197Y5164186D01*
G03X1285725Y5153175I33303J-58786D01*
G01X1240824Y5108274D01*
G03X1221035Y5060499I47775J-47775D01*
G01X1221035Y4983431D01*
G03X1228990Y4951623I67564J0D01*
G01X1228990Y4924876D01*
G03X1264804Y4889062I35814J0D01*
G01X1313804Y4889062D01*
G03X1349618Y4924876I0J35814D01*
G01X1349618Y4952276D01*
G03X1356163Y4992463I-60314J30449D01*
G01X1356163Y5032513D01*
G01X1361486Y5037836D01*
G01X1407114Y5037836D01*
G01X1411732Y5033218D01*
G01X1411732Y4982726D01*
G03X1418982Y4952276I67564J0D01*
G01X1418982Y4924876D01*
G03X1454796Y4889062I35814J0D01*
G01X1503796Y4889062D01*
G03X1507834Y4889290I0J35814D01*
G03X1537360Y4882497I29526J60771D01*
G02X1601399Y4866003I0J-132565D01*
G03X1618700Y4861547I17301J31358D01*
G01X1708700Y4861547D01*
G03X1725268Y4865610I0J35814D01*
G02X1745667Y4873363I42971J-82349D01*
G01X1754886Y4864144D01*
G01X1754886Y4811137D01*
G01X1729125Y4785376D01*
G03X1711195Y4742091I43285J-43285D01*
G01X1711195Y4485752D01*
G03X1729125Y4442467I61214J0D01*
G01X2008886Y4162706D01*
G01X2008886Y2257617D01*
G01X2005813Y2254543D01*
G01X2005813Y2424995D01*
G03X1969999Y2460809I-35814J0D01*
G01X1869999Y2460809D01*
G03X1844993Y2450634I0J-35814D01*
G03X1819986Y2460809I-25006J-25638D01*
G01X1719986Y2460809D01*
G03X1694993Y2450646I0J-35814D01*
G03X1669999Y2460809I-24994J-25651D01*
G01X1626999Y2460809D01*
G02X1609772Y2465929I0J31538D01*
G01X1564002Y2511700D01*
G03X1529697Y2525909I-34305J-34305D01*
G01X1498964Y2525909D01*
G01X1496556Y2527828D01*
G03X1415183Y2531521I-43059J-50433D01*
G03X1391620Y2453547I38314J-54126D01*
G03X1370000Y2460809I-21620J-28552D01*
G01X1270000Y2460809D01*
G03X1244994Y2450634I0J-35814D01*
G03X1219987Y2460809I-25006J-25638D01*
G01X1119988Y2460809D01*
G03X1094994Y2450646I0J-35814D01*
G03X1070000Y2460809I-24994J-25651D01*
G01X970001Y2460809D01*
G03X944994Y2450634I0J-35814D01*
G03X919988Y2460809I-25006J-25638D01*
G01X819988Y2460809D01*
G03X794995Y2450646I0J-35814D01*
G03X770001Y2460809I-24994J-25651D01*
G01X670001Y2460809D01*
G03X650312Y2454912I0J-35814D01*
G01X650312Y3937919D01*
G02X658787Y3898805I-86029J-39115D01*
G01X658787Y3250284D01*
G01X658621Y3245183D01*
G01X658244Y3241030D01*
G01X657197Y3234390D01*
G03X720001Y3146786I62804J-21290D01*
G03X782805Y3234390I0J66314D01*
G01X781759Y3241030D01*
G01X781381Y3245183D01*
G01X781215Y3250284D01*
G01X781215Y3898805D01*
G02X795542Y3948831I94504J0D01*
G03X819988Y3939191I24446J26173D01*
G01X821251Y3939191D01*
G01X821474Y3936905D01*
G01X821474Y3277015D01*
G03X851226Y3160651I42126J-51215D01*
G03X921570Y3258004I12374J65149D01*
G01X919481Y3261851D01*
G01X918502Y3264130D01*
G01X918502Y3936905D01*
G01X918725Y3939191D01*
G01X919988Y3939191D01*
G03X944994Y3949366I0J35814D01*
G03X970001Y3939191I25006J25638D01*
G01X1070000Y3939191D01*
G03X1094994Y3949354I0J35814D01*
G03X1119988Y3939191I24994J25651D01*
G01X1219987Y3939191D01*
G03X1244994Y3949366I0J35814D01*
G03X1270000Y3939191I25006J25638D01*
G01X1370000Y3939191D01*
G03X1394993Y3949354I0J35814D01*
G03X1419987Y3939191I24994J25651D01*
G01X1421250Y3939191D01*
G01X1421473Y3936905D01*
G01X1421473Y3372640D01*
G01X1421313Y3372372D01*
G01X1419225Y3369584D01*
G03X1473573Y3262128I51975J-41184D01*
G03X1520097Y3373196I-2373J66272D01*
G01X1518501Y3375101D01*
G01X1518501Y3936905D01*
G01X1518724Y3939191D01*
G01X1519987Y3939191D01*
G03X1544993Y3949366I0J35814D01*
G03X1569999Y3939191I25006J25638D01*
G01X1669999Y3939191D01*
G03X1694993Y3949354I0J35814D01*
G03X1719986Y3939191I24994J25651D01*
G01X1721249Y3939191D01*
G01X1721472Y3936905D01*
G01X1721472Y2623567D01*
G01X1719553Y2621159D01*
G03X1769986Y2511786I50433J-43059D01*
G03X1820419Y2621159I0J66314D01*
G01X1818500Y2623567D01*
G01X1818500Y3936905D01*
G01X1818724Y3939191D01*
G01X1819986Y3939191D01*
G03X1855800Y3975005I0J35814D01*
G01X1855800Y4175004D01*
G03X1819986Y4210818I-35814J0D01*
G01X1719986Y4210818D01*
G03X1694993Y4200655I0J-35814D01*
G03X1669999Y4210818I-24994J-25651D01*
G01X1611161Y4210818D01*
G02X1593934Y4215939I0J31538D01*
G01X1371271Y4438602D01*
G02X1361714Y4453024I30758J30758D01*
G01X1361714Y4473487D01*
G03X1333434Y4508500I-35814J0D01*
G03X1361714Y4543513I-7534J35013D01*
G01X1361714Y4624160D01*
G03X1360201Y4634462I-35814J0D01*
G02X1350518Y4700360I219403J65898D01*
G01X1350518Y4751992D01*
G03X1349618Y4762453I-61214J0D01*
G01X1349618Y4810742D01*
G03X1313804Y4846556I-35814J0D01*
G02X1276408Y4849250I0J260915D01*
G03X1243940Y4858570I-32469J-51894D01*
G01X1213400Y4858570D01*
G02X1150438Y4870634I0J170338D01*
G03X1137200Y4873170I-13238J-33278D01*
G01X1047200Y4873170D01*
G03X1031287Y4869441I0J-35814D01*
G02X995465Y4857535I-60287J121552D01*
G02X959938Y4867375I27435J168114D01*
G03X946700Y4869912I-13238J-33278D01*
G01X856700Y4869912D01*
G03X820886Y4834098I0J-35814D01*
G01X820886Y4754098D01*
G03X825331Y4736817I35814J0D01*
G02X839996Y4688822I-106955J-58919D01*
G02X826392Y4640027I-135696J11538D01*
G03X822686Y4624160I32108J-15866D01*
G02X802451Y4571158I-79536J0D01*
G01X676716Y4445422D01*
G03X658787Y4402138I43285J-43285D01*
G01X658787Y4251204D01*
G02X640948Y4195946I-94504J0D01*
G03X634187Y4175004I29053J-20941D01*
G01X389186Y4675000D02*
G03X660814Y4675000I135814J0D01*
G03X389186Y4675000I-135814J0D01*
G01X1418982Y4693242D02*
G03X1454796Y4657428I35814J0D01*
G01X1503796Y4657428D01*
G03X1539610Y4693242I0J35814D01*
G01X1539610Y4810742D01*
G03X1503796Y4846556I-35814J0D01*
G01X1454796Y4846556D01*
G03X1418982Y4810742I0J-35814D01*
G01X1418982Y4693242D01*
G01X620014Y2011905D02*
G01X754306Y2146197D01*
G03X768515Y2180501I-34305J34305D01*
G01X768515Y2186896D01*
G01X768738Y2189182D01*
G01X770001Y2189182D01*
G03X794995Y2199345I0J35814D01*
G03X819988Y2189182I24994J25651D01*
G01X821365Y2189182D01*
G01X821588Y2186896D01*
G01X821588Y2140500D01*
G02X821076Y2137058I-11811J0D01*
G03X794288Y2102400I9027J-34658D01*
G01X794288Y2012400D01*
G03X821076Y1977742I35814J0D01*
G02X821588Y1974300I-11298J-3442D01*
G01X821588Y1813145D01*
G02X816694Y1788983I-62088J0D01*
G03X814937Y1783722I32991J-13938D01*
G02X811585Y1783236I-3353J11325D01*
G01X774186Y1783236D01*
G02X770833Y1783722I0J11811D01*
G03X736086Y1810859I-34747J-8676D01*
G01X649685Y1810859D01*
G03X620014Y1795102I0J-35814D01*
G01X620014Y2011905D01*
G01X1033296Y1773481D02*
G03X1026414Y1764814I34305J-34305D01*
G01X1026414Y1788032D01*
G03X1025742Y1796078I-48514J0D01*
G01X1025742Y1829710D01*
G03X1026265Y1833956I-47842J8046D01*
G01X1046264Y1853955D01*
G03X1052551Y1853399I6287J35258D01*
G01X1082650Y1853399D01*
G03X1118464Y1889213I0J35814D01*
G01X1118464Y1947711D01*
G03X1082650Y1983525I-35814J0D01*
G01X1052551Y1983525D01*
G03X1019608Y1961762I0J-35814D01*
G03X1008607Y1953516I23303J-42551D01*
G01X943595Y1888505D01*
G03X929386Y1854200I34305J-34305D01*
G01X929386Y1845130D01*
G03X928714Y1837084I47842J-8046D01*
G01X928714Y1810859D01*
G01X918840Y1810859D01*
G01X918616Y1813145D01*
G01X918616Y1974300D01*
G02X919129Y1977742I11811J0D01*
G03X945916Y2012400I-9027J34658D01*
G01X945916Y2102400D01*
G03X919129Y2137058I-35814J0D01*
G02X918616Y2140500I11298J3442D01*
G01X918616Y2186896D01*
G01X918840Y2189182D01*
G01X919988Y2189182D01*
G03X944994Y2199357I0J35814D01*
G03X970001Y2189182I25006J25638D01*
G01X1024299Y2189182D01*
G02X1041525Y2184061I0J-31538D01*
G01X1055146Y2170441D01*
G01X1055492Y2167381D01*
G03X1131317Y2106997I66109J5214D01*
G03X1186382Y2186770I-9717J65598D01*
G02X1191512Y2184061I-12096J-29126D01*
G01X1205133Y2170441D01*
G01X1205479Y2167381D01*
G03X1250515Y2109718I66109J5214D01*
G03X1321204Y2128598I21072J62877D01*
G03X1325892Y2123655I50396J43102D01*
G01X1325376Y2123146D01*
G01X1201315Y1999085D01*
G03X1183386Y1955800I43285J-43285D01*
G01X1183386Y1819115D01*
G01X1168476Y1804205D01*
G01X1168476Y1819187D01*
G03X1132662Y1855001I-35814J0D01*
G01X1102563Y1855001D01*
G03X1066749Y1819187I0J-35814D01*
G01X1066749Y1806934D01*
G01X1033296Y1773481D01*
G01X1070000Y4210818D02*
G01X970001Y4210818D01*
G03X950547Y4205075I0J-35814D01*
G02X950214Y4213104I96533J8030D01*
G01X950214Y4354740D01*
G02X950534Y4357472I11811J0D01*
G03X980579Y4389733I-5634J35368D01*
G01X983000Y4389984D01*
G01X1009100Y4389984D01*
G02X1012542Y4389471I0J-11811D01*
G03X1047200Y4362684I34658J9027D01*
G01X1137200Y4362684D01*
G03X1173014Y4398498I0J35814D01*
G01X1173014Y4478498D01*
G03X1137200Y4514312I-35814J0D01*
G01X1047200Y4514312D01*
G03X1012542Y4487524I0J-35814D01*
G02X1009100Y4487012I-3442J11298D01*
G01X983000Y4487012D01*
G02X977468Y4488388I0J11811D01*
G03X952434Y4508500I-32567J-14900D01*
G03X980714Y4543513I-7534J35013D01*
G01X980714Y4624160D01*
G03X977008Y4640027I-35814J0D01*
G02X963404Y4688822I122092J60334D01*
G02X972468Y4725247I121620J-10924D01*
G02X998785Y4731168I50432J-162701D01*
G02X1036770Y4723095I-27785J-224132D01*
G03X1047200Y4721543I10430J34262D01*
G01X1137200Y4721543D01*
G03X1150438Y4724079I0J35814D01*
G02X1213400Y4736142I62962J-158274D01*
G01X1216288Y4736142D01*
G02X1228090Y4705120I-66095J-42901D01*
G01X1228090Y4700360D01*
G02X1210349Y4644966I-95352J0D01*
G03X1203686Y4624160I29151J-20806D01*
G01X1203686Y4543513D01*
G03X1231966Y4508500I35814J0D01*
G03X1203686Y4473487I7534J-35013D01*
G01X1203686Y4392840D01*
G03X1239500Y4357026I35814J0D01*
G01X1313954Y4357026D01*
G02X1329798Y4342856I-119037J-149051D01*
G01X1461836Y4210818D01*
G01X1419987Y4210818D01*
G03X1394993Y4200655I0J-35814D01*
G03X1370000Y4210818I-24994J-25651D01*
G01X1270000Y4210818D01*
G03X1244994Y4200643I0J-35814D01*
G03X1219987Y4210818I-25006J-25638D01*
G01X1119988Y4210818D01*
G03X1094994Y4200655I0J-35814D01*
G03X1070000Y4210818I-24994J-25651D01*
G04 Copper End*

G04 TearDrop Start*
G36*
G01X927100Y4677898D02*
G01X876300Y4677898D01*
G03X856700Y4754098I-157924J0D01*
G01X946700Y4754098D01*
G03X927100Y4677898I138324J-76200D01*
G37*
G36*
G01X1022900Y4819498D02*
G01X1022900Y4768698D01*
G03X946700Y4754098I0J-206152D01*
G01X946700Y4834098D01*
G03X1022900Y4819498I76200J191552D01*
G37*
G36*
G01X1009100Y4425798D02*
G01X1009100Y4451198D01*
G03X1047200Y4470248I0J47625D01*
G01X1047200Y4406748D01*
G03X1009100Y4425798I-38100J-28575D01*
G37*
G36*
G01X1537360Y4918311D02*
G01X1537360Y4981811D01*
G03X1618700Y4977361I81340J741153D01*
G01X1618700Y4897361D01*
G03X1537360Y4918311I-81340J-147429D01*
G37*
G36*
G01X1768239Y4962761D02*
G01X1768239Y4911961D01*
G03X1708700Y4897361I0J-128701D01*
G01X1708700Y4977361D01*
G03X1768239Y4962761I59539J114101D01*
G37*
G36*
G01X3534891Y444964D02*
G01X3567816Y447960D01*
G03X3608227Y434490I40411J53882D01*
G01X3548361Y404553D01*
G03X3534891Y444964I-67352J0D01*
G37*
G36*
G01X3341948Y412785D02*
G01X3376370Y468166D01*
G03X3477398Y434490I101028J134704D01*
G01X3408356Y344490D01*
G03X3341948Y412785I-2471070J-2336370D01*
G37*
G36*
G01X3480106Y313290D02*
G01X3416606Y313290D01*
G03X3408356Y344490I-63122J0D01*
G01X3488356Y344490D01*
G03X3480106Y313290I54872J-31200D01*
G37*
G36*
G01X882802Y1974300D02*
G01X857402Y1974300D01*
G03X838352Y2012400I-47625J0D01*
G01X901852Y2012400D01*
G03X882802Y1974300I28575J-38100D01*
G37*
G36*
G01X857402Y2140500D02*
G01X882802Y2140500D01*
G03X901852Y2102400I47625J0D01*
G01X838352Y2102400D01*
G03X857402Y2140500I-28575J38100D01*
G37*
G36*
G01X242674Y1913251D02*
G01X206753Y1949172D01*
G01X211525Y1954804D01*
G01X215103Y1960816D01*
G01X217680Y1967173D01*
G01X219447Y1973842D01*
G01X220595Y1980791D01*
G01X221315Y1987986D01*
G01X222239Y2002983D01*
G01X296485Y1928737D01*
G01X281489Y1927813D01*
G01X274294Y1927092D01*
G01X267345Y1925945D01*
G01X260675Y1924178D01*
G01X254318Y1921601D01*
G01X248307Y1918023D01*
G01X242674Y1913251D01*
G37*
G36*
G01X368469Y1140193D02*
G01X350509Y1122233D01*
G01X346627Y1125791D01*
G01X342934Y1128543D01*
G01X339387Y1130572D01*
G01X335945Y1131959D01*
G01X332566Y1132789D01*
G01X329209Y1133143D01*
G01X322396Y1132757D01*
G01X307205Y1129918D01*
G01X298164Y1128790D01*
G01X293137Y1128588D01*
G01X287718Y1128738D01*
G01X361964Y1202984D01*
G01X362114Y1197565D01*
G01X361912Y1192538D01*
G01X360783Y1183497D01*
G01X357945Y1168306D01*
G01X357559Y1161492D01*
G01X357913Y1158136D01*
G01X358743Y1154757D01*
G01X360130Y1151315D01*
G01X362159Y1147768D01*
G01X364911Y1144074D01*
G01X368469Y1140193D01*
G37*
G36*
G01X1059487Y1522501D02*
G01X1059487Y1547901D01*
G03X1097587Y1560702I0J63102D01*
G01X1097587Y1509701D01*
G03X1059487Y1522501I-38100J-50302D01*
G37*
G36*
G01X1054900Y1728799D02*
G01X1080300Y1728799D01*
G03X1087600Y1690699I103076J0D01*
G01X1047600Y1690699D01*
G03X1054900Y1728799I-95776J38100D01*
G37*
G36*
G01X1155401Y1729785D02*
G01X1206200Y1730133D01*
G03X1187600Y1690699I31772J-39089D01*
G01X1147600Y1690699D01*
G03X1155401Y1729785I-90643J38412D01*
G37*
G36*
G01X1207092Y1599781D02*
G01X1156293Y1599433D01*
G03X1147600Y1639698I-100791J-690D01*
G01X1187600Y1639698D01*
G03X1207092Y1599781I51338J352D01*
G37*
G36*
G01X867217Y4513433D02*
G01X828420Y4546477D01*
G03X858500Y4624160I-85270J77683D01*
G01X944900Y4543513D01*
G03X867217Y4513433I0J-115350D01*
G37*
G36*
G01X876300Y4700360D02*
G01X927100Y4700360D01*
G03X944900Y4624160I172000J0D01*
G01X858500Y4624160D01*
G03X876300Y4700360I-154199J76200D01*
G37*
G36*
G01X914400Y4354740D02*
G01X889000Y4354740D01*
G03X869950Y4392840I-47625J0D01*
G01X933450Y4392840D01*
G03X914400Y4354740I28575J-38100D01*
G37*
G36*
G01X983000Y4451198D02*
G01X983000Y4425798D01*
G03X944900Y4406748I0J-47625D01*
G01X944900Y4470248D01*
G03X983000Y4451198I38100J28575D01*
G37*
G36*
G01X3087460Y876300D02*
G01X3087460Y850900D01*
G03X3049360Y831850I0J-47625D01*
G01X3049360Y895350D01*
G03X3087460Y876300I38100J28575D01*
G37*
G36*
G01X2779940Y850900D02*
G01X2779940Y876300D01*
G03X2818040Y895350I0J47625D01*
G01X2818040Y831850D01*
G03X2779940Y850900I-38100J-28575D01*
G37*
G36*
G01X3087460Y698500D02*
G01X3087460Y673100D01*
G03X3049360Y654050I0J-47625D01*
G01X3049360Y717550D01*
G03X3087460Y698500I38100J28575D01*
G37*
G36*
G01X2779940Y673100D02*
G01X2779940Y698500D01*
G03X2818040Y717550I0J47625D01*
G01X2818040Y654050D01*
G03X2779940Y673100I-38100J-28575D01*
G37*
G36*
G01X1263904Y4700360D02*
G01X1314704Y4700360D01*
G03X1325900Y4624160I264899J0D01*
G01X1239500Y4624160D01*
G03X1263904Y4700360I-106761J76200D01*
G37*
G36*
G01X1345946Y4413278D02*
G01X1355123Y4368180D01*
G03X1325900Y4392840I-160207J-160207D01*
G01X1325900Y4447113D01*
G03X1345946Y4413278I76128J22246D01*
G37*
G36*
G01X2794000Y1918091D02*
G01X2819400Y1918091D01*
G03X2838450Y1879991I47625J0D01*
G01X2774950Y1879991D01*
G03X2794000Y1918091I-28575J38100D01*
G37*
G36*
G01X1487745Y1885950D02*
G01X1487745Y1822450D01*
G03X1392495Y1794993I0J-178944D01*
G01X1392495Y1854993D01*
G03X1487745Y1885950I0J162014D01*
G37*
G36*
G01X1256306Y1499594D02*
G01X1256306Y1550394D01*
G03X1292495Y1554994I0J144652D01*
G01X1292495Y1494994D01*
G03X1256306Y1499594I-36189J-140052D01*
G37*
G36*
G01X694601Y4251204D02*
G01X745401Y4251204D01*
G03X770001Y4175004I130318J0D01*
G01X670001Y4175004D01*
G03X694601Y4251204I-105718J76200D01*
G37*
G36*
G01X745401Y3898805D02*
G01X694601Y3898805D01*
G03X670001Y3975005I-130318J0D01*
G01X770001Y3975005D01*
G03X745401Y3898805I105718J-76200D01*
G37*
G36*
G01X889000Y4213104D02*
G01X914400Y4213104D01*
G03X919988Y4175004I132680J0D01*
G01X869950Y4175004D01*
G03X889000Y4213104I-28575J38100D01*
G37*
G36*
G01X882688Y3936905D02*
G01X857288Y3936905D01*
G03X838238Y3975005I-47625J0D01*
G01X901738Y3975005D01*
G03X882688Y3936905I28575J-38100D01*
G37*
G36*
G01X1482687Y3936905D02*
G01X1457287Y3936905D01*
G03X1438237Y3975005I-47625J0D01*
G01X1501737Y3975005D01*
G03X1482687Y3936905I28575J-38100D01*
G37*
G36*
G01X1556529Y4166774D02*
G01X1570749Y4188475D01*
G03X1611161Y4175004I40411J53882D01*
G01X1569999Y4126363D01*
G03X1556529Y4166774I-67352J0D01*
G37*
G36*
G01X1782686Y3936905D02*
G01X1757286Y3936905D01*
G03X1738236Y3975005I-47625J0D01*
G01X1801736Y3975005D01*
G03X1782686Y3936905I28575J-38100D01*
G37*
G36*
G01X1905410Y2204950D02*
G01X1855700Y2191160D01*
G03X1875746Y2224996I-56082J56082D01*
G01X1939246Y2224996D01*
G03X1905410Y2204950I22246J-76128D01*
G37*
G36*
G01X1725277Y2211525D02*
G01X1706516Y2228686D01*
G03X1719986Y2269097I-53882J40411D01*
G01X1765688Y2224996D01*
G03X1725277Y2211525I0J-67352D01*
G37*
G36*
G01X1556529Y2432603D02*
G01X1586588Y2438466D01*
G03X1626999Y2424995I40411J53882D01*
G01X1569999Y2392192D01*
G03X1556529Y2432603I-67352J0D01*
G37*
G36*
G01X1332700Y2223300D02*
G01X1307300Y2223300D01*
G03X1288250Y2224996I-19050J-106175D01*
G01X1351750Y2224996D01*
G03X1332700Y2223300I0J-107871D01*
G37*
G36*
G01X1233458Y2228686D02*
G01X1214697Y2211525D01*
G03X1174286Y2224996I-40411J-53882D01*
G01X1219987Y2269097D01*
G03X1233458Y2228686I67352J0D01*
G37*
G36*
G01X1083471Y2228686D02*
G01X1064710Y2211525D01*
G03X1024299Y2224996I-40411J-53882D01*
G01X1070000Y2269097D01*
G03X1083471Y2228686I67352J0D01*
G37*
G36*
G01X882802Y2186896D02*
G01X857402Y2186896D01*
G03X838352Y2224996I-47625J0D01*
G01X901852Y2224996D01*
G03X882802Y2186896I28575J-38100D01*
G37*
G36*
G01X732701Y2186896D02*
G01X707301Y2186896D01*
G03X688251Y2224996I-47625J0D01*
G01X751751Y2224996D01*
G03X732701Y2186896I28575J-38100D01*
G37*
G36*
G01X1261732Y3104013D02*
G01X1198232Y3104013D01*
G03X1194982Y3178995I-866616J0D01*
G01X1264982Y3178995D01*
G03X1261732Y3104013I863366J-74982D01*
G37*
G36*
G01X1339990Y3245745D02*
G01X1339990Y3182245D01*
G03X1264982Y3178995I0J-867206D01*
G01X1264982Y3248995D01*
G03X1339990Y3245745I75008J863956D01*
G37*
G36*
G01X1371740Y3104013D02*
G01X1308240Y3104013D01*
G03X1304990Y3178995I-866616J0D01*
G01X1374990Y3178995D01*
G03X1371740Y3104013I863366J-74982D01*
G37*
G36*
G01X1449997Y3245745D02*
G01X1449997Y3182245D01*
G03X1374990Y3178995I0J-867206D01*
G01X1374990Y3248995D01*
G03X1449997Y3245745I75008J863956D01*
G37*
G36*
G01X1229982Y3182245D02*
G01X1229982Y3245745D01*
G03X1304990Y3248995I-0J867206D01*
G01X1304990Y3178995D01*
G03X1229982Y3182245I-75008J-863956D01*
G37*
G36*
G01X1481747Y3104013D02*
G01X1418247Y3104013D01*
G03X1414997Y3178995I-866616J0D01*
G01X1484997Y3178995D01*
G03X1481747Y3104013I863366J-74982D01*
G37*
G36*
G01X1339990Y3182245D02*
G01X1339990Y3245745D01*
G03X1414997Y3248995I-0J867206D01*
G01X1414997Y3178995D01*
G03X1339990Y3182245I-75008J-863956D01*
G37*
G36*
G01X1198232Y3213995D02*
G01X1261732Y3213995D01*
G03X1264982Y3139013I866616J0D01*
G01X1194982Y3139013D01*
G03X1198232Y3213995I-863366J74982D01*
G37*
G36*
G01X1261732Y2994006D02*
G01X1198232Y2994006D01*
G03X1194982Y3069013I-867206J-0D01*
G01X1264982Y3069013D01*
G03X1261732Y2994006I863956J-75008D01*
G37*
G36*
G01X1339990Y3129413D02*
G01X1339990Y3078613D01*
G03X1264982Y3069013I0J-297828D01*
G01X1264982Y3139013D01*
G03X1339990Y3129413I75007J288228D01*
G37*
G36*
G01X1308240Y3213995D02*
G01X1371740Y3213995D01*
G03X1374990Y3139013I866616J0D01*
G01X1304990Y3139013D01*
G03X1308240Y3213995I-863366J74982D01*
G37*
G36*
G01X1371740Y2994006D02*
G01X1308240Y2994006D01*
G03X1304990Y3069013I-867206J-0D01*
G01X1374990Y3069013D01*
G03X1371740Y2994006I863956J-75008D01*
G37*
G36*
G01X1449997Y3129413D02*
G01X1449997Y3078613D01*
G03X1374990Y3069013I0J-297828D01*
G01X1374990Y3139013D01*
G03X1449997Y3129413I75007J288228D01*
G37*
G36*
G01X1229982Y3078613D02*
G01X1229982Y3129413D01*
G03X1304990Y3139013I0J297828D01*
G01X1304990Y3069013D01*
G03X1229982Y3078613I-75007J-288228D01*
G37*
G36*
G01X1418247Y3213995D02*
G01X1481747Y3213995D01*
G03X1484997Y3139013I866616J0D01*
G01X1414997Y3139013D01*
G03X1418247Y3213995I-863366J74982D01*
G37*
G36*
G01X1481747Y2994006D02*
G01X1418247Y2994006D01*
G03X1414997Y3069013I-867206J-0D01*
G01X1484997Y3069013D01*
G03X1481747Y2994006I863956J-75008D01*
G37*
G36*
G01X1339990Y3078613D02*
G01X1339990Y3129413D01*
G03X1414997Y3139013I0J297828D01*
G01X1414997Y3069013D01*
G03X1339990Y3078613I-75007J-288228D01*
G37*
G36*
G01X1339990Y2962256D02*
G01X1339990Y3025756D01*
G03X1414997Y3029006I-0J867206D01*
G01X1414997Y2959006D01*
G03X1339990Y2962256I-75008J-863956D01*
G37*
G36*
G01X1418247Y3104013D02*
G01X1481747Y3104013D01*
G03X1484997Y3029006I867206J0D01*
G01X1414997Y3029006D01*
G03X1418247Y3104013I-863956J75008D01*
G37*
G36*
G01X1449997Y3025756D02*
G01X1449997Y2962256D01*
G03X1374990Y2959006I0J-867206D01*
G01X1374990Y3029006D01*
G03X1449997Y3025756I75008J863956D01*
G37*
G36*
G01X1308240Y3104013D02*
G01X1371740Y3104013D01*
G03X1374990Y3029006I867206J0D01*
G01X1304990Y3029006D01*
G03X1308240Y3104013I-863956J75008D01*
G37*
G36*
G01X1229982Y2962256D02*
G01X1229982Y3025756D01*
G03X1304990Y3029006I-0J867206D01*
G01X1304990Y2959006D01*
G03X1229982Y2962256I-75008J-863956D01*
G37*
G36*
G01X1198232Y3104013D02*
G01X1261732Y3104013D01*
G03X1264982Y3029006I867206J0D01*
G01X1194982Y3029006D01*
G03X1198232Y3104013I-863956J75008D01*
G37*
G36*
G01X1339990Y3025756D02*
G01X1339990Y2962256D01*
G03X1264982Y2959006I0J-867206D01*
G01X1264982Y3029006D01*
G03X1339990Y3025756I75008J863956D01*
G37*
G36*
G01X1234587Y4770788D02*
G01X1261900Y4815317D01*
G03X1313804Y4810742I51904J292155D01*
G01X1264804Y4693242D01*
G03X1234587Y4770788I-114611J0D01*
G37*
G36*
G01X3901906Y847554D02*
G01X3901906Y822154D01*
G03X3863806Y803104I0J-47625D01*
G01X3863806Y861488D01*
G03X3901906Y847554I38100J45120D01*
G37*
G36*
G01X3676806Y552088D02*
G01X3676806Y602888D01*
G03X3743806Y607488I-0J490245D01*
G01X3743806Y547488D01*
G03X3676806Y552088I-67000J-485645D01*
G37*
G36*
G01X3124046Y673100D02*
G01X3124046Y698500D01*
G03X3162146Y717550I0J47625D01*
G01X3162146Y674488D01*
G03X3124046Y673100I0J-523568D01*
G37*
G36*
G01X3190396Y1083738D02*
G01X3253896Y1083738D01*
G03X3282146Y988488I174702J0D01*
G01X3162146Y988488D01*
G03X3190396Y1083738I-146452J95250D01*
G37*
G36*
G01X3334388Y932967D02*
G01X3293966Y901547D01*
G03X3213144Y928488I-80822J-107763D01*
G01X3282146Y988488D01*
G03X3334388Y932967I938509J830749D01*
G37*
G36*
G01X2118250Y4749098D02*
G01X2181750Y4749098D01*
G03X2185000Y4707498I267872J0D01*
G01X2115000Y4707498D01*
G03X2118250Y4749098I-264622J41600D01*
G37*
G36*
G01X2281750Y4492249D02*
G01X2218250Y4492249D01*
G03X2215000Y4587499I-1397451J-1D01*
G01X2285000Y4587499D01*
G03X2281750Y4492249I1394201J-95251D01*
G37*
G36*
G01X2381750Y4492249D02*
G01X2318250Y4492249D01*
G03X2315000Y4587499I-1397451J-1D01*
G01X2385000Y4587499D01*
G03X2381750Y4492249I1394201J-95251D01*
G37*
G36*
G01X2418250Y4749098D02*
G01X2481750Y4749098D01*
G03X2485000Y4707498I267872J0D01*
G01X2415000Y4707498D01*
G03X2418250Y4749098I-264622J41600D01*
G37*
G36*
G01X2481750Y4535000D02*
G01X2418250Y4535000D01*
G03X2415000Y4587499I-425645J0D01*
G01X2485000Y4587499D01*
G03X2481750Y4535000I422395J-52498D01*
G37*
G36*
G01X1534540Y662458D02*
G01X1498619Y626536D01*
G03X1442117Y629157I-56503J-607891D01*
G01X1508620Y699157D01*
G03X1534540Y662458I119553J56935D01*
G37*
G36*
G01X1446120Y775357D02*
G01X1496920Y775357D01*
G03X1508620Y699157I253977J0D01*
G01X1408020Y699157D01*
G03X1446120Y775357I-57150J76200D01*
G37*
G36*
G01X1156679Y622681D02*
G01X1220100Y631101D01*
G03X1300923Y604161I80822J107763D01*
G01X1183620Y541859D01*
G03X1156679Y622681I-134704J0D01*
G37*
G36*
G01X1090520Y729160D02*
G01X1039720Y729160D01*
G03X1001620Y805360I-95250J0D01*
G01X1080780Y805360D01*
G03X1090520Y729160I302953J0D01*
G37*
G36*
G01X773260Y823161D02*
G01X773260Y873961D01*
G03X849460Y891761I0J172000D01*
G01X849460Y805360D01*
G03X773260Y823161I-76200J-154199D01*
G37*
G36*
G01X2227550Y4405187D02*
G01X2272451Y4360286D01*
G03X2227600Y4276813I116244J-116244D01*
G01X2141200Y4357460D01*
G03X2227550Y4405187I-39665J173742D01*
G37*
G36*
G01X2627650Y4348886D02*
G01X2627650Y4285386D01*
G03X2532400Y4276813I0J-533377D01*
G01X2532400Y4357460D01*
G03X2627650Y4348886I95250J524804D01*
G37*
G36*
G01X2397959Y4363476D02*
G01X2445737Y4405501D01*
G03X2532400Y4357460I127107J127107D01*
G01X2446000Y4276813D01*
G03X2397959Y4363476I-175147J-40443D01*
G37*
G36*
G01X1496920Y729160D02*
G01X1446120Y729160D01*
G03X1433660Y805360I-239233J0D01*
G01X1514307Y805360D01*
G03X1496920Y729160I158277J-76200D01*
G37*
G36*
G01X1703080Y863600D02*
G01X1703080Y838200D01*
G03X1664980Y819150I0J-47625D01*
G01X1664980Y882650D01*
G03X1703080Y863600I38100J28575D01*
G37*
G36*
G01X1518820Y619097D02*
G01X1518820Y669897D01*
G03X1595020Y684821I0J201999D01*
G01X1595020Y604173D01*
G03X1518820Y619097I-76200J-187075D01*
G37*
G36*
G01X2691498Y4361695D02*
G01X2736399Y4406596D01*
G03X2811300Y4346793I304218J304218D01*
G01X2751300Y4286794D01*
G03X2691498Y4361695I-364021J-229316D01*
G37*
G36*
G01X2871102Y4271892D02*
G01X2826201Y4226991D01*
G03X2751300Y4286794I-304218J-304218D01*
G01X2811300Y4346793D01*
G03X2871102Y4271892I364021J229316D01*
G37*
G36*
G01X2248406Y4360286D02*
G01X2293308Y4405187D01*
G03X2366800Y4346793I291780J291781D01*
G01X2306800Y4286794D01*
G03X2248406Y4360286I-350175J-218288D01*
G37*
G36*
G01X3906958Y822154D02*
G01X3906958Y847554D01*
G03X3945058Y866604I0J47625D01*
G01X3945058Y803104D01*
G03X3906958Y822154I-38100J-28575D01*
G37*
G36*
G01X1151124Y689557D02*
G01X1151124Y638757D01*
G03X1127620Y629157I0J-33573D01*
G01X1127620Y699157D01*
G03X1151124Y689557I23504J23973D01*
G37*
G36*
G01X1039720Y775357D02*
G01X1090520Y775357D01*
G03X1127620Y699157I96803J0D01*
G01X1002619Y699157D01*
G03X1039720Y775357I-59703J76200D01*
G37*
G36*
G01X956765Y448765D02*
G01X956765Y499565D01*
G03X1002619Y509165I0J114314D01*
G01X1002619Y439165D01*
G03X956765Y448765I-45855J-104714D01*
G37*
G36*
G01X1003821Y594561D02*
G01X1003821Y543761D01*
G03X927621Y534161I0J-307220D01*
G01X927621Y604161D01*
G03X1003821Y594561I76200J297620D01*
G37*
G36*
G01X971000Y4768698D02*
G01X971000Y4819498D01*
G03X1047200Y4837356I0J171495D01*
G01X1047200Y4757357D01*
G03X971000Y4768698I-76200J-250320D01*
G37*
G36*
G01X1213400Y4822756D02*
G01X1213400Y4771956D01*
G03X1137200Y4757357I0J-206152D01*
G01X1137200Y4837356D01*
G03X1213400Y4822756I76200J191552D01*
G37*
G36*
G01X774186Y1747422D02*
G01X774186Y1722022D01*
G03X736086Y1702972I0J-47625D01*
G01X736086Y1766472D01*
G03X774186Y1747422I38100J28575D01*
G37*
G36*
G01X1156021Y1861960D02*
G01X1139080Y1880941D01*
G03X1152550Y1921352I-53882J40411D01*
G01X1182649Y1889213D01*
G03X1156021Y1861960I1163763J-1163760D01*
G37*
G36*
G01X949556Y1545339D02*
G01X928718Y1530255D01*
G03X888307Y1543725I-40411J-53882D01*
G01X936085Y1585750D01*
G03X949556Y1545339I67352J0D01*
G37*
G36*
G01X857402Y1813145D02*
G01X882802Y1813145D01*
G03X901852Y1775045I47625J0D01*
G01X849685Y1775045D01*
G03X857402Y1813145I-90184J38100D01*
G37*
G36*
G01X811585Y1722022D02*
G01X811585Y1747422D01*
G03X849685Y1766472I0J47625D01*
G01X849685Y1702972D01*
G03X811585Y1722022I-38100J-28575D01*
G37*
G36*
G01X1233245Y2192977D02*
G01X1251206Y2210937D01*
G01X1253410Y2209056D01*
G01X1255904Y2207476D01*
G01X1261513Y2205128D01*
G01X1267541Y2203709D01*
G01X1273498Y2203035D01*
G01X1241147Y2170685D01*
G01X1240474Y2176642D01*
G01X1239055Y2182670D01*
G01X1236707Y2188279D01*
G01X1235127Y2190772D01*
G01X1233245Y2192977D01*
G37*
G36*
G01X1083258Y2192977D02*
G01X1101219Y2210937D01*
G01X1103423Y2209056D01*
G01X1105917Y2207476D01*
G01X1111526Y2205128D01*
G01X1117554Y2203709D01*
G01X1123511Y2203035D01*
G01X1091160Y2170685D01*
G01X1090487Y2176642D01*
G01X1089068Y2182670D01*
G01X1086720Y2188279D01*
G01X1085140Y2190772D01*
G01X1083258Y2192977D01*
G37*
G36*
G01X1495021Y2490095D02*
G01X1495021Y2464695D01*
G01X1492132Y2464467D01*
G01X1489252Y2463821D01*
G01X1483625Y2461516D01*
G01X1478359Y2458256D01*
G01X1473671Y2454520D01*
G01X1473671Y2500270D01*
G01X1478359Y2496534D01*
G01X1483625Y2493275D01*
G01X1489252Y2490970D01*
G01X1492132Y2490324D01*
G01X1495021Y2490095D01*
G37*
G36*
G01X2677559Y1049439D02*
G01X2715403Y1101398D01*
G01X2716455Y1099907D01*
G01X2717034Y1098097D01*
G01X2717066Y1093751D01*
G01X2716077Y1088825D01*
G01X2714646Y1083788D01*
G01X2713349Y1079105D01*
G01X2712765Y1075243D01*
G01X2712921Y1073766D01*
G01X2713472Y1072669D01*
G01X2714491Y1072011D01*
G01X2716048Y1071850D01*
G01X2689178Y1030864D01*
G01X2687091Y1035505D01*
G01X2684164Y1040661D01*
G01X2680840Y1045561D01*
G01X2677559Y1049439D01*
G37*
G36*
G01X1333258Y2192082D02*
G01X1351218Y2210042D01*
G01X1353423Y2208161D01*
G01X1355917Y2206581D01*
G01X1361525Y2204232D01*
G01X1367553Y2202813D01*
G01X1373510Y2202140D01*
G01X1341160Y2169790D01*
G01X1340487Y2175747D01*
G01X1339068Y2181775D01*
G01X1336719Y2187383D01*
G01X1335139Y2189877D01*
G01X1333258Y2192082D01*
G37*
G36*
G01X1874582Y2210042D02*
G01X1892542Y2192082D01*
G01X1890661Y2189877D01*
G01X1889081Y2187383D01*
G01X1886732Y2181775D01*
G01X1885313Y2175747D01*
G01X1884640Y2169790D01*
G01X1852290Y2202140D01*
G01X1858247Y2202813D01*
G01X1864275Y2204232D01*
G01X1869883Y2206581D01*
G01X1872377Y2208161D01*
G01X1874582Y2210042D01*
G37*
G36*
G01X1736476Y838200D02*
G01X1736476Y863600D01*
G01X1739365Y863829D01*
G01X1742246Y864475D01*
G01X1747872Y866780D01*
G01X1753138Y870039D01*
G01X1757826Y873775D01*
G01X1757826Y828025D01*
G01X1753138Y831761D01*
G01X1747872Y835020D01*
G01X1742246Y837325D01*
G01X1739365Y837971D01*
G01X1736476Y838200D01*
G37*
G36*
G01X1457287Y3368998D02*
G01X1482687Y3370818D01*
G01X1482924Y3367931D01*
G01X1483595Y3365033D01*
G01X1485989Y3359348D01*
G01X1489374Y3354062D01*
G01X1493255Y3349468D01*
G01X1447541Y3347648D01*
G01X1451119Y3352425D01*
G01X1454241Y3357674D01*
G01X1456449Y3363247D01*
G01X1457068Y3366109D01*
G01X1457287Y3368998D01*
G37*
G36*
G01X2819400Y1952376D02*
G01X2794000Y1952376D01*
G01X2793771Y1955265D01*
G01X2793125Y1958146D01*
G01X2790820Y1963772D01*
G01X2787561Y1969038D01*
G01X2783825Y1973726D01*
G01X2829575Y1973726D01*
G01X2825839Y1969038D01*
G01X2822580Y1963772D01*
G01X2820275Y1958146D01*
G01X2819629Y1955265D01*
G01X2819400Y1952376D01*
G37*
G36*
G01X3554904Y460872D02*
G01X3536944Y442911D01*
G01X3534739Y444793D01*
G01X3532246Y446372D01*
G01X3526637Y448721D01*
G01X3520609Y450140D01*
G01X3514652Y450813D01*
G01X3547002Y483163D01*
G01X3547675Y477207D01*
G01X3549095Y471178D01*
G01X3551443Y465570D01*
G01X3553023Y463076D01*
G01X3554904Y460872D01*
G37*
G36*
G01X1056010Y1851236D02*
G01X1073970Y1833276D01*
G01X1072089Y1831071D01*
G01X1070509Y1828577D01*
G01X1068161Y1822969D01*
G01X1066742Y1816941D01*
G01X1066068Y1810984D01*
G01X1033718Y1843334D01*
G01X1039675Y1844007D01*
G01X1045703Y1845426D01*
G01X1051312Y1847775D01*
G01X1053805Y1849355D01*
G01X1056010Y1851236D01*
G37*
G36*
G01X694601Y3249700D02*
G01X745401Y3249700D01*
G01X745620Y3242978D01*
G01X746198Y3236618D01*
G01X747951Y3225490D01*
G01X749704Y3217317D01*
G01X750501Y3213100D01*
G01X689501Y3213100D01*
G01X690298Y3217317D01*
G01X692051Y3225490D01*
G01X693804Y3236618D01*
G01X694382Y3242978D01*
G01X694601Y3249700D01*
G37*
G36*
G01X857288Y3271668D02*
G01X882688Y3262085D01*
G01X883333Y3256456D01*
G01X885033Y3251042D01*
G01X887437Y3245812D01*
G01X890193Y3240735D01*
G01X845458Y3250318D01*
G01X849802Y3254465D01*
G01X853591Y3259875D01*
G01X856271Y3265843D01*
G01X857022Y3268817D01*
G01X857288Y3271668D01*
G37*
G36*
G01X1757286Y2619624D02*
G01X1782686Y2619624D01*
G01X1782915Y2616735D01*
G01X1783561Y2613854D01*
G01X1785866Y2608228D01*
G01X1789125Y2602962D01*
G01X1792861Y2598274D01*
G01X1747111Y2598274D01*
G01X1750847Y2602962D01*
G01X1754106Y2608228D01*
G01X1756412Y2613854D01*
G01X1757058Y2616735D01*
G01X1757286Y2619624D01*
G37*
G36*
G01X1596776Y1079500D02*
G01X1596776Y1104900D01*
G01X1599665Y1105129D01*
G01X1602546Y1105775D01*
G01X1608172Y1108080D01*
G01X1613438Y1111339D01*
G01X1618126Y1115075D01*
G01X1618126Y1069325D01*
G01X1613438Y1073061D01*
G01X1608172Y1076320D01*
G01X1602546Y1078625D01*
G01X1599665Y1079271D01*
G01X1596776Y1079500D01*
G37*
G36*
G01X1042900Y543761D02*
G01X1042900Y594561D01*
G01X1049622Y594780D01*
G01X1055982Y595357D01*
G01X1067110Y597111D01*
G01X1075283Y598864D01*
G01X1079500Y599661D01*
G01X1079500Y538661D01*
G01X1075283Y539457D01*
G01X1067110Y541211D01*
G01X1055982Y542964D01*
G01X1049622Y543541D01*
G01X1042900Y543761D01*
G37*
G36*
G01X931088Y392200D02*
G01X981888Y392200D01*
G01X982107Y385478D01*
G01X982685Y379118D01*
G01X984438Y367990D01*
G01X986191Y359817D01*
G01X986988Y355600D01*
G01X925988Y355600D01*
G01X926785Y359817D01*
G01X928538Y367990D01*
G01X930291Y379118D01*
G01X930869Y385478D01*
G01X931088Y392200D01*
G37*
G36*
G01X2578100Y536824D02*
G01X2603500Y536824D01*
G01X2603729Y533935D01*
G01X2604375Y531054D01*
G01X2606680Y525428D01*
G01X2609939Y520162D01*
G01X2613675Y515474D01*
G01X2567925Y515474D01*
G01X2571661Y520162D01*
G01X2574920Y525428D01*
G01X2577225Y531054D01*
G01X2577871Y533935D01*
G01X2578100Y536824D01*
G37*
G36*
G01X2549276Y342900D02*
G01X2549276Y368300D01*
G01X2552165Y368529D01*
G01X2555046Y369175D01*
G01X2560672Y371480D01*
G01X2565938Y374739D01*
G01X2570626Y378475D01*
G01X2570626Y332725D01*
G01X2565938Y336461D01*
G01X2560672Y339720D01*
G01X2555046Y342025D01*
G01X2552165Y342671D01*
G01X2549276Y342900D01*
G37*
G36*
G01X2060824Y431800D02*
G01X2060824Y406400D01*
G01X2057935Y406171D01*
G01X2055054Y405525D01*
G01X2049428Y403220D01*
G01X2044162Y399961D01*
G01X2039474Y396225D01*
G01X2039474Y441975D01*
G01X2044162Y438239D01*
G01X2049428Y434980D01*
G01X2055054Y432675D01*
G01X2057935Y432029D01*
G01X2060824Y431800D01*
G37*
G36*
G01X3704969Y516485D02*
G01X3687009Y498525D01*
G03X3647496Y530854I-181401J-181402D01*
G01X3672640Y555999D01*
G03X3704969Y516485I213730J141888D01*
G37*
G36*
G01X2218250Y4586388D02*
G02X2161949Y4339587I-569090J-0D01*
G01X2206851Y4294686D01*
G02X2314349Y4294343I53577J-54265D01*
G01X2284924Y4411200D01*
G01X2281750Y4603059D01*
G01X2218250Y4586388D01*
G37*
G36*
G01X749300Y670761D02*
G02X800100Y823161I254000J0D01*
G01X723451Y848561D01*
G01X647700Y823161D01*
G02X698500Y670761I-203200J-152400D01*
G01X749300Y670761D01*
G37*
G36*
G01X931088Y355600D02*
G03X880288Y448765I-110830J0D01*
G01X956765Y474165D01*
G01X1032688Y448765D01*
G03X981888Y355600I60030J-93165D01*
G01X931088Y355600D01*
G37*
G04 TearDrop End*

G04 Pad Start*
G54D11*
G01X901700Y4794098D03*
G01X901700Y4934102D03*
G01X1092200Y4438498D03*
G01X1092200Y4578502D03*
G01X1663700Y4937361D03*
G01X1663700Y4797356D03*
G54D12*
G01X1067600Y1918462D03*
G01X1167600Y1918462D03*
G01X1117613Y1789938D03*
G54D13*
G01X3588361Y389490D03*
G01X3448356Y389490D03*
G01X870102Y2057400D03*
G01X730098Y2057400D03*
G54D14*
G01X292101Y1998599D03*
G01X292101Y1798599D03*
G01X292101Y1598600D03*
G01X292101Y1398600D03*
G01X292101Y1198601D03*
G54D15*
G01X292101Y998601D03*
G54D17*
G01X2781300Y4166807D03*
G01X2781300Y4316794D03*
G54D18*
G01X1117587Y1535201D03*
G01X1067600Y1665199D03*
G01X1167600Y1665199D03*
G54D19*
G01X901700Y4583836D03*
G01X901700Y4433164D03*
G54D20*
G01X3009036Y863600D03*
G01X2858364Y863600D03*
G01X3009036Y685800D03*
G01X2858364Y685800D03*
G54D19*
G01X892885Y1584049D03*
G01X892885Y1734722D03*
G01X1282700Y4583836D03*
G01X1282700Y4433164D03*
G54D21*
G01X2800000Y1818491D03*
G01X2800000Y1381509D03*
G54D22*
G01X1342495Y1824993D03*
G01X1342495Y1524994D03*
G01X1342495Y1375007D03*
G54D23*
G01X1657505Y1235002D03*
G01X1657505Y1964998D03*
G01X1427483Y1964998D03*
G01X1427483Y1235002D03*
G54D24*
G01X720001Y4075005D03*
G01X869988Y4075005D03*
G01X1020001Y4075005D03*
G01X1169988Y4075005D03*
G01X1320000Y4075005D03*
G01X1469987Y4075005D03*
G01X1619999Y4075005D03*
G01X1769986Y4075005D03*
G01X1919999Y4075005D03*
G01X1919999Y2324995D03*
G01X1769986Y2324995D03*
G01X1619999Y2324995D03*
G01X1469987Y2324995D03*
G01X1320000Y2324995D03*
G01X1169988Y2324995D03*
G01X1020001Y2324995D03*
G01X869988Y2324995D03*
G01X720001Y2324995D03*
G54D25*
G01X1229982Y3213995D03*
G01X1339990Y3213995D03*
G01X1449997Y3213995D03*
G01X1229982Y3104013D03*
G01X1339990Y3104013D03*
G01X1449997Y3104013D03*
G01X1449997Y2994006D03*
G01X1339990Y2994006D03*
G01X1229982Y2994006D03*
G54D26*
G01X1289304Y4982726D03*
G01X1384300Y4982726D03*
G01X1479296Y4982726D03*
G54D27*
G01X1479296Y4751992D03*
G01X1289304Y4751992D03*
G54D28*
G01X3803806Y958488D03*
G01X3803806Y831488D03*
G01X3803806Y704488D03*
G01X3803806Y577488D03*
G01X3222146Y577488D03*
G01X3222146Y704488D03*
G01X3222146Y831488D03*
G01X3222146Y958488D03*
G54D29*
G01X3512976Y767988D03*
G54D30*
G01X2030011Y4647498D03*
G54D31*
G01X2150000Y4647498D03*
G01X2250000Y4647498D03*
G01X2350000Y4647498D03*
G01X2450000Y4647498D03*
G54D30*
G01X2569989Y4647498D03*
G54D32*
G01X2731990Y5052501D03*
G01X1868009Y5052501D03*
G01X2731990Y4672492D03*
G01X1868009Y4672492D03*
G54D17*
G01X2336800Y4166807D03*
G01X2336800Y4316794D03*
G01X2641600Y4166807D03*
G01X2641600Y4316794D03*
G54D33*
G01X1065120Y664157D03*
G01X1065120Y474165D03*
G01X865120Y569161D03*
G01X1446120Y664157D03*
G01X1446120Y474165D03*
G01X1246120Y569161D03*
G54D20*
G01X1040456Y848561D03*
G01X889784Y848561D03*
G54D19*
G01X2184400Y4166464D03*
G01X2184400Y4317136D03*
G01X2489200Y4166464D03*
G01X2489200Y4317136D03*
G54D20*
G01X1473984Y848561D03*
G01X1624656Y848561D03*
G54D19*
G01X1638220Y644497D03*
G01X1638220Y493824D03*
G54D34*
G01X525000Y4675000D03*
G01X4075000Y4675000D03*
G01X2300000Y1050000D03*
G54D19*
G01X3988258Y834854D03*
G01X3988258Y985526D03*
G54D11*
G01X1092200Y4797356D03*
G01X1092200Y4937361D03*
G54D19*
G01X692885Y1734722D03*
G01X692885Y1584049D03*
G04 Pad End*

G04 Via Start*
G54D35*
G01X1079500Y569161D03*
G01X956488Y355600D03*
G01X2590800Y495300D03*
G01X2590800Y355600D03*
G01X2019300Y419100D03*
G01X3448356Y313290D03*
G01X1271588Y2172595D03*
G01X1121601Y2172595D03*
G01X1587501Y2157400D03*
G01X1453497Y2477395D03*
G01X2717800Y1041400D03*
G01X2717800Y609600D03*
G01X1371600Y2171700D03*
G01X1854200Y2171700D03*
G01X1778000Y850900D03*
G01X1471200Y3328400D03*
G01X2806700Y1993900D03*
G01X3516562Y481253D03*
G01X774700Y1917700D03*
G01X711200Y1854200D03*
G01X1035628Y1812894D03*
G01X1565253Y283502D03*
G01X1458820Y363002D03*
G01X614566Y5049500D03*
G01X741566Y5049500D03*
G01X868566Y5049500D03*
G01X995566Y5049500D03*
G01X1122566Y5049500D03*
G01X614566Y4922500D03*
G01X741566Y4922500D03*
G01X741566Y4795500D03*
G01X1155700Y4686300D03*
G01X1036939Y4686300D03*
G01X720001Y3213100D03*
G01X863600Y3225800D03*
G01X1769986Y2578100D03*
G01X1638300Y1092200D03*
G04 Via End*

G04 Track Start*
G54D36*
G01X865120Y569161D02*
G01X1079500Y569161D01*
G54D37*
G01X2450000Y4535000D02*
G01X2540000Y4445000D01*
G01X2781300Y4316794D02*
G01X3222146Y3875947D01*
G54D36*
G01X723451Y848561D02*
G01X723900Y848112D01*
G54D37*
G01X3222146Y3875947D02*
G01X3222146Y958488D01*
G01X2540000Y4445000D02*
G01X2653094Y4445000D01*
G01X2781300Y4316794D01*
G01X2250000Y4647498D02*
G01X2250000Y4382736D01*
G01X2184400Y4317136D01*
G01X2336800Y4316794D02*
G01X2270857Y4382736D01*
G01X2250000Y4382736D01*
G01X2350000Y4456337D02*
G01X2489200Y4317136D01*
G01X2350000Y4647498D02*
G01X2350000Y4456337D01*
G01X2489200Y4317136D02*
G01X2641257Y4317136D01*
G01X2641600Y4316794D01*
G54D36*
G01X203984Y848561D02*
G01X723451Y848561D01*
G01X889784Y848561D01*
G01X723900Y848112D02*
G01X723900Y546100D01*
G01X795835Y474165D01*
G01X956488Y355600D02*
G01X956488Y473888D01*
G01X956765Y474165D01*
G01X795835Y474165D02*
G01X956765Y474165D01*
G01X1065120Y474165D02*
G01X956765Y474165D01*
G54D38*
G01X3988258Y834854D02*
G01X3807172Y834854D01*
G01X3803806Y831488D01*
G01X3009036Y863600D02*
G01X3190034Y863600D01*
G01X3222146Y831488D01*
G01X3009036Y685800D02*
G01X3203458Y685800D01*
G01X3222146Y704488D01*
G01X1117587Y1535201D02*
G01X941732Y1535201D01*
G01X892885Y1584049D01*
G01X1067600Y1665199D02*
G01X1067600Y1739176D01*
G01X1117613Y1789189D01*
G54D36*
G01X1065120Y664157D02*
G01X1065120Y823897D01*
G01X1040456Y848561D01*
G01X1065120Y664157D02*
G01X1151124Y664157D01*
G01X1246120Y569161D01*
G01X1446120Y664157D02*
G01X1471520Y689557D01*
G01X1471520Y846097D01*
G01X1473984Y848561D01*
G54D38*
G01X1282700Y4433164D02*
G01X1308100Y4433164D01*
G01X1619999Y4121264D01*
G01X1619999Y4075005D01*
G54D36*
G01X901700Y4794098D02*
G01X1088941Y4794098D01*
G01X1092200Y4797356D01*
G01X1243940Y4797356D01*
G01X1289304Y4751992D01*
G01X1289304Y4590440D01*
G01X1282700Y4583836D01*
G01X901700Y4794098D02*
G01X901700Y4583836D01*
G01X720001Y4402138D01*
G01X720001Y4075005D01*
G54D37*
G01X3448356Y389490D02*
G01X3448356Y313290D01*
G54D38*
G01X870102Y2057400D02*
G01X870102Y1757504D01*
G01X892885Y1734722D01*
G01X692885Y1734722D01*
G01X1092200Y4438498D02*
G01X907034Y4438498D01*
G01X901700Y4433164D01*
G01X901700Y4106716D01*
G01X869988Y4075005D01*
G01X1169988Y2324995D02*
G01X1169988Y2274195D01*
G01X1271588Y2172595D01*
G01X1020001Y2324995D02*
G01X1020001Y2274195D01*
G01X1121601Y2172595D01*
G01X1587501Y2157400D02*
G01X1653191Y2157400D01*
G01X1769986Y2274195D01*
G01X1769986Y2324995D01*
G01X1453497Y2477395D02*
G01X1529697Y2477395D01*
G01X1619999Y2387093D01*
G01X1619999Y2324995D01*
G54D36*
G01X3803806Y577488D02*
G01X3676806Y577488D01*
G01X3651406Y552088D01*
G54D37*
G01X2450000Y4647498D02*
G01X2450000Y4749098D01*
G01X2399200Y4799898D01*
G01X2200800Y4799898D01*
G01X2150000Y4749098D01*
G01X2150000Y4647498D01*
G01X2450000Y4647498D02*
G01X2450000Y4535000D01*
G54D36*
G01X3272946Y958488D02*
G01X3222146Y958488D01*
G01X3340100Y891334D02*
G01X3272946Y958488D01*
G54D37*
G01X3448356Y389490D02*
G01X3410144Y389490D01*
G01X3222146Y577488D01*
G01X2717800Y609600D02*
G01X2749912Y577488D01*
G01X3222146Y577488D01*
G54D36*
G01X2070100Y4188061D02*
G01X2070100Y2232261D01*
G01X1917700Y2079861D01*
G01X1816100Y4785781D02*
G01X1772409Y4742091D01*
G01X1368661Y2079861D02*
G01X1244600Y1955800D01*
G01X1917700Y2079861D02*
G01X1368661Y2079861D01*
G01X1244600Y1955800D02*
G01X1244600Y1793759D01*
G01X1180800Y1729959D01*
G01X1181693Y1599607D02*
G01X1256306Y1524994D01*
G01X1342495Y1524994D01*
G54D37*
G01X1651000Y4950061D02*
G01X1537360Y4950061D01*
G01X1663700Y4937361D02*
G01X1651000Y4950061D01*
G01X1537360Y4950061D02*
G01X1504696Y4982726D01*
G01X1479296Y4982726D01*
G01X1479296Y5061204D01*
G01X1435100Y5105400D01*
G01X1333500Y5105400D01*
G01X1288599Y5060499D01*
G01X1288599Y4983431D01*
G01X1289304Y4982726D01*
G54D36*
G01X1180800Y1729959D02*
G01X1181693Y1599607D01*
G01X1772409Y4485752D02*
G01X2070100Y4188061D01*
G01X1772409Y4742091D02*
G01X1772409Y4485752D01*
G01X1663700Y4937361D02*
G01X1768239Y4937361D01*
G01X1816100Y4889500D01*
G01X1816100Y4785781D01*
G01X292101Y1998599D02*
G01X127000Y1833498D01*
G01X127000Y925544D01*
G01X203984Y848561D01*
G54D37*
G01X2717800Y1054100D02*
G01X2717800Y1041400D01*
G01X1342494Y1824993D02*
G01X1371701Y1854200D01*
G01X1917700Y1854200D01*
G01X2717800Y1054100D01*
G54D38*
G01X3638188Y247288D02*
G01X2381612Y247288D01*
G01X2209800Y419100D01*
G01X2019300Y419100D01*
G01X2451100Y406400D02*
G01X2501900Y355600D01*
G01X2590800Y355600D01*
G01X1469987Y4075005D02*
G01X1469987Y3329613D01*
G01X1471200Y3328400D01*
G01X2673310Y685801D02*
G01X2858364Y685800D01*
G01X2858364Y863600D02*
G01X2641600Y863600D01*
G01X2451100Y673100D01*
G01X2451100Y406400D01*
G01X2590800Y495300D02*
G01X2590800Y603290D01*
G01X2673310Y685801D01*
G01X1320000Y2324995D02*
G01X1320000Y2223300D01*
G01X1371600Y2171700D01*
G01X1919999Y2324995D02*
G01X1919999Y2237499D01*
G01X1854200Y2171700D01*
G01X1778000Y850900D02*
G01X1626996Y850900D01*
G01X1624656Y848561D01*
G54D36*
G01X1471520Y689557D02*
G01X1516579Y644497D01*
G01X1638220Y644497D01*
G54D38*
G01X2806700Y1993900D02*
G01X2806700Y1825191D01*
G01X2800000Y1818491D01*
G54D36*
G01X3651406Y552088D02*
G01X3647242Y556253D01*
G01X3368047Y556253D01*
G01X3340100Y584200D01*
G01X3340100Y891334D01*
G54D38*
G01X3516562Y481253D02*
G01X3588361Y409455D01*
G01X3588361Y389490D01*
G01X3651406Y552088D02*
G01X3708400Y495094D01*
G01X3708400Y317500D01*
G01X3638188Y247288D01*
G01X1167600Y1919211D02*
G01X1167600Y1891500D01*
G01X1130300Y1854200D01*
G54D37*
G01X1339990Y3213995D02*
G01X1449997Y3213995D01*
G01X1449997Y3104013D01*
G01X1229982Y2994006D02*
G01X1229982Y3104013D01*
G01X1339990Y3213995D02*
G01X1229982Y3213995D01*
G01X1229982Y3104013D01*
G01X1449997Y3104013D02*
G01X1449997Y2994006D01*
G01X1229982Y2994006D02*
G01X1339990Y2994006D01*
G01X1449997Y2994006D01*
G01X1339990Y2994006D02*
G01X1339990Y3104013D01*
G01X1339990Y3213995D01*
G54D36*
G01X1229982Y3104013D02*
G01X1339990Y3104013D01*
G01X1449997Y3104013D01*
G01X720001Y4075005D02*
G01X720001Y3213100D01*
G54D38*
G01X1130300Y1854200D02*
G01X1076934Y1854200D01*
G01X1035628Y1812894D01*
G01X870102Y2324881D02*
G01X870102Y2057400D01*
G01X720001Y2324995D02*
G01X720001Y2180501D01*
G01X571500Y2032000D02*
G01X571500Y1701800D01*
G01X615950Y1657350D01*
G01X963985Y1682841D02*
G01X963985Y1687885D01*
G01X615950Y1657350D02*
G01X938494Y1657350D01*
G01X963985Y1682841D01*
G01X963985Y1687885D02*
G01X977900Y1701800D01*
G01X977900Y1788032D01*
G01X977228Y1788704D01*
G01X977228Y1837084D01*
G01X977900Y1837756D01*
G01X977900Y1854200D01*
G01X1042911Y1919211D01*
G01X1067600Y1919211D01*
G01X720001Y2180501D02*
G01X571500Y2032000D01*
G01X869988Y4075005D02*
G01X869988Y3232188D01*
G01X863600Y3225800D01*
G01X1769986Y4075005D02*
G01X1769986Y2578100D01*
G01X1638300Y1092200D02*
G01X398502Y1092200D01*
G01X292101Y1198601D01*
G04 Track End*

M02*

