G04 Layer: BottomSilkscreenLayer*
G04 EasyEDA Pro v3.2.69, 2026-01-08 09:06:00*
G04 Gerber Generator version 0.3*
G04 Scale: 100 percent, Rotated: No, Reflected: No*
G04 Dimensions in millimeters*
G04 Leading zeros omitted, absolute positions, 4 integers and 5 decimals*
G04 Generated by one-click*
%FSLAX45Y45*%
%MOMM*%
%ADD10C,0.1524*%
%ADD11C,0.2032*%
%ADD12C,0.254*%
%ADD13C,0.15199*%
%ADD14C,0.13*%
%ADD15C,0.1*%
%ADD16C,0.18999*%
%ADD17C,0.2055*%
%ADD18C,0.2*%
%ADD19C,0.25*%
%ADD20C,0.5*%
%ADD21C,0.3*%
G75*


G04 Image Start*
G36*
G01X3601497Y2566414D02*
G01X3631593Y2513708D01*
G01X3601497Y2461004D01*
G01X3571401Y2408300D01*
G01X3571315Y2430780D01*
G01X3571228Y2453259D01*
G01X3538400Y2453381D01*
G01X3505571Y2453503D01*
G01X3502464Y2454073D01*
G01X3499356Y2454643D01*
G01X3496082Y2455690D01*
G01X3492808Y2456738D01*
G01X3490457Y2457919D01*
G01X3488106Y2459100D01*
G01X3486100Y2460463D01*
G01X3484093Y2461825D01*
G01X3481881Y2464039D01*
G01X3479669Y2466253D01*
G01X3478301Y2468268D01*
G01X3476934Y2470283D01*
G01X3475605Y2472964D01*
G01X3474275Y2475646D01*
G01X3437594Y2538766D01*
G01X3400913Y2601887D01*
G01X3400713Y2602456D01*
G01X3400513Y2603026D01*
G01X3402771Y2600064D01*
G01X3405028Y2597103D01*
G01X3408435Y2593563D01*
G01X3411841Y2590024D01*
G01X3414372Y2587979D01*
G01X3416903Y2585934D01*
G01X3419925Y2583966D01*
G01X3422948Y2582000D01*
G01X3426307Y2580367D01*
G01X3429665Y2578735D01*
G01X3432184Y2577833D01*
G01X3434703Y2576931D01*
G01X3437938Y2576112D01*
G01X3441172Y2575293D01*
G01X3444655Y2574729D01*
G01X3448138Y2574166D01*
G01X3509683Y2574044D01*
G01X3571228Y2573922D01*
G01X3571315Y2596521D01*
G01X3571401Y2619119D01*
G01X3601497Y2566414D01*
G37*
G36*
G01X3733973Y2907846D02*
G01X3736673Y2907391D01*
G01X3739683Y2906337D01*
G01X3742693Y2905282D01*
G01X3745616Y2903749D01*
G01X3748540Y2902216D01*
G01X3751349Y2900106D01*
G01X3754159Y2897996D01*
G01X3756990Y2895200D01*
G01X3759822Y2892404D01*
G01X3761871Y2889883D01*
G01X3763920Y2887363D01*
G01X3771817Y2873247D01*
G01X3779713Y2859130D01*
G01X3794328Y2832747D01*
G01X3808943Y2806364D01*
G01X3816542Y2792600D01*
G01X3824140Y2778837D01*
G01X3823888Y2778605D01*
G01X3823637Y2778373D01*
G01X3772753Y2748422D01*
G01X3721869Y2718470D01*
G01X3721418Y2719061D01*
G01X3720966Y2719651D01*
G01X3705514Y2746371D01*
G01X3690061Y2773090D01*
G01X3671562Y2804851D01*
G01X3653063Y2836612D01*
G01X3643435Y2852913D01*
G01X3633807Y2869213D01*
G01X3630923Y2873929D01*
G01X3628039Y2878645D01*
G01X3625659Y2881827D01*
G01X3623280Y2885010D01*
G01X3620090Y2888435D01*
G01X3616900Y2891861D01*
G01X3613478Y2894616D01*
G01X3610056Y2897370D01*
G01X3607690Y2898899D01*
G01X3605323Y2900429D01*
G01X3601965Y2902147D01*
G01X3598606Y2903865D01*
G01X3594408Y2905253D01*
G01X3590209Y2906640D01*
G01X3587187Y2907181D01*
G01X3584164Y2907722D01*
G01X3580973Y2907999D01*
G01X3577782Y2908276D01*
G01X3654528Y2908288D01*
G01X3731273Y2908300D01*
G01X3733973Y2907846D01*
G37*
G36*
G01X3911281Y2718514D02*
G01X3910962Y2718217D01*
G01X3891849Y2707930D01*
G01X3872736Y2697643D01*
G01X3872575Y2697483D01*
G01X3872415Y2697322D01*
G01X3887399Y2671832D01*
G01X3902382Y2646341D01*
G01X3903531Y2643841D01*
G01X3904679Y2641341D01*
G01X3905700Y2638277D01*
G01X3906721Y2635213D01*
G01X3907268Y2632395D01*
G01X3907816Y2629577D01*
G01X3908008Y2625686D01*
G01X3908200Y2621795D01*
G01X3907621Y2618329D01*
G01X3907042Y2614863D01*
G01X3906188Y2612306D01*
G01X3905333Y2609748D01*
G01X3904070Y2607227D01*
G01X3902807Y2604707D01*
G01X3866496Y2542212D01*
G01X3830186Y2479718D01*
G01X3830186Y2479877D01*
G01X3830186Y2480036D01*
G01X3831356Y2482811D01*
G01X3832526Y2485587D01*
G01X3833534Y2488851D01*
G01X3834543Y2492114D01*
G01X3835119Y2494971D01*
G01X3835695Y2497828D01*
G01X3835707Y2504718D01*
G01X3835720Y2511608D01*
G01X3834948Y2515305D01*
G01X3834176Y2519002D01*
G01X3833170Y2522016D01*
G01X3832165Y2525030D01*
G01X3830878Y2527778D01*
G01X3829591Y2530526D01*
G01X3827403Y2534175D01*
G01X3825214Y2537824D01*
G01X3797867Y2585381D01*
G01X3770521Y2632939D01*
G01X3770200Y2633518D01*
G01X3769880Y2634098D01*
G01X3750476Y2623649D01*
G01X3731071Y2613199D01*
G01X3730931Y2613339D01*
G01X3730790Y2613480D01*
G01X3760864Y2666145D01*
G01X3790937Y2718811D01*
G01X3851268Y2718811D01*
G01X3911600Y2718811D01*
G01X3911281Y2718514D01*
G37*
G36*
G01X3513925Y2721836D02*
G01X3564599Y2691974D01*
G01X3564948Y2691625D01*
G01X3565296Y2691277D01*
G01X3535265Y2638669D01*
G01X3505235Y2586061D01*
G01X3475629Y2586057D01*
G01X3446021Y2586053D01*
G01X3442199Y2586707D01*
G01X3438378Y2587361D01*
G01X3435197Y2588423D01*
G01X3432016Y2589485D01*
G01X3429046Y2590971D01*
G01X3426075Y2592457D01*
G01X3424008Y2593846D01*
G01X3421940Y2595235D01*
G01X3419189Y2597554D01*
G01X3416438Y2599872D01*
G01X3414111Y2602626D01*
G01X3411785Y2605379D01*
G01X3410104Y2607899D01*
G01X3408423Y2610420D01*
G01X3406908Y2613445D01*
G01X3405394Y2616470D01*
G01X3404372Y2619523D01*
G01X3403350Y2622576D01*
G01X3402786Y2625236D01*
G01X3402223Y2627897D01*
G01X3402046Y2632434D01*
G01X3401870Y2636972D01*
G01X3402263Y2639997D01*
G01X3402656Y2643021D01*
G01X3403486Y2646106D01*
G01X3404315Y2649191D01*
G01X3405487Y2651988D01*
G01X3406658Y2654785D01*
G01X3408274Y2657642D01*
G01X3409890Y2660498D01*
G01X3422169Y2681504D01*
G01X3434449Y2702510D01*
G01X3444840Y2720491D01*
G01X3455231Y2738472D01*
G01X3459039Y2745110D01*
G01X3462847Y2751748D01*
G01X3463049Y2751723D01*
G01X3463252Y2751697D01*
G01X3513925Y2721836D01*
G37*
G36*
G01X3584159Y2895883D02*
G01X3586504Y2895583D01*
G01X3589836Y2894740D01*
G01X3593167Y2893897D01*
G01X3596262Y2892603D01*
G01X3599357Y2891309D01*
G01X3601748Y2889912D01*
G01X3604139Y2888514D01*
G01X3606746Y2886542D01*
G01X3609354Y2884571D01*
G01X3612072Y2881765D01*
G01X3614790Y2878960D01*
G01X3616379Y2876789D01*
G01X3617968Y2874618D01*
G01X3620581Y2870403D01*
G01X3623194Y2866189D01*
G01X3627052Y2859635D01*
G01X3630910Y2853081D01*
G01X3634946Y2845855D01*
G01X3638983Y2838629D01*
G01X3642770Y2831411D01*
G01X3646557Y2824194D01*
G01X3646221Y2823345D01*
G01X3645884Y2822496D01*
G01X3632749Y2799158D01*
G01X3619613Y2775820D01*
G01X3619689Y2775750D01*
G01X3619766Y2775681D01*
G01X3638742Y2764015D01*
G01X3657719Y2752349D01*
G01X3658210Y2751880D01*
G01X3658702Y2751412D01*
G01X3598426Y2751424D01*
G01X3538150Y2751436D01*
G01X3508139Y2804044D01*
G01X3478127Y2856651D01*
G01X3478283Y2856807D01*
G01X3478439Y2856963D01*
G01X3495364Y2847850D01*
G01X3512288Y2838737D01*
G01X3514335Y2837603D01*
G01X3516381Y2836470D01*
G01X3517437Y2839230D01*
G01X3518492Y2841990D01*
G01X3521805Y2848039D01*
G01X3525119Y2854089D01*
G01X3529675Y2862323D01*
G01X3534230Y2870558D01*
G01X3535350Y2872554D01*
G01X3536471Y2874551D01*
G01X3538687Y2877432D01*
G01X3540904Y2880314D01*
G01X3543977Y2883209D01*
G01X3547051Y2886105D01*
G01X3549822Y2887963D01*
G01X3552593Y2889822D01*
G01X3555615Y2891328D01*
G01X3558638Y2892835D01*
G01X3561829Y2893854D01*
G01X3565020Y2894873D01*
G01X3566699Y2895226D01*
G01X3568378Y2895580D01*
G01X3571005Y2895924D01*
G01X3573633Y2896269D01*
G01X3577723Y2896226D01*
G01X3581813Y2896184D01*
G01X3584159Y2895883D01*
G37*
G36*
G01X3788972Y2569501D02*
G01X3790100Y2567736D01*
G01X3794300Y2560678D01*
G01X3798500Y2553620D01*
G01X3802746Y2546005D01*
G01X3806992Y2538390D01*
G01X3811143Y2530545D01*
G01X3815294Y2522699D01*
G01X3817483Y2519455D01*
G01X3819673Y2516210D01*
G01X3821086Y2512985D01*
G01X3822500Y2509759D01*
G01X3823360Y2506482D01*
G01X3824221Y2503206D01*
G01X3824385Y2498332D01*
G01X3824548Y2493459D01*
G01X3823994Y2490266D01*
G01X3823440Y2487073D01*
G01X3822297Y2483655D01*
G01X3821154Y2480236D01*
G01X3820109Y2478164D01*
G01X3819064Y2476092D01*
G01X3817566Y2473685D01*
G01X3816069Y2471277D01*
G01X3813997Y2468644D01*
G01X3811924Y2466011D01*
G01X3809088Y2463355D01*
G01X3806252Y2460700D01*
G01X3803189Y2458653D01*
G01X3800126Y2456607D01*
G01X3797377Y2455288D01*
G01X3794628Y2453970D01*
G01X3791668Y2452985D01*
G01X3788706Y2451999D01*
G01X3786188Y2451469D01*
G01X3783668Y2450939D01*
G01X3779134Y2450595D01*
G01X3774600Y2450252D01*
G01X3721029Y2450345D01*
G01X3667459Y2450439D01*
G01X3667459Y2510768D01*
G01X3667459Y2571097D01*
G01X3727652Y2571182D01*
G01X3787845Y2571267D01*
G01X3788972Y2569501D01*
G37*
G36*
G01X3829168Y2477979D02*
G01X3829157Y2477662D01*
G01X3828664Y2477010D01*
G01X3828171Y2476358D01*
G01X3828182Y2476674D01*
G01X3828192Y2476990D01*
G01X3828685Y2477643D01*
G01X3829178Y2478295D01*
G01X3829168Y2477979D01*
G37*
G36*
G01X3829850Y2479175D02*
G01X3829850Y2478727D01*
G01X3829626Y2478951D01*
G01X3829402Y2479175D01*
G01X3829626Y2479399D01*
G01X3829850Y2479623D01*
G01X3829850Y2479175D01*
G37*
G36*
G01X3400277Y2603530D02*
G01X3400277Y2603082D01*
G01X3400053Y2603306D01*
G01X3399829Y2603530D01*
G01X3400053Y2603754D01*
G01X3400277Y2603978D01*
G01X3400277Y2603530D01*
G37*
G36*
G01X3827499Y2475310D02*
G01X3827499Y2475142D01*
G01X3827331Y2475142D01*
G01X3827163Y2475142D01*
G01X3827163Y2475310D01*
G01X3827163Y2475478D01*
G01X3827331Y2475478D01*
G01X3827499Y2475478D01*
G01X3827499Y2475310D01*
G37*
G36*
G01X4016292Y2182871D02*
G01X4021473Y2181475D01*
G01X4024064Y2181435D01*
G01X4026654Y2181394D01*
G01X4028021Y2180359D01*
G01X4029388Y2179325D01*
G01X4034080Y2178823D01*
G01X4038771Y2178321D01*
G01X4039125Y2177402D01*
G01X4039477Y2176483D01*
G01X4042787Y2176030D01*
G01X4046097Y2175576D01*
G01X4048589Y2174143D01*
G01X4051081Y2172709D01*
G01X4053532Y2172199D01*
G01X4055983Y2171689D01*
G01X4059084Y2169917D01*
G01X4062184Y2168146D01*
G01X4063294Y2168133D01*
G01X4064404Y2168119D01*
G01X4066255Y2167135D01*
G01X4068105Y2166151D01*
G01X4074954Y2162332D01*
G01X4081802Y2158513D01*
G01X4082854Y2158513D01*
G01X4083906Y2158513D01*
G01X4086037Y2156479D01*
G01X4088168Y2154445D01*
G01X4091830Y2152369D01*
G01X4095493Y2150293D01*
G01X4100358Y2146822D01*
G01X4105224Y2143351D01*
G01X4113312Y2136576D01*
G01X4121399Y2129802D01*
G01X4124751Y2125852D01*
G01X4128102Y2121902D01*
G01X4130642Y2118573D01*
G01X4133183Y2115245D01*
G01X4136745Y2111284D01*
G01X4140308Y2107323D01*
G01X4145053Y2100131D01*
G01X4149799Y2092940D01*
G01X4154620Y2084082D01*
G01X4159441Y2075225D01*
G01X4161349Y2068646D01*
G01X4163257Y2062067D01*
G01X4164259Y2060920D01*
G01X4165260Y2059773D01*
G01X4165756Y2056321D01*
G01X4166253Y2052868D01*
G01X4167328Y2051977D01*
G01X4168401Y2051087D01*
G01X4168401Y2047876D01*
G01X4168401Y2044666D01*
G01X4169778Y2041125D01*
G01X4171154Y2037585D01*
G01X4171572Y2030928D01*
G01X4171990Y2024272D01*
G01X4172862Y2022052D01*
G01X4173734Y2019834D01*
G01X4173844Y1998754D01*
G01X4173953Y1977675D01*
G01X4173018Y1974601D01*
G01X4172083Y1971527D01*
G01X4170609Y1960918D01*
G01X4169136Y1950309D01*
G01X4167238Y1942913D01*
G01X4165341Y1935517D01*
G01X4164352Y1933988D01*
G01X4163364Y1932459D01*
G01X4161779Y1926961D01*
G01X4160194Y1921464D01*
G01X4158738Y1918759D01*
G01X4157282Y1916055D01*
G01X4156199Y1912988D01*
G01X4155116Y1909920D01*
G01X4150100Y1902465D01*
G01X4145085Y1895010D01*
G01X4143235Y1892199D01*
G01X4141384Y1889387D01*
G01X4134175Y1880556D01*
G01X4126966Y1871725D01*
G01X4123996Y1869044D01*
G01X4121025Y1866362D01*
G01X4120379Y1866362D01*
G01X4119733Y1866362D01*
G01X4114292Y1861487D01*
G01X4108851Y1856611D01*
G01X4106613Y1855488D01*
G01X4104375Y1854365D01*
G01X4101784Y1851948D01*
G01X4099193Y1849530D01*
G01X4088765Y1843954D01*
G01X4078336Y1838377D01*
G01X4075071Y1837508D01*
G01X4071806Y1836639D01*
G01X4070564Y1835532D01*
G01X4069321Y1834425D01*
G01X4066134Y1833709D01*
G01X4062946Y1832993D01*
G01X4061791Y1831949D01*
G01X4060637Y1830906D01*
G01X4055859Y1829463D01*
G01X4051081Y1828020D01*
G01X4046640Y1826857D01*
G01X4042199Y1825695D01*
G01X4035167Y1823806D01*
G01X4028135Y1821917D01*
G01X4020946Y1820517D01*
G01X4013758Y1819118D01*
G01X4004662Y1818147D01*
G01X3995567Y1817177D01*
G01X3982983Y1817177D01*
G01X3970400Y1817177D01*
G01X3970400Y1844173D01*
G01X3970400Y1871169D01*
G01X3977802Y1871626D01*
G01X3985204Y1872084D01*
G01X3989251Y1873291D01*
G01X3993298Y1874498D01*
G01X3997581Y1874498D01*
G01X4001863Y1874498D01*
G01X4004625Y1875977D01*
G01X4007388Y1877456D01*
G01X4009005Y1877456D01*
G01X4010623Y1877456D01*
G01X4017158Y1879000D01*
G01X4023694Y1880544D01*
G01X4024897Y1881620D01*
G01X4026101Y1882697D01*
G01X4028968Y1883160D01*
G01X4031836Y1883624D01*
G01X4034057Y1884975D01*
G01X4036277Y1886326D01*
G01X4037387Y1886331D01*
G01X4038497Y1886336D01*
G01X4043636Y1888923D01*
G01X4048776Y1891509D01*
G01X4049605Y1891509D01*
G01X4050434Y1891509D01*
G01X4055569Y1894578D01*
G01X4060703Y1897647D01*
G01X4063833Y1900495D01*
G01X4066962Y1903343D01*
G01X4067759Y1903343D01*
G01X4068556Y1903343D01*
G01X4076002Y1910554D01*
G01X4083449Y1917766D01*
G01X4085711Y1921094D01*
G01X4087973Y1924422D01*
G01X4090462Y1927225D01*
G01X4092950Y1930028D01*
G01X4093379Y1932170D01*
G01X4093808Y1934313D01*
G01X4094732Y1934667D01*
G01X4095656Y1935021D01*
G01X4098314Y1940250D01*
G01X4100973Y1945479D01*
G01X4101452Y1948031D01*
G01X4101931Y1950582D01*
G01X4103338Y1951855D01*
G01X4104745Y1953127D01*
G01X4104745Y1956068D01*
G01X4104745Y1959010D01*
G01X4106256Y1961453D01*
G01X4107767Y1963896D01*
G01X4107551Y1970046D01*
G01X4107336Y1976196D01*
G01X4058182Y1976386D01*
G01X4009029Y1976576D01*
G01X4008034Y1977401D01*
G01X4007040Y1978226D01*
G01X4007040Y2005132D01*
G01X4007040Y2032037D01*
G01X4008520Y2033517D01*
G01X4010000Y2034996D01*
G01X4057026Y2034996D01*
G01X4104051Y2034996D01*
G01X4104473Y2036093D01*
G01X4104894Y2037191D01*
G01X4101758Y2046078D01*
G01X4098622Y2054966D01*
G01X4097997Y2054966D01*
G01X4097371Y2054966D01*
G01X4095692Y2058239D01*
G01X4094012Y2061512D01*
G01X4092056Y2065080D01*
G01X4090100Y2068649D01*
G01X4084839Y2074532D01*
G01X4079578Y2080416D01*
G01X4079578Y2080941D01*
G01X4079578Y2081465D01*
G01X4074582Y2085372D01*
G01X4069586Y2089280D01*
G01X4063664Y2094171D01*
G01X4057743Y2099062D01*
G01X4052087Y2102533D01*
G01X4046431Y2106005D01*
G01X4044146Y2106461D01*
G01X4041862Y2106918D01*
G01X4041033Y2107915D01*
G01X4040205Y2108913D01*
G01X4034064Y2110784D01*
G01X4027924Y2112655D01*
G01X4027497Y2113765D01*
G01X4027071Y2114875D01*
G01X4025661Y2114875D01*
G01X4024250Y2114875D01*
G01X4021011Y2116040D01*
G01X4017772Y2117205D01*
G01X4011552Y2119028D01*
G01X4005331Y2120852D01*
G01X4002122Y2121291D01*
G01X3998913Y2121731D01*
G01X3998074Y2122741D01*
G01X3997236Y2123751D01*
G01X3990015Y2123751D01*
G01X3982794Y2123751D01*
G01X3981932Y2124788D01*
G01X3981071Y2125826D01*
G01X3975920Y2126342D01*
G01X3970770Y2126859D01*
G01X3970770Y2155629D01*
G01X3970770Y2184400D01*
G01X3990940Y2184333D01*
G01X4011110Y2184266D01*
G01X4016292Y2182871D01*
G37*
G36*
G01X4311629Y2183175D02*
G01X4314590Y2182055D01*
G01X4324046Y2180274D01*
G01X4333502Y2178494D01*
G01X4336259Y2177109D01*
G01X4339016Y2175725D01*
G01X4343087Y2174775D01*
G01X4347158Y2173825D01*
G01X4351599Y2172033D01*
G01X4356040Y2170242D01*
G01X4357891Y2169195D01*
G01X4359741Y2168148D01*
G01X4363072Y2166652D01*
G01X4366403Y2165157D01*
G01X4373375Y2161650D01*
G01X4380348Y2158143D01*
G01X4385711Y2154445D01*
G01X4391075Y2150747D01*
G01X4398724Y2145363D01*
G01X4406373Y2139979D01*
G01X4414537Y2132050D01*
G01X4422699Y2124121D01*
G01X4429367Y2116355D01*
G01X4436035Y2108588D01*
G01X4438319Y2105630D01*
G01X4440603Y2102672D01*
G01X4445561Y2093796D01*
G01X4450518Y2084921D01*
G01X4451892Y2083441D01*
G01X4453266Y2081962D01*
G01X4453807Y2079743D01*
G01X4454349Y2077524D01*
G01X4456823Y2072840D01*
G01X4459297Y2068156D01*
G01X4459297Y2066459D01*
G01X4459297Y2064762D01*
G01X4460407Y2063841D01*
G01X4461518Y2062921D01*
G01X4461518Y2059926D01*
G01X4461518Y2056931D01*
G01X4462673Y2055656D01*
G01X4463828Y2054381D01*
G01X4464508Y2049585D01*
G01X4465187Y2044790D01*
G01X4465965Y2042745D01*
G01X4466744Y2040699D01*
G01X4467508Y2035074D01*
G01X4468272Y2029449D01*
G01X4469336Y2025801D01*
G01X4470400Y2022154D01*
G01X4470376Y1997695D01*
G01X4470352Y1973237D01*
G01X4468920Y1969170D01*
G01X4467488Y1965101D01*
G01X4467463Y1961374D01*
G01X4467439Y1957646D01*
G01X4466225Y1953238D01*
G01X4465011Y1948830D01*
G01X4463079Y1940641D01*
G01X4461147Y1932452D01*
G01X4459955Y1931260D01*
G01X4458762Y1930069D01*
G01X4458294Y1927144D01*
G01X4457826Y1924221D01*
G01X4455601Y1919993D01*
G01X4453376Y1915767D01*
G01X4453360Y1914547D01*
G01X4453344Y1913328D01*
G01X4450029Y1908214D01*
G01X4446714Y1903101D01*
G01X4446714Y1902227D01*
G01X4446714Y1901353D01*
G01X4445177Y1899963D01*
G01X4443640Y1898574D01*
G01X4440984Y1893747D01*
G01X4438327Y1888920D01*
G01X4434215Y1883743D01*
G01X4430103Y1878565D01*
G01X4426750Y1874937D01*
G01X4423398Y1871309D01*
G01X4414886Y1864536D01*
G01X4406373Y1857763D01*
G01X4400800Y1853648D01*
G01X4395226Y1849533D01*
G01X4390067Y1846914D01*
G01X4384908Y1844295D01*
G01X4378246Y1840519D01*
G01X4371584Y1836742D01*
G01X4366485Y1835177D01*
G01X4361385Y1833612D01*
G01X4360008Y1832236D01*
G01X4358631Y1830860D01*
G01X4355913Y1830860D01*
G01X4353196Y1830860D01*
G01X4351945Y1829728D01*
G01X4350694Y1828597D01*
G01X4346705Y1827940D01*
G01X4342717Y1827284D01*
G01X4340577Y1826462D01*
G01X4338438Y1825640D01*
G01X4328734Y1823782D01*
G01X4319030Y1821924D01*
G01X4316117Y1820795D01*
G01X4313203Y1819667D01*
G01X4305384Y1819292D01*
G01X4297565Y1818918D01*
G01X4292608Y1817863D01*
G01X4287650Y1816807D01*
G01X4278373Y1816807D01*
G01X4269096Y1816807D01*
G01X4268690Y1818471D01*
G01X4268284Y1820135D01*
G01X4268491Y1846022D01*
G01X4268697Y1871909D01*
G01X4277210Y1872326D01*
G01X4285722Y1872743D01*
G01X4292013Y1873998D01*
G01X4298305Y1875253D01*
G01X4306817Y1877159D01*
G01X4315330Y1879064D01*
G01X4319771Y1880540D01*
G01X4324212Y1882016D01*
G01X4327173Y1882809D01*
G01X4330133Y1883601D01*
G01X4331984Y1884862D01*
G01X4333834Y1886124D01*
G01X4337906Y1887448D01*
G01X4341977Y1888773D01*
G01X4344554Y1890511D01*
G01X4347131Y1892249D01*
G01X4347818Y1892249D01*
G01X4348504Y1892249D01*
G01X4352446Y1895223D01*
G01X4356389Y1898197D01*
G01X4360416Y1900621D01*
G01X4364443Y1903046D01*
G01X4374431Y1912713D01*
G01X4384419Y1922381D01*
G01X4386635Y1926730D01*
G01X4388851Y1931079D01*
G01X4390328Y1931968D01*
G01X4391807Y1932857D01*
G01X4392294Y1935077D01*
G01X4392782Y1937296D01*
G01X4394240Y1939149D01*
G01X4395699Y1941001D01*
G01X4397103Y1944915D01*
G01X4398507Y1948830D01*
G01X4400376Y1953308D01*
G01X4402244Y1957786D01*
G01X4403371Y1964242D01*
G01X4404498Y1970699D01*
G01X4405251Y1972105D01*
G01X4406003Y1973510D01*
G01X4406003Y1997633D01*
G01X4406003Y2021756D01*
G01X4404965Y2023763D01*
G01X4403927Y2025769D01*
G01X4402278Y2033526D01*
G01X4400628Y2041283D01*
G01X4394400Y2053486D01*
G01X4388172Y2065690D01*
G01X4387234Y2066430D01*
G01X4386296Y2067169D01*
G01X4383085Y2071977D01*
G01X4379874Y2076785D01*
G01X4372901Y2083598D01*
G01X4365928Y2090412D01*
G01X4363204Y2092054D01*
G01X4360481Y2093695D01*
G01X4354190Y2098503D01*
G01X4347898Y2103311D01*
G01X4344197Y2104386D01*
G01X4340496Y2105461D01*
G01X4338065Y2107580D01*
G01X4335634Y2109698D01*
G01X4334723Y2109698D01*
G01X4333813Y2109698D01*
G01X4330988Y2111210D01*
G01X4328163Y2112723D01*
G01X4320636Y2115174D01*
G01X4313109Y2117624D01*
G01X4310227Y2118152D01*
G01X4307345Y2118680D01*
G01X4306288Y2119736D01*
G01X4305231Y2120792D01*
G01X4301145Y2120792D01*
G01X4297058Y2120792D01*
G01X4295176Y2122271D01*
G01X4293294Y2123751D01*
G01X4287218Y2123751D01*
G01X4281143Y2123751D01*
G01X4276840Y2125230D01*
G01X4272537Y2126709D01*
G01X4270432Y2126709D01*
G01X4268327Y2126709D01*
G01X4268327Y2155554D01*
G01X4268327Y2184400D01*
G01X4288498Y2184348D01*
G01X4308668Y2184296D01*
G01X4311629Y2183175D01*
G37*
G36*
G01X3497000Y2171603D02*
G01X3499361Y2171506D01*
G01X3503936Y2171187D01*
G01X3508511Y2170868D01*
G01X3512053Y2170433D01*
G01X3515595Y2169998D01*
G01X3518547Y2169553D01*
G01X3521498Y2169108D01*
G01X3525335Y2168353D01*
G01X3529172Y2167599D01*
G01X3533293Y2166579D01*
G01X3537414Y2165559D01*
G01X3540377Y2164696D01*
G01X3543340Y2163832D01*
G01X3547324Y2162469D01*
G01X3551309Y2161105D01*
G01X3555737Y2159340D01*
G01X3560164Y2157574D01*
G01X3567248Y2154069D01*
G01X3574332Y2150564D01*
G01X3578464Y2148081D01*
G01X3582596Y2145597D01*
G01X3585105Y2143967D01*
G01X3587614Y2142336D01*
G01X3590860Y2140024D01*
G01X3594107Y2137712D01*
G01X3597502Y2135058D01*
G01X3600896Y2132404D01*
G01X3604447Y2129388D01*
G01X3607999Y2126371D01*
G01X3612687Y2121829D01*
G01X3617375Y2117287D01*
G01X3620842Y2113404D01*
G01X3624309Y2109521D01*
G01X3627217Y2105872D01*
G01X3630125Y2102223D01*
G01X3632661Y2098679D01*
G01X3635197Y2095135D01*
G01X3636912Y2092476D01*
G01X3638628Y2089818D01*
G01X3640386Y2086864D01*
G01X3642144Y2083911D01*
G01X3644505Y2079480D01*
G01X3646866Y2075050D01*
G01X3648774Y2070915D01*
G01X3650681Y2066780D01*
G01X3652166Y2063088D01*
G01X3653652Y2059396D01*
G01X3655067Y2055391D01*
G01X3656482Y2051387D01*
G01X3657818Y2046973D01*
G01X3659154Y2042560D01*
G01X3660328Y2037834D01*
G01X3661502Y2033108D01*
G01X3662316Y2029195D01*
G01X3663130Y2025281D01*
G01X3721668Y2025281D01*
G01X3780205Y2025281D01*
G01X3780205Y2067961D01*
G01X3780205Y2110641D01*
G01X3722059Y2110641D01*
G01X3663913Y2110641D01*
G01X3663913Y2136042D01*
G01X3663913Y2161443D01*
G01X3749656Y2161443D01*
G01X3835400Y2161443D01*
G01X3835400Y1993973D01*
G01X3835400Y1826503D01*
G01X3807950Y1826503D01*
G01X3780500Y1826503D01*
G01X3780500Y1899457D01*
G01X3780500Y1972412D01*
G01X3722120Y1972412D01*
G01X3663739Y1972412D01*
G01X3663072Y1968941D01*
G01X3662404Y1965470D01*
G01X3661242Y1960504D01*
G01X3660080Y1955537D01*
G01X3658720Y1950922D01*
G01X3657360Y1946306D01*
G01X3655947Y1942296D01*
G01X3654534Y1938285D01*
G01X3652697Y1933713D01*
G01X3650859Y1929141D01*
G01X3647808Y1922851D01*
G01X3644756Y1916561D01*
G01X3642617Y1912808D01*
G01X3640479Y1909056D01*
G01X3638139Y1905364D01*
G01X3635799Y1901672D01*
G01X3633417Y1898276D01*
G01X3631035Y1894879D01*
G01X3628386Y1891482D01*
G01X3625738Y1888086D01*
G01X3622430Y1884229D01*
G01X3619123Y1880373D01*
G01X3614732Y1875941D01*
G01X3610341Y1871508D01*
G01X3607094Y1868600D01*
G01X3603847Y1865691D01*
G01X3600306Y1862844D01*
G01X3596764Y1859996D01*
G01X3593960Y1857926D01*
G01X3591156Y1855855D01*
G01X3588057Y1853777D01*
G01X3584957Y1851699D01*
G01X3581711Y1849690D01*
G01X3578464Y1847682D01*
G01X3574332Y1845421D01*
G01X3570199Y1843161D01*
G01X3565477Y1840911D01*
G01X3560754Y1838660D01*
G01X3558541Y1837726D01*
G01X3556327Y1836793D01*
G01X3553228Y1835599D01*
G01X3550129Y1834405D01*
G01X3546291Y1833103D01*
G01X3542455Y1831800D01*
G01X3538438Y1830634D01*
G01X3534421Y1829467D01*
G01X3529989Y1828441D01*
G01X3525557Y1827415D01*
G01X3521462Y1826672D01*
G01X3517366Y1825929D01*
G01X3512938Y1825339D01*
G01X3508511Y1824750D01*
G01X3504379Y1824375D01*
G01X3500247Y1824000D01*
G01X3489916Y1824006D01*
G01X3479586Y1824012D01*
G01X3475748Y1824385D01*
G01X3471911Y1824758D01*
G01X3468665Y1825196D01*
G01X3465418Y1825633D01*
G01X3461876Y1826237D01*
G01X3458334Y1826840D01*
G01X3455678Y1827419D01*
G01X3453021Y1827999D01*
G01X3448905Y1829044D01*
G01X3444789Y1830090D01*
G01X3439312Y1831875D01*
G01X3433836Y1833661D01*
G01X3429556Y1835363D01*
G01X3425276Y1837064D01*
G01X3422056Y1838482D01*
G01X3418835Y1839899D01*
G01X3414234Y1842242D01*
G01X3409633Y1844585D01*
G01X3405500Y1846954D01*
G01X3401368Y1849322D01*
G01X3396236Y1852698D01*
G01X3391104Y1856073D01*
G01X3387116Y1859056D01*
G01X3383128Y1862038D01*
G01X3380442Y1864260D01*
G01X3377756Y1866483D01*
G01X3374049Y1869804D01*
G01X3370343Y1873126D01*
G01X3365933Y1877662D01*
G01X3361522Y1882198D01*
G01X3358450Y1885866D01*
G01X3355378Y1889535D01*
G01X3352964Y1892798D01*
G01X3350551Y1896061D01*
G01X3349044Y1898310D01*
G01X3347537Y1900559D01*
G01X3345878Y1903297D01*
G01X3344219Y1906035D01*
G01X3342276Y1909908D01*
G01X3340332Y1913782D01*
G01X3338924Y1917322D01*
G01X3337516Y1920861D01*
G01X3337612Y1921015D01*
G01X3337707Y1921170D01*
G01X3360535Y1921153D01*
G01X3383364Y1921136D01*
G01X3385482Y1920376D01*
G01X3387600Y1919616D01*
G01X3389667Y1918241D01*
G01X3391735Y1916865D01*
G01X3395907Y1912370D01*
G01X3400079Y1907875D01*
G01X3403822Y1904374D01*
G01X3407566Y1900873D01*
G01X3410419Y1898546D01*
G01X3413272Y1896220D01*
G01X3416709Y1893709D01*
G01X3420146Y1891199D01*
G01X3423892Y1888873D01*
G01X3427638Y1886547D01*
G01X3431474Y1884456D01*
G01X3435312Y1882364D01*
G01X3439444Y1880535D01*
G01X3443576Y1878707D01*
G01X3447413Y1877251D01*
G01X3451250Y1875796D01*
G01X3455087Y1874651D01*
G01X3458925Y1873507D01*
G01X3461286Y1872916D01*
G01X3463647Y1872325D01*
G01X3467483Y1871555D01*
G01X3471319Y1870785D01*
G01X3475810Y1870208D01*
G01X3480301Y1869631D01*
G01X3485846Y1869362D01*
G01X3491392Y1869092D01*
G01X3497000Y1869338D01*
G01X3502608Y1869583D01*
G01X3506364Y1870049D01*
G01X3510119Y1870516D01*
G01X3514185Y1871262D01*
G01X3518251Y1872008D01*
G01X3522185Y1873037D01*
G01X3526119Y1874067D01*
G01X3529416Y1875130D01*
G01X3532714Y1876192D01*
G01X3537289Y1877995D01*
G01X3541864Y1879796D01*
G01X3547324Y1882493D01*
G01X3552785Y1885190D01*
G01X3556179Y1887199D01*
G01X3559574Y1889207D01*
G01X3563700Y1892002D01*
G01X3567826Y1894798D01*
G01X3572112Y1898225D01*
G01X3576398Y1901653D01*
G01X3581733Y1906979D01*
G01X3587068Y1912306D01*
G01X3589279Y1914963D01*
G01X3591490Y1917622D01*
G01X3593713Y1920576D01*
G01X3595936Y1923529D01*
G01X3598004Y1926630D01*
G01X3600071Y1929732D01*
G01X3601764Y1932666D01*
G01X3603456Y1935601D01*
G01X3605623Y1939930D01*
G01X3607790Y1944259D01*
G01X3609325Y1947924D01*
G01X3610861Y1951589D01*
G01X3612568Y1956757D01*
G01X3614276Y1961926D01*
G01X3615330Y1966209D01*
G01X3616384Y1970492D01*
G01X3617122Y1974550D01*
G01X3617859Y1978608D01*
G01X3618289Y1982082D01*
G01X3618718Y1985555D01*
G01X3619070Y1990724D01*
G01X3619423Y1995893D01*
G01X3619235Y2001948D01*
G01X3619046Y2008003D01*
G01X3618613Y2011867D01*
G01X3618180Y2015731D01*
G01X3617710Y2018660D01*
G01X3617241Y2021589D01*
G01X3616520Y2025013D01*
G01X3615800Y2028436D01*
G01X3614492Y2032988D01*
G01X3613185Y2037539D01*
G01X3611986Y2040881D01*
G01X3610787Y2044223D01*
G01X3609140Y2048117D01*
G01X3607493Y2052012D01*
G01X3605194Y2056442D01*
G01X3602894Y2060873D01*
G01X3601225Y2063625D01*
G01X3599556Y2066377D01*
G01X3597739Y2069089D01*
G01X3595923Y2071801D01*
G01X3593735Y2074700D01*
G01X3591547Y2077600D01*
G01X3589298Y2080312D01*
G01X3587048Y2083025D01*
G01X3582608Y2087565D01*
G01X3578169Y2092106D01*
G01X3574922Y2094915D01*
G01X3571675Y2097723D01*
G01X3568199Y2100358D01*
G01X3564722Y2102993D01*
G01X3560957Y2105458D01*
G01X3557192Y2107924D01*
G01X3553365Y2110070D01*
G01X3549538Y2112217D01*
G01X3546144Y2113820D01*
G01X3542750Y2115424D01*
G01X3538865Y2117000D01*
G01X3534980Y2118576D01*
G01X3530748Y2119944D01*
G01X3526516Y2121312D01*
G01X3522384Y2122320D01*
G01X3518251Y2123328D01*
G01X3514267Y2124055D01*
G01X3510282Y2124782D01*
G01X3505855Y2125302D01*
G01X3501427Y2125822D01*
G01X3492130Y2125830D01*
G01X3482832Y2125839D01*
G01X3477962Y2125309D01*
G01X3473092Y2124778D01*
G01X3468812Y2124048D01*
G01X3464532Y2123318D01*
G01X3460843Y2122449D01*
G01X3457153Y2121580D01*
G01X3453759Y2120568D01*
G01X3450365Y2119556D01*
G01X3447118Y2118375D01*
G01X3443871Y2117195D01*
G01X3440477Y2115732D01*
G01X3437083Y2114268D01*
G01X3433984Y2112714D01*
G01X3430884Y2111159D01*
G01X3427342Y2109079D01*
G01X3423800Y2106999D01*
G01X3421144Y2105223D01*
G01X3418487Y2103446D01*
G01X3415599Y2101284D01*
G01X3412711Y2099122D01*
G01X3409991Y2096881D01*
G01X3407271Y2094640D01*
G01X3403011Y2090605D01*
G01X3398751Y2086569D01*
G01X3394362Y2081646D01*
G01X3389974Y2076722D01*
G01X3388424Y2075526D01*
G01X3386875Y2074330D01*
G01X3385414Y2073669D01*
G01X3383954Y2073008D01*
G01X3377903Y2072801D01*
G01X3371852Y2072595D01*
G01X3353626Y2072567D01*
G01X3335400Y2072539D01*
G01X3335400Y2072871D01*
G01X3335400Y2073203D01*
G01X3337284Y2077123D01*
G01X3339168Y2081043D01*
G01X3341276Y2084769D01*
G01X3343384Y2088495D01*
G01X3345470Y2091814D01*
G01X3347555Y2095135D01*
G01X3349735Y2098236D01*
G01X3351914Y2101337D01*
G01X3354359Y2104482D01*
G01X3356805Y2107628D01*
G01X3359933Y2111276D01*
G01X3363061Y2114924D01*
G01X3366424Y2118445D01*
G01X3369786Y2121966D01*
G01X3374066Y2125832D01*
G01X3378346Y2129698D01*
G01X3381445Y2132234D01*
G01X3384544Y2134770D01*
G01X3387938Y2137284D01*
G01X3391333Y2139798D01*
G01X3395317Y2142462D01*
G01X3399302Y2145126D01*
G01X3402401Y2146985D01*
G01X3405500Y2148844D01*
G01X3410666Y2151600D01*
G01X3415831Y2154356D01*
G01X3421439Y2156836D01*
G01X3427047Y2159316D01*
G01X3432360Y2161243D01*
G01X3437673Y2163171D01*
G01X3442100Y2164491D01*
G01X3446528Y2165811D01*
G01X3450262Y2166724D01*
G01X3453997Y2167637D01*
G01X3458526Y2168520D01*
G01X3463057Y2169403D01*
G01X3467189Y2169993D01*
G01X3471321Y2170582D01*
G01X3476486Y2171017D01*
G01X3481652Y2171452D01*
G01X3488145Y2171576D01*
G01X3494639Y2171700D01*
G01X3497000Y2171603D01*
G37*
G36*
G01X3502313Y2099402D02*
G01X3504969Y2099130D01*
G01X3508068Y2098674D01*
G01X3511168Y2098218D01*
G01X3515004Y2097358D01*
G01X3518842Y2096497D01*
G01X3523018Y2095150D01*
G01X3527194Y2093802D01*
G01X3530060Y2092608D01*
G01X3532927Y2091414D01*
G01X3536658Y2089537D01*
G01X3540388Y2087660D01*
G01X3543635Y2085685D01*
G01X3546882Y2083710D01*
G01X3549833Y2081603D01*
G01X3552785Y2079496D01*
G01X3556179Y2076645D01*
G01X3559574Y2073793D01*
G01X3563712Y2069548D01*
G01X3567850Y2065303D01*
G01X3570457Y2062054D01*
G01X3573064Y2058805D01*
G01X3576132Y2054191D01*
G01X3579200Y2049577D01*
G01X3581839Y2044444D01*
G01X3584478Y2039311D01*
G01X3586095Y2035324D01*
G01X3587713Y2031336D01*
G01X3589035Y2027054D01*
G01X3590358Y2022771D01*
G01X3591116Y2019227D01*
G01X3591874Y2015682D01*
G01X3592305Y2013024D01*
G01X3592735Y2010366D01*
G01X3593038Y2007412D01*
G01X3593341Y2004458D01*
G01X3593527Y2000914D01*
G01X3593715Y1997370D01*
G01X3593384Y1992105D01*
G01X3593054Y1986840D01*
G01X3592629Y1983835D01*
G01X3592203Y1980830D01*
G01X3591875Y1979057D01*
G01X3591546Y1977285D01*
G01X3590850Y1974327D01*
G01X3590154Y1971368D01*
G01X3589108Y1967915D01*
G01X3588062Y1964462D01*
G01X3586688Y1960979D01*
G01X3585314Y1957496D01*
G01X3583887Y1954440D01*
G01X3582461Y1951385D01*
G01X3580928Y1948680D01*
G01X3579396Y1945977D01*
G01X3576972Y1942248D01*
G01X3574549Y1938520D01*
G01X3572972Y1936489D01*
G01X3571395Y1934458D01*
G01X3569331Y1931947D01*
G01X3567268Y1929437D01*
G01X3563404Y1925597D01*
G01X3559540Y1921757D01*
G01X3556662Y1919394D01*
G01X3553784Y1917031D01*
G01X3550273Y1914521D01*
G01X3546761Y1912010D01*
G01X3543653Y1910142D01*
G01X3540545Y1908274D01*
G01X3536187Y1906101D01*
G01X3531829Y1903927D01*
G01X3529468Y1902985D01*
G01X3527106Y1902043D01*
G01X3523712Y1900874D01*
G01X3520317Y1899705D01*
G01X3515890Y1898571D01*
G01X3511463Y1897437D01*
G01X3507035Y1896697D01*
G01X3502608Y1895956D01*
G01X3497885Y1895600D01*
G01X3493163Y1895243D01*
G01X3488440Y1895427D01*
G01X3483718Y1895611D01*
G01X3480028Y1896068D01*
G01X3476339Y1896524D01*
G01X3472649Y1897264D01*
G01X3468960Y1898003D01*
G01X3465789Y1898879D01*
G01X3462618Y1899754D01*
G01X3459443Y1900817D01*
G01X3456268Y1901879D01*
G01X3452726Y1903354D01*
G01X3449184Y1904829D01*
G01X3444834Y1907050D01*
G01X3440483Y1909271D01*
G01X3436646Y1911674D01*
G01X3432810Y1914078D01*
G01X3429633Y1916436D01*
G01X3426457Y1918795D01*
G01X3423505Y1921345D01*
G01X3420553Y1923896D01*
G01X3417262Y1927257D01*
G01X3413970Y1930618D01*
G01X3412227Y1932685D01*
G01X3410484Y1934753D01*
G01X3409149Y1936525D01*
G01X3407813Y1938297D01*
G01X3406021Y1940955D01*
G01X3404229Y1943614D01*
G01X3402440Y1946837D01*
G01X3400652Y1950059D01*
G01X3399345Y1953045D01*
G01X3398039Y1956031D01*
G01X3397098Y1958683D01*
G01X3396158Y1961335D01*
G01X3395296Y1964732D01*
G01X3394434Y1968129D01*
G01X3394433Y1968508D01*
G01X3394432Y1968887D01*
G01X3414134Y1968803D01*
G01X3433836Y1968720D01*
G01X3435820Y1967779D01*
G01X3437805Y1966838D01*
G01X3439330Y1965416D01*
G01X3440854Y1963994D01*
G01X3443235Y1961040D01*
G01X3445615Y1958086D01*
G01X3448580Y1955113D01*
G01X3451545Y1952139D01*
G01X3453907Y1950264D01*
G01X3456268Y1948389D01*
G01X3458823Y1946706D01*
G01X3461377Y1945022D01*
G01X3464578Y1943391D01*
G01X3467779Y1941760D01*
G01X3470660Y1940687D01*
G01X3473540Y1939615D01*
G01X3476858Y1938761D01*
G01X3480176Y1937909D01*
G01X3483819Y1937438D01*
G01X3487461Y1936968D01*
G01X3490757Y1936968D01*
G01X3494052Y1936968D01*
G01X3497795Y1937406D01*
G01X3501538Y1937845D01*
G01X3504582Y1938566D01*
G01X3507626Y1939288D01*
G01X3510430Y1940230D01*
G01X3513234Y1941172D01*
G01X3516185Y1942493D01*
G01X3519137Y1943815D01*
G01X3522113Y1945582D01*
G01X3525089Y1947350D01*
G01X3527426Y1949103D01*
G01X3529763Y1950857D01*
G01X3532689Y1953578D01*
G01X3535616Y1956300D01*
G01X3537834Y1958965D01*
G01X3540053Y1961631D01*
G01X3541891Y1964437D01*
G01X3543729Y1967243D01*
G01X3544924Y1969462D01*
G01X3546120Y1971681D01*
G01X3547046Y1973892D01*
G01X3547972Y1976104D01*
G01X3548692Y1978171D01*
G01X3549412Y1980239D01*
G01X3550121Y1983044D01*
G01X3550830Y1985851D01*
G01X3551273Y1988952D01*
G01X3551717Y1992053D01*
G01X3551912Y1995007D01*
G01X3552107Y1997961D01*
G01X3551770Y2001948D01*
G01X3551433Y2005935D01*
G01X3550693Y2009627D01*
G01X3549953Y2013319D01*
G01X3548774Y2016863D01*
G01X3547596Y2020408D01*
G01X3546035Y2023657D01*
G01X3544474Y2026906D01*
G01X3542800Y2029609D01*
G01X3541127Y2032311D01*
G01X3539045Y2035007D01*
G01X3536963Y2037703D01*
G01X3534248Y2040440D01*
G01X3531534Y2043177D01*
G01X3529172Y2045059D01*
G01X3526811Y2046941D01*
G01X3524201Y2048660D01*
G01X3521592Y2050380D01*
G01X3518003Y2052130D01*
G01X3514414Y2053880D01*
G01X3510842Y2055091D01*
G01X3507269Y2056302D01*
G01X3504515Y2056903D01*
G01X3501761Y2057505D01*
G01X3498514Y2057933D01*
G01X3495266Y2058362D01*
G01X3491255Y2058362D01*
G01X3487244Y2058362D01*
G01X3484743Y2058060D01*
G01X3482242Y2057758D01*
G01X3479173Y2057159D01*
G01X3476105Y2056560D01*
G01X3472142Y2055255D01*
G01X3468178Y2053950D01*
G01X3464880Y2052343D01*
G01X3461581Y2050736D01*
G01X3459026Y2049122D01*
G01X3456471Y2047508D01*
G01X3454162Y2045773D01*
G01X3451854Y2044037D01*
G01X3448011Y2040345D01*
G01X3444166Y2036653D01*
G01X3442818Y2035553D01*
G01X3441469Y2034454D01*
G01X3439718Y2033635D01*
G01X3437968Y2032817D01*
G01X3417204Y2032713D01*
G01X3396439Y2032609D01*
G01X3396651Y2033597D01*
G01X3396864Y2034585D01*
G01X3397586Y2037095D01*
G01X3398309Y2039605D01*
G01X3399488Y2042623D01*
G01X3400667Y2045640D01*
G01X3402297Y2048826D01*
G01X3403927Y2052012D01*
G01X3406388Y2055704D01*
G01X3408847Y2059396D01*
G01X3410863Y2061905D01*
G01X3412879Y2064415D01*
G01X3416126Y2067779D01*
G01X3419373Y2071144D01*
G01X3422984Y2074165D01*
G01X3426594Y2077186D01*
G01X3429258Y2079072D01*
G01X3431922Y2080957D01*
G01X3435092Y2082951D01*
G01X3438263Y2084946D01*
G01X3442838Y2087277D01*
G01X3447413Y2089609D01*
G01X3450217Y2090789D01*
G01X3453021Y2091968D01*
G01X3455851Y2093021D01*
G01X3458680Y2094074D01*
G01X3463264Y2095391D01*
G01X3467847Y2096707D01*
G01X3471762Y2097497D01*
G01X3475676Y2098287D01*
G01X3479992Y2098869D01*
G01X3484308Y2099451D01*
G01X3491982Y2099562D01*
G01X3499656Y2099673D01*
G01X3502313Y2099402D01*
G37*
G36*
G01X4384477Y2559410D02*
G01X4383543Y2558780D01*
G01X4382610Y2558151D01*
G01X4379797Y2558151D01*
G01X4378661Y2558701D01*
G01X4377524Y2559252D01*
G01X4332288Y2606919D01*
G01X4287053Y2654586D01*
G01X4286979Y2653924D01*
G01X4286906Y2653263D01*
G01X4283562Y2612509D01*
G01X4283562Y2604240D01*
G01X4279094Y2604240D01*
G01X4279094Y2582732D01*
G01X4257314Y2582732D01*
G01X4257314Y2604240D01*
G01X4195183Y2604238D01*
G01X4194087Y2602102D01*
G01X4192991Y2599967D01*
G01X4189829Y2595721D01*
G01X4187717Y2593723D01*
G01X4185605Y2591725D01*
G01X4183552Y2590340D01*
G01X4181500Y2588955D01*
G01X4179824Y2588110D01*
G01X4178149Y2587265D01*
G01X4173298Y2585553D01*
G01X4168655Y2584661D01*
G01X4165020Y2584655D01*
G01X4161386Y2584650D01*
G01X4158570Y2585224D01*
G01X4155754Y2585798D01*
G01X4151900Y2587247D01*
G01X4149677Y2588404D01*
G01X4147453Y2589560D01*
G01X4143244Y2592698D01*
G01X4141148Y2594907D01*
G01X4139052Y2597117D01*
G01X4137764Y2599078D01*
G01X4136476Y2601038D01*
G01X4135604Y2602766D01*
G01X4134732Y2604494D01*
G01X4134028Y2606364D01*
G01X4133324Y2608235D01*
G01X4132739Y2611056D01*
G01X4132154Y2613877D01*
G01X4132153Y2618346D01*
G01X4150313Y2618346D01*
G01X4150482Y2616441D01*
G01X4150651Y2614535D01*
G01X4151804Y2611084D01*
G01X4152605Y2609827D01*
G01X4153406Y2608570D01*
G01X4154608Y2607351D01*
G01X4155810Y2606133D01*
G01X4156994Y2605315D01*
G01X4158178Y2604497D01*
G01X4161918Y2603088D01*
G01X4161918Y2603088D01*
G01X4164170Y2602936D01*
G01X4166421Y2602784D01*
G01X4168306Y2603229D01*
G01X4170191Y2603674D01*
G01X4173681Y2605432D01*
G01X4175496Y2607285D01*
G01X4177311Y2609137D01*
G01X4178096Y2610706D01*
G01X4178880Y2612275D01*
G01X4179279Y2613774D01*
G01X4179678Y2615274D01*
G01X4179682Y2617688D01*
G01X4179685Y2620103D01*
G01X4179130Y2621898D01*
G01X4178576Y2623694D01*
G01X4177504Y2625350D01*
G01X4176432Y2627006D01*
G01X4174847Y2628451D01*
G01X4173262Y2629897D01*
G01X4170330Y2631321D01*
G01X4168794Y2631729D01*
G01X4167259Y2632136D01*
G01X4163048Y2632173D01*
G01X4161445Y2631755D01*
G01X4159842Y2631338D01*
G01X4158664Y2630746D01*
G01X4157485Y2630154D01*
G01X4156089Y2629087D01*
G01X4154693Y2628020D01*
G01X4153629Y2626622D01*
G01X4152565Y2625224D01*
G01X4151858Y2623758D01*
G01X4151150Y2622292D01*
G01X4150313Y2618346D01*
G01X4132153Y2618346D01*
G01X4132153Y2621419D01*
G01X4132714Y2624073D01*
G01X4133275Y2626726D01*
G01X4133465Y2627285D01*
G01X4133654Y2627844D01*
G01X4132585Y2626707D01*
G01X4131516Y2625570D01*
G01X4076082Y2566020D01*
G01X4073677Y2564855D01*
G01X4071143Y2564855D01*
G01X4070209Y2565484D01*
G01X4069276Y2566114D01*
G01X4068218Y2567926D01*
G01X4068199Y2569180D01*
G01X4068180Y2570434D01*
G01X4069179Y2572649D01*
G01X4146797Y2655913D01*
G01X4159792Y2655913D01*
G01X4159988Y2653040D01*
G01X4160184Y2650166D01*
G01X4162465Y2650398D01*
G01X4164745Y2650630D01*
G01X4167957Y2650329D01*
G01X4171168Y2650028D01*
G01X4172843Y2649601D01*
G01X4174519Y2649174D01*
G01X4176395Y2648504D01*
G01X4178271Y2647834D01*
G01X4181221Y2646339D01*
G01X4183036Y2645138D01*
G01X4184851Y2643938D01*
G01X4186634Y2642423D01*
G01X4188417Y2640908D01*
G01X4189931Y2639124D01*
G01X4191445Y2637341D01*
G01X4192649Y2635520D01*
G01X4193853Y2633699D01*
G01X4194691Y2632028D01*
G01X4195529Y2630357D01*
G01X4196244Y2628263D01*
G01X4196959Y2626168D01*
G01X4197963Y2621419D01*
G01X4197969Y2617439D01*
G01X4197975Y2613458D01*
G01X4197975Y2613458D01*
G01X4275058Y2613458D01*
G01X4279110Y2662931D01*
G01X4273928Y2668445D01*
G01X4222269Y2722917D01*
G01X4221936Y2722536D01*
G01X4194475Y2693067D01*
G01X4167015Y2663598D01*
G01X4159792Y2655913D01*
G01X4146797Y2655913D01*
G01X4150790Y2660197D01*
G01X4145144Y2728936D01*
G01X4139499Y2797676D01*
G01X4139487Y2798584D01*
G01X4139474Y2799492D01*
G01X4148131Y2799492D01*
G01X4148131Y2797730D01*
G01X4153295Y2734435D01*
G01X4158460Y2671140D01*
G01X4158460Y2671140D01*
G01X4158616Y2669966D01*
G01X4158772Y2668792D01*
G01X4187133Y2699194D01*
G01X4215494Y2729597D01*
G01X4215460Y2730078D01*
G01X4215400Y2730142D01*
G01X4229089Y2730142D01*
G01X4229250Y2729711D01*
G01X4229250Y2729711D01*
G01X4254620Y2702992D01*
G01X4279991Y2676273D01*
G01X4280247Y2676529D01*
G01X4285115Y2735427D01*
G01X4289983Y2794324D01*
G01X4289984Y2794878D01*
G01X4289985Y2795432D01*
G01X4288091Y2793486D01*
G01X4258590Y2761814D01*
G01X4229089Y2730142D01*
G01X4215400Y2730142D01*
G01X4182564Y2764777D01*
G01X4149667Y2799475D01*
G01X4148131Y2799492D01*
G01X4139474Y2799492D01*
G01X4112660Y2799492D01*
G01X4112671Y2818935D01*
G01X4112675Y2825469D01*
G01X4124116Y2825469D01*
G01X4124116Y2810385D01*
G01X4138396Y2810385D01*
G01X4138307Y2810916D01*
G01X4138218Y2811446D01*
G01X4124912Y2825469D01*
G01X4124912Y2825469D01*
G01X4124116Y2825469D01*
G01X4112675Y2825469D01*
G01X4112682Y2838378D01*
G01X4081441Y2871270D01*
G01X4050200Y2904163D01*
G01X4050016Y2908182D01*
G01X4049832Y2912201D01*
G01X4049662Y2915693D01*
G01X4049491Y2919184D01*
G01X4051374Y2917107D01*
G01X4126465Y2838039D01*
G01X4136190Y2838039D01*
G01X4135988Y2840763D01*
G01X4135787Y2843486D01*
G01X4133457Y2843626D01*
G01X4144501Y2843626D01*
G01X4144501Y2841473D01*
G01X4144680Y2839756D01*
G01X4144859Y2838039D01*
G01X4151482Y2838039D01*
G01X4151490Y2824841D01*
G01X4151498Y2811642D01*
G01X4162450Y2800111D01*
G01X4173402Y2788579D01*
G01X4173482Y2791382D01*
G01X4173561Y2794184D01*
G01X4239163Y2794184D01*
G01X4239163Y2774355D01*
G01X4187034Y2774212D01*
G01X4204523Y2755796D01*
G01X4222011Y2737380D01*
G01X4222308Y2737281D01*
G01X4222308Y2737281D01*
G01X4222604Y2737183D01*
G01X4256992Y2774066D01*
G01X4291381Y2810950D01*
G01X4291409Y2812201D01*
G01X4292732Y2827913D01*
G01X4294055Y2843626D01*
G01X4144501Y2843626D01*
G01X4133457Y2843626D01*
G01X4131237Y2843759D01*
G01X4126769Y2843941D01*
G01X4123418Y2844791D01*
G01X4121463Y2845810D01*
G01X4119509Y2846829D01*
G01X4115591Y2850749D01*
G01X4114572Y2852704D01*
G01X4113552Y2854659D01*
G01X4113074Y2856475D01*
G01X4112595Y2858291D01*
G01X4112562Y2863039D01*
G01X4112605Y2863221D01*
G01X4146106Y2863221D01*
G01X4146301Y2861664D01*
G01X4146495Y2860106D01*
G01X4262619Y2860106D01*
G01X4262619Y2865134D01*
G01X4284679Y2865134D01*
G01X4284679Y2860106D01*
G01X4295968Y2860106D01*
G01X4295508Y2860567D01*
G01X4295047Y2861028D01*
G01X4290072Y2863070D01*
G01X4285098Y2865111D01*
G01X4285098Y2865111D01*
G01X4284679Y2865134D01*
G01X4262619Y2865134D01*
G01X4262619Y2874252D01*
G01X4257382Y2876397D01*
G01X4252146Y2878542D01*
G01X4248796Y2878781D01*
G01X4245446Y2879021D01*
G01X4243561Y2879061D01*
G01X4241676Y2879101D01*
G01X4241676Y2871559D01*
G01X4190017Y2871559D01*
G01X4190017Y2878908D01*
G01X4181488Y2878540D01*
G01X4146595Y2863685D01*
G01X4146351Y2863453D01*
G01X4146106Y2863221D01*
G01X4146106Y2863221D01*
G01X4112605Y2863221D01*
G01X4112924Y2864575D01*
G01X4113287Y2866112D01*
G01X4115261Y2870302D01*
G01X4117524Y2872566D01*
G01X4119788Y2874830D01*
G01X4121936Y2875860D01*
G01X4124083Y2876889D01*
G01X4126124Y2877324D01*
G01X4128165Y2877758D01*
G01X4132651Y2877431D01*
G01X4134178Y2876986D01*
G01X4135705Y2876541D01*
G01X4137414Y2875611D01*
G01X4139123Y2874682D01*
G01X4141569Y2876334D01*
G01X4143480Y2877466D01*
G01X4145391Y2878597D01*
G01X4148366Y2880081D01*
G01X4150883Y2881335D01*
G01X4200628Y2881335D01*
G01X4231065Y2881335D01*
G01X4231065Y2886642D01*
G01X4200628Y2886642D01*
G01X4200628Y2881335D01*
G01X4200628Y2881335D01*
G01X4150883Y2881335D01*
G01X4151342Y2881564D01*
G01X4154134Y2882674D01*
G01X4156927Y2883784D01*
G01X4159659Y2884656D01*
G01X4162390Y2885529D01*
G01X4165662Y2886353D01*
G01X4168934Y2887177D01*
G01X4175623Y2888328D01*
G01X4182617Y2889140D01*
G01X4186456Y2889331D01*
G01X4190296Y2889521D01*
G01X4190296Y2896422D01*
G01X4215916Y2896351D01*
G01X4241537Y2896279D01*
G01X4241615Y2893016D01*
G01X4241694Y2889753D01*
G01X4244608Y2889458D01*
G01X4248378Y2889294D01*
G01X4252148Y2889129D01*
G01X4256057Y2888598D01*
G01X4259966Y2888066D01*
G01X4261293Y2887875D01*
G01X4262619Y2887684D01*
G01X4262619Y2891956D01*
G01X4273579Y2891883D01*
G01X4284539Y2891810D01*
G01X4284694Y2880637D01*
G01X4286838Y2879520D01*
G01X4288981Y2878402D01*
G01X4292175Y2876370D01*
G01X4295368Y2874337D01*
G01X4297772Y2872460D01*
G01X4300176Y2870582D01*
G01X4302829Y2867927D01*
G01X4305482Y2865272D01*
G01X4307228Y2862926D01*
G01X4308973Y2860580D01*
G01X4308973Y2860106D01*
G01X4319584Y2860106D01*
G01X4319584Y2843634D01*
G01X4311137Y2843560D01*
G01X4302690Y2843486D01*
G01X4301793Y2832592D01*
G01X4300895Y2821698D01*
G01X4301022Y2821257D01*
G01X4347470Y2871129D01*
G01X4393917Y2921000D01*
G01X4394200Y2921000D01*
G01X4394027Y2916601D01*
G01X4393853Y2912201D01*
G01X4393534Y2906549D01*
G01X4351637Y2861610D01*
G01X4309739Y2816670D01*
G01X4304624Y2811196D01*
G01X4299509Y2805721D01*
G01X4288317Y2669464D01*
G01X4288197Y2668592D01*
G01X4288077Y2667721D01*
G01X4348439Y2604101D01*
G01X4366398Y2585175D01*
G01X4384358Y2566249D01*
G01X4385549Y2563913D01*
G01X4385549Y2561246D01*
G01X4385013Y2560328D01*
G01X4384477Y2559410D01*
G37*
G36*
G01X4167879Y2606386D02*
G01X4165850Y2606256D01*
G01X4163820Y2606125D01*
G01X4161869Y2606718D01*
G01X4159917Y2607311D01*
G01X4158529Y2608359D01*
G01X4157140Y2609408D01*
G01X4156442Y2610246D01*
G01X4155744Y2611084D01*
G01X4155023Y2612480D01*
G01X4154302Y2613877D01*
G01X4153970Y2615711D01*
G01X4153638Y2617546D01*
G01X4153952Y2619333D01*
G01X4154267Y2621120D01*
G01X4155725Y2624101D01*
G01X4158568Y2626944D01*
G01X4160400Y2627803D01*
G01X4162232Y2628661D01*
G01X4164745Y2628738D01*
G01X4167259Y2628815D01*
G01X4169612Y2628048D01*
G01X4170809Y2627345D01*
G01X4172006Y2626643D01*
G01X4173208Y2625428D01*
G01X4174411Y2624212D01*
G01X4175247Y2622515D01*
G01X4176083Y2620818D01*
G01X4176314Y2619163D01*
G01X4176545Y2617508D01*
G01X4176092Y2614216D01*
G01X4175238Y2612481D01*
G01X4174384Y2610746D01*
G01X4171572Y2608114D01*
G01X4169726Y2607250D01*
G01X4167879Y2606386D01*
G37*
G36*
G01X4071340Y2495022D02*
G01X4371243Y2495022D01*
G01X4371243Y2421000D01*
G01X4071340Y2421000D01*
G01X4071340Y2495022D01*
G37*
G04 Image End*

G04 Text Start*
G36*
G01X3567591Y3351418D02*
G01X3609712Y3351418D01*
G01X3610015Y3349903D01*
G01X3610318Y3279903D01*
G01X3610318Y3211418D01*
G01X3587287Y3211418D01*
G01X3587287Y3262327D01*
G01X3556378Y3262327D01*
G01X3533045Y3262555D01*
G01X3524863Y3263237D01*
G01X3506681Y3281418D01*
G01X3505469Y3282933D01*
G01X3504893Y3305964D01*
G01X3527287Y3305964D01*
G01X3527515Y3293540D01*
G01X3528196Y3288994D01*
G01X3534257Y3282933D01*
G01X3534257Y3282933D01*
G01X3536075Y3282024D01*
G01X3561833Y3281721D01*
G01X3586984Y3282024D01*
G01X3587287Y3307176D01*
G01X3587287Y3332024D01*
G01X3561227Y3332024D01*
G01X3541530Y3331797D01*
G01X3534560Y3331115D01*
G01X3528499Y3325055D01*
G01X3527590Y3323236D01*
G01X3527287Y3305964D01*
G01X3504893Y3305964D01*
G01X3504863Y3307176D01*
G01X3505090Y3325055D01*
G01X3505772Y3331418D01*
G01X3507287Y3332933D01*
G01X3509106Y3335358D01*
G01X3523348Y3349600D01*
G01X3524863Y3350812D01*
G01X3567591Y3351418D01*
G37*
G36*
G01X3484257Y3280206D02*
G01X3484030Y3244827D01*
G01X3483348Y3232630D01*
G01X3463348Y3212630D01*
G01X3455090Y3211721D01*
G01X3432136Y3211418D01*
G01X3409257Y3211646D01*
G01X3401227Y3212327D01*
G01X3381530Y3232024D01*
G01X3380318Y3234145D01*
G01X3380022Y3281418D01*
G01X3403045Y3281418D01*
G01X3403272Y3250585D01*
G01X3403954Y3239903D01*
G01X3411530Y3232327D01*
G01X3411530Y3232327D01*
G01X3416909Y3231646D01*
G01X3431833Y3231418D01*
G01X3451833Y3231721D01*
G01X3453045Y3232630D01*
G01X3459106Y3238691D01*
G01X3460621Y3240509D01*
G01X3461227Y3282024D01*
G01X3460999Y3312403D01*
G01X3460318Y3322933D01*
G01X3452742Y3330509D01*
G01X3447287Y3331191D01*
G01X3432136Y3331418D01*
G01X3416984Y3331191D01*
G01X3411530Y3330509D01*
G01X3403954Y3322933D01*
G01X3403272Y3312252D01*
G01X3403045Y3281418D01*
G01X3380022Y3281418D01*
G01X3380015Y3282630D01*
G01X3380242Y3318009D01*
G01X3380924Y3330206D01*
G01X3400621Y3349903D01*
G01X3402742Y3351115D01*
G01X3433348Y3351418D01*
G01X3455318Y3351191D01*
G01X3463045Y3350509D01*
G01X3482742Y3330812D01*
G01X3483954Y3328691D01*
G01X3484257Y3280206D01*
G37*
G36*
G01X3336681Y3324145D02*
G01X3334257Y3325358D01*
G01X3332136Y3326267D01*
G01X3330923Y3326570D01*
G01X3330923Y3211418D01*
G01X3308499Y3211418D01*
G01X3308196Y3212933D01*
G01X3307893Y3282933D01*
G01X3307893Y3351418D01*
G01X3317590Y3351418D01*
G01X3328196Y3350812D01*
G01X3332439Y3348388D01*
G01X3334863Y3347176D01*
G01X3345772Y3341115D01*
G01X3348196Y3339903D01*
G01X3350621Y3338388D01*
G01X3353651Y3336873D01*
G01X3359106Y3333842D01*
G01X3361227Y3332327D01*
G01X3361833Y3321418D01*
G01X3361833Y3311418D01*
G01X3360621Y3311721D01*
G01X3358196Y3312933D01*
G01X3355469Y3314449D01*
G01X3340924Y3321721D01*
G01X3336681Y3324145D01*
G37*
G36*
G01X3700621Y3331418D02*
G01X3628499Y3331418D01*
G01X3628499Y3351418D01*
G01X3723651Y3351418D01*
G01X3723651Y3211418D01*
G01X3700621Y3211418D01*
G01X3700621Y3268994D01*
G01X3638196Y3268994D01*
G01X3637893Y3270509D01*
G01X3637590Y3280206D01*
G01X3637590Y3288388D01*
G01X3639105Y3288691D01*
G01X3670621Y3288994D01*
G01X3700621Y3288994D01*
G01X3700621Y3331418D01*
G37*
G36*
G01X4497591Y3240812D02*
G01X4497364Y3234070D01*
G01X4496682Y3231418D01*
G01X4477288Y3212024D01*
G01X4445470Y3211418D01*
G01X4421682Y3211646D01*
G01X4413349Y3212327D01*
G01X4395167Y3230509D01*
G01X4393954Y3232024D01*
G01X4393348Y3252630D01*
G01X4393576Y3267782D01*
G01X4394257Y3273237D01*
G01X4412439Y3291418D01*
G01X4413955Y3292630D01*
G01X4441227Y3293236D01*
G01X4461379Y3293464D01*
G01X4468500Y3294146D01*
G01X4473045Y3298691D01*
G01X4474257Y3300812D01*
G01X4474561Y3313539D01*
G01X4474333Y3322024D01*
G01X4473651Y3325055D01*
G01X4472136Y3326267D01*
G01X4469106Y3329297D01*
G01X4467288Y3330812D01*
G01X4445470Y3331418D01*
G01X4424258Y3330812D01*
G01X4422742Y3329600D01*
G01X4419712Y3326570D01*
G01X4418197Y3324752D01*
G01X4417591Y3318388D01*
G01X4417591Y3313236D01*
G01X4394560Y3313236D01*
G01X4394560Y3322024D01*
G01X4394788Y3328767D01*
G01X4395470Y3331418D01*
G01X4413652Y3349600D01*
G01X4415167Y3350812D01*
G01X4446379Y3351418D01*
G01X4469485Y3351191D01*
G01X4477591Y3350509D01*
G01X4495773Y3332327D01*
G01X4496985Y3330509D01*
G01X4497591Y3311721D01*
G01X4497364Y3298161D01*
G01X4496682Y3293236D01*
G01X4478500Y3275055D01*
G01X4476985Y3273843D01*
G01X4449712Y3273237D01*
G01X4429561Y3273009D01*
G01X4422439Y3272327D01*
G01X4417894Y3267782D01*
G01X4416379Y3265964D01*
G01X4415773Y3251721D01*
G01X4416000Y3241797D01*
G01X4416682Y3238085D01*
G01X4421227Y3233539D01*
G01X4423046Y3232024D01*
G01X4446076Y3231418D01*
G01X4462591Y3231646D01*
G01X4468500Y3232327D01*
G01X4473045Y3236873D01*
G01X4474561Y3238691D01*
G01X4475167Y3244751D01*
G01X4475167Y3249600D01*
G01X4497591Y3249600D01*
G01X4497591Y3240812D01*
G37*
G36*
G01X4116227Y3297100D02*
G01X4116379Y3302933D01*
G01X4116379Y3310812D01*
G01X4137591Y3310812D01*
G01X4137591Y3211418D01*
G01X4115167Y3211418D01*
G01X4115167Y3241418D01*
G01X4114939Y3264070D01*
G01X4114257Y3272024D01*
G01X4110621Y3276267D01*
G01X4096985Y3289903D01*
G01X4094864Y3291115D01*
G01X4083045Y3291418D01*
G01X4072742Y3291418D01*
G01X4072742Y3310812D01*
G01X4086379Y3310812D01*
G01X4096757Y3310585D01*
G01X4100621Y3309903D01*
G01X4114257Y3296267D01*
G01X4115773Y3295358D01*
G01X4116227Y3297100D01*
G37*
G36*
G01X4253954Y3240509D02*
G01X4253727Y3231721D01*
G01X4253045Y3228388D01*
G01X4236682Y3212024D01*
G01X4217894Y3211418D01*
G01X4203879Y3211646D01*
G01X4198803Y3212327D01*
G01X4195167Y3215358D01*
G01X4186076Y3224448D01*
G01X4184257Y3225964D01*
G01X4183045Y3226570D01*
G01X4183045Y3211418D01*
G01X4163045Y3211418D01*
G01X4162742Y3212933D01*
G01X4162439Y3252327D01*
G01X4162451Y3253842D01*
G01X4184863Y3253842D01*
G01X4184863Y3249297D01*
G01X4185091Y3245736D01*
G01X4185772Y3244145D01*
G01X4196379Y3233539D01*
G01X4200015Y3230509D01*
G01X4200015Y3230509D01*
G01X4202136Y3229297D01*
G01X4214561Y3228994D01*
G01X4225773Y3229297D01*
G01X4226985Y3230206D01*
G01X4230015Y3233236D01*
G01X4231530Y3235054D01*
G01X4232136Y3242024D01*
G01X4231909Y3246494D01*
G01X4231227Y3248388D01*
G01X4226682Y3252933D01*
G01X4221076Y3253615D01*
G01X4205470Y3253842D01*
G01X4184863Y3253842D01*
G01X4162451Y3253842D01*
G01X4162667Y3280888D01*
G01X4163348Y3290812D01*
G01X4181530Y3308994D01*
G01X4183045Y3310206D01*
G01X4208197Y3310812D01*
G01X4226757Y3310585D01*
G01X4233348Y3309903D01*
G01X4251530Y3291721D01*
G01X4252742Y3290206D01*
G01X4253348Y3284449D01*
G01X4253348Y3279297D01*
G01X4251833Y3278994D01*
G01X4240924Y3278691D01*
G01X4231530Y3278691D01*
G01X4231227Y3280206D01*
G01X4230924Y3283843D01*
G01X4230697Y3285585D01*
G01X4230015Y3286570D01*
G01X4225470Y3291115D01*
G01X4223348Y3292327D01*
G01X4206682Y3292630D01*
G01X4195167Y3292403D01*
G01X4190924Y3291721D01*
G01X4186379Y3287176D01*
G01X4185166Y3285055D01*
G01X4184863Y3276873D01*
G01X4184863Y3270206D01*
G01X4210621Y3270206D01*
G01X4230091Y3269979D01*
G01X4236985Y3269297D01*
G01X4252136Y3254146D01*
G01X4253348Y3252630D01*
G01X4253954Y3240509D01*
G37*
G36*
G01X4347894Y3296267D02*
G01X4349106Y3295661D01*
G01X4349106Y3310812D01*
G01X4369712Y3310812D01*
G01X4369712Y3168994D01*
G01X4347894Y3168994D01*
G01X4347591Y3170509D01*
G01X4347288Y3197479D01*
G01X4347060Y3216494D01*
G01X4346379Y3222630D01*
G01X4344864Y3221418D01*
G01X4340621Y3217782D01*
G01X4335167Y3213236D01*
G01X4333348Y3212024D01*
G01X4313955Y3211418D01*
G01X4299712Y3211646D01*
G01X4294560Y3212327D01*
G01X4276379Y3230509D01*
G01X4275469Y3232327D01*
G01X4275185Y3260509D01*
G01X4297591Y3260509D01*
G01X4297818Y3243539D01*
G01X4298500Y3237479D01*
G01X4303045Y3232933D01*
G01X4303045Y3232933D01*
G01X4304864Y3231418D01*
G01X4318500Y3230812D01*
G01X4331227Y3231115D01*
G01X4332439Y3232024D01*
G01X4335470Y3235054D01*
G01X4338500Y3237479D01*
G01X4341530Y3240509D01*
G01X4344561Y3242933D01*
G01X4346076Y3244448D01*
G01X4346985Y3246267D01*
G01X4347288Y3260812D01*
G01X4347060Y3271191D01*
G01X4346379Y3275055D01*
G01X4331227Y3290206D01*
G01X4329409Y3291115D01*
G01X4316682Y3291418D01*
G01X4307667Y3291191D01*
G01X4304258Y3290509D01*
G01X4299712Y3285964D01*
G01X4298197Y3284146D01*
G01X4297591Y3260509D01*
G01X4275185Y3260509D01*
G01X4275166Y3262327D01*
G01X4275394Y3284297D01*
G01X4276076Y3292024D01*
G01X4292742Y3308691D01*
G01X4294560Y3310206D01*
G01X4314561Y3310812D01*
G01X4328803Y3310585D01*
G01X4333955Y3309903D01*
G01X4346076Y3297782D01*
G01X4347894Y3296267D01*
G37*
G36*
G01X3873121Y3295509D02*
G01X3873348Y3302024D01*
G01X3873348Y3310812D01*
G01X3893954Y3310812D01*
G01X3893954Y3211418D01*
G01X3871530Y3211418D01*
G01X3871530Y3241418D01*
G01X3871303Y3264070D01*
G01X3870621Y3272024D01*
G01X3852439Y3290206D01*
G01X3850621Y3291115D01*
G01X3840924Y3291418D01*
G01X3834182Y3291191D01*
G01X3831530Y3290509D01*
G01X3826984Y3285964D01*
G01X3825469Y3284146D01*
G01X3824863Y3247176D01*
G01X3824863Y3211418D01*
G01X3802439Y3211418D01*
G01X3802439Y3250812D01*
G01X3802666Y3280509D01*
G01X3803348Y3290812D01*
G01X3821530Y3308994D01*
G01X3823045Y3310206D01*
G01X3839409Y3310812D01*
G01X3851378Y3310585D01*
G01X3855772Y3309903D01*
G01X3870924Y3294752D01*
G01X3872439Y3293540D01*
G01X3873121Y3295509D01*
G37*
G36*
G01X3947666Y3333767D02*
G01X3946984Y3332024D01*
G01X3942439Y3327479D01*
G01X3940924Y3325661D01*
G01X3938651Y3324979D01*
G01X3933651Y3324752D01*
G01X3928727Y3324979D01*
G01X3926682Y3325661D01*
G01X3922439Y3329297D01*
G01X3920924Y3330812D01*
G01X3919712Y3332933D01*
G01X3919409Y3339297D01*
G01X3919636Y3343085D01*
G01X3920318Y3344752D01*
G01X3926378Y3350812D01*
G01X3928197Y3351721D01*
G01X3934257Y3352024D01*
G01X3938273Y3351797D01*
G01X3940015Y3351115D01*
G01X3943045Y3348085D01*
G01X3946075Y3345661D01*
G01X3947288Y3343842D01*
G01X3947894Y3337782D01*
G01X3947666Y3333767D01*
G37*
G36*
G01X3944863Y3211418D02*
G01X3922439Y3211418D01*
G01X3922439Y3310812D01*
G01X3944863Y3310812D01*
G01X3944863Y3211418D01*
G37*
G36*
G01X4025469Y3272630D02*
G01X4035166Y3272630D01*
G01X4035166Y3353842D01*
G01X4057591Y3353842D01*
G01X4057591Y3211418D01*
G01X4035166Y3211418D01*
G01X4035166Y3253842D01*
G01X4015773Y3253842D01*
G01X4014863Y3252327D01*
G01X4011833Y3248085D01*
G01X4008197Y3242630D01*
G01X4005166Y3238388D01*
G01X4001530Y3232933D01*
G01X3998500Y3228691D01*
G01X3994863Y3223236D01*
G01X3991833Y3218994D01*
G01X3988197Y3213539D01*
G01X3987136Y3212327D01*
G01X3985772Y3211721D01*
G01X3973348Y3211418D01*
G01X3965242Y3211646D01*
G01X3962742Y3212327D01*
G01X3963954Y3214448D01*
G01X3966984Y3218691D01*
G01X3970621Y3224145D01*
G01X3973651Y3228388D01*
G01X3979106Y3236570D01*
G01X3982136Y3240812D01*
G01X3985772Y3246267D01*
G01X3988803Y3250509D01*
G01X3992439Y3255964D01*
G01X3994560Y3258994D01*
G01X3996379Y3261721D01*
G01X3996682Y3263843D01*
G01X3995470Y3265964D01*
G01X3993651Y3268691D01*
G01X3985166Y3280812D01*
G01X3983348Y3283540D01*
G01X3980318Y3287782D01*
G01X3978500Y3290509D01*
G01X3975469Y3294752D01*
G01X3973651Y3297479D01*
G01X3970621Y3301721D01*
G01X3968803Y3304449D01*
G01X3965772Y3308691D01*
G01X3964863Y3310509D01*
G01X3976985Y3310812D01*
G01X3986151Y3310585D01*
G01X3989409Y3309903D01*
G01X3990621Y3307782D01*
G01X3993651Y3303539D01*
G01X3995470Y3300812D01*
G01X3998500Y3296570D01*
G01X4002742Y3290509D01*
G01X4004560Y3287782D01*
G01X4007591Y3283540D01*
G01X4009409Y3280812D01*
G01X4012439Y3276570D01*
G01X4014560Y3273843D01*
G01X4017894Y3272934D01*
G01X4025469Y3272630D01*
G37*
G36*
G01X3495040Y3515360D02*
G01X3496887Y3509818D01*
G01X3498734Y3505200D01*
G01X3501044Y3498273D01*
G01X3483956Y3497811D01*
G01X3466407Y3497811D01*
G01X3465484Y3500120D01*
G01X3459942Y3515360D01*
G01X3458094Y3520902D01*
G01X3456247Y3525520D01*
G01X3454862Y3529676D01*
G01X3452091Y3537066D01*
G01X3450706Y3541222D01*
G01X3448858Y3545840D01*
G01X3447934Y3548611D01*
G01X3367578Y3548611D01*
G01X3367116Y3546302D01*
G01X3365731Y3542146D01*
G01X3363884Y3537527D01*
G01X3362036Y3531986D01*
G01X3360189Y3527367D01*
G01X3357418Y3519054D01*
G01X3355571Y3514436D01*
G01X3353724Y3508894D01*
G01X3351876Y3504276D01*
G01X3350491Y3500120D01*
G01X3350029Y3497811D01*
G01X3314007Y3497811D01*
G01X3316778Y3506124D01*
G01X3331556Y3546764D01*
G01X3333404Y3552306D01*
G01X3335251Y3556924D01*
G01X3336636Y3561080D01*
G01X3339407Y3568469D01*
G01X3340793Y3572626D01*
G01X3342640Y3577244D01*
G01X3342948Y3578167D01*
G01X3376814Y3578167D01*
G01X3407294Y3578167D01*
G01X3438236Y3578629D01*
G01X3438236Y3581400D01*
G01X3429924Y3606338D01*
G01X3427153Y3613727D01*
G01X3416069Y3646978D01*
G01X3413298Y3654367D01*
G01X3410527Y3662680D01*
G01X3409142Y3666374D01*
G01X3408218Y3667183D01*
G01X3407294Y3666836D01*
G01X3405909Y3663604D01*
G01X3403138Y3655291D01*
G01X3400367Y3647902D01*
G01X3396211Y3635433D01*
G01X3393440Y3628044D01*
G01X3387898Y3611418D01*
G01X3386051Y3606800D01*
G01X3380509Y3590174D01*
G01X3378662Y3585556D01*
G01X3377276Y3580938D01*
G01X3377276Y3580938D01*
G01X3376814Y3578167D01*
G01X3342948Y3578167D01*
G01X3344487Y3582786D01*
G01X3355571Y3613266D01*
G01X3357418Y3618807D01*
G01X3359266Y3623426D01*
G01X3360651Y3627582D01*
G01X3363422Y3634971D01*
G01X3364807Y3639127D01*
G01X3366654Y3643746D01*
G01X3368502Y3649287D01*
G01X3370349Y3653906D01*
G01X3373120Y3662218D01*
G01X3374967Y3666836D01*
G01X3376814Y3672378D01*
G01X3378662Y3676996D01*
G01X3380047Y3681153D01*
G01X3382818Y3688542D01*
G01X3384204Y3692698D01*
G01X3386974Y3700087D01*
G01X3388360Y3704244D01*
G01X3389746Y3707938D01*
G01X3391131Y3710247D01*
G01X3407756Y3711171D01*
G01X3423920Y3711171D01*
G01X3424844Y3708400D01*
G01X3426691Y3703782D01*
G01X3429462Y3695469D01*
G01X3431309Y3690851D01*
G01X3433156Y3685309D01*
G01X3435004Y3680691D01*
G01X3436389Y3676534D01*
G01X3439160Y3669146D01*
G01X3440546Y3664989D01*
G01X3442393Y3660371D01*
G01X3444240Y3654829D01*
G01X3446087Y3650211D01*
G01X3447473Y3646054D01*
G01X3450244Y3638666D01*
G01X3451629Y3634509D01*
G01X3453476Y3629891D01*
G01X3455324Y3624349D01*
G01X3457171Y3619731D01*
G01X3458556Y3615574D01*
G01X3461327Y3608186D01*
G01X3462713Y3604029D01*
G01X3464560Y3599411D01*
G01X3466407Y3593869D01*
G01X3468254Y3589251D01*
G01X3471026Y3580938D01*
G01X3472873Y3576320D01*
G01X3474720Y3570778D01*
G01X3476567Y3566160D01*
G01X3477953Y3562004D01*
G01X3480724Y3554614D01*
G01X3482109Y3550458D01*
G01X3483956Y3545840D01*
G01X3485804Y3540298D01*
G01X3487651Y3535680D01*
G01X3489036Y3531524D01*
G01X3491807Y3524134D01*
G01X3493193Y3519978D01*
G01X3495040Y3515360D01*
G37*
G36*
G01X3599411Y3511666D02*
G01X3597564Y3507047D01*
G01X3596178Y3502891D01*
G01X3595254Y3499196D01*
G01X3590521Y3498157D01*
G01X3577244Y3497811D01*
G01X3559694Y3497811D01*
G01X3558771Y3500120D01*
G01X3556924Y3505200D01*
G01X3555076Y3510742D01*
G01X3551382Y3520902D01*
G01X3549534Y3526444D01*
G01X3547687Y3531062D01*
G01X3544916Y3539374D01*
G01X3542146Y3546764D01*
G01X3539374Y3555076D01*
G01X3536604Y3562466D01*
G01X3533833Y3570778D01*
G01X3531986Y3575396D01*
G01X3528291Y3586480D01*
G01X3526444Y3591098D01*
G01X3523673Y3599411D01*
G01X3521826Y3604029D01*
G01X3518131Y3615113D01*
G01X3516284Y3619731D01*
G01X3513513Y3628044D01*
G01X3510742Y3635433D01*
G01X3507971Y3643746D01*
G01X3506124Y3648364D01*
G01X3502429Y3659447D01*
G01X3500582Y3664066D01*
G01X3497811Y3672378D01*
G01X3495040Y3679767D01*
G01X3492269Y3688080D01*
G01X3490422Y3692698D01*
G01X3486727Y3703782D01*
G01X3484880Y3708400D01*
G01X3484534Y3709901D01*
G01X3485342Y3710709D01*
G01X3503353Y3711171D01*
G01X3519978Y3711171D01*
G01X3520440Y3708862D01*
G01X3527367Y3688080D01*
G01X3530138Y3678844D01*
G01X3552306Y3612342D01*
G01X3555076Y3603106D01*
G01X3574473Y3544916D01*
G01X3575858Y3542146D01*
G01X3577244Y3541684D01*
G01X3578629Y3544454D01*
G01X3592484Y3586018D01*
G01X3593407Y3589713D01*
G01X3616960Y3660371D01*
G01X3620654Y3672378D01*
G01X3631738Y3705629D01*
G01X3633586Y3709786D01*
G01X3638666Y3710824D01*
G01X3652058Y3711171D01*
G01X3669607Y3711171D01*
G01X3669146Y3708862D01*
G01X3667760Y3704706D01*
G01X3664989Y3697316D01*
G01X3662218Y3689004D01*
G01X3660371Y3684386D01*
G01X3656676Y3673302D01*
G01X3654829Y3668684D01*
G01X3652058Y3660371D01*
G01X3650211Y3655753D01*
G01X3646516Y3644669D01*
G01X3644669Y3640051D01*
G01X3641898Y3631738D01*
G01X3639127Y3624349D01*
G01X3636356Y3616036D01*
G01X3634509Y3611418D01*
G01X3630814Y3600334D01*
G01X3628967Y3595716D01*
G01X3626196Y3587404D01*
G01X3623426Y3580014D01*
G01X3620654Y3571702D01*
G01X3618807Y3567084D01*
G01X3615113Y3556000D01*
G01X3613266Y3551382D01*
G01X3610494Y3543069D01*
G01X3607724Y3535680D01*
G01X3604953Y3527367D01*
G01X3603106Y3522749D01*
G01X3599411Y3511666D01*
G37*
G36*
G01X3862301Y3549650D02*
G01X3861262Y3531062D01*
G01X3831244Y3501044D01*
G01X3829396Y3498734D01*
G01X3775826Y3497811D01*
G01X3736109Y3498157D01*
G01X3722254Y3499196D01*
G01X3689927Y3531524D01*
G01X3688542Y3534294D01*
G01X3688098Y3603106D01*
G01X3723178Y3603106D01*
G01X3723524Y3559233D01*
G01X3724564Y3543993D01*
G01X3738418Y3530138D01*
G01X3738418Y3530138D01*
G01X3741189Y3528753D01*
G01X3776287Y3528291D01*
G01X3810462Y3528753D01*
G01X3812309Y3530138D01*
G01X3826164Y3543993D01*
G01X3827203Y3559579D01*
G01X3827549Y3604491D01*
G01X3827203Y3649403D01*
G01X3826164Y3664989D01*
G01X3812309Y3678844D01*
G01X3809538Y3680229D01*
G01X3773978Y3680691D01*
G01X3748116Y3680344D01*
G01X3738880Y3679306D01*
G01X3725026Y3665451D01*
G01X3723640Y3662680D01*
G01X3723178Y3603106D01*
G01X3688098Y3603106D01*
G01X3688080Y3605876D01*
G01X3688426Y3658754D01*
G01X3689466Y3676996D01*
G01X3721793Y3709324D01*
G01X3724564Y3710709D01*
G01X3777211Y3711171D01*
G01X3815888Y3710824D01*
G01X3829396Y3709786D01*
G01X3859414Y3679767D01*
G01X3861724Y3676996D01*
G01X3862647Y3603567D01*
G01X3862301Y3549650D01*
G37*
G36*
G01X4278284Y3711171D02*
G01X4204854Y3588789D01*
G01X4203816Y3575974D01*
G01X4203469Y3542146D01*
G01X4203469Y3497811D01*
G01X4168371Y3497811D01*
G01X4167909Y3500120D01*
G01X4167447Y3544916D01*
G01X4166524Y3588789D01*
G01X4164214Y3592484D01*
G01X4094942Y3707938D01*
G01X4093556Y3710709D01*
G01X4112491Y3711171D01*
G01X4126807Y3710709D01*
G01X4131887Y3709324D01*
G01X4133273Y3706553D01*
G01X4136967Y3700087D01*
G01X4138814Y3697316D01*
G01X4148051Y3681153D01*
G01X4150360Y3677458D01*
G01X4152669Y3673302D01*
G01X4154516Y3670069D01*
G01X4156826Y3666374D01*
G01X4159134Y3662218D01*
G01X4160982Y3658986D01*
G01X4163291Y3655291D01*
G01X4165600Y3651134D01*
G01X4167447Y3647902D01*
G01X4169756Y3644207D01*
G01X4172066Y3640051D01*
G01X4173913Y3636818D01*
G01X4176222Y3633124D01*
G01X4178531Y3628967D01*
G01X4180378Y3625734D01*
G01X4182687Y3622040D01*
G01X4185458Y3619269D01*
G01X4186613Y3619384D01*
G01X4187306Y3620654D01*
G01X4188691Y3623426D01*
G01X4192386Y3629891D01*
G01X4194233Y3632662D01*
G01X4199774Y3642360D01*
G01X4202084Y3646054D01*
G01X4204393Y3650211D01*
G01X4206240Y3653444D01*
G01X4208549Y3657138D01*
G01X4210858Y3661294D01*
G01X4212706Y3664527D01*
G01X4215014Y3668222D01*
G01X4217324Y3672378D01*
G01X4219171Y3675611D01*
G01X4221480Y3679306D01*
G01X4223789Y3683462D01*
G01X4229331Y3693160D01*
G01X4231640Y3696854D01*
G01X4233949Y3701011D01*
G01X4235796Y3704244D01*
G01X4238106Y3707938D01*
G01X4240876Y3710709D01*
G01X4260273Y3711171D01*
G01X4278284Y3711171D01*
G37*
G36*
G01X4035829Y3708400D02*
G01X4038600Y3710709D01*
G01X4054764Y3711171D01*
G01X4069542Y3711171D01*
G01X4069542Y3497811D01*
G01X4036291Y3497811D01*
G01X4036291Y3575396D01*
G01X4036060Y3633470D01*
G01X4035367Y3652520D01*
G01X4033058Y3649749D01*
G01X4028440Y3642360D01*
G01X4020127Y3629891D01*
G01X4015509Y3622502D01*
G01X4007196Y3610033D01*
G01X4004426Y3605414D01*
G01X3996113Y3592946D01*
G01X3991494Y3585556D01*
G01X3983182Y3573087D01*
G01X3980411Y3568469D01*
G01X3974869Y3560156D01*
G01X3970251Y3552767D01*
G01X3961938Y3540298D01*
G01X3957320Y3532909D01*
G01X3949007Y3520440D01*
G01X3946236Y3515822D01*
G01X3937924Y3503353D01*
G01X3935614Y3499658D01*
G01X3930881Y3498273D01*
G01X3918527Y3497811D01*
G01X3902364Y3497811D01*
G01X3902364Y3711171D01*
G01X3935614Y3711171D01*
G01X3935614Y3633586D01*
G01X3935961Y3575512D01*
G01X3937000Y3556462D01*
G01X3938847Y3558771D01*
G01X3940233Y3561542D01*
G01X3942542Y3564774D01*
G01X3948084Y3573087D01*
G01X3952702Y3580476D01*
G01X3958244Y3588789D01*
G01X3962862Y3596178D01*
G01X3971174Y3608647D01*
G01X3975793Y3616036D01*
G01X3981334Y3624349D01*
G01X3985953Y3631738D01*
G01X3991494Y3640051D01*
G01X3996113Y3647440D01*
G01X4004426Y3659909D01*
G01X4007196Y3664527D01*
G01X4012738Y3672840D01*
G01X4017356Y3680229D01*
G01X4025669Y3692698D01*
G01X4030287Y3700087D01*
G01X4035829Y3708400D01*
G37*
G36*
G01X4463934Y3705167D02*
G01X4465782Y3708862D01*
G01X4466706Y3711171D01*
G01X4499956Y3711171D01*
G01X4499956Y3497811D01*
G01X4466706Y3497811D01*
G01X4466706Y3568931D01*
G01X4466474Y3622156D01*
G01X4465782Y3639589D01*
G01X4463934Y3636356D01*
G01X4462087Y3632200D01*
G01X4460240Y3628506D01*
G01X4456546Y3620193D01*
G01X4454698Y3616498D01*
G01X4451004Y3608186D01*
G01X4449156Y3604491D01*
G01X4445462Y3596178D01*
G01X4443614Y3592484D01*
G01X4439920Y3584171D01*
G01X4438073Y3580476D01*
G01X4434378Y3572164D01*
G01X4432531Y3568469D01*
G01X4428836Y3560156D01*
G01X4426989Y3556462D01*
G01X4423294Y3548149D01*
G01X4421447Y3544454D01*
G01X4417753Y3536142D01*
G01X4415906Y3532447D01*
G01X4414058Y3528291D01*
G01X4412211Y3525520D01*
G01X4400666Y3524596D01*
G01X4390044Y3524596D01*
G01X4389120Y3526906D01*
G01X4387273Y3530600D01*
G01X4383578Y3538913D01*
G01X4379884Y3546302D01*
G01X4377113Y3552767D01*
G01X4375266Y3556462D01*
G01X4371571Y3564774D01*
G01X4367876Y3572164D01*
G01X4366029Y3576782D01*
G01X4362334Y3584171D01*
G01X4360487Y3588789D01*
G01X4356793Y3596178D01*
G01X4353098Y3604491D01*
G01X4351251Y3608186D01*
G01X4347556Y3616498D01*
G01X4343862Y3623887D01*
G01X4341091Y3630353D01*
G01X4339244Y3634047D01*
G01X4337396Y3638204D01*
G01X4335549Y3640513D01*
G01X4334856Y3622964D01*
G01X4334626Y3569393D01*
G01X4334626Y3497811D01*
G01X4301374Y3497811D01*
G01X4301374Y3711171D01*
G01X4335549Y3711171D01*
G01X4336011Y3708862D01*
G01X4337396Y3705167D01*
G01X4339244Y3701473D01*
G01X4341091Y3696854D01*
G01X4342938Y3693160D01*
G01X4345709Y3686694D01*
G01X4397433Y3570316D01*
G01X4399280Y3566622D01*
G01X4400204Y3565006D01*
G01X4401127Y3564774D01*
G01X4402974Y3568007D01*
G01X4463934Y3705167D01*
G37*
G54D10*
G01X911098Y5133340D02*
G01X914146Y5139690D01*
G01X920496Y5145786D01*
G01X926592Y5148834D01*
G01X939038Y5148834D01*
G01X945134Y5145786D01*
G01X951484Y5139690D01*
G01X954532Y5133340D01*
G01X957580Y5124196D01*
G01X957580Y5108702D01*
G01X954532Y5099304D01*
G01X951484Y5093208D01*
G01X945134Y5086858D01*
G01X939038Y5083810D01*
G01X926592Y5083810D01*
G01X920496Y5086858D01*
G01X914146Y5093208D01*
G01X911098Y5099304D01*
G01X880872Y5136388D02*
G01X874776Y5139690D01*
G01X865632Y5148834D01*
G01X865632Y5083810D01*
G01X1101598Y4320540D02*
G01X1104646Y4326890D01*
G01X1110996Y4332986D01*
G01X1117092Y4336034D01*
G01X1129538Y4336034D01*
G01X1135634Y4332986D01*
G01X1141984Y4326890D01*
G01X1145032Y4320540D01*
G01X1148080Y4311396D01*
G01X1148080Y4295902D01*
G01X1145032Y4286504D01*
G01X1141984Y4280408D01*
G01X1135634Y4274058D01*
G01X1129538Y4271010D01*
G01X1117092Y4271010D01*
G01X1110996Y4274058D01*
G01X1104646Y4280408D01*
G01X1101598Y4286504D01*
G01X1068324Y4320540D02*
G01X1068324Y4323588D01*
G01X1065276Y4329938D01*
G01X1062228Y4332986D01*
G01X1056132Y4336034D01*
G01X1043686Y4336034D01*
G01X1037336Y4332986D01*
G01X1034288Y4329938D01*
G01X1031240Y4323588D01*
G01X1031240Y4317492D01*
G01X1034288Y4311396D01*
G01X1040638Y4301998D01*
G01X1071372Y4271010D01*
G01X1028192Y4271010D01*
G01X1711198Y5133340D02*
G01X1714246Y5139690D01*
G01X1720596Y5145786D01*
G01X1726692Y5148834D01*
G01X1739138Y5148834D01*
G01X1745234Y5145786D01*
G01X1751584Y5139690D01*
G01X1754632Y5133340D01*
G01X1757680Y5124196D01*
G01X1757680Y5108702D01*
G01X1754632Y5099304D01*
G01X1751584Y5093208D01*
G01X1745234Y5086858D01*
G01X1739138Y5083810D01*
G01X1726692Y5083810D01*
G01X1720596Y5086858D01*
G01X1714246Y5093208D01*
G01X1711198Y5099304D01*
G01X1674876Y5148834D02*
G01X1640840Y5148834D01*
G01X1659382Y5124196D01*
G01X1650238Y5124196D01*
G01X1643888Y5121148D01*
G01X1640840Y5117846D01*
G01X1637792Y5108702D01*
G01X1637792Y5102352D01*
G01X1640840Y5093208D01*
G01X1646936Y5086858D01*
G01X1656334Y5083810D01*
G01X1665732Y5083810D01*
G01X1674876Y5086858D01*
G01X1677924Y5090160D01*
G01X1680972Y5096256D01*
G01X1167638Y2062734D02*
G01X1173734Y2059686D01*
G01X1180084Y2053590D01*
G01X1183132Y2047240D01*
G01X1186180Y2038096D01*
G01X1186180Y2022602D01*
G01X1183132Y2013204D01*
G01X1180084Y2007108D01*
G01X1173734Y2000758D01*
G01X1167638Y1997710D01*
G01X1155192Y1997710D01*
G01X1149096Y2000758D01*
G01X1142746Y2007108D01*
G01X1139698Y2013204D01*
G01X1136650Y2022602D01*
G01X1136650Y2038096D01*
G01X1139698Y2047240D01*
G01X1142746Y2053590D01*
G01X1149096Y2059686D01*
G01X1155192Y2062734D01*
G01X1167638Y2062734D01*
G01X1158240Y2010156D02*
G01X1139698Y1991614D01*
G01X1075690Y2062734D02*
G01X1106424Y2019554D01*
G01X1060196Y2019554D01*
G01X1075690Y2062734D02*
G01X1075690Y1997710D01*
G01X3273298Y408940D02*
G01X3276346Y415290D01*
G01X3282696Y421386D01*
G01X3288792Y424434D01*
G01X3301238Y424434D01*
G01X3307334Y421386D01*
G01X3313684Y415290D01*
G01X3316732Y408940D01*
G01X3319780Y399796D01*
G01X3319780Y384302D01*
G01X3316732Y374904D01*
G01X3313684Y368808D01*
G01X3307334Y362458D01*
G01X3301238Y359410D01*
G01X3288792Y359410D01*
G01X3282696Y362458D01*
G01X3276346Y368808D01*
G01X3273298Y374904D01*
G01X3205988Y424434D02*
G01X3236976Y424434D01*
G01X3240024Y396748D01*
G01X3236976Y399796D01*
G01X3227832Y402844D01*
G01X3218434Y402844D01*
G01X3209036Y399796D01*
G01X3202940Y393446D01*
G01X3199892Y384302D01*
G01X3199892Y377952D01*
G01X3202940Y368808D01*
G01X3209036Y362458D01*
G01X3218434Y359410D01*
G01X3227832Y359410D01*
G01X3236976Y362458D01*
G01X3240024Y365760D01*
G01X3243072Y371856D01*
G01X860298Y1945640D02*
G01X863346Y1951990D01*
G01X869696Y1958086D01*
G01X875792Y1961134D01*
G01X888238Y1961134D01*
G01X894334Y1958086D01*
G01X900684Y1951990D01*
G01X903732Y1945640D01*
G01X906780Y1936496D01*
G01X906780Y1921002D01*
G01X903732Y1911604D01*
G01X900684Y1905508D01*
G01X894334Y1899158D01*
G01X888238Y1896110D01*
G01X875792Y1896110D01*
G01X869696Y1899158D01*
G01X863346Y1905508D01*
G01X860298Y1911604D01*
G01X792988Y1951990D02*
G01X796036Y1958086D01*
G01X805434Y1961134D01*
G01X811530Y1961134D01*
G01X820928Y1958086D01*
G01X827024Y1948688D01*
G01X830072Y1933448D01*
G01X830072Y1917954D01*
G01X827024Y1905508D01*
G01X820928Y1899158D01*
G01X811530Y1896110D01*
G01X808482Y1896110D01*
G01X799338Y1899158D01*
G01X792988Y1905508D01*
G01X789940Y1914652D01*
G01X789940Y1917954D01*
G01X792988Y1927098D01*
G01X799338Y1933448D01*
G01X808482Y1936496D01*
G01X811530Y1936496D01*
G01X820928Y1933448D01*
G01X827024Y1927098D01*
G01X830072Y1917954D01*
G36*
G01X412591Y931500D02*
G01X412136Y934227D01*
G01X411909Y936273D01*
G01X411682Y937864D01*
G01X411455Y942863D01*
G01X411682Y948318D01*
G01X412136Y952864D01*
G01X412591Y955364D01*
G01X413273Y958091D01*
G01X413954Y960364D01*
G01X414636Y962409D01*
G01X416000Y965591D01*
G01X417136Y967409D01*
G01X418500Y969455D01*
G01X419636Y971046D01*
G01X421000Y972864D01*
G01X423727Y975591D01*
G01X424864Y976500D01*
G01X426682Y977636D01*
G01X428954Y979227D01*
G01X431000Y980136D01*
G01X432591Y980818D01*
G01X434636Y981727D01*
G01X437591Y982636D01*
G01X440773Y983318D01*
G01X443500Y983773D01*
G01X446682Y984227D01*
G01X449636Y984454D01*
G01X451227Y984682D01*
G01X486227Y984909D01*
G01X520545Y984909D01*
G01X520545Y970818D01*
G01X485773Y970818D01*
G01X450318Y970591D01*
G01X446227Y970136D01*
G01X443045Y969682D01*
G01X439409Y968773D01*
G01X437591Y968091D01*
G01X435318Y967182D01*
G01X433727Y966273D01*
G01X432591Y965364D01*
G01X430318Y963091D01*
G01X428954Y961500D01*
G01X427591Y959227D01*
G01X426682Y957182D01*
G01X426227Y955591D01*
G01X425546Y953545D01*
G01X425091Y951273D01*
G01X424864Y949682D01*
G01X424409Y946045D01*
G01X424182Y941500D01*
G01X424409Y936954D01*
G01X424864Y933773D01*
G01X425318Y931954D01*
G01X426000Y929909D01*
G01X426909Y927864D01*
G01X428045Y925591D01*
G01X429636Y923318D01*
G01X432364Y920591D01*
G01X433500Y919682D01*
G01X438500Y917182D01*
G01X440773Y916500D01*
G01X445318Y915591D01*
G01X447818Y915364D01*
G01X449409Y915136D01*
G01X485318Y914909D01*
G01X520545Y914909D01*
G01X520545Y900818D01*
G01X484636Y900818D01*
G01X448045Y901045D01*
G01X443954Y901500D01*
G01X438954Y902409D01*
G01X437136Y902864D01*
G01X433045Y904227D01*
G01X431227Y904909D01*
G01X429409Y905818D01*
G01X427136Y907182D01*
G01X423500Y909909D01*
G01X420773Y912636D01*
G01X419864Y913773D01*
G01X419182Y914909D01*
G01X418273Y916273D01*
G01X417136Y918091D01*
G01X416000Y920136D01*
G01X415091Y922409D01*
G01X414182Y924909D01*
G01X413273Y927864D01*
G01X412591Y931500D01*
G37*
G36*
G01X508273Y1206273D02*
G01X508045Y1207409D01*
G01X507818Y1225136D01*
G01X507818Y1241727D01*
G01X413273Y1241727D01*
G01X413273Y1255818D01*
G01X507818Y1255818D01*
G01X507818Y1291273D01*
G01X520545Y1291273D01*
G01X520545Y1206273D01*
G01X508273Y1206273D01*
G37*
G36*
G01X421682Y1000364D02*
G01X419409Y999454D01*
G01X416909Y998545D01*
G01X413500Y997182D01*
G01X413273Y1004454D01*
G01X413273Y1011727D01*
G01X414636Y1012182D01*
G01X416909Y1013091D01*
G01X418954Y1013773D01*
G01X422591Y1015136D01*
G01X424636Y1015818D01*
G01X426909Y1016727D01*
G01X429636Y1017636D01*
G01X444636Y1023091D01*
G01X446000Y1023545D01*
G01X446000Y1046045D01*
G01X457364Y1046045D01*
G01X457591Y1028318D01*
G01X458955Y1028318D01*
G01X461000Y1029000D01*
G01X486454Y1038545D01*
G01X498727Y1042636D01*
G01X501227Y1043318D01*
G01X503500Y1043773D01*
G01X505318Y1044227D01*
G01X507591Y1044909D01*
G01X508273Y1045364D01*
G01X508045Y1045818D01*
G01X506000Y1046500D01*
G01X503727Y1047182D01*
G01X497591Y1049227D01*
G01X493955Y1050591D01*
G01X491909Y1051273D01*
G01X489636Y1052182D01*
G01X484636Y1054000D01*
G01X482364Y1054909D01*
G01X464182Y1061727D01*
G01X461909Y1062636D01*
G01X459409Y1063545D01*
G01X459409Y1063545D01*
G01X457818Y1063773D01*
G01X457364Y1046045D01*
G01X446000Y1046045D01*
G01X446000Y1069000D01*
G01X444636Y1069227D01*
G01X442591Y1069909D01*
G01X441000Y1070591D01*
G01X435545Y1072636D01*
G01X433273Y1073545D01*
G01X430773Y1074455D01*
G01X428500Y1075364D01*
G01X426000Y1076273D01*
G01X421455Y1078091D01*
G01X418954Y1079000D01*
G01X413273Y1081273D01*
G01X413273Y1097182D01*
G01X414182Y1096954D01*
G01X417364Y1095591D01*
G01X419182Y1094909D01*
G01X423727Y1093091D01*
G01X425773Y1092182D01*
G01X434863Y1088545D01*
G01X436909Y1087636D01*
G01X443727Y1084909D01*
G01X445773Y1084000D01*
G01X447364Y1083318D01*
G01X449182Y1082636D01*
G01X451455Y1081727D01*
G01X453500Y1080818D01*
G01X455091Y1080136D01*
G01X456909Y1079455D01*
G01X461455Y1077636D01*
G01X463500Y1076727D01*
G01X472591Y1073091D01*
G01X474636Y1072182D01*
G01X481454Y1069455D01*
G01X483500Y1068545D01*
G01X485091Y1067863D01*
G01X486909Y1067182D01*
G01X491454Y1065364D01*
G01X493500Y1064455D01*
G01X502591Y1060818D01*
G01X504636Y1059909D01*
G01X511454Y1057182D01*
G01X513500Y1056273D01*
G01X515091Y1055591D01*
G01X516909Y1054909D01*
G01X519182Y1054000D01*
G01X520545Y1053546D01*
G01X520545Y1038091D01*
G01X519409Y1037864D01*
G01X513955Y1035818D01*
G01X512364Y1035136D01*
G01X506909Y1033091D01*
G01X504636Y1032182D01*
G01X502136Y1031273D01*
G01X499864Y1030364D01*
G01X497363Y1029454D01*
G01X492818Y1027636D01*
G01X490318Y1026727D01*
G01X488046Y1025818D01*
G01X485545Y1024909D01*
G01X481000Y1023091D01*
G01X476000Y1021273D01*
G01X471454Y1019454D01*
G01X468955Y1018545D01*
G01X466682Y1017636D01*
G01X464182Y1016727D01*
G01X459636Y1014909D01*
G01X457136Y1014000D01*
G01X454864Y1013091D01*
G01X452364Y1012182D01*
G01X447818Y1010363D01*
G01X445318Y1009454D01*
G01X443045Y1008545D01*
G01X440545Y1007636D01*
G01X436000Y1005818D01*
G01X433500Y1004909D01*
G01X431227Y1004000D01*
G01X428727Y1003091D01*
G01X424182Y1001273D01*
G01X421682Y1000364D01*
G37*
G36*
G01X520091Y1165136D02*
G01X520318Y1163318D01*
G01X520545Y1135818D01*
G01X520545Y1109000D01*
G01X413273Y1109000D01*
G01X413273Y1123091D01*
G01X461000Y1123091D01*
G01X461000Y1134454D01*
G01X460871Y1141273D01*
G01X473273Y1141273D01*
G01X473500Y1123318D01*
G01X491227Y1123091D01*
G01X508727Y1123091D01*
G01X508727Y1143091D01*
G01X508500Y1163773D01*
G01X508045Y1166045D01*
G01X507363Y1168545D01*
G01X506682Y1170364D01*
G01X506000Y1171954D01*
G01X505091Y1173318D01*
G01X503955Y1174682D01*
G01X502591Y1175818D01*
G01X501454Y1176954D01*
G01X500091Y1177864D01*
G01X498727Y1178545D01*
G01X496909Y1179227D01*
G01X494864Y1179682D01*
G01X491227Y1180136D01*
G01X489864Y1180136D01*
G01X488046Y1179909D01*
G01X486000Y1179454D01*
G01X484182Y1178773D01*
G01X482591Y1178091D01*
G01X481227Y1177182D01*
G01X479636Y1175818D01*
G01X478273Y1174227D01*
G01X477136Y1172636D01*
G01X476000Y1170591D01*
G01X475091Y1168545D01*
G01X474409Y1165818D01*
G01X473955Y1163318D01*
G01X473955Y1163318D01*
G01X473500Y1159682D01*
G01X473273Y1141273D01*
G01X460871Y1141273D01*
G01X460773Y1146500D01*
G01X460318Y1148318D01*
G01X459636Y1150363D01*
G01X458727Y1152409D01*
G01X457364Y1154682D01*
G01X456000Y1156500D01*
G01X453727Y1158773D01*
G01X450318Y1161500D01*
G01X449182Y1162182D01*
G01X448045Y1163091D01*
G01X446227Y1164454D01*
G01X443954Y1166045D01*
G01X435773Y1171500D01*
G01X432136Y1173773D01*
G01X430091Y1175136D01*
G01X426455Y1177409D01*
G01X424409Y1178773D01*
G01X422136Y1180136D01*
G01X420091Y1181500D01*
G01X416455Y1183773D01*
G01X414409Y1185136D01*
G01X413273Y1185818D01*
G01X413273Y1194455D01*
G01X413443Y1200875D01*
G01X413954Y1202863D01*
G01X415318Y1202182D01*
G01X417136Y1201045D01*
G01X419182Y1199682D01*
G01X422818Y1197409D01*
G01X424864Y1196045D01*
G01X428500Y1193773D01*
G01X430545Y1192409D01*
G01X434182Y1190136D01*
G01X436227Y1188773D01*
G01X439864Y1186500D01*
G01X443954Y1183773D01*
G01X446227Y1182182D01*
G01X449864Y1179454D01*
G01X451455Y1177864D01*
G01X453727Y1176045D01*
G01X456000Y1173773D01*
G01X457364Y1171954D01*
G01X458955Y1169682D01*
G01X460091Y1167864D01*
G01X461000Y1166045D01*
G01X461455Y1165250D01*
G01X461909Y1165136D01*
G01X462591Y1167182D01*
G01X463046Y1169682D01*
G01X463955Y1173318D01*
G01X464636Y1175136D01*
G01X465545Y1177636D01*
G01X466454Y1179682D01*
G01X468727Y1183318D01*
G01X470091Y1185136D01*
G01X472818Y1187864D01*
G01X473955Y1188773D01*
G01X475091Y1189455D01*
G01X476682Y1190591D01*
G01X480773Y1192636D01*
G01X482818Y1193318D01*
G01X484864Y1193773D01*
G01X486682Y1194227D01*
G01X489182Y1194455D01*
G01X491227Y1194682D01*
G01X492591Y1194682D01*
G01X497136Y1194227D01*
G01X499182Y1193773D01*
G01X501454Y1193091D01*
G01X503727Y1192182D01*
G01X505773Y1191273D01*
G01X507591Y1190136D01*
G01X509864Y1188545D01*
G01X513727Y1184682D01*
G01X515091Y1182864D01*
G01X516454Y1180591D01*
G01X517364Y1178545D01*
G01X518273Y1176273D01*
G01X518955Y1173318D01*
G01X519409Y1171045D01*
G01X519864Y1168318D01*
G01X520091Y1165136D01*
G37*
G36*
G01X59300Y997754D02*
G01X59073Y1002073D01*
G01X59300Y1006845D01*
G01X59754Y1011391D01*
G01X60209Y1014573D01*
G01X61118Y1018664D01*
G01X62709Y1023436D01*
G01X63618Y1025936D01*
G01X64527Y1028209D01*
G01X65436Y1030254D01*
G01X66572Y1032300D01*
G01X67709Y1034573D01*
G01X68845Y1036618D01*
G01X70209Y1038664D01*
G01X71572Y1040936D01*
G01X72709Y1042527D01*
G01X73618Y1043664D01*
G01X74754Y1045254D01*
G01X76118Y1046391D01*
G01X96118Y1046618D01*
G01X115436Y1046618D01*
G01X115436Y1001618D01*
G01X103163Y1001618D01*
G01X103163Y1032982D01*
G01X82709Y1032982D01*
G01X82027Y1031846D01*
G01X80891Y1030254D01*
G01X79982Y1028891D01*
G01X79072Y1027300D01*
G01X76345Y1021846D01*
G01X75436Y1019573D01*
G01X74527Y1017073D01*
G01X73618Y1014118D01*
G01X72936Y1010936D01*
G01X72481Y1008664D01*
G01X72027Y1005482D01*
G01X71800Y1001164D01*
G01X72027Y996845D01*
G01X72481Y993209D01*
G01X73391Y989118D01*
G01X74072Y987073D01*
G01X74982Y984573D01*
G01X75891Y982527D01*
G01X76800Y980709D01*
G01X77709Y979118D01*
G01X78845Y977300D01*
G01X80209Y975709D01*
G01X82481Y972982D01*
G01X84300Y971618D01*
G01X85891Y970255D01*
G01X87482Y969118D01*
G01X89754Y967754D01*
G01X92027Y966618D01*
G01X94300Y965709D01*
G01X96118Y965027D01*
G01X98391Y964346D01*
G01X101118Y963664D01*
G01X103391Y963209D01*
G01X106573Y962754D01*
G01X109981Y962527D01*
G01X112027Y962300D01*
G01X115663Y962073D01*
G01X119300Y962300D01*
G01X124300Y962754D01*
G01X127482Y963209D01*
G01X129754Y963891D01*
G01X132254Y964573D01*
G01X134072Y965255D01*
G01X136118Y965936D01*
G01X137936Y966618D01*
G01X139754Y967527D01*
G01X141345Y968436D01*
G01X142936Y969573D01*
G01X145209Y971164D01*
G01X147482Y972982D01*
G01X149072Y974800D01*
G01X150209Y976164D01*
G01X151118Y977300D01*
G01X152027Y978891D01*
G01X153163Y980709D01*
G01X154072Y982754D01*
G01X154981Y984573D01*
G01X155663Y986391D01*
G01X156118Y988209D01*
G01X156800Y990482D01*
G01X157254Y992982D01*
G01X157482Y994573D01*
G01X157936Y1000482D01*
G01X158163Y1002073D01*
G01X157936Y1003664D01*
G01X157482Y1008664D01*
G01X157027Y1010936D01*
G01X156345Y1013436D01*
G01X154981Y1017073D01*
G01X154072Y1018891D01*
G01X152936Y1020709D01*
G01X151800Y1022300D01*
G01X150436Y1024118D01*
G01X148391Y1025936D01*
G01X145209Y1028209D01*
G01X142936Y1029345D01*
G01X140890Y1030254D01*
G01X138618Y1031164D01*
G01X136118Y1032073D01*
G01X135323Y1032811D01*
G01X135209Y1034118D01*
G01X137254Y1041618D01*
G01X137936Y1043891D01*
G01X138163Y1045254D01*
G01X139527Y1044800D01*
G01X142027Y1044118D01*
G01X144072Y1043436D01*
G01X146345Y1042527D01*
G01X148391Y1041618D01*
G01X150209Y1040709D01*
G01X152482Y1039345D01*
G01X154754Y1037755D01*
G01X156345Y1036391D01*
G01X159072Y1033664D01*
G01X160436Y1032073D01*
G01X161345Y1030936D01*
G01X162254Y1029573D01*
G01X163391Y1027755D01*
G01X165436Y1023664D01*
G01X166345Y1021618D01*
G01X167254Y1018891D01*
G01X168163Y1015936D01*
G01X168845Y1012527D01*
G01X169300Y1010027D01*
G01X169754Y1006391D01*
G01X169982Y1000482D01*
G01X169754Y994573D01*
G01X169300Y990482D01*
G01X168845Y987982D01*
G01X168163Y985255D01*
G01X166800Y980709D01*
G01X165436Y977073D01*
G01X164527Y975027D01*
G01X163618Y973209D01*
G01X161345Y969573D01*
G01X158618Y965936D01*
G01X154072Y961391D01*
G01X152482Y960027D01*
G01X150209Y958436D01*
G01X148163Y957073D01*
G01X146572Y956164D01*
G01X141118Y953436D01*
G01X136572Y951618D01*
G01X133845Y950709D01*
G01X130663Y949800D01*
G01X127482Y949118D01*
G01X122027Y948209D01*
G01X118391Y947982D01*
G01X115663Y947755D01*
G01X113163Y947527D01*
G01X110663Y947755D01*
G01X104754Y948209D01*
G01X99300Y949118D01*
G01X97027Y949800D01*
G01X94072Y950709D01*
G01X91345Y951618D01*
G01X89300Y952527D01*
G01X86118Y953891D01*
G01X84300Y954800D01*
G01X82709Y955709D01*
G01X81118Y956845D01*
G01X78845Y958436D01*
G01X77027Y959800D01*
G01X72481Y964346D01*
G01X70209Y967073D01*
G01X69300Y968209D01*
G01X68391Y969800D01*
G01X67254Y971618D01*
G01X66345Y973209D01*
G01X64527Y976845D01*
G01X63845Y978436D01*
G01X63163Y980255D01*
G01X61800Y984346D01*
G01X61118Y986845D01*
G01X60209Y991391D01*
G01X59754Y994118D01*
G01X59527Y996391D01*
G01X59300Y997754D01*
G37*
G36*
G01X116345Y1159256D02*
G01X62709Y1159256D01*
G01X62709Y1182438D01*
G01X62783Y1190165D01*
G01X75436Y1190165D01*
G01X75664Y1173574D01*
G01X75664Y1173574D01*
G01X94073Y1173347D01*
G01X112255Y1173347D01*
G01X112255Y1188574D01*
G01X124982Y1188574D01*
G01X125209Y1173574D01*
G01X125209Y1173574D01*
G01X141345Y1173347D01*
G01X157254Y1173347D01*
G01X157254Y1189484D01*
G01X157027Y1206302D01*
G01X156573Y1209483D01*
G01X155891Y1211529D01*
G01X154982Y1213802D01*
G01X153618Y1215847D01*
G01X151573Y1217665D01*
G01X149754Y1218802D01*
G01X147709Y1219711D01*
G01X145664Y1220393D01*
G01X143391Y1220847D01*
G01X139754Y1221075D01*
G01X137027Y1220847D01*
G01X135436Y1220393D01*
G01X133391Y1219483D01*
G01X131118Y1218120D01*
G01X129527Y1216529D01*
G01X128618Y1215165D01*
G01X127709Y1213574D01*
G01X126800Y1211756D01*
G01X126118Y1209483D01*
G01X125663Y1207211D01*
G01X125209Y1204029D01*
G01X124982Y1188574D01*
G01X112255Y1188574D01*
G01X112255Y1189711D01*
G01X112027Y1206756D01*
G01X111573Y1210393D01*
G01X111118Y1212438D01*
G01X110436Y1214711D01*
G01X109527Y1216756D01*
G01X108618Y1218347D01*
G01X107709Y1219483D01*
G01X106573Y1220620D01*
G01X105436Y1221529D01*
G01X103845Y1222665D01*
G01X101800Y1223802D01*
G01X99300Y1224711D01*
G01X96800Y1225165D01*
G01X95209Y1225393D01*
G01X92936Y1225620D01*
G01X90664Y1225393D01*
G01X88618Y1224938D01*
G01X86345Y1224256D01*
G01X84300Y1223347D01*
G01X82709Y1222211D01*
G01X81573Y1221302D01*
G01X80209Y1219938D01*
G01X79073Y1218347D01*
G01X78164Y1216756D01*
G01X77254Y1214711D01*
G01X76573Y1212438D01*
G01X76118Y1210393D01*
G01X75664Y1208120D01*
G01X75436Y1190165D01*
G01X62783Y1190165D01*
G01X62936Y1206302D01*
G01X63391Y1211302D01*
G01X63845Y1214483D01*
G01X64300Y1216529D01*
G01X64982Y1218802D01*
G01X66345Y1222893D01*
G01X67254Y1224938D01*
G01X68164Y1226529D01*
G01X70436Y1229711D01*
G01X71345Y1230847D01*
G01X74073Y1233120D01*
G01X75209Y1234029D01*
G01X76345Y1234711D01*
G01X79527Y1236529D01*
G01X80891Y1237211D01*
G01X82482Y1237893D01*
G01X84527Y1238574D01*
G01X86573Y1239029D01*
G01X88391Y1239483D01*
G01X91118Y1239938D01*
G01X94527Y1240165D01*
G01X97027Y1239938D01*
G01X100209Y1239483D01*
G01X102482Y1238802D01*
G01X104754Y1237893D01*
G01X107482Y1236529D01*
G01X109300Y1235393D01*
G01X110891Y1234029D01*
G01X113164Y1231756D01*
G01X114982Y1229483D01*
G01X115891Y1228120D01*
G01X117709Y1224938D01*
G01X118391Y1223347D01*
G01X119073Y1221529D01*
G01X119982Y1220393D01*
G01X120379Y1220449D01*
G01X120663Y1221075D01*
G01X121573Y1222893D01*
G01X122709Y1224483D01*
G01X124073Y1226302D01*
G01X125663Y1227893D01*
G01X127936Y1229711D01*
G01X129527Y1230847D01*
G01X131573Y1231984D01*
G01X133391Y1232893D01*
G01X135209Y1233574D01*
G01X137027Y1234029D01*
G01X139300Y1234483D01*
G01X143845Y1234711D01*
G01X147482Y1234483D01*
G01X149300Y1234029D01*
G01X151345Y1233347D01*
G01X153391Y1232438D01*
G01X155209Y1231529D01*
G01X156800Y1230620D01*
G01X158164Y1229711D01*
G01X159300Y1228802D01*
G01X162709Y1225393D01*
G01X163845Y1223802D01*
G01X165209Y1221756D01*
G01X166345Y1219483D01*
G01X167254Y1217211D01*
G01X168163Y1214483D01*
G01X168845Y1211302D01*
G01X169300Y1208574D01*
G01X169527Y1206529D01*
G01X169755Y1204938D01*
G01X169982Y1181756D01*
G01X169982Y1159256D01*
G01X116345Y1159256D01*
G37*
G36*
G01X116345Y1352803D02*
G01X62709Y1352803D01*
G01X62709Y1432804D01*
G01X75436Y1432804D01*
G01X75436Y1366894D01*
G01X111800Y1366894D01*
G01X111800Y1425985D01*
G01X124527Y1425985D01*
G01X124527Y1366894D01*
G01X157254Y1366894D01*
G01X157254Y1430076D01*
G01X169982Y1430076D01*
G01X169982Y1352803D01*
G01X116345Y1352803D01*
G37*
G36*
G01X116345Y1545442D02*
G01X62709Y1545442D01*
G01X62709Y1559078D01*
G01X63845Y1559305D01*
G01X87709Y1559533D01*
G01X110436Y1559533D01*
G01X110436Y1570896D01*
G01X110308Y1577714D01*
G01X122709Y1577714D01*
G01X122936Y1559760D01*
G01X122936Y1559760D01*
G01X140664Y1559533D01*
G01X158164Y1559533D01*
G01X158164Y1579533D01*
G01X157936Y1600214D01*
G01X157482Y1602487D01*
G01X156800Y1604987D01*
G01X156118Y1606805D01*
G01X155209Y1608624D01*
G01X154073Y1610214D01*
G01X151800Y1612487D01*
G01X150209Y1613624D01*
G01X148618Y1614533D01*
G01X147027Y1615214D01*
G01X143391Y1616124D01*
G01X139754Y1616351D01*
G01X136573Y1616124D01*
G01X134527Y1615442D01*
G01X132482Y1614533D01*
G01X130663Y1613396D01*
G01X129073Y1612033D01*
G01X127936Y1610896D01*
G01X126800Y1609533D01*
G01X125891Y1607942D01*
G01X124982Y1605896D01*
G01X124073Y1603169D01*
G01X123618Y1600896D01*
G01X122936Y1596124D01*
G01X122709Y1577714D01*
G01X110308Y1577714D01*
G01X110209Y1582942D01*
G01X109754Y1584760D01*
G01X109073Y1586805D01*
G01X108164Y1588851D01*
G01X107255Y1590442D01*
G01X106345Y1591578D01*
G01X101800Y1596124D01*
G01X98391Y1598851D01*
G01X97255Y1599533D01*
G01X92482Y1602942D01*
G01X86345Y1607033D01*
G01X82709Y1609305D01*
G01X80664Y1610669D01*
G01X78391Y1612033D01*
G01X76345Y1613396D01*
G01X72709Y1615669D01*
G01X70664Y1617033D01*
G01X68391Y1618396D01*
G01X66345Y1619760D01*
G01X64527Y1620896D01*
G01X63163Y1622033D01*
G01X62709Y1631123D01*
G01X62709Y1639533D01*
G01X63618Y1639078D01*
G01X69073Y1635669D01*
G01X71118Y1634305D01*
G01X73391Y1632942D01*
G01X77482Y1630214D01*
G01X79754Y1628851D01*
G01X81800Y1627487D01*
G01X85436Y1625214D01*
G01X87482Y1623851D01*
G01X89754Y1622487D01*
G01X93845Y1619760D01*
G01X96118Y1618169D01*
G01X98391Y1616351D01*
G01X100209Y1614987D01*
G01X107027Y1608169D01*
G01X107936Y1607033D01*
G01X108618Y1605669D01*
G01X110891Y1602033D01*
G01X111289Y1601692D01*
G01X111573Y1602033D01*
G01X113391Y1609305D01*
G01X114073Y1611351D01*
G01X114754Y1613169D01*
G01X115436Y1614760D01*
G01X116345Y1616578D01*
G01X117255Y1618169D01*
G01X118391Y1619760D01*
G01X119754Y1621351D01*
G01X120663Y1622487D01*
G01X121800Y1623624D01*
G01X124527Y1625896D01*
G01X127709Y1627715D01*
G01X129754Y1628624D01*
G01X131573Y1629305D01*
G01X133618Y1629987D01*
G01X135891Y1630442D01*
G01X137482Y1630669D01*
G01X141573Y1630896D01*
G01X145664Y1630669D01*
G01X147936Y1630214D01*
G01X150209Y1629533D01*
G01X153845Y1628169D01*
G01X155664Y1627260D01*
G01X157254Y1626351D01*
G01X158391Y1625442D01*
G01X160209Y1624078D01*
G01X162936Y1621351D01*
G01X163845Y1620214D01*
G01X164527Y1619078D01*
G01X165436Y1617487D01*
G01X166345Y1615669D01*
G01X167254Y1613624D01*
G01X168163Y1610669D01*
G01X168845Y1607487D01*
G01X169300Y1604305D01*
G01X169527Y1601578D01*
G01X169755Y1599760D01*
G01X169982Y1572260D01*
G01X169982Y1545442D01*
G01X116345Y1545442D01*
G37*
G36*
G01X109982Y1786716D02*
G01X62709Y1786716D01*
G01X62709Y1800807D01*
G01X157254Y1800807D01*
G01X157254Y1836262D01*
G01X169982Y1836262D01*
G01X169982Y1751262D01*
G01X157709Y1751262D01*
G01X157482Y1752398D01*
G01X157254Y1770125D01*
G01X157254Y1786716D01*
G01X109982Y1786716D01*
G37*
G36*
G01X63163Y1990036D02*
G01X62709Y1997309D01*
G01X62709Y2004355D01*
G01X63845Y2004809D01*
G01X66345Y2005718D01*
G01X77709Y2010264D01*
G01X81345Y2011627D01*
G01X88164Y2014355D01*
G01X90664Y2015264D01*
G01X97482Y2017991D01*
G01X99982Y2018900D01*
G01X109073Y2022536D01*
G01X111573Y2023446D01*
G01X118391Y2026173D01*
G01X120891Y2027082D01*
G01X129982Y2030718D01*
G01X132482Y2031627D01*
G01X139300Y2034355D01*
G01X141800Y2035264D01*
G01X153164Y2039809D01*
G01X156800Y2041173D01*
G01X163618Y2043900D01*
G01X166118Y2044809D01*
G01X168391Y2045718D01*
G01X169755Y2046173D01*
G01X169982Y2039127D01*
G01X169982Y2032082D01*
G01X168845Y2031855D01*
G01X166800Y2031173D01*
G01X164527Y2030264D01*
G01X161800Y2029355D01*
G01X159527Y2028446D01*
G01X148618Y2024355D01*
G01X146573Y2023673D01*
G01X128391Y2016855D01*
G01X126345Y2016173D01*
G01X124073Y2015264D01*
G01X119073Y2013446D01*
G01X116800Y2012536D01*
G01X113164Y2011173D01*
G01X111118Y2010491D01*
G01X92936Y2003673D01*
G01X90891Y2002991D01*
G01X87255Y2001627D01*
G01X81118Y1999582D01*
G01X79300Y1999127D01*
G01X77254Y1998446D01*
G01X75664Y1997537D01*
G01X75834Y1997082D01*
G01X76800Y1996627D01*
G01X82709Y1994809D01*
G01X93618Y1991173D01*
G01X95891Y1990264D01*
G01X99982Y1988900D01*
G01X102255Y1987991D01*
G01X104982Y1987082D01*
G01X109982Y1985264D01*
G01X112709Y1984355D01*
G01X114982Y1983446D01*
G01X117027Y1982764D01*
G01X120663Y1981400D01*
G01X122709Y1980718D01*
G01X126345Y1979355D01*
G01X130436Y1977991D01*
G01X132709Y1977082D01*
G01X135436Y1976173D01*
G01X140436Y1974355D01*
G01X143164Y1973446D01*
G01X145436Y1972537D01*
G01X149527Y1971173D01*
G01X151800Y1970264D01*
G01X154527Y1969355D01*
G01X159527Y1967537D01*
G01X162254Y1966627D01*
G01X164527Y1965718D01*
G01X168618Y1964355D01*
G01X169755Y1963218D01*
G01X169982Y1955491D01*
G01X169982Y1948446D01*
G01X164300Y1950718D01*
G01X161800Y1951627D01*
G01X154982Y1954355D01*
G01X151345Y1955718D01*
G01X149073Y1956627D01*
G01X146573Y1957537D01*
G01X142027Y1959355D01*
G01X139527Y1960264D01*
G01X134982Y1962082D01*
G01X132482Y1962991D01*
G01X127936Y1964809D01*
G01X125436Y1965718D01*
G01X118618Y1968446D01*
G01X114982Y1969809D01*
G01X112709Y1970718D01*
G01X110209Y1971628D01*
G01X105663Y1973446D01*
G01X103164Y1974355D01*
G01X98618Y1976173D01*
G01X96118Y1977082D01*
G01X91573Y1978900D01*
G01X89073Y1979809D01*
G01X82255Y1982537D01*
G01X78618Y1983900D01*
G01X76345Y1984809D01*
G01X73845Y1985718D01*
G01X69300Y1987537D01*
G01X66800Y1988446D01*
G01X64527Y1989355D01*
G01X63163Y1990036D01*
G37*
G01X322834Y756920D02*
G01X257810Y756920D01*
G01X322834Y800354D02*
G01X257810Y800354D01*
G01X291846Y756920D02*
G01X291846Y800354D01*
G01X310388Y830580D02*
G01X313690Y836676D01*
G01X322834Y845820D01*
G01X257810Y845820D01*
G01X2849880Y4056888D02*
G01X2849880Y4001262D01*
G01X2849880Y4056888D02*
G01X2831338Y4056888D01*
G01X2823464Y4054348D01*
G01X2818130Y4049014D01*
G01X2815336Y4043680D01*
G01X2812796Y4035806D01*
G01X2812796Y4022344D01*
G01X2815336Y4014470D01*
G01X2818130Y4009136D01*
G01X2823464Y4003802D01*
G01X2831338Y4001262D01*
G01X2849880Y4001262D01*
G01X2779522Y4056888D02*
G01X2750312Y4056888D01*
G01X2766314Y4035806D01*
G01X2758440Y4035806D01*
G01X2753106Y4033012D01*
G01X2750312Y4030472D01*
G01X2747772Y4022344D01*
G01X2747772Y4017264D01*
G01X2750312Y4009136D01*
G01X2755646Y4003802D01*
G01X2763774Y4001262D01*
G01X2771648Y4001262D01*
G01X2779522Y4003802D01*
G01X2782316Y4006596D01*
G01X2784856Y4011930D01*
G01X1167638Y1491234D02*
G01X1173734Y1488186D01*
G01X1180084Y1482090D01*
G01X1183132Y1475740D01*
G01X1186180Y1466596D01*
G01X1186180Y1451102D01*
G01X1183132Y1441704D01*
G01X1180084Y1435608D01*
G01X1173734Y1429258D01*
G01X1167638Y1426210D01*
G01X1155192Y1426210D01*
G01X1149096Y1429258D01*
G01X1142746Y1435608D01*
G01X1139698Y1441704D01*
G01X1136650Y1451102D01*
G01X1136650Y1466596D01*
G01X1139698Y1475740D01*
G01X1142746Y1482090D01*
G01X1149096Y1488186D01*
G01X1155192Y1491234D01*
G01X1167638Y1491234D01*
G01X1158240Y1438656D02*
G01X1139698Y1420114D01*
G01X1100328Y1491234D02*
G01X1066292Y1491234D01*
G01X1084834Y1466596D01*
G01X1075690Y1466596D01*
G01X1069340Y1463548D01*
G01X1066292Y1460246D01*
G01X1063244Y1451102D01*
G01X1063244Y1444752D01*
G01X1066292Y1435608D01*
G01X1072388Y1429258D01*
G01X1081786Y1426210D01*
G01X1091184Y1426210D01*
G01X1100328Y1429258D01*
G01X1103376Y1432560D01*
G01X1106424Y1438656D01*
G01X957580Y4336034D02*
G01X957580Y4271010D01*
G01X957580Y4336034D02*
G01X929640Y4336034D01*
G01X920496Y4332986D01*
G01X917448Y4329938D01*
G01X914146Y4323588D01*
G01X914146Y4317492D01*
G01X917448Y4311396D01*
G01X920496Y4308348D01*
G01X929640Y4305046D01*
G01X957580Y4305046D01*
G01X935990Y4305046D02*
G01X914146Y4271010D01*
G01X883920Y4323588D02*
G01X877824Y4326890D01*
G01X868680Y4336034D01*
G01X868680Y4271010D01*
G01X2760522Y911244D02*
G01X2760522Y846220D01*
G01X2760522Y911244D02*
G01X2732582Y911244D01*
G01X2723438Y908196D01*
G01X2720390Y905148D01*
G01X2717088Y898798D01*
G01X2717088Y892702D01*
G01X2720390Y886606D01*
G01X2723438Y883558D01*
G01X2732582Y880256D01*
G01X2760522Y880256D01*
G01X2738932Y880256D02*
G01X2717088Y846220D01*
G01X2643682Y911244D02*
G01X2674670Y846220D01*
G01X2686862Y911244D02*
G01X2643682Y911244D01*
G01X2760522Y720744D02*
G01X2760522Y655720D01*
G01X2760522Y720744D02*
G01X2732582Y720744D01*
G01X2723438Y717696D01*
G01X2720390Y714648D01*
G01X2717088Y708298D01*
G01X2717088Y702202D01*
G01X2720390Y696106D01*
G01X2723438Y693058D01*
G01X2732582Y689756D01*
G01X2760522Y689756D01*
G01X2738932Y689756D02*
G01X2717088Y655720D01*
G01X2671622Y720744D02*
G01X2680766Y717696D01*
G01X2683814Y711600D01*
G01X2683814Y705250D01*
G01X2680766Y699154D01*
G01X2674670Y696106D01*
G01X2662224Y693058D01*
G01X2652826Y689756D01*
G01X2646730Y683660D01*
G01X2643682Y677564D01*
G01X2643682Y668166D01*
G01X2646730Y662070D01*
G01X2649778Y658768D01*
G01X2659176Y655720D01*
G01X2671622Y655720D01*
G01X2680766Y658768D01*
G01X2683814Y662070D01*
G01X2686862Y668166D01*
G01X2686862Y677564D01*
G01X2683814Y683660D01*
G01X2677718Y689756D01*
G01X2668320Y693058D01*
G01X2656128Y696106D01*
G01X2649778Y699154D01*
G01X2646730Y705250D01*
G01X2646730Y711600D01*
G01X2649778Y717696D01*
G01X2659176Y720744D01*
G01X2671622Y720744D01*
G01X995680Y1491234D02*
G01X995680Y1426210D01*
G01X995680Y1491234D02*
G01X967740Y1491234D01*
G01X958596Y1488186D01*
G01X955548Y1485138D01*
G01X952246Y1478788D01*
G01X952246Y1472692D01*
G01X955548Y1466596D01*
G01X958596Y1463548D01*
G01X967740Y1460246D01*
G01X995680Y1460246D01*
G01X974090Y1460246D02*
G01X952246Y1426210D01*
G01X881888Y1469644D02*
G01X884936Y1460246D01*
G01X891286Y1454150D01*
G01X900430Y1451102D01*
G01X903478Y1451102D01*
G01X912876Y1454150D01*
G01X918972Y1460246D01*
G01X922020Y1469644D01*
G01X922020Y1472692D01*
G01X918972Y1482090D01*
G01X912876Y1488186D01*
G01X903478Y1491234D01*
G01X900430Y1491234D01*
G01X891286Y1488186D01*
G01X884936Y1482090D01*
G01X881888Y1469644D01*
G01X881888Y1454150D01*
G01X884936Y1438656D01*
G01X891286Y1429258D01*
G01X900430Y1426210D01*
G01X906780Y1426210D01*
G01X915924Y1429258D01*
G01X918972Y1435608D01*
G01X1338580Y4336034D02*
G01X1338580Y4271010D01*
G01X1338580Y4336034D02*
G01X1310640Y4336034D01*
G01X1301496Y4332986D01*
G01X1298448Y4329938D01*
G01X1295146Y4323588D01*
G01X1295146Y4317492D01*
G01X1298448Y4311396D01*
G01X1301496Y4308348D01*
G01X1310640Y4305046D01*
G01X1338580Y4305046D01*
G01X1316990Y4305046D02*
G01X1295146Y4271010D01*
G01X1261872Y4320540D02*
G01X1261872Y4323588D01*
G01X1258824Y4329938D01*
G01X1255776Y4332986D01*
G01X1249680Y4336034D01*
G01X1237234Y4336034D01*
G01X1230884Y4332986D01*
G01X1227836Y4329938D01*
G01X1224788Y4323588D01*
G01X1224788Y4317492D01*
G01X1227836Y4311396D01*
G01X1234186Y4301998D01*
G01X1264920Y4271010D01*
G01X1221740Y4271010D01*
G01X2540216Y1828937D02*
G01X2534120Y1835287D01*
G01X2531072Y1844431D01*
G01X2531072Y1856877D01*
G01X2534120Y1866275D01*
G01X2540216Y1872371D01*
G01X2546566Y1872371D01*
G01X2552662Y1869323D01*
G01X2555710Y1866275D01*
G01X2558758Y1859925D01*
G01X2565108Y1841383D01*
G01X2568156Y1835287D01*
G01X2571204Y1832239D01*
G01X2577554Y1828937D01*
G01X2586698Y1828937D01*
G01X2593048Y1835287D01*
G01X2596096Y1844431D01*
G01X2596096Y1856877D01*
G01X2593048Y1866275D01*
G01X2586698Y1872371D01*
G01X2531072Y1798711D02*
G01X2596096Y1783471D01*
G01X2531072Y1767977D02*
G01X2596096Y1783471D01*
G01X2531072Y1767977D02*
G01X2596096Y1752483D01*
G01X2531072Y1736989D02*
G01X2596096Y1752483D01*
G01X2543518Y1706763D02*
G01X2540216Y1700667D01*
G01X2531072Y1691523D01*
G01X2596096Y1691523D01*
G01X2051279Y1236056D02*
G01X2057375Y1229706D01*
G01X2060423Y1220562D01*
G01X2060423Y1208116D01*
G01X2057375Y1198718D01*
G01X2051279Y1192622D01*
G01X2044929Y1192622D01*
G01X2038833Y1195670D01*
G01X2035785Y1198718D01*
G01X2032737Y1205068D01*
G01X2026387Y1223610D01*
G01X2023339Y1229706D01*
G01X2020291Y1232754D01*
G01X2013941Y1236056D01*
G01X2004797Y1236056D01*
G01X1998447Y1229706D01*
G01X1995399Y1220562D01*
G01X1995399Y1208116D01*
G01X1998447Y1198718D01*
G01X2004797Y1192622D01*
G01X2060423Y1266282D02*
G01X1995399Y1281522D01*
G01X2060423Y1297016D02*
G01X1995399Y1281522D01*
G01X2060423Y1297016D02*
G01X1995399Y1312510D01*
G01X2060423Y1328004D02*
G01X1995399Y1312510D01*
G01X2044929Y1361278D02*
G01X2047977Y1361278D01*
G01X2054327Y1364326D01*
G01X2057375Y1367374D01*
G01X2060423Y1373470D01*
G01X2060423Y1385916D01*
G01X2057375Y1392266D01*
G01X2054327Y1395314D01*
G01X2047977Y1398362D01*
G01X2041881Y1398362D01*
G01X2035785Y1395314D01*
G01X2026387Y1388964D01*
G01X1995399Y1358230D01*
G01X1995399Y1401410D01*
G54D11*
G01X239814Y3794131D02*
G01X359956Y3839851D01*
G01X239814Y3794131D02*
G01X359956Y3748411D01*
G01X319824Y3822579D02*
G01X319824Y3765429D01*
G01X239814Y3700659D02*
G01X359956Y3700659D01*
G01X239814Y3700659D02*
G01X359956Y3620649D01*
G01X239814Y3620649D02*
G01X359956Y3620649D01*
G01X239814Y3532765D02*
G01X359956Y3532765D01*
G01X239814Y3572897D02*
G01X239814Y3492887D01*
G01X239814Y3445135D02*
G01X359956Y3445135D01*
G01X239814Y3445135D02*
G01X239814Y3370713D01*
G01X296964Y3445135D02*
G01X296964Y3399415D01*
G01X359956Y3445135D02*
G01X359956Y3370713D01*
G01X239814Y3322961D02*
G01X359956Y3322961D01*
G01X239814Y3322961D02*
G01X359956Y3242951D01*
G01X239814Y3242951D02*
G01X359956Y3242951D01*
G01X239814Y3195199D02*
G01X359956Y3195199D01*
G01X239814Y3195199D02*
G01X359956Y3115189D01*
G01X239814Y3115189D02*
G01X359956Y3115189D01*
G01X239814Y3021717D02*
G01X359956Y3067437D01*
G01X239814Y3021717D02*
G01X359956Y2975997D01*
G01X319824Y3050165D02*
G01X319824Y2993015D01*
G54D10*
G01X70066Y4221080D02*
G01X116548Y4221080D01*
G01X125692Y4218032D01*
G01X132042Y4211682D01*
G01X135090Y4202538D01*
G01X135090Y4196188D01*
G01X132042Y4187044D01*
G01X125692Y4180948D01*
G01X116548Y4177646D01*
G01X70066Y4177646D01*
G01X82512Y4147420D02*
G01X79210Y4141324D01*
G01X70066Y4132180D01*
G01X135090Y4132180D01*
G01X1452880Y5148834D02*
G01X1452880Y5102352D01*
G01X1449832Y5093208D01*
G01X1443482Y5086858D01*
G01X1434338Y5083810D01*
G01X1427988Y5083810D01*
G01X1418844Y5086858D01*
G01X1412748Y5093208D01*
G01X1409446Y5102352D01*
G01X1409446Y5148834D01*
G01X1376172Y5133340D02*
G01X1376172Y5136388D01*
G01X1373124Y5142738D01*
G01X1370076Y5145786D01*
G01X1363980Y5148834D01*
G01X1351534Y5148834D01*
G01X1345184Y5145786D01*
G01X1342136Y5142738D01*
G01X1339088Y5136388D01*
G01X1339088Y5130292D01*
G01X1342136Y5124196D01*
G01X1348486Y5114798D01*
G01X1379220Y5083810D01*
G01X1336040Y5083810D01*
G01X3713480Y1135634D02*
G01X3713480Y1089152D01*
G01X3710432Y1080008D01*
G01X3704082Y1073658D01*
G01X3694938Y1070610D01*
G01X3688588Y1070610D01*
G01X3679444Y1073658D01*
G01X3673348Y1080008D01*
G01X3670046Y1089152D01*
G01X3670046Y1135634D01*
G01X3633724Y1135634D02*
G01X3599688Y1135634D01*
G01X3618230Y1110996D01*
G01X3609086Y1110996D01*
G01X3602736Y1107948D01*
G01X3599688Y1104646D01*
G01X3596640Y1095502D01*
G01X3596640Y1089152D01*
G01X3599688Y1080008D01*
G01X3605784Y1073658D01*
G01X3615182Y1070610D01*
G01X3624580Y1070610D01*
G01X3633724Y1073658D01*
G01X3636772Y1076960D01*
G01X3639820Y1083056D01*
G01X3065780Y5148834D02*
G01X3065780Y5102352D01*
G01X3062732Y5093208D01*
G01X3056382Y5086858D01*
G01X3047238Y5083810D01*
G01X3040888Y5083810D01*
G01X3031744Y5086858D01*
G01X3025648Y5093208D01*
G01X3022346Y5102352D01*
G01X3022346Y5148834D01*
G01X2948940Y5139690D02*
G01X2955036Y5145786D01*
G01X2964434Y5148834D01*
G01X2976880Y5148834D01*
G01X2986024Y5145786D01*
G01X2992120Y5139690D01*
G01X2992120Y5133340D01*
G01X2989072Y5127244D01*
G01X2986024Y5124196D01*
G01X2979928Y5121148D01*
G01X2961386Y5114798D01*
G01X2955036Y5111750D01*
G01X2951988Y5108702D01*
G01X2948940Y5102352D01*
G01X2948940Y5093208D01*
G01X2955036Y5086858D01*
G01X2964434Y5083810D01*
G01X2976880Y5083810D01*
G01X2986024Y5086858D01*
G01X2992120Y5093208D01*
G01X2918714Y5148834D02*
G01X2918714Y5083810D01*
G01X2918714Y5148834D02*
G01X2891028Y5148834D01*
G01X2881630Y5145786D01*
G01X2878582Y5142738D01*
G01X2875534Y5136388D01*
G01X2875534Y5130292D01*
G01X2878582Y5124196D01*
G01X2881630Y5121148D01*
G01X2891028Y5117846D01*
G01X2918714Y5117846D02*
G01X2891028Y5117846D01*
G01X2881630Y5114798D01*
G01X2878582Y5111750D01*
G01X2875534Y5105654D01*
G01X2875534Y5096256D01*
G01X2878582Y5090160D01*
G01X2881630Y5086858D01*
G01X2891028Y5083810D01*
G01X2918714Y5083810D01*
G01X2845308Y5136388D02*
G01X2839212Y5139690D01*
G01X2830068Y5148834D01*
G01X2830068Y5083810D01*
G01X2379980Y4056888D02*
G01X2379980Y4001262D01*
G01X2379980Y4056888D02*
G01X2361438Y4056888D01*
G01X2353564Y4054348D01*
G01X2348230Y4049014D01*
G01X2345436Y4043680D01*
G01X2342896Y4035806D01*
G01X2342896Y4022344D01*
G01X2345436Y4014470D01*
G01X2348230Y4009136D01*
G01X2353564Y4003802D01*
G01X2361438Y4001262D01*
G01X2379980Y4001262D01*
G01X2314956Y4046220D02*
G01X2309622Y4049014D01*
G01X2301748Y4056888D01*
G01X2301748Y4001262D01*
G01X2710180Y4056888D02*
G01X2710180Y4001262D01*
G01X2710180Y4056888D02*
G01X2691638Y4056888D01*
G01X2683764Y4054348D01*
G01X2678430Y4049014D01*
G01X2675636Y4043680D01*
G01X2673096Y4035806D01*
G01X2673096Y4022344D01*
G01X2675636Y4014470D01*
G01X2678430Y4009136D01*
G01X2683764Y4003802D01*
G01X2691638Y4001262D01*
G01X2710180Y4001262D01*
G01X2642616Y4043680D02*
G01X2642616Y4046220D01*
G01X2639822Y4051554D01*
G01X2637282Y4054348D01*
G01X2631948Y4056888D01*
G01X2621280Y4056888D01*
G01X2615946Y4054348D01*
G01X2613406Y4051554D01*
G01X2610612Y4046220D01*
G01X2610612Y4040886D01*
G01X2613406Y4035806D01*
G01X2618740Y4027678D01*
G01X2645156Y4001262D01*
G01X2608072Y4001262D01*
G01X917682Y376154D02*
G01X923778Y373106D01*
G01X930128Y367010D01*
G01X933176Y360660D01*
G01X936224Y351516D01*
G01X936224Y336022D01*
G01X933176Y326624D01*
G01X930128Y320528D01*
G01X923778Y314178D01*
G01X917682Y311130D01*
G01X905236Y311130D01*
G01X899140Y314178D01*
G01X892790Y320528D01*
G01X889742Y326624D01*
G01X886694Y336022D01*
G01X886694Y351516D01*
G01X889742Y360660D01*
G01X892790Y367010D01*
G01X899140Y373106D01*
G01X905236Y376154D01*
G01X917682Y376154D01*
G01X908284Y323576D02*
G01X889742Y305034D01*
G01X856468Y363708D02*
G01X850372Y367010D01*
G01X841228Y376154D01*
G01X841228Y311130D01*
G01X1295634Y376154D02*
G01X1301730Y373106D01*
G01X1308080Y367010D01*
G01X1311128Y360660D01*
G01X1314176Y351516D01*
G01X1314176Y336022D01*
G01X1311128Y326624D01*
G01X1308080Y320528D01*
G01X1301730Y314178D01*
G01X1295634Y311130D01*
G01X1283188Y311130D01*
G01X1277092Y314178D01*
G01X1270742Y320528D01*
G01X1267694Y326624D01*
G01X1264646Y336022D01*
G01X1264646Y351516D01*
G01X1267694Y360660D01*
G01X1270742Y367010D01*
G01X1277092Y373106D01*
G01X1283188Y376154D01*
G01X1295634Y376154D01*
G01X1286236Y323576D02*
G01X1267694Y305034D01*
G01X1231372Y360660D02*
G01X1231372Y363708D01*
G01X1228324Y370058D01*
G01X1225276Y373106D01*
G01X1219180Y376154D01*
G01X1206734Y376154D01*
G01X1200384Y373106D01*
G01X1197336Y370058D01*
G01X1194288Y363708D01*
G01X1194288Y357612D01*
G01X1197336Y351516D01*
G01X1203686Y342118D01*
G01X1234420Y311130D01*
G01X1191240Y311130D01*
G01X1290494Y891995D02*
G01X1290494Y826971D01*
G01X1290494Y891995D02*
G01X1262554Y891995D01*
G01X1253410Y888947D01*
G01X1250362Y885899D01*
G01X1247060Y879549D01*
G01X1247060Y873453D01*
G01X1250362Y867357D01*
G01X1253410Y864309D01*
G01X1262554Y861007D01*
G01X1290494Y861007D01*
G01X1268904Y861007D02*
G01X1247060Y826971D01*
G01X1210738Y891995D02*
G01X1176702Y891995D01*
G01X1195244Y867357D01*
G01X1186100Y867357D01*
G01X1179750Y864309D01*
G01X1176702Y861007D01*
G01X1173654Y851863D01*
G01X1173654Y845513D01*
G01X1176702Y836369D01*
G01X1182798Y830019D01*
G01X1192196Y826971D01*
G01X1201594Y826971D01*
G01X1210738Y830019D01*
G01X1213786Y833321D01*
G01X1216834Y839417D01*
G01X2240280Y4056888D02*
G01X2240280Y4001262D01*
G01X2240280Y4056888D02*
G01X2216404Y4056888D01*
G01X2208530Y4054348D01*
G01X2205736Y4051554D01*
G01X2203196Y4046220D01*
G01X2203196Y4040886D01*
G01X2205736Y4035806D01*
G01X2208530Y4033012D01*
G01X2216404Y4030472D01*
G01X2240280Y4030472D01*
G01X2221738Y4030472D02*
G01X2203196Y4001262D01*
G01X2175256Y4046220D02*
G01X2169922Y4049014D01*
G01X2162048Y4056888D01*
G01X2162048Y4001262D01*
G01X2134108Y4046220D02*
G01X2128774Y4049014D01*
G01X2120900Y4056888D01*
G01X2120900Y4001262D01*
G01X2570480Y4056888D02*
G01X2570480Y4001262D01*
G01X2570480Y4056888D02*
G01X2546604Y4056888D01*
G01X2538730Y4054348D01*
G01X2535936Y4051554D01*
G01X2533396Y4046220D01*
G01X2533396Y4040886D01*
G01X2535936Y4035806D01*
G01X2538730Y4033012D01*
G01X2546604Y4030472D01*
G01X2570480Y4030472D01*
G01X2551938Y4030472D02*
G01X2533396Y4001262D01*
G01X2505456Y4046220D02*
G01X2500122Y4049014D01*
G01X2492248Y4056888D01*
G01X2492248Y4001262D01*
G01X2461768Y4043680D02*
G01X2461768Y4046220D01*
G01X2458974Y4051554D01*
G01X2456434Y4054348D01*
G01X2451100Y4056888D01*
G01X2440432Y4056888D01*
G01X2435098Y4054348D01*
G01X2432558Y4051554D01*
G01X2429764Y4046220D01*
G01X2429764Y4040886D01*
G01X2432558Y4035806D01*
G01X2437892Y4027678D01*
G01X2464308Y4001262D01*
G01X2427224Y4001262D01*
G01X1910080Y881634D02*
G01X1910080Y816610D01*
G01X1910080Y881634D02*
G01X1882140Y881634D01*
G01X1872996Y878586D01*
G01X1869948Y875538D01*
G01X1866646Y869188D01*
G01X1866646Y863092D01*
G01X1869948Y856996D01*
G01X1872996Y853948D01*
G01X1882140Y850646D01*
G01X1910080Y850646D01*
G01X1888490Y850646D02*
G01X1866646Y816610D01*
G01X1805686Y881634D02*
G01X1836420Y838454D01*
G01X1790192Y838454D01*
G01X1805686Y881634D02*
G01X1805686Y816610D01*
G01X1737534Y383995D02*
G01X1737534Y318971D01*
G01X1737534Y383995D02*
G01X1709594Y383995D01*
G01X1700450Y380947D01*
G01X1697402Y377899D01*
G01X1694100Y371549D01*
G01X1694100Y365453D01*
G01X1697402Y359357D01*
G01X1700450Y356309D01*
G01X1709594Y353007D01*
G01X1737534Y353007D01*
G01X1715944Y353007D02*
G01X1694100Y318971D01*
G01X1626790Y383995D02*
G01X1657778Y383995D01*
G01X1660826Y356309D01*
G01X1657778Y359357D01*
G01X1648634Y362405D01*
G01X1639236Y362405D01*
G01X1629838Y359357D01*
G01X1623742Y353007D01*
G01X1620694Y343863D01*
G01X1620694Y337513D01*
G01X1623742Y328369D01*
G01X1629838Y322019D01*
G01X1639236Y318971D01*
G01X1648634Y318971D01*
G01X1657778Y322019D01*
G01X1660826Y325321D01*
G01X1663874Y331417D01*
G01X4056380Y1161034D02*
G01X4056380Y1096010D01*
G01X4056380Y1161034D02*
G01X4028440Y1161034D01*
G01X4019296Y1157986D01*
G01X4016248Y1154938D01*
G01X4012946Y1148588D01*
G01X4012946Y1142492D01*
G01X4016248Y1136396D01*
G01X4019296Y1133348D01*
G01X4028440Y1130046D01*
G01X4056380Y1130046D01*
G01X4034790Y1130046D02*
G01X4012946Y1096010D01*
G01X3945636Y1151890D02*
G01X3948684Y1157986D01*
G01X3958082Y1161034D01*
G01X3964178Y1161034D01*
G01X3973576Y1157986D01*
G01X3979672Y1148588D01*
G01X3982720Y1133348D01*
G01X3982720Y1117854D01*
G01X3979672Y1105408D01*
G01X3973576Y1099058D01*
G01X3964178Y1096010D01*
G01X3961130Y1096010D01*
G01X3951986Y1099058D01*
G01X3945636Y1105408D01*
G01X3942588Y1114552D01*
G01X3942588Y1117854D01*
G01X3945636Y1126998D01*
G01X3951986Y1133348D01*
G01X3961130Y1136396D01*
G01X3964178Y1136396D01*
G01X3973576Y1133348D01*
G01X3979672Y1126998D01*
G01X3982720Y1117854D01*
G01X1126998Y5133340D02*
G01X1130046Y5139690D01*
G01X1136396Y5145786D01*
G01X1142492Y5148834D01*
G01X1154938Y5148834D01*
G01X1161034Y5145786D01*
G01X1167384Y5139690D01*
G01X1170432Y5133340D01*
G01X1173480Y5124196D01*
G01X1173480Y5108702D01*
G01X1170432Y5099304D01*
G01X1167384Y5093208D01*
G01X1161034Y5086858D01*
G01X1154938Y5083810D01*
G01X1142492Y5083810D01*
G01X1136396Y5086858D01*
G01X1130046Y5093208D01*
G01X1126998Y5099304D01*
G01X1066038Y5148834D02*
G01X1096772Y5105654D01*
G01X1050544Y5105654D01*
G01X1066038Y5148834D02*
G01X1066038Y5083810D01*
G01X779780Y1491234D02*
G01X779780Y1426210D01*
G01X779780Y1491234D02*
G01X751840Y1491234D01*
G01X742696Y1488186D01*
G01X739648Y1485138D01*
G01X736346Y1478788D01*
G01X736346Y1472692D01*
G01X739648Y1466596D01*
G01X742696Y1463548D01*
G01X751840Y1460246D01*
G01X779780Y1460246D01*
G01X758190Y1460246D02*
G01X736346Y1426210D01*
G01X706120Y1478788D02*
G01X700024Y1482090D01*
G01X690880Y1491234D01*
G01X690880Y1426210D01*
G01X642112Y1491234D02*
G01X651510Y1488186D01*
G01X657606Y1478788D01*
G01X660654Y1463548D01*
G01X660654Y1454150D01*
G01X657606Y1438656D01*
G01X651510Y1429258D01*
G01X642112Y1426210D01*
G01X636016Y1426210D01*
G01X626618Y1429258D01*
G01X620522Y1438656D01*
G01X617474Y1454150D01*
G01X617474Y1463548D01*
G01X620522Y1478788D01*
G01X626618Y1488186D01*
G01X636016Y1491234D01*
G01X642112Y1491234D01*
G04 Text End*

G04 PolygonModel Start*
G54D12*
G01X861723Y4725099D02*
G01X941725Y4725099D01*
G01X830737Y4836074D02*
G01X830737Y4756076D01*
G01X972703Y4836074D02*
G01X972703Y4756076D01*
G01X830156Y4893663D02*
G01X830156Y4973663D01*
G01X861139Y5004646D02*
G01X941136Y5004646D01*
G01X972116Y4893663D02*
G01X972116Y4973663D01*
G01X861139Y5004651D02*
G03X830156Y4973668I0J-30983D01*
G01X972122Y4973668D02*
G03X941136Y5004651I-30983J0D01*
G01X830737Y4756081D02*
G03X861723Y4725099I30983J0D01*
G01X941720Y4725099D02*
G03X972703Y4756081I0J30983D01*
G01X1052223Y4369499D02*
G01X1132225Y4369499D01*
G01X1021237Y4480474D02*
G01X1021237Y4400476D01*
G01X1163203Y4480474D02*
G01X1163203Y4400476D01*
G01X1020656Y4538063D02*
G01X1020656Y4618063D01*
G01X1051639Y4649046D02*
G01X1131636Y4649046D01*
G01X1162616Y4538063D02*
G01X1162616Y4618063D01*
G01X1051639Y4649051D02*
G03X1020656Y4618068I0J-30983D01*
G01X1162622Y4618068D02*
G03X1131636Y4649051I-30983J0D01*
G01X1021237Y4400481D02*
G03X1052223Y4369499I30983J0D01*
G01X1132220Y4369499D02*
G03X1163203Y4400481I0J30983D01*
G01X1703677Y5006360D02*
G01X1623675Y5006360D01*
G01X1734663Y4895385D02*
G01X1734663Y4975382D01*
G01X1592697Y4895385D02*
G01X1592697Y4975382D01*
G01X1735244Y4837796D02*
G01X1735244Y4757796D01*
G01X1704261Y4726813D02*
G01X1624264Y4726813D01*
G01X1593284Y4837796D02*
G01X1593284Y4757796D01*
G01X1704261Y4726808D02*
G03X1735244Y4757791I0J30983D01*
G01X1593279Y4757791D02*
G03X1624264Y4726808I30983J0D01*
G01X1734663Y4975377D02*
G03X1703677Y5006360I-30983J0D01*
G01X1623680Y5006360D02*
G03X1592697Y4975377I0J-30983D01*
G54D13*
G01X1097600Y1892300D02*
G01X1137600Y1892300D01*
G01X1193800Y1874101D02*
G01X1193800Y1816100D01*
G01X1070686Y1816100D02*
G01X1034801Y1816100D01*
G01X1034801Y1816100D02*
G01X1034801Y1874335D01*
G01X1193800Y1816100D02*
G01X1156914Y1816100D01*
G54D12*
G01X3657360Y349513D02*
G01X3657360Y429515D01*
G01X3546385Y318527D02*
G01X3626382Y318527D01*
G01X3546385Y460493D02*
G01X3626382Y460493D01*
G01X3488795Y317946D02*
G01X3408796Y317946D01*
G01X3377813Y348929D02*
G01X3377813Y428926D01*
G01X3488795Y459906D02*
G01X3408796Y459906D01*
G01X3377808Y348929D02*
G03X3408790Y317946I30983J0D01*
G01X3408790Y459911D02*
G03X3377808Y428926I0J-30983D01*
G01X3626377Y318527D02*
G03X3657360Y349513I0J30983D01*
G01X3657360Y429510D02*
G03X3626377Y460493I-30983J0D01*
G01X939102Y2017423D02*
G01X939102Y2097425D01*
G01X828126Y1986437D02*
G01X908124Y1986437D01*
G01X828126Y2128403D02*
G01X908124Y2128403D01*
G01X770537Y1985856D02*
G01X690537Y1985856D01*
G01X659554Y2016839D02*
G01X659554Y2096836D01*
G01X770537Y2127816D02*
G01X690537Y2127816D01*
G01X659549Y2016839D02*
G03X690532Y1985856I30983J0D01*
G01X690532Y2127822D02*
G03X659549Y2096836I0J-30983D01*
G01X908119Y1986437D02*
G03X939102Y2017423I0J30983D01*
G01X939102Y2097420D02*
G03X908119Y2128403I-30983J0D01*
G01X393701Y1101700D02*
G01X203201Y1101700D01*
G54D14*
G01X2731300Y4306801D02*
G01X2731300Y4176799D01*
G01X2831300Y4306801D02*
G01X2831300Y4176799D01*
G54D15*
G01X2758440Y4241800D02*
G01X2806700Y4241800D01*
G36*
G01X2781300Y4241800D02*
G01X2753360Y4218940D01*
G01X2809240Y4218940D01*
G01X2781300Y4241800D01*
G37*
G36*
G01X2781300Y4241800D02*
G01X2809240Y4264660D01*
G01X2753360Y4264660D01*
G01X2781300Y4241800D01*
G37*
G54D16*
G01X1107514Y1645201D02*
G01X1127686Y1645201D01*
G01X1027600Y1645201D02*
G01X1027687Y1645201D01*
G01X1157514Y1555199D02*
G01X1207600Y1555199D01*
G01X1027600Y1555199D02*
G01X1077686Y1555199D01*
G01X1027600Y1555199D02*
G01X1027600Y1645201D01*
G01X1207600Y1555199D02*
G01X1207600Y1645201D01*
G01X1207513Y1645201D02*
G01X1207600Y1645201D01*
G54D10*
G01X835640Y4551121D02*
G01X835640Y4647009D01*
G01X835640Y4647009D02*
G01X967760Y4647009D01*
G01X967760Y4647009D02*
G01X967760Y4551121D01*
G01X835640Y4465879D02*
G01X835640Y4369991D01*
G01X835640Y4369991D02*
G01X967760Y4369991D01*
G01X967760Y4369991D02*
G01X967760Y4465879D01*
G01X2976321Y929660D02*
G01X3072209Y929660D01*
G01X3072209Y929660D02*
G01X3072209Y797540D01*
G01X3072209Y797540D02*
G01X2976321Y797540D01*
G01X2891079Y929660D02*
G01X2795191Y929660D01*
G01X2795191Y929660D02*
G01X2795191Y797540D01*
G01X2795191Y797540D02*
G01X2891079Y797540D01*
G01X2976321Y751860D02*
G01X3072209Y751860D01*
G01X3072209Y751860D02*
G01X3072209Y619740D01*
G01X3072209Y619740D02*
G01X2976321Y619740D01*
G01X2891079Y751860D02*
G01X2795191Y751860D01*
G01X2795191Y751860D02*
G01X2795191Y619740D01*
G01X2795191Y619740D02*
G01X2891079Y619740D01*
G01X958945Y1616764D02*
G01X958945Y1520877D01*
G01X958945Y1520877D02*
G01X826825Y1520877D01*
G01X826825Y1520877D02*
G01X826825Y1616764D01*
G01X958945Y1702007D02*
G01X958945Y1797894D01*
G01X958945Y1797894D02*
G01X826825Y1797894D01*
G01X826825Y1797894D02*
G01X826825Y1702007D01*
G01X1216640Y4551121D02*
G01X1216640Y4647009D01*
G01X1216640Y4647009D02*
G01X1348760Y4647009D01*
G01X1348760Y4647009D02*
G01X1348760Y4551121D01*
G01X1216640Y4465879D02*
G01X1216640Y4369991D01*
G01X1216640Y4369991D02*
G01X1348760Y4369991D01*
G01X1348760Y4369991D02*
G01X1348760Y4465879D01*
G01X2954120Y1397379D02*
G01X2954120Y1802621D01*
G01X2954120Y1802621D02*
G01X2888321Y1802621D01*
G01X2645880Y1397379D02*
G01X2645880Y1802621D01*
G01X2645880Y1802621D02*
G01X2711679Y1802621D01*
G36*
G01X2961740Y1404999D02*
G01X2883241Y1404999D01*
G01X2883241Y1374519D01*
G01X2961740Y1374519D01*
G01X2961740Y1404999D01*
G37*
G36*
G01X2638260Y1404999D02*
G01X2638260Y1374519D01*
G01X2716759Y1374519D01*
G01X2716759Y1404999D01*
G01X2638260Y1404999D01*
G37*
G54D12*
G01X1599380Y1942895D02*
G01X1485608Y1942895D01*
G01X1690492Y1308111D02*
G01X1690492Y1891879D01*
G01X1940789Y1669995D02*
G01X1690792Y1669995D01*
G01X1940789Y1529995D02*
G01X1690792Y1529995D01*
G01X1940789Y1529995D02*
G01X1940789Y1669995D01*
G01X1599380Y1244395D02*
G01X1485608Y1244395D01*
G01X1398392Y1877333D02*
G01X1398392Y1891879D01*
G01X1398392Y1577333D02*
G01X1398392Y1772654D01*
G01X1398392Y1427333D02*
G01X1398392Y1472655D01*
G01X1398392Y1308111D02*
G01X1398392Y1322655D01*
G54D18*
G01X654576Y2299999D02*
G01X9990Y2299999D01*
G01X9990Y2299999D02*
G01X9990Y4100001D01*
G01X9990Y4100001D02*
G01X654576Y4100001D01*
G01X609991Y4100001D02*
G01X609991Y2299999D01*
G01X1985404Y4100001D02*
G01X2009991Y4100001D01*
G01X1835409Y4100001D02*
G01X1854578Y4100001D01*
G01X1685409Y4100001D02*
G01X1704579Y4100001D01*
G01X1535410Y4100001D02*
G01X1554579Y4100001D01*
G01X1385405Y4100001D02*
G01X1404577Y4100001D01*
G01X1235403Y4100001D02*
G01X1254577Y4100001D01*
G01X1085411Y4100001D02*
G01X1104577Y4100001D01*
G01X935408Y4100001D02*
G01X954578Y4100001D01*
G01X785409Y4100001D02*
G01X804578Y4100001D01*
G01X804578Y2299999D02*
G01X785409Y2299999D01*
G01X954578Y2299999D02*
G01X935408Y2299999D01*
G01X1104577Y2299999D02*
G01X1085411Y2299999D01*
G01X1254577Y2299999D02*
G01X1235403Y2299999D01*
G01X1404577Y2299999D02*
G01X1385405Y2299999D01*
G01X1554579Y2299999D02*
G01X1535410Y2299999D01*
G01X1704579Y2299999D02*
G01X1685409Y2299999D01*
G01X1854578Y2299999D02*
G01X1835409Y2299999D01*
G01X2009991Y4100001D02*
G01X2009991Y2299999D01*
G01X2009991Y2299999D02*
G01X1985404Y2299999D01*
G54D10*
G01X1231679Y4952479D02*
G01X1231679Y4782238D01*
G01X1536921Y4952479D02*
G01X1536921Y4782238D01*
G01X1431940Y4782238D02*
G01X1336660Y4782238D01*
G54D12*
G01X3307973Y1022979D02*
G01X3307973Y512972D01*
G01X3307973Y512997D02*
G01X3717980Y512997D01*
G01X3717980Y512997D02*
G01X3717980Y1023004D01*
G01X3432966Y1022979D02*
G01X3307973Y1022979D01*
G01X3592986Y1022979D02*
G01X3717980Y1022979D01*
G01X3432966Y1017975D02*
G03X3592986Y1017975I80010J37529D01*
G54D19*
G01X2632913Y4632497D02*
G01X2654076Y4632497D01*
G01X1945924Y4632497D02*
G01X1967087Y4632497D01*
G01X1850001Y4792497D02*
G01X1850001Y4788288D01*
G01X1850001Y4792497D02*
G01X1850001Y4936728D01*
G01X2749999Y4932497D02*
G01X2749999Y4787488D01*
G01X1849925Y5172618D02*
G01X1849925Y5170332D01*
G01X1849925Y5170332D02*
G01X1849925Y5312572D01*
G01X1849925Y5312572D02*
G01X2750101Y5312572D01*
G01X2750101Y5312572D02*
G01X2750101Y5172618D01*
G01X2259998Y4772497D02*
G01X2259998Y4752497D01*
G01X2399997Y4812497D02*
G01X2399997Y4772497D01*
G01X2399997Y4772497D02*
G01X2339997Y4772497D01*
G01X2339997Y4772497D02*
G01X2339997Y4752497D01*
G01X2199998Y4812497D02*
G01X2199998Y4772497D01*
G01X2199998Y4772497D02*
G01X2259998Y4772497D01*
G01X2198997Y4812497D02*
G01X2400998Y4812497D01*
G54D12*
G01X2018233Y5195821D02*
G01X2068017Y4945631D01*
G01X2068017Y4945631D02*
G01X2198065Y4945631D01*
G01X2198065Y4945631D02*
G01X2248103Y5195821D01*
G01X2248103Y5195821D02*
G01X2198573Y5195821D01*
G01X2198573Y5195821D02*
G01X2158695Y4985763D01*
G01X2158695Y4985763D02*
G01X2105863Y4985763D01*
G01X2105863Y4985763D02*
G01X2065731Y5195821D01*
G01X2065731Y5195821D02*
G01X2018233Y5195821D01*
G01X2048205Y5065773D02*
G01X2088083Y5065773D01*
G01X2178141Y5065742D02*
G01X2218141Y5065742D01*
G01X2505819Y5065234D02*
G01X2545819Y5065234D01*
G01X2375882Y5065265D02*
G01X2415760Y5065265D01*
G01X2345910Y5195313D02*
G01X2395694Y4945123D01*
G01X2395694Y4945123D02*
G01X2525742Y4945123D01*
G01X2525742Y4945123D02*
G01X2575780Y5195313D01*
G01X2575780Y5195313D02*
G01X2526250Y5195313D01*
G01X2526250Y5195313D02*
G01X2486372Y4985255D01*
G01X2486372Y4985255D02*
G01X2433540Y4985255D01*
G01X2433540Y4985255D02*
G01X2393408Y5195313D01*
G01X2393408Y5195313D02*
G01X2345910Y5195313D01*
G54D14*
G01X2286800Y4306801D02*
G01X2286800Y4176799D01*
G01X2386800Y4306801D02*
G01X2386800Y4176799D01*
G54D15*
G01X2313940Y4241800D02*
G01X2362200Y4241800D01*
G36*
G01X2336800Y4241800D02*
G01X2308860Y4218940D01*
G01X2364740Y4218940D01*
G01X2336800Y4241800D01*
G37*
G36*
G01X2336800Y4241800D02*
G01X2364740Y4264660D01*
G01X2308860Y4264660D01*
G01X2336800Y4241800D01*
G37*
G54D14*
G01X2591600Y4306801D02*
G01X2591600Y4176799D01*
G01X2691600Y4306801D02*
G01X2691600Y4176799D01*
G54D15*
G01X2618740Y4241800D02*
G01X2667000Y4241800D01*
G36*
G01X2641600Y4241800D02*
G01X2613660Y4218940D01*
G01X2669540Y4218940D01*
G01X2641600Y4241800D01*
G37*
G36*
G01X2641600Y4241800D02*
G01X2669540Y4264660D01*
G01X2613660Y4264660D01*
G01X2641600Y4241800D01*
G37*
G54D10*
G01X1037741Y416540D02*
G01X892499Y416540D01*
G01X892499Y416540D02*
G01X892499Y519702D01*
G01X1037741Y721782D02*
G01X892499Y721782D01*
G01X892499Y721782D02*
G01X892499Y618620D01*
G01X1037741Y523621D02*
G01X1037741Y614700D01*
G01X1418741Y416540D02*
G01X1273499Y416540D01*
G01X1273499Y416540D02*
G01X1273499Y519702D01*
G01X1418741Y721782D02*
G01X1273499Y721782D01*
G01X1273499Y721782D02*
G01X1273499Y618620D01*
G01X1418741Y523621D02*
G01X1418741Y614700D01*
G01X1007741Y914621D02*
G01X1103629Y914621D01*
G01X1103629Y914621D02*
G01X1103629Y782500D01*
G01X1103629Y782500D02*
G01X1007741Y782500D01*
G01X922499Y914621D02*
G01X826611Y914621D01*
G01X826611Y914621D02*
G01X826611Y782500D01*
G01X826611Y782500D02*
G01X922499Y782500D01*
G01X2250460Y4199179D02*
G01X2250460Y4103291D01*
G01X2250460Y4103291D02*
G01X2118340Y4103291D01*
G01X2118340Y4103291D02*
G01X2118340Y4199179D01*
G01X2250460Y4284421D02*
G01X2250460Y4380309D01*
G01X2250460Y4380309D02*
G01X2118340Y4380309D01*
G01X2118340Y4380309D02*
G01X2118340Y4284421D01*
G01X2555260Y4199179D02*
G01X2555260Y4103291D01*
G01X2555260Y4103291D02*
G01X2423140Y4103291D01*
G01X2423140Y4103291D02*
G01X2423140Y4199179D01*
G01X2555260Y4284421D02*
G01X2555260Y4380309D01*
G01X2555260Y4380309D02*
G01X2423140Y4380309D01*
G01X2423140Y4380309D02*
G01X2423140Y4284421D01*
G01X1506699Y782500D02*
G01X1410811Y782500D01*
G01X1410811Y782500D02*
G01X1410811Y914621D01*
G01X1410811Y914621D02*
G01X1506699Y914621D01*
G01X1591941Y782500D02*
G01X1687829Y782500D01*
G01X1687829Y782500D02*
G01X1687829Y914621D01*
G01X1687829Y914621D02*
G01X1591941Y914621D01*
G01X1572160Y611782D02*
G01X1572160Y707669D01*
G01X1572160Y707669D02*
G01X1704280Y707669D01*
G01X1704280Y707669D02*
G01X1704280Y611782D01*
G01X1572160Y526539D02*
G01X1572160Y430652D01*
G01X1572160Y430652D02*
G01X1704280Y430652D01*
G01X1704280Y430652D02*
G01X1704280Y526539D01*
G01X4054319Y867569D02*
G01X4054319Y771681D01*
G01X4054319Y771681D02*
G01X3922198Y771681D01*
G01X3922198Y771681D02*
G01X3922198Y867569D01*
G01X4054319Y952811D02*
G01X4054319Y1048699D01*
G01X4054319Y1048699D02*
G01X3922198Y1048699D01*
G01X3922198Y1048699D02*
G01X3922198Y952811D01*
G54D12*
G01X1052223Y4728357D02*
G01X1132225Y4728357D01*
G01X1021237Y4839332D02*
G01X1021237Y4759335D01*
G01X1163203Y4839332D02*
G01X1163203Y4759335D01*
G01X1020656Y4896922D02*
G01X1020656Y4976922D01*
G01X1051639Y5007905D02*
G01X1131636Y5007905D01*
G01X1162616Y4896922D02*
G01X1162616Y4976922D01*
G01X1051639Y5007910D02*
G03X1020656Y4976927I0J-30983D01*
G01X1162622Y4976927D02*
G03X1131636Y5007910I-30983J0D01*
G01X1021237Y4759340D02*
G03X1052223Y4728357I30983J0D01*
G01X1132220Y4728357D02*
G03X1163203Y4759340I0J30983D01*
G54D10*
G01X626825Y1702007D02*
G01X626825Y1797894D01*
G01X626825Y1797894D02*
G01X758946Y1797894D01*
G01X758946Y1797894D02*
G01X758946Y1702007D01*
G01X626825Y1616764D02*
G01X626825Y1520877D01*
G01X626825Y1520877D02*
G01X758946Y1520877D01*
G01X758946Y1520877D02*
G01X758946Y1616764D01*

G04 Rect Start*
G54D12*
G01X392101Y898601D02*
G01X192101Y898601D01*
G01X192101Y2098599D01*
G01X392101Y2098599D01*
G01X392101Y898601D01*
G04 Rect End*

G04 Circle Start*
G54D16*
G01X1009891Y1676197D02*
G03X1023303Y1676197I6706J0D01*
G03X1009891Y1676197I-6706J0D01*
G54D12*
G01X2709998Y1600003D02*
G03X2889997Y1600003I90000J0D01*
G03X2709998Y1600003I-90000J0D01*
G54D20*
G01X558406Y4177900D02*
G03X608394Y4177900I24994J0D01*
G03X558406Y4177900I-24994J0D01*
G54D21*
G01X1204189Y4981659D02*
G03X1234211Y4981659I15011J0D01*
G03X1204189Y4981659I-15011J0D01*
G54D12*
G01X3745970Y1070985D02*
G03X3780006Y1070985I17018J0D01*
G03X3745970Y1070985I-17018J0D01*
G04 Circle End*

M02*

